<svg xmlns="http://www.w3.org/2000/svg" width="321.687" height="195.301" viewBox="0 0 321.687 195.301">
  <g id="_403" data-name="403" transform="translate(-606.187 -179.492)">
    <g id="freepik--Character--inject-2" transform="translate(842.236 180)">
      <path id="Path_8727" data-name="Path 8727" d="M179.178,226.625l-15.744-1.036v-.257l-1.937.129-1.93-.129v.257l-15.744,1.036-11.614,95.482h11.614l17.289-76.129h.778l17.289,76.129h11.614Z" transform="translate(-118.769 -145.092)" fill="#868689" stroke="#263238" stroke-linecap="round" stroke-linejoin="round" stroke-width="0.988"/>
      <path id="Path_8728" data-name="Path 8728" d="M127.171,359.151l-2.838,4.388-8.776,3.873a2.991,2.991,0,0,0-1.544,2.58v3.352h25.029a33.225,33.225,0,0,0,0-5.418c-.257-2.58-.257-8.776-.257-8.776Z" transform="translate(-113.731 -182.142)" fill="#4c4c4c" stroke="#263238" stroke-linecap="round" stroke-linejoin="round" stroke-width="0.988"/>
      <path id="Path_8729" data-name="Path 8729" d="M114.013,374.855v2.837h25.029s.116-1.226.116-2.837Z" transform="translate(-113.731 -186.49)" fill="#263238" stroke="#263238" stroke-linecap="round" stroke-linejoin="round" stroke-width="0.988"/>
      <path id="Path_8730" data-name="Path 8730" d="M208.566,359.151l2.838,4.388,8.776,3.873a2.991,2.991,0,0,1,1.544,2.58v3.352H196.695a33.221,33.221,0,0,1,0-5.418c.257-2.58.257-8.776.257-8.776Z" transform="translate(-136.592 -182.142)" fill="#5b618a" stroke="#263238" stroke-linecap="round" stroke-linejoin="round" stroke-width="0.988"/>
      <path id="Path_8731" data-name="Path 8731" d="M221.734,374.855v2.837H196.693s-.11-1.226-.116-2.837Z" transform="translate(-136.59 -186.49)" fill="#263238" stroke="#263238" stroke-linecap="round" stroke-linejoin="round" stroke-width="0.988"/>
      <path id="Path_8732" data-name="Path 8732" d="M132.009,165.693s-18.386,25.838-18.386,27.732,2.923,16.516,7.569,17.889,7.226-1.03,8.084-5.847-2.065-11.7-2.065-11.7l8.58-7.74Z" transform="translate(-113.623 -128.581)" fill="#868689" stroke="#263238" stroke-linecap="round" stroke-linejoin="round" stroke-width="0.988"/>
      <path id="Path_8734" data-name="Path 8734" d="M142.915,162.369l-3.867,1.171L145.14,204.2h36.207l5.51-40.43-4.921-1.875-18.165-3.984Z" transform="translate(-120.663 -126.427)" fill="#868689" stroke="#263238" stroke-linecap="round" stroke-linejoin="round" stroke-width="0.988"/>
      <path id="Path_8735" data-name="Path 8735" d="M195.092,182.691l-.815,5.859-6.331,1.52L181.5,187.5l.472-5.277Z" transform="translate(-132.416 -133.156)" fill="#263238" stroke="#263238" stroke-linecap="round" stroke-linejoin="round" stroke-width="0.988"/>
      <circle id="Ellipse_243" data-name="Ellipse 243" cx="1.115" cy="1.115" r="1.115" transform="translate(54.826 53.164)" fill="#4c4c4c" stroke="#263238" stroke-linecap="round" stroke-linejoin="round" stroke-width="0.988"/>
      <path id="Path_8736" data-name="Path 8736" d="M167.529,166.4l3.4,3.984-4.339,27.652,4.572,7.268,5.393-7.618L171.985,170.5l3.867-3.751-4.1-5.271Z" transform="translate(-128.289 -127.414)" fill="#5b618a" stroke="#263238" stroke-linecap="round" stroke-linejoin="round" stroke-width="0.988"/>
      <path id="Path_8737" data-name="Path 8737" d="M157.387,158.727,141.8,162.594l.472,1.875,15.229-4.223Z" transform="translate(-121.425 -126.652)" fill="#263238" stroke="#263238" stroke-linecap="round" stroke-linejoin="round" stroke-width="0.988"/>
      <path id="Path_8738" data-name="Path 8738" d="M180.972,158.075l15.585,3.867-.466,1.875L180.855,159.6Z" transform="translate(-132.238 -126.471)" fill="#263238" stroke="#263238" stroke-linecap="round" stroke-linejoin="round" stroke-width="0.988"/>
      <path id="Path_8739" data-name="Path 8739" d="M201.46,163.422a42.335,42.335,0,0,1,9.505,3.4c3.61,2.065,4.474,6.711,2.409,11.871s-8.427,4.474-11.35,3.064-3.787-6.533-3.273-8.77" transform="translate(-137.154 -127.952)" fill="#868689" stroke="#263238" stroke-linecap="round" stroke-linejoin="round" stroke-width="0.988"/>
      <path id="Path_8740" data-name="Path 8740" d="M163.656,155.837l-1.759,1.171.466,11.834,7.618-5.387,7.967,5.5.7-11.718-2.108-1.759Z" transform="translate(-126.989 -125.753)" fill="#868689" stroke="#263238" stroke-linecap="round" stroke-linejoin="round" stroke-width="0.988"/>
      <path id="Path_8741" data-name="Path 8741" d="M177.153,130.378s4.327-1.054,5.142-5.381-6.98-9.591-12.386-10.523-13.33,4.676-14.617,8.537,3.738,7.716,9.119,8.537S177.153,130.378,177.153,130.378Z" transform="translate(-125.104 -114.371)" fill="#5b618a" stroke="#263238" stroke-linecap="round" stroke-linejoin="round" stroke-width="0.988"/>
      <path id="Path_8742" data-name="Path 8742" d="M162.142,136.806s-2.341-3.628-2.923-.472,1.869,4.56,2.923,4.443S162.142,136.806,162.142,136.806Z" transform="translate(-126.223 -120.095)" fill="#ffbf9d" stroke="#263238" stroke-linecap="round" stroke-linejoin="round" stroke-width="0.988"/>
      <path id="Path_8743" data-name="Path 8743" d="M184.137,136.806s2.341-3.628,2.923-.472-1.839,4.56-2.923,4.443S184.137,136.806,184.137,136.806Z" transform="translate(-133.013 -120.095)" fill="#ffbf9d" stroke="#263238" stroke-linecap="round" stroke-linejoin="round" stroke-width="0.988"/>
      <path id="Path_8744" data-name="Path 8744" d="M164.007,147.379v7.734l6.558,6.1,7.385-6.331v-7.262Z" transform="translate(-127.573 -123.51)" fill="#ffbf9d" stroke="#263238" stroke-linecap="round" stroke-linejoin="round" stroke-width="0.988"/>
      <path id="Path_8745" data-name="Path 8745" d="M162.61,132.225s-.355,7.25.233,9.591,4.443,7.25,7.483,8.3,7.25-5.264,8.188-7.354.582-10.995.582-10.995-1.281-3.064-3.855-3.971S164.712,125.238,162.61,132.225Z" transform="translate(-127.157 -117.855)" fill="#ffbf9d" stroke="#263238" stroke-linecap="round" stroke-linejoin="round" stroke-width="0.988"/>
      <path id="Path_8746" data-name="Path 8746" d="M168.94,139.183c0,.552-.251,1-.564,1s-.564-.447-.564-1,.251-1,.564-1S168.94,138.631,168.94,139.183Z" transform="translate(-128.626 -120.964)" fill="#263238"/>
      <path id="Path_8747" data-name="Path 8747" d="M178.864,139.183c0,.552-.251,1-.564,1s-.564-.447-.564-1,.251-1,.564-1S178.864,138.631,178.864,139.183Z" transform="translate(-131.374 -120.964)" fill="#263238"/>
      <path id="Path_8748" data-name="Path 8748" d="M170.688,143.422a.784.784,0,1,0,0,1.526,1.066,1.066,0,0,0,.68-.227,1.967,1.967,0,0,0,2.954.049,1.1,1.1,0,0,0,.613.178.784.784,0,1,0,0-1.526" transform="translate(-129.155 -122.408)" fill="#ffbf9d" stroke="#263238" stroke-linecap="round" stroke-linejoin="round" stroke-width="0.988"/>
      <line id="Line_46" data-name="Line 46" x2="2.445" transform="translate(42.465 25.812)" fill="#ccc" stroke="#263238" stroke-linecap="round" stroke-linejoin="round" stroke-width="0.988"/>
      <path id="Path_8749" data-name="Path 8749" d="M162.278,135.352s.086,2.353.87,1.741,1.042-4.609.349-5.13S162.278,134.139,162.278,135.352Z" transform="translate(-127.094 -119.224)" fill="#263238" stroke="#263238" stroke-linecap="round" stroke-linejoin="round" stroke-width="0.988"/>
      <path id="Path_8750" data-name="Path 8750" d="M183.152,135.352s.092,2.353.87,1.741,1.048-4.609.349-5.13S183.152,134.139,183.152,135.352Z" transform="translate(-132.873 -119.224)" fill="#263238" stroke="#263238" stroke-linecap="round" stroke-linejoin="round" stroke-width="0.988"/>
      <path id="Path_8751" data-name="Path 8751" d="M162.251,131.729s.264.214.257.319a18.919,18.919,0,0,0,7.967,1.967,16.278,16.278,0,0,0,8.58-2.1c0-.313,0-.5,0-.5-.1-2.739-2.139-4.566-4.658-5.264a11.994,11.994,0,0,0-7.5.374,7.354,7.354,0,0,0-3.107,2.237C163.477,129.1,161.822,131.386,162.251,131.729Z" transform="translate(-127.067 -117.512)" fill="#5b618a" stroke="#263238" stroke-linecap="round" stroke-linejoin="round" stroke-width="0.988"/>
      <path id="Path_8752" data-name="Path 8752" d="M162.651,134.243a27.694,27.694,0,0,0,7.967.582c5.032-.233,8.531-.582,8.531-.582a13.875,13.875,0,0,1-8.457,3.714,9.279,9.279,0,0,1-8.041-3.714Z" transform="translate(-127.197 -119.873)" fill="#5b618a" stroke="#263238" stroke-linecap="round" stroke-linejoin="round" stroke-width="0.988"/>
      <path id="Path_8753" data-name="Path 8753" d="M144.887,182.691l.815,5.859,6.331,1.52,6.441-2.574-.466-5.277Z" transform="translate(-122.279 -133.156)" fill="#263238" stroke="#263238" stroke-linecap="round" stroke-linejoin="round" stroke-width="0.988"/>
      <circle id="Ellipse_244" data-name="Ellipse 244" cx="1.115" cy="1.115" r="1.115" transform="translate(28.228 53.164)" fill="#4c4c4c" stroke="#263238" stroke-linecap="round" stroke-linejoin="round" stroke-width="0.988"/>
      <rect id="Rectangle_633" data-name="Rectangle 633" width="37.157" height="5.847" transform="translate(23.938 77.402)" fill="#5b618a" stroke="#263238" stroke-linecap="round" stroke-linejoin="round" stroke-width="0.988"/>
      <rect id="Rectangle_634" data-name="Rectangle 634" width="11.356" height="7.226" rx="2.263" transform="translate(21.358 77.745)" fill="#5b618a" stroke="#263238" stroke-linecap="round" stroke-linejoin="round" stroke-width="0.988"/>
      <rect id="Rectangle_635" data-name="Rectangle 635" width="11.356" height="7.226" rx="2.263" transform="translate(50.946 77.745)" fill="#5b618a" stroke="#263238" stroke-linecap="round" stroke-linejoin="round" stroke-width="0.988"/>
      <rect id="Rectangle_636" data-name="Rectangle 636" width="8.084" height="5.16" transform="translate(39.075 77.745)" fill="#fff" stroke="#263238" stroke-linecap="round" stroke-linejoin="round" stroke-width="0.988"/>
      <path id="Path_8754" data-name="Path 8754" d="M129.746,203.133s-5.16-.343-7.054-3.616" transform="translate(-116.134 -137.945)" fill="none" stroke="#263238" stroke-linecap="round" stroke-linejoin="round" stroke-width="0.988"/>
      <ellipse id="Ellipse_245" data-name="Ellipse 245" cx="8.519" cy="8.948" rx="8.519" ry="8.948" transform="translate(62.468 32.155)" fill="#868689" stroke="#263238" stroke-linecap="round" stroke-linejoin="round" stroke-width="0.988"/>
      <ellipse id="Ellipse_246" data-name="Ellipse 246" cx="6.668" cy="5.975" rx="6.668" ry="5.975" transform="translate(64.319 30.598)" fill="#868689" stroke="#263238" stroke-linecap="round" stroke-linejoin="round" stroke-width="0.988"/>
      <ellipse id="Ellipse_247" data-name="Ellipse 247" cx="6.668" cy="5.975" rx="6.668" ry="5.975" transform="translate(64.319 26.204)" fill="#ffbf9d" stroke="#263238" stroke-linecap="round" stroke-linejoin="round" stroke-width="0.988"/>
      <path id="Path_8755" data-name="Path 8755" d="M196.974,136.575s.116,8.813.564,11.411,2.261,5.988,4.75,5.988a15.647,15.647,0,0,0,4.86-.9,10.493,10.493,0,0,0,5.761,1.128c2.825-.454,2.372-4.406,2.372-6.129s-.337-14.463-.337-14.463a1.231,1.231,0,0,0-.907-1.465,9.682,9.682,0,0,0-1.691-.227V129.2a2.059,2.059,0,0,0-1.924-.9c-1.465,0-1.581.337-1.581.337V126.15s-1.226-1.98-2.825-1.017a2.255,2.255,0,0,0-1.128,1.808l-.116,2.378s-2.709-1.017-2.936.564-.68,11.326-.68,11.326a25.039,25.039,0,0,0-.9-4.523C199.689,135.215,196.974,135.215,196.974,136.575Z" transform="translate(-136.7 -117.278)" fill="#ffbf9d" stroke="#263238" stroke-linecap="round" stroke-linejoin="round" stroke-width="0.988"/>
      <line id="Line_47" data-name="Line 47" x2="0.227" y2="10.394" transform="translate(68.07 12.066)" fill="none" stroke="#263238" stroke-linecap="round" stroke-linejoin="round" stroke-width="0.988"/>
      <line id="Line_48" data-name="Line 48" x2="0.116" y2="11.185" transform="translate(72.139 11.385)" fill="none" stroke="#263238" stroke-linecap="round" stroke-linejoin="round" stroke-width="0.988"/>
      <line id="Line_49" data-name="Line 49" x1="0.227" y2="7.795" transform="translate(75.418 14.664)" fill="none" stroke="#263238" stroke-linecap="round" stroke-linejoin="round" stroke-width="0.988"/>
      <line id="Line_50" data-name="Line 50" x2="10.284" y2="0.447" transform="translate(66.605 22.349)" fill="none" stroke="#263238" stroke-linecap="round" stroke-linejoin="round" stroke-width="0.988"/>
      <path id="Path_8756" data-name="Path 8756" d="M202.754,147.464a2.764,2.764,0,0,0,1.109,2.194c1.115.7,3.628,2.513,3.9,5.442" transform="translate(-138.301 -123.533)" fill="none" stroke="#263238" stroke-linecap="round" stroke-linejoin="round" stroke-width="0.988"/>
    </g>
    <path id="Path_8722" data-name="Path 8722" d="M135.817,36.941l.757-2.333A8.064,8.064,0,0,0,121.2,29.73l-.794,2.377a4.509,4.509,0,0,0-5,3.09l-4.378,13.822a4.516,4.516,0,0,0,2.958,5.666l14.347,4.541A4.516,4.516,0,0,0,134,56.285l4.378-13.822a4.516,4.516,0,0,0-2.558-5.522Zm-10.244,12.89-3.753-1.188,1.445-2.5a2.4,2.4,0,1,1,2.5.738C125.685,48,125.572,49.831,125.572,49.831ZM134.166,36.4,122.1,32.582l.769-2.314a6.329,6.329,0,0,1,12.071,3.778Z" transform="translate(704.578 258.341)" fill="#f5f5f5"/>
    <g id="freepik--Padlock--inject-5" transform="translate(606.187 184.316)">
      <path id="Path_8721" data-name="Path 8721" d="M36.061,16.859,35.075,12.2A15.627,15.627,0,1,0,4.584,19.066l1,4.746A8.739,8.739,0,0,0,.221,33.91l6.214,27.4a8.747,8.747,0,0,0,10.463,6.6l28.446-6.432a8.747,8.747,0,0,0,6.6-10.455l-6.214-27.4A8.731,8.731,0,0,0,36.061,16.859ZM31.525,48.443l-7.442,1.678-.054-5.632a4.661,4.661,0,1,1,4.9-1.2C29.925,45.251,31.525,48.443,31.525,48.443Zm1.251-30.885L8.866,23l-.979-4.661A12.26,12.26,0,0,1,31.8,12.9Z" transform="matrix(0.978, -0.208, 0.208, 0.978, 0, 10.845)" fill="#ebebeb"/>
    </g>
    <g id="_404_Plane" data-name="404/Plane" transform="translate(611.953 215.153)">
      <g id="_404" data-name="404" transform="translate(0 0)">
        <g id="freepik--Number--inject-1" transform="translate(0 0)">
          <path id="Path_7720" data-name="Path 7720" d="M99.306,348.561V310.383H52.88V287.742L93.365,193.15h30.89v96.13h15.921v21.1H124.254v38.177Zm-24.17-59.29h24.17V221.733Z" transform="translate(-52.88 -191.035)" fill="#9293b1"/>
          <path id="Path_7726" data-name="Path 7726" d="M111.946,348.561V310.383H65.51V287.742l40.485-94.592h30.9v96.13h15.921v21.1H136.894v38.177ZM87.766,289.271h24.179V221.733Z" transform="translate(-53.947 -191.035)" fill="#5b618a"/>
          <g id="Group_807" data-name="Group 807" transform="translate(106.118)">
            <path id="Path_7722" data-name="Path 7722" d="M204.015,350.69q-13.623,0-22.54-5.759a35.633,35.633,0,0,1-13.431-15.921,57.051,57.051,0,0,1-4.514-23.41V236.716q0-13.623,4.321-23.886a34.405,34.405,0,0,1,13.239-16.022q8.926-5.749,22.888-5.759t22.934,5.759A34.406,34.406,0,0,1,240.15,212.83q4.376,10.217,4.376,23.886V305.6a57.312,57.312,0,0,1-4.5,23.41,35.705,35.705,0,0,1-13.431,15.921Q217.638,350.69,204.015,350.69Zm0-22.833q5.951,0,8.826-3.662a19.922,19.922,0,0,0,3.845-8.826A56.563,56.563,0,0,0,217.6,305.2V237.083a65.677,65.677,0,0,0-.861-10.648,19.116,19.116,0,0,0-3.708-8.881q-2.875-3.662-9.018-3.662T195,217.555a19.226,19.226,0,0,0-3.735,8.926,65.687,65.687,0,0,0-.87,10.648v68.115a50.876,50.876,0,0,0,1.035,10.144,20.655,20.655,0,0,0,3.928,8.826Q198.265,327.857,204.015,327.857Z" transform="translate(-162.815 -191.05)" fill="#5b618a" opacity="0.42"/>
            <path id="Path_7728" data-name="Path 7728" d="M216.655,350.69q-13.623,0-22.549-5.759a35.705,35.705,0,0,1-13.431-15.921,57.352,57.352,0,0,1-4.5-23.41V236.716q0-13.623,4.312-23.886a34.479,34.479,0,0,1,13.248-16.022q8.917-5.75,22.888-5.759t22.888,5.759a34.479,34.479,0,0,1,13.248,16.022q4.312,10.263,4.312,23.886V305.6a57.312,57.312,0,0,1-4.5,23.41,35.705,35.705,0,0,1-13.376,15.921Q230.278,350.69,216.655,350.69Zm0-22.833q5.951,0,8.826-3.662a19.8,19.8,0,0,0,3.836-8.826,55.765,55.765,0,0,0,.961-10.171V237.083a65.679,65.679,0,0,0-.861-10.648,19.117,19.117,0,0,0-3.744-8.926q-2.884-3.662-9.018-3.662t-9.018,3.662a19.116,19.116,0,0,0-3.744,8.926,65.68,65.68,0,0,0-.861,10.648V305.2a50.854,50.854,0,0,0,1.053,10.171,20.663,20.663,0,0,0,3.937,8.826Q210.905,327.857,216.655,327.857Z" transform="translate(-163.883 -191.05)" fill="#5b618a"/>
            <g id="freepik--Padlock--inject-4" transform="translate(0 0)">
              <g id="Group_824" data-name="Group 824" transform="translate(78.45 52.424)">
                <path id="Path_8512" data-name="Path 8512" d="M351.4,204.128a3.5,3.5,0,0,0-4.708-1.557l-4.76,2.4a3.506,3.506,0,0,0-1.557,4.711h0a3.506,3.506,0,0,0,4.708,1.557l4.763-2.4a3.5,3.5,0,0,0,1.555-4.711Zm-2.268,3.237-4.718,2.38a1.871,1.871,0,1,1-1.684-3.34l4.724-2.38a1.871,1.871,0,0,1,1.684,3.34Z" transform="translate(-339.934 -200.564)" fill="#ffc100" stroke="#5b618a" stroke-width="1"/>
                <path id="Path_8514" data-name="Path 8514" d="M351.221,204.005s.016.023.042.073l.106.226q.057.153.132.382a3.677,3.677,0,0,1,.1.545,3.518,3.518,0,0,1-.161,1.5,3.687,3.687,0,0,1-.418.851,3.774,3.774,0,0,1-.721.779,5.538,5.538,0,0,1-1,.594l-1.121.571-2.479,1.254a8.762,8.762,0,0,1-1.376.625,3.472,3.472,0,0,1-1.578.093,3.517,3.517,0,0,1-1.511-.628,3.651,3.651,0,0,1-1.1-1.285,3.613,3.613,0,0,1-.379-1.643,3.53,3.53,0,0,1,.392-1.588,3.483,3.483,0,0,1,1.015-1.215,9.009,9.009,0,0,1,1.321-.732l2.484-1.246,1.124-.561a5.638,5.638,0,0,1,1.077-.454,3.776,3.776,0,0,1,1.059-.112,3.691,3.691,0,0,1,.932.169,3.543,3.543,0,0,1,1.3.763,3.913,3.913,0,0,1,.374.4c.1.13.171.241.231.335l.117.218a.244.244,0,0,1,.034.078,3.921,3.921,0,0,0-.792-1,3.551,3.551,0,0,0-1.3-.732,3.712,3.712,0,0,0-.914-.156,3.81,3.81,0,0,0-1.038.119,5.476,5.476,0,0,0-1.054.454l-1.108.574-2.479,1.256a8.976,8.976,0,0,0-1.3.724,3.374,3.374,0,0,0-.976,1.171,3.441,3.441,0,0,0,1.043,4.35,3.374,3.374,0,0,0,1.456.607,3.335,3.335,0,0,0,1.521-.086,8.975,8.975,0,0,0,1.355-.613l2.481-1.243,1.126-.563a5.641,5.641,0,0,0,.994-.576,3.875,3.875,0,0,0,.709-.758,3.763,3.763,0,0,0,.426-.838,3.5,3.5,0,0,0,.179-1.469A4.028,4.028,0,0,0,351.221,204.005Z" transform="translate(-339.76 -200.441)" fill="#ffc100" stroke="#5b618a" stroke-width="1"/>
                <path id="Path_8515" data-name="Path 8515" d="M381.6,197.8l-8.129,3.8a.911.911,0,0,1-1.215-.439h0a.914.914,0,0,1,.441-1.215l8.126-3.807a.914.914,0,0,1,1.215.441h0a.911.911,0,0,1-.439,1.215Z" transform="translate(-363.757 -196.019)" fill="#ffc100" stroke="#5b618a" stroke-width="1"/>
                <path id="Path_8516" data-name="Path 8516" d="M381.412,197.688a1.12,1.12,0,0,0,.192-.14.893.893,0,0,0-.169-1.461.877.877,0,0,0-.633-.067,2.123,2.123,0,0,0-.335.143l-.353.169-7.576,3.569a.849.849,0,0,0,.283,1.612.911.911,0,0,0,.519-.114l.519-.239.986-.459,3.416-1.583,2.307-1.056.631-.283.164-.07a.233.233,0,0,1,.06-.018l-.052.031-.161.083-.62.3-2.289,1.1-3.4,1.609-.984.465-.519.239a1.038,1.038,0,0,1-.587.127.978.978,0,0,1-.327-1.861l7.592-3.535.356-.164a2.105,2.105,0,0,1,.353-.145.953.953,0,0,1,.688.086.937.937,0,0,1,.488.947.921.921,0,0,1-.335.6A.721.721,0,0,1,381.412,197.688Z" transform="translate(-363.57 -195.907)" fill="#ffc100" stroke="#5b618a" stroke-width="1"/>
              </g>
              <g id="Group_825" data-name="Group 825" transform="translate(63.02 59.778)">
                <path id="Path_8512-2" data-name="Path 8512" d="M351.4,204.128a3.5,3.5,0,0,0-4.708-1.557l-4.76,2.4a3.506,3.506,0,0,0-1.557,4.711h0a3.506,3.506,0,0,0,4.708,1.557l4.763-2.4a3.5,3.5,0,0,0,1.555-4.711Zm-2.268,3.237-4.718,2.38a1.871,1.871,0,1,1-1.684-3.34l4.724-2.38a1.871,1.871,0,0,1,1.684,3.34Z" transform="translate(-339.934 -200.564)" fill="#ffc100" stroke="#5b618a" stroke-width="1"/>
                <path id="Path_8514-2" data-name="Path 8514" d="M351.221,204.005s.016.023.042.073l.106.226q.057.153.132.382a3.677,3.677,0,0,1,.1.545,3.518,3.518,0,0,1-.161,1.5,3.687,3.687,0,0,1-.418.851,3.774,3.774,0,0,1-.721.779,5.538,5.538,0,0,1-1,.594l-1.121.571-2.479,1.254a8.762,8.762,0,0,1-1.376.625,3.472,3.472,0,0,1-1.578.093,3.517,3.517,0,0,1-1.511-.628,3.651,3.651,0,0,1-1.1-1.285,3.613,3.613,0,0,1-.379-1.643,3.53,3.53,0,0,1,.392-1.588,3.483,3.483,0,0,1,1.015-1.215,9.009,9.009,0,0,1,1.321-.732l2.484-1.246,1.124-.561a5.638,5.638,0,0,1,1.077-.454,3.776,3.776,0,0,1,1.059-.112,3.691,3.691,0,0,1,.932.169,3.543,3.543,0,0,1,1.3.763,3.913,3.913,0,0,1,.374.4c.1.13.171.241.231.335l.117.218a.244.244,0,0,1,.034.078,3.921,3.921,0,0,0-.792-1,3.551,3.551,0,0,0-1.3-.732,3.712,3.712,0,0,0-.914-.156,3.81,3.81,0,0,0-1.038.119,5.476,5.476,0,0,0-1.054.454l-1.108.574-2.479,1.256a8.976,8.976,0,0,0-1.3.724,3.374,3.374,0,0,0-.976,1.171,3.441,3.441,0,0,0,1.043,4.35,3.374,3.374,0,0,0,1.456.607,3.335,3.335,0,0,0,1.521-.086,8.975,8.975,0,0,0,1.355-.613l2.481-1.243,1.126-.563a5.641,5.641,0,0,0,.994-.576,3.875,3.875,0,0,0,.709-.758,3.763,3.763,0,0,0,.426-.838,3.5,3.5,0,0,0,.179-1.469A4.028,4.028,0,0,0,351.221,204.005Z" transform="translate(-339.76 -200.441)" fill="#ffc100" stroke="#5b618a" stroke-width="1"/>
                <path id="Path_8515-2" data-name="Path 8515" d="M381.6,197.8l-8.129,3.8a.911.911,0,0,1-1.215-.439h0a.914.914,0,0,1,.441-1.215l8.126-3.807a.914.914,0,0,1,1.215.441h0a.911.911,0,0,1-.439,1.215Z" transform="translate(-363.757 -196.019)" fill="#ffc100" stroke="#5b618a" stroke-width="1"/>
                <path id="Path_8516-2" data-name="Path 8516" d="M381.412,197.688a1.12,1.12,0,0,0,.192-.14.893.893,0,0,0-.169-1.461.877.877,0,0,0-.633-.067,2.123,2.123,0,0,0-.335.143l-.353.169-7.576,3.569a.849.849,0,0,0,.283,1.612.911.911,0,0,0,.519-.114l.519-.239.986-.459,3.416-1.583,2.307-1.056.631-.283.164-.07a.233.233,0,0,1,.06-.018l-.052.031-.161.083-.62.3-2.289,1.1-3.4,1.609-.984.465-.519.239a1.038,1.038,0,0,1-.587.127.978.978,0,0,1-.327-1.861l7.592-3.535.356-.164a2.105,2.105,0,0,1,.353-.145.953.953,0,0,1,.688.086.937.937,0,0,1,.488.947.921.921,0,0,1-.335.6A.721.721,0,0,1,381.412,197.688Z" transform="translate(-363.57 -195.907)" fill="#ffc100" stroke="#5b618a" stroke-width="1"/>
              </g>
              <g id="Group_828" data-name="Group 828" transform="translate(14.814 81.419)">
                <path id="Path_8512-3" data-name="Path 8512" d="M351.4,204.128a3.5,3.5,0,0,0-4.708-1.557l-4.76,2.4a3.506,3.506,0,0,0-1.557,4.711h0a3.506,3.506,0,0,0,4.708,1.557l4.763-2.4a3.5,3.5,0,0,0,1.555-4.711Zm-2.268,3.237-4.718,2.38a1.871,1.871,0,1,1-1.684-3.34l4.724-2.38a1.871,1.871,0,0,1,1.684,3.34Z" transform="translate(-339.934 -200.564)" fill="#ffc100" stroke="#5b618a" stroke-width="1"/>
                <path id="Path_8514-3" data-name="Path 8514" d="M351.221,204.005s.016.023.042.073l.106.226q.057.153.132.382a3.677,3.677,0,0,1,.1.545,3.518,3.518,0,0,1-.161,1.5,3.687,3.687,0,0,1-.418.851,3.774,3.774,0,0,1-.721.779,5.538,5.538,0,0,1-1,.594l-1.121.571-2.479,1.254a8.762,8.762,0,0,1-1.376.625,3.472,3.472,0,0,1-1.578.093,3.517,3.517,0,0,1-1.511-.628,3.651,3.651,0,0,1-1.1-1.285,3.613,3.613,0,0,1-.379-1.643,3.53,3.53,0,0,1,.392-1.588,3.483,3.483,0,0,1,1.015-1.215,9.009,9.009,0,0,1,1.321-.732l2.484-1.246,1.124-.561a5.638,5.638,0,0,1,1.077-.454,3.776,3.776,0,0,1,1.059-.112,3.691,3.691,0,0,1,.932.169,3.543,3.543,0,0,1,1.3.763,3.913,3.913,0,0,1,.374.4c.1.13.171.241.231.335l.117.218a.244.244,0,0,1,.034.078,3.921,3.921,0,0,0-.792-1,3.551,3.551,0,0,0-1.3-.732,3.712,3.712,0,0,0-.914-.156,3.81,3.81,0,0,0-1.038.119,5.476,5.476,0,0,0-1.054.454l-1.108.574-2.479,1.256a8.976,8.976,0,0,0-1.3.724,3.374,3.374,0,0,0-.976,1.171,3.441,3.441,0,0,0,1.043,4.35,3.374,3.374,0,0,0,1.456.607,3.335,3.335,0,0,0,1.521-.086,8.975,8.975,0,0,0,1.355-.613l2.481-1.243,1.126-.563a5.641,5.641,0,0,0,.994-.576,3.875,3.875,0,0,0,.709-.758,3.763,3.763,0,0,0,.426-.838,3.5,3.5,0,0,0,.179-1.469A4.028,4.028,0,0,0,351.221,204.005Z" transform="translate(-339.76 -200.441)" fill="#ffc100" stroke="#5b618a" stroke-width="1"/>
                <path id="Path_8515-3" data-name="Path 8515" d="M381.6,197.8l-8.129,3.8a.911.911,0,0,1-1.215-.439h0a.914.914,0,0,1,.441-1.215l8.126-3.807a.914.914,0,0,1,1.215.441h0a.911.911,0,0,1-.439,1.215Z" transform="translate(-363.757 -196.019)" fill="#ffc100" stroke="#5b618a" stroke-width="1"/>
                <path id="Path_8516-3" data-name="Path 8516" d="M381.412,197.688a1.12,1.12,0,0,0,.192-.14.893.893,0,0,0-.169-1.461.877.877,0,0,0-.633-.067,2.123,2.123,0,0,0-.335.143l-.353.169-7.576,3.569a.849.849,0,0,0,.283,1.612.911.911,0,0,0,.519-.114l.519-.239.986-.459,3.416-1.583,2.307-1.056.631-.283.164-.07a.233.233,0,0,1,.06-.018l-.052.031-.161.083-.62.3-2.289,1.1-3.4,1.609-.984.465-.519.239a1.038,1.038,0,0,1-.587.127.978.978,0,0,1-.327-1.861l7.592-3.535.356-.164a2.105,2.105,0,0,1,.353-.145.953.953,0,0,1,.688.086.937.937,0,0,1,.488.947.921.921,0,0,1-.335.6A.721.721,0,0,1,381.412,197.688Z" transform="translate(-363.57 -195.907)" fill="#ffc100" stroke="#5b618a" stroke-width="1"/>
              </g>
              <g id="Group_829" data-name="Group 829" transform="translate(0 88.815)">
                <path id="Path_8512-4" data-name="Path 8512" d="M351.4,204.128a3.5,3.5,0,0,0-4.708-1.557l-4.76,2.4a3.506,3.506,0,0,0-1.557,4.711h0a3.506,3.506,0,0,0,4.708,1.557l4.763-2.4a3.5,3.5,0,0,0,1.555-4.711Zm-2.268,3.237-4.718,2.38a1.871,1.871,0,1,1-1.684-3.34l4.724-2.38a1.871,1.871,0,0,1,1.684,3.34Z" transform="translate(-339.934 -200.564)" fill="#ffc100" stroke="#5b618a" stroke-width="1"/>
                <path id="Path_8514-4" data-name="Path 8514" d="M351.221,204.005s.016.023.042.073l.106.226q.057.153.132.382a3.677,3.677,0,0,1,.1.545,3.518,3.518,0,0,1-.161,1.5,3.687,3.687,0,0,1-.418.851,3.774,3.774,0,0,1-.721.779,5.538,5.538,0,0,1-1,.594l-1.121.571-2.479,1.254a8.762,8.762,0,0,1-1.376.625,3.472,3.472,0,0,1-1.578.093,3.517,3.517,0,0,1-1.511-.628,3.651,3.651,0,0,1-1.1-1.285,3.613,3.613,0,0,1-.379-1.643,3.53,3.53,0,0,1,.392-1.588,3.483,3.483,0,0,1,1.015-1.215,9.009,9.009,0,0,1,1.321-.732l2.484-1.246,1.124-.561a5.638,5.638,0,0,1,1.077-.454,3.776,3.776,0,0,1,1.059-.112,3.691,3.691,0,0,1,.932.169,3.543,3.543,0,0,1,1.3.763,3.913,3.913,0,0,1,.374.4c.1.13.171.241.231.335l.117.218a.244.244,0,0,1,.034.078,3.921,3.921,0,0,0-.792-1,3.551,3.551,0,0,0-1.3-.732,3.712,3.712,0,0,0-.914-.156,3.81,3.81,0,0,0-1.038.119,5.476,5.476,0,0,0-1.054.454l-1.108.574-2.479,1.256a8.976,8.976,0,0,0-1.3.724,3.374,3.374,0,0,0-.976,1.171,3.441,3.441,0,0,0,1.043,4.35,3.374,3.374,0,0,0,1.456.607,3.335,3.335,0,0,0,1.521-.086,8.975,8.975,0,0,0,1.355-.613l2.481-1.243,1.126-.563a5.641,5.641,0,0,0,.994-.576,3.875,3.875,0,0,0,.709-.758,3.763,3.763,0,0,0,.426-.838,3.5,3.5,0,0,0,.179-1.469A4.028,4.028,0,0,0,351.221,204.005Z" transform="translate(-339.76 -200.441)" fill="#ffc100" stroke="#5b618a" stroke-width="1"/>
                <path id="Path_8515-4" data-name="Path 8515" d="M381.6,197.8l-8.129,3.8a.911.911,0,0,1-1.215-.439h0a.914.914,0,0,1,.441-1.215l8.126-3.807a.914.914,0,0,1,1.215.441h0a.911.911,0,0,1-.439,1.215Z" transform="translate(-363.757 -196.019)" fill="#ffc100" stroke="#5b618a" stroke-width="1"/>
                <path id="Path_8516-4" data-name="Path 8516" d="M381.412,197.688a1.12,1.12,0,0,0,.192-.14.893.893,0,0,0-.169-1.461.877.877,0,0,0-.633-.067,2.123,2.123,0,0,0-.335.143l-.353.169-7.576,3.569a.849.849,0,0,0,.283,1.612.911.911,0,0,0,.519-.114l.519-.239.986-.459,3.416-1.583,2.307-1.056.631-.283.164-.07a.233.233,0,0,1,.06-.018l-.052.031-.161.083-.62.3-2.289,1.1-3.4,1.609-.984.465-.519.239a1.038,1.038,0,0,1-.587.127.978.978,0,0,1-.327-1.861l7.592-3.535.356-.164a2.105,2.105,0,0,1,.353-.145.953.953,0,0,1,.688.086.937.937,0,0,1,.488.947.921.921,0,0,1-.335.6A.721.721,0,0,1,381.412,197.688Z" transform="translate(-363.57 -195.907)" fill="#ffc100" stroke="#5b618a" stroke-width="1"/>
              </g>
              <g id="Group_827" data-name="Group 827" transform="translate(30.207 73.732)">
                <path id="Path_8512-5" data-name="Path 8512" d="M351.4,204.128a3.5,3.5,0,0,0-4.708-1.557l-4.76,2.4a3.506,3.506,0,0,0-1.557,4.711h0a3.506,3.506,0,0,0,4.708,1.557l4.763-2.4a3.5,3.5,0,0,0,1.555-4.711Zm-2.268,3.237-4.718,2.38a1.871,1.871,0,1,1-1.684-3.34l4.724-2.38a1.871,1.871,0,0,1,1.684,3.34Z" transform="translate(-339.934 -200.564)" fill="#ffc100" stroke="#5b618a" stroke-width="1"/>
                <path id="Path_8514-5" data-name="Path 8514" d="M351.221,204.005s.016.023.042.073l.106.226q.057.153.132.382a3.677,3.677,0,0,1,.1.545,3.518,3.518,0,0,1-.161,1.5,3.687,3.687,0,0,1-.418.851,3.774,3.774,0,0,1-.721.779,5.538,5.538,0,0,1-1,.594l-1.121.571-2.479,1.254a8.762,8.762,0,0,1-1.376.625,3.472,3.472,0,0,1-1.578.093,3.517,3.517,0,0,1-1.511-.628,3.651,3.651,0,0,1-1.1-1.285,3.613,3.613,0,0,1-.379-1.643,3.53,3.53,0,0,1,.392-1.588,3.483,3.483,0,0,1,1.015-1.215,9.009,9.009,0,0,1,1.321-.732l2.484-1.246,1.124-.561a5.638,5.638,0,0,1,1.077-.454,3.776,3.776,0,0,1,1.059-.112,3.691,3.691,0,0,1,.932.169,3.543,3.543,0,0,1,1.3.763,3.913,3.913,0,0,1,.374.4c.1.13.171.241.231.335l.117.218a.244.244,0,0,1,.034.078,3.921,3.921,0,0,0-.792-1,3.551,3.551,0,0,0-1.3-.732,3.712,3.712,0,0,0-.914-.156,3.81,3.81,0,0,0-1.038.119,5.476,5.476,0,0,0-1.054.454l-1.108.574-2.479,1.256a8.976,8.976,0,0,0-1.3.724,3.374,3.374,0,0,0-.976,1.171,3.441,3.441,0,0,0,1.043,4.35,3.374,3.374,0,0,0,1.456.607,3.335,3.335,0,0,0,1.521-.086,8.975,8.975,0,0,0,1.355-.613l2.481-1.243,1.126-.563a5.641,5.641,0,0,0,.994-.576,3.875,3.875,0,0,0,.709-.758,3.763,3.763,0,0,0,.426-.838,3.5,3.5,0,0,0,.179-1.469A4.028,4.028,0,0,0,351.221,204.005Z" transform="translate(-339.76 -200.441)" fill="#ffc100" stroke="#5b618a" stroke-width="1"/>
                <path id="Path_8515-5" data-name="Path 8515" d="M381.6,197.8l-8.129,3.8a.911.911,0,0,1-1.215-.439h0a.914.914,0,0,1,.441-1.215l8.126-3.807a.914.914,0,0,1,1.215.441h0a.911.911,0,0,1-.439,1.215Z" transform="translate(-363.757 -196.019)" fill="#ffc100" stroke="#5b618a" stroke-width="1"/>
                <path id="Path_8516-5" data-name="Path 8516" d="M381.412,197.688a1.12,1.12,0,0,0,.192-.14.893.893,0,0,0-.169-1.461.877.877,0,0,0-.633-.067,2.123,2.123,0,0,0-.335.143l-.353.169-7.576,3.569a.849.849,0,0,0,.283,1.612.911.911,0,0,0,.519-.114l.519-.239.986-.459,3.416-1.583,2.307-1.056.631-.283.164-.07a.233.233,0,0,1,.06-.018l-.052.031-.161.083-.62.3-2.289,1.1-3.4,1.609-.984.465-.519.239a1.038,1.038,0,0,1-.587.127.978.978,0,0,1-.327-1.861l7.592-3.535.356-.164a2.105,2.105,0,0,1,.353-.145.953.953,0,0,1,.688.086.937.937,0,0,1,.488.947.921.921,0,0,1-.335.6A.721.721,0,0,1,381.412,197.688Z" transform="translate(-363.57 -195.907)" fill="#ffc100" stroke="#5b618a" stroke-width="1"/>
              </g>
              <g id="Group_826" data-name="Group 826" transform="translate(46.952 67.517)">
                <path id="Path_8512-6" data-name="Path 8512" d="M351.4,204.128a3.5,3.5,0,0,0-4.708-1.557l-4.76,2.4a3.506,3.506,0,0,0-1.557,4.711h0a3.506,3.506,0,0,0,4.708,1.557l4.763-2.4a3.5,3.5,0,0,0,1.555-4.711Zm-2.268,3.237-4.718,2.38a1.871,1.871,0,1,1-1.684-3.34l4.724-2.38a1.871,1.871,0,0,1,1.684,3.34Z" transform="translate(-339.934 -200.564)" fill="#ffc100" stroke="#5b618a" stroke-width="1"/>
                <path id="Path_8514-6" data-name="Path 8514" d="M351.221,204.005s.016.023.042.073l.106.226q.057.153.132.382a3.677,3.677,0,0,1,.1.545,3.518,3.518,0,0,1-.161,1.5,3.687,3.687,0,0,1-.418.851,3.774,3.774,0,0,1-.721.779,5.538,5.538,0,0,1-1,.594l-1.121.571-2.479,1.254a8.762,8.762,0,0,1-1.376.625,3.472,3.472,0,0,1-1.578.093,3.517,3.517,0,0,1-1.511-.628,3.651,3.651,0,0,1-1.1-1.285,3.613,3.613,0,0,1-.379-1.643,3.53,3.53,0,0,1,.392-1.588,3.483,3.483,0,0,1,1.015-1.215,9.009,9.009,0,0,1,1.321-.732l2.484-1.246,1.124-.561a5.638,5.638,0,0,1,1.077-.454,3.776,3.776,0,0,1,1.059-.112,3.691,3.691,0,0,1,.932.169,3.543,3.543,0,0,1,1.3.763,3.913,3.913,0,0,1,.374.4c.1.13.171.241.231.335l.117.218a.244.244,0,0,1,.034.078,3.921,3.921,0,0,0-.792-1,3.551,3.551,0,0,0-1.3-.732,3.712,3.712,0,0,0-.914-.156,3.81,3.81,0,0,0-1.038.119,5.476,5.476,0,0,0-1.054.454l-1.108.574-2.479,1.256a8.976,8.976,0,0,0-1.3.724,3.374,3.374,0,0,0-.976,1.171,3.441,3.441,0,0,0,1.043,4.35,3.374,3.374,0,0,0,1.456.607,3.335,3.335,0,0,0,1.521-.086,8.975,8.975,0,0,0,1.355-.613l2.481-1.243,1.126-.563a5.641,5.641,0,0,0,.994-.576,3.875,3.875,0,0,0,.709-.758,3.763,3.763,0,0,0,.426-.838,3.5,3.5,0,0,0,.179-1.469A4.028,4.028,0,0,0,351.221,204.005Z" transform="translate(-339.76 -200.441)" fill="#ffc100" stroke="#5b618a" stroke-width="1"/>
                <path id="Path_8515-6" data-name="Path 8515" d="M381.6,197.8l-8.129,3.8a.911.911,0,0,1-1.215-.439h0a.914.914,0,0,1,.441-1.215l8.126-3.807a.914.914,0,0,1,1.215.441h0a.911.911,0,0,1-.439,1.215Z" transform="translate(-363.757 -196.019)" fill="#ffc100" stroke="#5b618a" stroke-width="1"/>
                <path id="Path_8516-6" data-name="Path 8516" d="M381.412,197.688a1.12,1.12,0,0,0,.192-.14.893.893,0,0,0-.169-1.461.877.877,0,0,0-.633-.067,2.123,2.123,0,0,0-.335.143l-.353.169-7.576,3.569a.849.849,0,0,0,.283,1.612.911.911,0,0,0,.519-.114l.519-.239.986-.459,3.416-1.583,2.307-1.056.631-.283.164-.07a.233.233,0,0,1,.06-.018l-.052.031-.161.083-.62.3-2.289,1.1-3.4,1.609-.984.465-.519.239a1.038,1.038,0,0,1-.587.127.978.978,0,0,1-.327-1.861l7.592-3.535.356-.164a2.105,2.105,0,0,1,.353-.145.953.953,0,0,1,.688.086.937.937,0,0,1,.488.947.921.921,0,0,1-.335.6A.721.721,0,0,1,381.412,197.688Z" transform="translate(-363.57 -195.907)" fill="#ffc100" stroke="#5b618a" stroke-width="1"/>
              </g>
              <path id="Path_8526" data-name="Path 8526" d="M259.453,262.854l2.322-1.08a5.061,5.061,0,0,0-.569-.6l-2.376,1.308S259.391,262.679,259.453,262.854Z" transform="translate(-211.701 -188.942)" fill="#ffc100" stroke="#5b618a" stroke-width="1"/>
              <path id="Path_8527" data-name="Path 8527" d="M263,270.628l2.454-.046a10.022,10.022,0,0,0-.023-1.451l-2.38,1.111Z" transform="translate(-214.258 -193.821)" fill="#ffc100" stroke="#5b618a" stroke-width="1"/>
              <path id="Path_8531" data-name="Path 8531" d="M270.269,254.156l-12.122,5.674a1.358,1.358,0,0,1-1.811-.654h0a1.362,1.362,0,0,1,.658-1.811l12.118-5.678a1.362,1.362,0,0,1,1.811.658h0a1.358,1.358,0,0,1-.654,1.811Z" transform="translate(-210.094 -183.05)" fill="#ffc100" stroke="#5b618a" stroke-width="1"/>
              <path id="Path_8532" data-name="Path 8532" d="M270.116,254.06a1.594,1.594,0,0,0,.286-.213,1.327,1.327,0,0,0-.252-2.175,1.308,1.308,0,0,0-.944-.1,3.165,3.165,0,0,0-.5.213l-.53.252-11.293,5.322a1.266,1.266,0,0,0,.422,2.4,1.359,1.359,0,0,0,.774-.17l.774-.356,1.471-.685,5.093-2.361,3.441-1.575.94-.422.244-.1c.058-.023.085-.031.089-.027l-.081.046-.236.124-.925.453-3.414,1.633-5.074,2.4-1.471.693-.774.356a1.548,1.548,0,0,1-.871.19,1.5,1.5,0,0,1-.84-.364,1.463,1.463,0,0,1,.352-2.415l11.32-5.267.53-.248a3.609,3.609,0,0,1,.522-.213A1.413,1.413,0,0,1,270.929,253a1.362,1.362,0,0,1-.5.894A1.045,1.045,0,0,1,270.116,254.06Z" transform="translate(-209.941 -182.955)" fill="#ffc100" stroke="#5b618a" stroke-width="1"/>
              <path id="Path_8537" data-name="Path 8537" d="M253.928,266.29a5.163,5.163,0,0,0-7.191-1.211l-9.842,7-1.285-1.807,9.826-7a7.388,7.388,0,0,1,10.283,1.738" transform="translate(-197.468 -189.395)" fill="#ffc100" stroke="#5b618a" stroke-width="1"/>
              <g id="Group_809" data-name="Group 809" transform="translate(38.142 72.514)" opacity="0.4">
                <path id="Path_8538" data-name="Path 8538" d="M253.928,266.29a5.163,5.163,0,0,0-7.191-1.211l-9.842,7-1.285-1.807,9.826-7a7.388,7.388,0,0,1,10.283,1.738" transform="translate(-235.61 -261.908)" fill="#ffc100" stroke="#5b618a" stroke-width="1"/>
              </g>
              <rect id="Rectangle_630" data-name="Rectangle 630" width="12.752" height="19.877" rx="5.73" transform="translate(30.64 83.067) rotate(-35.41)" fill="#ffc100"/>
              <path id="Path_8539" data-name="Path 8539" d="M227.708,293.08a4.074,4.074,0,0,0,.441.433,2.222,2.222,0,0,0,1.66.437,2.441,2.441,0,0,0,.581-.166,3.312,3.312,0,0,0,.565-.352l1.25-.9,3.05-2.187,1.773-1.269a4.722,4.722,0,0,0,.886-.716,2.109,2.109,0,0,0,.484-1.037,2.16,2.16,0,0,0-.139-1.161,7.26,7.26,0,0,0-.689-1.06c-.507-.708-1.029-1.436-1.548-2.183l-6.947-9.757a2.16,2.16,0,0,0-1.227-.832,2.1,2.1,0,0,0-1.447.163,5.267,5.267,0,0,0-.635.418l-.639.441-1.235.879-4.695,3.34a2.133,2.133,0,0,0-.662,2.322,4.548,4.548,0,0,0,.654,1.076l.72,1.018c.944,1.331,1.823,2.578,2.624,3.712l3.789,5.383,1.026,1.471.259.387a.72.72,0,0,1,.085.135,1.071,1.071,0,0,1-.1-.124l-.279-.387-1.026-1.432-3.839-5.349-2.647-3.7-.724-1.014c-.124-.17-.244-.344-.387-.519a2.346,2.346,0,0,1-.306-.6,2.322,2.322,0,0,1,.708-2.527c1.5-1.088,3.069-2.191,4.7-3.356l1.235-.879.623-.445a5.071,5.071,0,0,1,.658-.43,2.307,2.307,0,0,1,2.922.728c2.477,3.456,4.8,6.738,6.928,9.749l1.548,2.191.387.53a2.855,2.855,0,0,1,.333.565,2.322,2.322,0,0,1-.387,2.384,4.772,4.772,0,0,1-.921.735l-1.78,1.258-3.065,2.163-1.258.886a3.581,3.581,0,0,1-.588.352,2.434,2.434,0,0,1-.6.166,2.256,2.256,0,0,1-1.7-.484A1.83,1.83,0,0,1,227.708,293.08Z" transform="translate(-186.834 -195.626)" fill="#ffc100" stroke="#5b618a" stroke-width="1"/>
              <g id="Group_810" data-name="Group 810" transform="translate(39.365 84.837)" opacity="0.5">
                <path id="Path_8540" data-name="Path 8540" d="M243.318,296.769a1.66,1.66,0,1,0-2.52-.8l-2.028,1.44.526.739,2.024-1.44A1.653,1.653,0,0,0,243.318,296.769Z" transform="translate(-238.77 -293.751)" fill="#ffc100" stroke="#5b618a" stroke-width="1"/>
              </g>
              <path id="Path_8541" data-name="Path 8541" d="M220.36,280.863c-.027-.039,1.687-1.3,3.824-2.821s3.893-2.709,3.921-2.682-1.687,1.3-3.824,2.818S220.387,280.9,220.36,280.863Z" transform="translate(-188.12 -197.64)" fill="#ffc100" stroke="#5b618a" stroke-width="1"/>
              <path id="Path_8542" data-name="Path 8542" d="M241.559,294.607a.565.565,0,0,1-.023-.221,1.988,1.988,0,0,1,.108-.6,2.322,2.322,0,0,1,3.328-1.351,2.078,2.078,0,0,1,.5.356c.1.1.147.17.139.178a4.921,4.921,0,0,0-.689-.43,2.322,2.322,0,0,0-3.166,1.285A5.031,5.031,0,0,0,241.559,294.607Z" transform="translate(-201.099 -207.932)" fill="#ffc100" stroke="#5b618a" stroke-width="1"/>
              <path id="Path_8543" data-name="Path 8543" d="M307.527,402.2,310,409.451a5.132,5.132,0,0,0,6.51,3.193h0a5.128,5.128,0,0,0,3.193-6.514l-2.5-7.373a5.128,5.128,0,0,0-7.052-2.972,5.209,5.209,0,0,0-2.624,6.417Zm4.3-4.509a2.794,2.794,0,0,1,3.1,1.889l2.442,7.137a2.806,2.806,0,0,1-1.355,3.441,2.74,2.74,0,0,1-3.789-1.571l-2.5-7.319a2.736,2.736,0,0,1,2.117-3.576Z" transform="translate(-241.368 -271.154)" fill="#ffc100" stroke="#5b618a" stroke-width="1"/>
              <path id="Path_8544" data-name="Path 8544" d="M319.779,397.665l-.879-2.342a4.891,4.891,0,0,1,.813-.031l.774,2.543S319.941,397.583,319.779,397.665Z" transform="translate(-248.523 -271.153)" fill="#ffc100" stroke="#5b618a" stroke-width="1"/>
              <path id="Path_8545" data-name="Path 8545" d="M311.567,400.7l-1.687-1.714a10.58,10.58,0,0,1,1.01-1l.9,2.4Z" transform="translate(-242.994 -272.804)" fill="#ffc100" stroke="#5b618a" stroke-width="1"/>
              <path id="Path_8546" data-name="Path 8546" d="M307.527,402.2,310,409.451a5.132,5.132,0,0,0,6.51,3.193h0a5.128,5.128,0,0,0,3.193-6.514l-2.5-7.373a5.128,5.128,0,0,0-7.052-2.972,5.209,5.209,0,0,0-2.624,6.417Zm4.3-4.509a2.794,2.794,0,0,1,3.1,1.889l2.442,7.137a2.806,2.806,0,0,1-1.355,3.441,2.74,2.74,0,0,1-3.789-1.571l-2.5-7.319a2.736,2.736,0,0,1,2.117-3.576Z" transform="translate(-241.368 -271.154)" fill="#ffc100" stroke="#5b618a" stroke-width="1"/>
              <path id="Path_8547" data-name="Path 8547" d="M315.5,401.343a3.482,3.482,0,0,0-1.138.546,2.682,2.682,0,0,0-.863,1.161,2.709,2.709,0,0,0,0,1.9c.488,1.4,1.06,3.054,1.7,4.9l.488,1.417a9.147,9.147,0,0,0,.557,1.432,2.651,2.651,0,0,0,2.709,1.231,2.554,2.554,0,0,0,1.4-.732,2.663,2.663,0,0,0,.708-1.366c.228-1.03-.329-1.982-.6-2.91-.623-1.842-1.184-3.506-1.656-4.911-.12-.344-.221-.689-.341-.987a2.817,2.817,0,0,0-.492-.774,2.76,2.76,0,0,0-1.219-.805,2.508,2.508,0,0,0-.921-.132,3.02,3.02,0,0,1-.333,0,.2.2,0,0,1,.081-.019,1.777,1.777,0,0,1,.248-.039,2.426,2.426,0,0,1,.948.1,2.763,2.763,0,0,1,1.277.8,2.829,2.829,0,0,1,.526.8c.132.314.232.642.356.995.488,1.4,1.06,3.057,1.7,4.9l.488,1.417a3.1,3.1,0,0,1,.124,1.587,2.86,2.86,0,0,1-.755,1.471,2.736,2.736,0,0,1-1.505.774,2.837,2.837,0,0,1-2.914-1.324,3.628,3.628,0,0,1-.321-.739c-.085-.248-.166-.492-.252-.735-.163-.48-.321-.956-.48-1.417-.623-1.846-1.184-3.506-1.656-4.911a2.779,2.779,0,0,1,.952-3.185,2.851,2.851,0,0,1,.859-.422c.1-.027.186-.039.244-.05Z" transform="translate(-245.024 -274.804)" fill="#ffc100" stroke="#5b618a" stroke-width="1"/>
              <path id="Path_8548" data-name="Path 8548" d="M307.485,402.1a.454.454,0,0,1-.046-.116l-.108-.344a5.417,5.417,0,0,1-.17-1.385,5.217,5.217,0,0,1,.48-2.152,4.874,4.874,0,0,1,.735-1.161,4.819,4.819,0,0,1,1.161-1.026,5.67,5.67,0,0,1,1.579-.662,5.377,5.377,0,0,1,1.854-.085,5.205,5.205,0,0,1,3.483,2.013l.31.457.259.488c.07.174.139.348.213.522s.12.348.178.526l.743,2.164q.774,2.214,1.548,4.555a5.217,5.217,0,0,1-9.393,4.443,8.572,8.572,0,0,1-.646-1.583c-.681-2.04-1.235-3.692-1.625-4.853-.182-.565-.329-1.006-.43-1.32l-.108-.348a.506.506,0,0,1-.031-.12.694.694,0,0,1,.05.116l.124.337c.112.314.271.751.468,1.312l1.687,4.834a8.515,8.515,0,0,0,.642,1.548,5.031,5.031,0,0,0,9.076-4.3l-1.548-4.555q-.387-1.1-.739-2.167l-.178-.526c-.07-.17-.135-.337-.2-.5s-.17-.317-.252-.476l-.294-.437a5.05,5.05,0,0,0-3.355-1.962,5.143,5.143,0,0,0-1.8.074,5.418,5.418,0,0,0-1.548.631,4.643,4.643,0,0,0-1.161.987,4.721,4.721,0,0,0-.732,1.138,5.256,5.256,0,0,0-.5,2.109A6.3,6.3,0,0,0,307.485,402.1Z" transform="translate(-241.326 -271.055)" fill="#ffc100" stroke="#5b618a" stroke-width="1"/>
              <path id="Path_8549" data-name="Path 8549" d="M324.983,431l4.331,12.385a1.335,1.335,0,0,0,1.7.82h0a1.335,1.335,0,0,0,.82-1.7L327.5,430.121a1.335,1.335,0,0,0-1.7-.82h0A1.339,1.339,0,0,0,324.983,431Z" transform="translate(-252.207 -291.956)" fill="#ffc100" stroke="#5b618a" stroke-width="1"/>
              <path id="Path_8550" data-name="Path 8550" d="M324.943,430.916a.913.913,0,0,1-.093-.341,1.343,1.343,0,0,1,.286-.968,1.382,1.382,0,0,1,2.28.178,2.814,2.814,0,0,1,.209.515c.066.174.128.356.194.538,1.045,2.972,2.485,7.048,4.068,11.549a1.432,1.432,0,0,1-2.283,1.548,1.517,1.517,0,0,1-.464-.743c-.093-.259-.182-.519-.271-.774l-.522-1.505c-.673-1.954-1.281-3.715-1.8-5.2s-.906-2.667-1.2-3.514l-.313-.96-.077-.248a.317.317,0,0,1,0-.089.36.36,0,0,1,.039.081l.1.244.348.948c.3.84.731,2.028,1.254,3.483s1.161,3.239,1.838,5.19c.17.488.348.987.53,1.5l.271.774a1.346,1.346,0,0,0,.41.658,1.238,1.238,0,0,0,1.97-1.351l-4.013-11.568c-.066-.186-.128-.364-.186-.542a3.485,3.485,0,0,0-.194-.5,1.285,1.285,0,0,0-2.109-.19,1.3,1.3,0,0,0-.306.913A3.271,3.271,0,0,0,324.943,430.916Z" transform="translate(-252.166 -291.872)" fill="#ffc100" stroke="#5b618a" stroke-width="1"/>
              <path id="Path_8551" data-name="Path 8551" d="M243.22,221.579l2.52,7.353a5.128,5.128,0,0,0,6.514,3.212h0a5.132,5.132,0,0,0,3.193-6.51l-2.523-7.373a5.127,5.127,0,1,0-9.7,3.317Zm3.955-4.277a2.729,2.729,0,0,1,3.483,1.7l2.5,7.315A2.732,2.732,0,1,1,248,228.089l-2.5-7.315A2.736,2.736,0,0,1,247.175,217.3Z" transform="translate(-201.962 -160.513)" fill="#ffc100" stroke="#5b618a" stroke-width="1"/>
              <path id="Path_8552" data-name="Path 8552" d="M255.525,217.174l-.875-2.341a4.826,4.826,0,0,1,.809-.031l.774,2.543S255.691,217.093,255.525,217.174Z" transform="translate(-209.139 -160.517)" fill="#ffc100" stroke="#5b618a" stroke-width="1"/>
              <path id="Path_8553" data-name="Path 8553" d="M247.315,220.142l-1.7-1.73a9.862,9.862,0,0,1,1.014-1l.9,2.4Z" transform="translate(-203.604 -162.118)" fill="#ffc100" stroke="#5b618a" stroke-width="1"/>
              <path id="Path_8554" data-name="Path 8554" d="M243.22,221.579l2.52,7.353a5.128,5.128,0,0,0,6.514,3.212h0a5.132,5.132,0,0,0,3.193-6.51l-2.523-7.373a5.127,5.127,0,1,0-9.7,3.317Zm3.955-4.277a2.729,2.729,0,0,1,3.483,1.7l2.5,7.315A2.732,2.732,0,1,1,248,228.089l-2.5-7.315A2.736,2.736,0,0,1,247.175,217.3Z" transform="translate(-201.962 -160.513)" fill="#ffc100" stroke="#5b618a" stroke-width="1"/>
              <path id="Path_8555" data-name="Path 8555" d="M250.852,220.995a3.262,3.262,0,0,0-1.045.708,2.709,2.709,0,0,0-.681,1.289,2.554,2.554,0,0,0-.039.913,4.845,4.845,0,0,0,.286,1c.484,1.4,1.06,3.061,1.7,4.9l.488,1.42c.085.236.163.492.259.72a2.6,2.6,0,0,0,.387.646A2.636,2.636,0,0,0,256.851,231a2.468,2.468,0,0,0-.077-.755c-.062-.24-.159-.488-.236-.731-.166-.484-.325-.956-.484-1.42l-1.656-4.915a5.379,5.379,0,0,0-.387-.964,2.776,2.776,0,0,0-.592-.7,2.674,2.674,0,0,0-1.331-.6,3.2,3.2,0,0,0-1.258.081l.077-.035a2.414,2.414,0,0,1,.24-.074,2.679,2.679,0,0,1,.952-.05,2.744,2.744,0,0,1,1.389.6,2.783,2.783,0,0,1,.631.716,5.5,5.5,0,0,1,.406.987c.484,1.4,1.06,3.057,1.7,4.9l.488,1.417c.081.248.174.48.244.743a2.826,2.826,0,0,1-4.907,2.52,2.873,2.873,0,0,1-.43-.693c-.1-.255-.174-.5-.259-.739l-.461-1.417-1.656-4.915a4.922,4.922,0,0,1-.283-1.029,2.783,2.783,0,0,1,.774-2.272,2.651,2.651,0,0,1,.774-.546,2,2,0,0,1,.232-.089Z" transform="translate(-205.639 -164.205)" fill="#ffc100" stroke="#5b618a" stroke-width="1"/>
              <path id="Path_8556" data-name="Path 8556" d="M243.171,221.439a.464.464,0,0,1-.043-.116c-.031-.089-.066-.2-.112-.344a4.957,4.957,0,0,1-.151-1.389,5.12,5.12,0,0,1,.53-2.14,5.473,5.473,0,0,1,.774-1.161,5.555,5.555,0,0,1,1.2-.991,5.205,5.205,0,0,1,6.885,1.424,5.394,5.394,0,0,1,.542.956c.147.348.263.7.387,1.053q.36,1.06.743,2.163.755,2.214,1.548,4.555a5.376,5.376,0,0,1,.221,2.458,5.213,5.213,0,0,1-8.522,3.208,5.147,5.147,0,0,1-1.161-1.444,8.879,8.879,0,0,1-.627-1.587c-.685-2.04-1.238-3.7-1.629-4.857-.182-.565-.329-1.006-.43-1.324l-.108-.344a.565.565,0,0,1-.031-.12.727.727,0,0,1,.05.112l.124.341c.112.314.271.751.468,1.312l1.687,4.834a9.45,9.45,0,0,0,.627,1.548,5.038,5.038,0,0,0,9.172-4.072c-.534-1.548-1.053-3.1-1.548-4.555-.252-.739-.5-1.459-.739-2.167a10.622,10.622,0,0,0-.387-1.037,5.309,5.309,0,0,0-.522-.929,5.066,5.066,0,0,0-3.305-2.04,5.075,5.075,0,0,0-5.848,4.8,5.922,5.922,0,0,0,.205,1.858Z" transform="translate(-201.914 -160.373)" fill="#ffc100" stroke="#5b618a" stroke-width="1"/>
              <path id="Path_8557" data-name="Path 8557" d="M222,161.12l2.52,7.353a5.124,5.124,0,0,0,6.51,3.193h0a5.124,5.124,0,0,0,3.177-6.49l-2.52-7.353a5.127,5.127,0,1,0-9.7,3.317Zm3.955-4.277a2.729,2.729,0,0,1,3.483,1.7l2.5,7.315a2.732,2.732,0,1,1-5.171,1.769l-2.5-7.315A2.736,2.736,0,0,1,225.95,156.843Z" transform="translate(-188.942 -123.465)" fill="#ffc100" stroke="#5b618a" stroke-width="1"/>
              <path id="Path_8558" data-name="Path 8558" d="M234.319,156.715l-.879-2.322a4.889,4.889,0,0,1,.813-.031l.774,2.543S234.481,156.634,234.319,156.715Z" transform="translate(-196.138 -123.468)" fill="#ffc100" stroke="#5b618a" stroke-width="1"/>
              <path id="Path_8559" data-name="Path 8559" d="M226.111,159.709l-1.691-1.714a10.141,10.141,0,0,1,1-.995l.9,2.4Z" transform="translate(-190.609 -125.088)" fill="#ffc100" stroke="#5b618a" stroke-width="1"/>
              <path id="Path_8560" data-name="Path 8560" d="M222,161.12l2.52,7.353a5.124,5.124,0,0,0,6.51,3.193h0a5.124,5.124,0,0,0,3.177-6.49l-2.52-7.353a5.127,5.127,0,1,0-9.7,3.317Zm3.955-4.277a2.729,2.729,0,0,1,3.483,1.7l2.5,7.315a2.732,2.732,0,1,1-5.171,1.769l-2.5-7.315A2.736,2.736,0,0,1,225.95,156.843Z" transform="translate(-188.942 -123.465)" fill="#ffc100" stroke="#5b618a" stroke-width="1"/>
              <path id="Path_8561" data-name="Path 8561" d="M229.561,160.505a3.263,3.263,0,0,0-1.045.708,2.709,2.709,0,0,0-.724,2.2,5.121,5.121,0,0,0,.29,1c.484,1.4,1.06,3.061,1.7,4.9l.488,1.42c.085.236.163.492.259.72a2.6,2.6,0,0,0,.387.646,2.636,2.636,0,0,0,4.644-1.591,2.592,2.592,0,0,0-.077-.755c-.062-.24-.159-.488-.24-.731-.163-.484-.325-.956-.48-1.42-.623-1.846-1.184-3.51-1.66-4.915a4.858,4.858,0,0,0-.387-.964,2.709,2.709,0,0,0-1.935-1.3,3.2,3.2,0,0,0-1.258.081.176.176,0,0,0,.077-.035.773.773,0,0,1,.236-.074,2.71,2.71,0,0,1,.956-.05,2.744,2.744,0,0,1,1.389.6,2.783,2.783,0,0,1,.631.716,5.492,5.492,0,0,1,.387.987c.484,1.4,1.06,3.057,1.7,4.9l.488,1.42c.081.244.174.476.244.739a2.727,2.727,0,0,1,.085.813,2.828,2.828,0,0,1-5,1.7,2.981,2.981,0,0,1-.426-.693c-.1-.252-.174-.5-.259-.735-.166-.484-.325-.96-.484-1.42-.623-1.846-1.184-3.51-1.66-4.915a5.155,5.155,0,0,1-.279-1.029,2.794,2.794,0,0,1,.774-2.272,2.709,2.709,0,0,1,.774-.546,2.007,2.007,0,0,1,.232-.089Z" transform="translate(-192.553 -127.127)" fill="#ffc100" stroke="#5b618a" stroke-width="1"/>
              <path id="Path_8562" data-name="Path 8562" d="M221.967,160.949a.559.559,0,0,1-.046-.116c-.027-.089-.062-.2-.108-.344a5.081,5.081,0,0,1-.155-1.389,5.19,5.19,0,0,1,.534-2.14,5.472,5.472,0,0,1,.774-1.161,5.555,5.555,0,0,1,1.2-.991,5.205,5.205,0,0,1,6.885,1.424,5.641,5.641,0,0,1,.542.956c.147.348.263.7.387,1.053l.743,2.163q.774,2.214,1.548,4.555a5.38,5.38,0,0,1,.221,2.458,5.209,5.209,0,0,1-9.718,1.753,9.153,9.153,0,0,1-.623-1.587c-.685-2.04-1.238-3.7-1.629-4.857-.182-.565-.329-1.006-.433-1.324l-.1-.344a.564.564,0,0,1-.031-.12.726.726,0,0,1,.05.112l.124.341c.112.313.271.751.468,1.312l1.687,4.834a9.451,9.451,0,0,0,.627,1.548,4.981,4.981,0,0,0,1.161,1.389,5.031,5.031,0,0,0,8.24-3.1,5.136,5.136,0,0,0-.213-2.365c-.534-1.548-1.053-3.1-1.548-4.555-.252-.739-.5-1.459-.739-2.167a10.614,10.614,0,0,0-.387-1.037,5.309,5.309,0,0,0-.522-.929,5.058,5.058,0,0,0-6.665-1.409,5.589,5.589,0,0,0-1.161.956,5.731,5.731,0,0,0-.774,1.115,5.186,5.186,0,0,0-.553,2.094A5.949,5.949,0,0,0,221.967,160.949Z" transform="translate(-188.914 -123.294)" fill="#ffc100" stroke="#5b618a" stroke-width="1"/>
              <path id="Path_8563" data-name="Path 8563" d="M203.13,107.069l2.52,7.377a5.132,5.132,0,0,0,6.514,3.193h0a5.128,5.128,0,0,0,3.189-6.514l-2.52-7.373a5.128,5.128,0,1,0-9.7,3.317Zm3.955-4.257a2.736,2.736,0,0,1,3.483,1.7l2.5,7.319A2.734,2.734,0,0,1,207.9,113.6l-2.5-7.319a2.736,2.736,0,0,1,1.691-3.491Z" transform="translate(-177.388 -90.321)" fill="#ffc100" stroke="#5b618a" stroke-width="1"/>
              <path id="Path_8564" data-name="Path 8564" d="M215.429,102.665l-.879-2.341a4.888,4.888,0,0,1,.813-.031l.774,2.547S215.595,102.583,215.429,102.665Z" transform="translate(-184.559 -90.325)" fill="#ffc100" stroke="#5b618a" stroke-width="1"/>
              <path id="Path_8565" data-name="Path 8565" d="M207.221,105.7l-1.691-1.711a10.509,10.509,0,0,1,1.01-1.006l.9,2.407Z" transform="translate(-179.03 -91.975)" fill="#ffc100" stroke="#5b618a" stroke-width="1"/>
              <path id="Path_8566" data-name="Path 8566" d="M203.13,107.069l2.52,7.377a5.132,5.132,0,0,0,6.514,3.193h0a5.128,5.128,0,0,0,3.189-6.514l-2.52-7.373a5.128,5.128,0,1,0-9.7,3.317Zm3.955-4.257a2.736,2.736,0,0,1,3.483,1.7l2.5,7.319A2.734,2.734,0,0,1,207.9,113.6l-2.5-7.319a2.736,2.736,0,0,1,1.691-3.491Z" transform="translate(-177.388 -90.321)" fill="#ffc100" stroke="#5b618a" stroke-width="1"/>
              <path id="Path_8567" data-name="Path 8567" d="M210.764,106.458a3.262,3.262,0,0,0-1.045.708,2.682,2.682,0,0,0-.681,1.293,2.547,2.547,0,0,0-.039.913,4.879,4.879,0,0,0,.286.995c.484,1.4,1.06,3.061,1.7,4.9l.488,1.417c.085.24.163.5.259.72a2.6,2.6,0,0,0,.387.646,2.636,2.636,0,0,0,4.644-1.591,2.593,2.593,0,0,0-.077-.774c-.062-.24-.159-.488-.236-.728-.166-.484-.325-.96-.484-1.42-.623-1.846-1.184-3.51-1.66-4.915a5.144,5.144,0,0,0-.387-.968,2.845,2.845,0,0,0-.592-.7,2.709,2.709,0,0,0-1.331-.6,3.394,3.394,0,0,0-1.258.081.189.189,0,0,0,.077-.031,1.685,1.685,0,0,1,.24-.074,2.59,2.59,0,0,1,.952-.05,2.736,2.736,0,0,1,1.389.592,2.8,2.8,0,0,1,.631.72,5.34,5.34,0,0,1,.406.983c.484,1.4,1.06,3.061,1.7,4.9l.488,1.416c.081.244.174.476.244.743a2.828,2.828,0,0,1-5.337,1.823c-.1-.252-.174-.492-.259-.735-.166-.484-.325-.96-.484-1.42l-1.629-4.892a4.956,4.956,0,0,1-.283-1.026,2.767,2.767,0,0,1,.058-.956,2.732,2.732,0,0,1,.735-1.32,2.651,2.651,0,0,1,.774-.546,1.846,1.846,0,0,1,.232-.085Z" transform="translate(-181.067 -93.987)" fill="#ffc100" stroke="#5b618a" stroke-width="1"/>
              <path id="Path_8568" data-name="Path 8568" d="M203.082,106.923a.277.277,0,0,0-.043-.112,2.664,2.664,0,0,1-.112-.348,4.946,4.946,0,0,1-.151-1.386,5.121,5.121,0,0,1,.53-2.144,5.453,5.453,0,0,1,.774-1.161,5.565,5.565,0,0,1,1.2-.995,5.205,5.205,0,0,1,6.885,1.424,5.417,5.417,0,0,1,.542.96c.147.344.263.7.387,1.049q.36,1.064.743,2.167l1.548,4.555a5.376,5.376,0,0,1,.221,2.458,5.213,5.213,0,0,1-9.718,1.753,9.309,9.309,0,0,1-.623-1.591c-.685-2.04-1.238-3.7-1.629-4.853-.182-.565-.329-1.01-.433-1.324l-.1-.348a.506.506,0,0,1-.031-.12.7.7,0,0,1,.05.116l.124.337c.112.313.271.774.468,1.312l1.687,4.838a9.591,9.591,0,0,0,.627,1.548,5.031,5.031,0,0,0,9.385-1.711,5.136,5.136,0,0,0-.213-2.365c-.534-1.548-1.053-3.1-1.548-4.555q-.387-1.1-.739-2.167a10.621,10.621,0,0,0-.387-1.037A5.273,5.273,0,0,0,212,102.3a5.058,5.058,0,0,0-3.305-2.043,5.144,5.144,0,0,0-3.359.631,5.124,5.124,0,0,0-2.489,4.164A5.86,5.86,0,0,0,203.082,106.923Z" transform="translate(-177.34 -90.175)" fill="#ffc100" stroke="#5b618a" stroke-width="1"/>
              <path id="Path_8569" data-name="Path 8569" d="M199.181,76.494l4.6,12.288a1.339,1.339,0,0,0,1.722.774h0a1.335,1.335,0,0,0,.774-1.718l-4.594-12.28a1.335,1.335,0,0,0-1.718-.774h0A1.339,1.339,0,0,0,199.181,76.494Z" transform="translate(-175.088 -74.639)" fill="#ffc100" stroke="#5b618a" stroke-width="1"/>
              <path id="Path_8570" data-name="Path 8570" d="M199.14,76.4a.952.952,0,0,1-.1-.341,1.32,1.32,0,0,1,.263-.971,1.382,1.382,0,0,1,2.283.128,3.1,3.1,0,0,1,.221.507l.205.538,4.319,11.456a1.444,1.444,0,0,1-.53,1.684,1.463,1.463,0,0,1-.879.252,1.428,1.428,0,0,1-.84-.325,1.505,1.505,0,0,1-.484-.731c-.1-.259-.194-.515-.286-.774-.19-.507-.387-1-.553-1.49-.72-1.935-1.366-3.688-1.912-5.163l-1.269-3.483c-.143-.387-.255-.716-.337-.948l-.085-.252a.283.283,0,0,1-.019-.085.166.166,0,0,0,.039.077l.1.244.368.937,1.331,3.483,1.935,5.147c.182.488.368.983.561,1.49.1.255.19.511.29.774a1.316,1.316,0,0,0,.422.646,1.238,1.238,0,0,0,1.935-1.389c-1.664-4.474-3.17-8.515-4.257-11.479-.07-.182-.135-.36-.2-.538a3.606,3.606,0,0,0-.205-.492,1.289,1.289,0,0,0-2.113-.143,1.316,1.316,0,0,0-.286.921C199.1,76.27,199.152,76.4,199.14,76.4Z" transform="translate(-175.047 -74.546)" fill="#ffc100" stroke="#5b618a" stroke-width="1"/>
              <path id="Path_8571" data-name="Path 8571" d="M239.262,190.976l4.6,12.288a1.343,1.343,0,0,0,1.722.774h0a1.339,1.339,0,0,0,.774-1.722l-4.6-12.288a1.335,1.335,0,0,0-1.718-.774h0A1.335,1.335,0,0,0,239.262,190.976Z" transform="translate(-199.653 -144.806)" fill="#ffc100" stroke="#5b618a" stroke-width="1"/>
              <path id="Path_8572" data-name="Path 8572" d="M239.231,190.906a.952.952,0,0,1-.1-.341,1.328,1.328,0,0,1,.263-.971,1.386,1.386,0,0,1,2.283.128,3.283,3.283,0,0,1,.221.511l.205.534,4.323,11.456a1.44,1.44,0,0,1-1.409,1.935,1.455,1.455,0,0,1-.84-.325,1.525,1.525,0,0,1-.484-.731c-.1-.259-.194-.515-.286-.774-.19-.507-.387-1.006-.553-1.49l-1.912-5.163-1.269-3.483-.337-.952c-.035-.1-.062-.182-.081-.248a.271.271,0,0,1-.023-.089.359.359,0,0,1,.039.081c.031.066.062.143.1.24q.132.348.387.94c.317.836.774,2.013,1.327,3.483s1.219,3.212,1.935,5.147l.561,1.49.29.774a1.343,1.343,0,0,0,.422.646,1.238,1.238,0,0,0,1.935-1.393c-1.664-4.474-3.17-8.515-4.257-11.475l-.2-.538a3.607,3.607,0,0,0-.205-.492,1.269,1.269,0,0,0-.731-.577,1.306,1.306,0,0,0-1.668,1.351C239.192,190.79,239.242,190.9,239.231,190.906Z" transform="translate(-199.622 -144.736)" fill="#ffc100" stroke="#5b618a" stroke-width="1"/>
              <path id="Path_8573" data-name="Path 8573" d="M286.523,340.122,289,347.371a5.132,5.132,0,0,0,6.51,3.193h0a5.128,5.128,0,0,0,3.193-6.514l-2.52-7.373a5.128,5.128,0,0,0-7.052-2.972A5.209,5.209,0,0,0,286.523,340.122Zm4.3-4.509a2.8,2.8,0,0,1,3.1,1.889l2.442,7.137a2.8,2.8,0,0,1-1.355,3.441,2.74,2.74,0,0,1-3.789-1.571l-2.5-7.319a2.736,2.736,0,0,1,2.094-3.576Z" transform="translate(-228.492 -233.101)" fill="#ffc100" stroke="#5b618a" stroke-width="1"/>
              <path id="Path_8574" data-name="Path 8574" d="M298.719,335.585l-.879-2.341a4.894,4.894,0,0,1,.813-.031l.774,2.543S298.881,335.5,298.719,335.585Z" transform="translate(-235.614 -233.099)" fill="#ffc100" stroke="#5b618a" stroke-width="1"/>
              <path id="Path_8575" data-name="Path 8575" d="M290.511,338.577l-1.691-1.711a10.508,10.508,0,0,1,1.01-1.006l.9,2.4Z" transform="translate(-230.085 -234.725)" fill="#ffc100" stroke="#5b618a" stroke-width="1"/>
              <path id="Path_8576" data-name="Path 8576" d="M286.523,340.122,289,347.371a5.132,5.132,0,0,0,6.51,3.193h0a5.128,5.128,0,0,0,3.193-6.514l-2.52-7.373a5.128,5.128,0,0,0-7.052-2.972A5.209,5.209,0,0,0,286.523,340.122Zm4.3-4.509a2.8,2.8,0,0,1,3.1,1.889l2.442,7.137a2.8,2.8,0,0,1-1.355,3.441,2.74,2.74,0,0,1-3.789-1.571l-2.5-7.319a2.736,2.736,0,0,1,2.094-3.576Z" transform="translate(-228.492 -233.101)" fill="#ffc100" stroke="#5b618a" stroke-width="1"/>
              <path id="Path_8577" data-name="Path 8577" d="M294.419,339.263a3.436,3.436,0,0,0-1.134.546,2.662,2.662,0,0,0-.867,3.065c.488,1.4,1.06,3.057,1.7,4.9l.488,1.417a9.149,9.149,0,0,0,.557,1.432,2.651,2.651,0,0,0,2.709,1.231,2.531,2.531,0,0,0,1.4-.731,2.663,2.663,0,0,0,.708-1.366c.228-1.03-.329-1.982-.6-2.91-.623-1.842-1.184-3.506-1.656-4.911-.12-.344-.221-.689-.341-.987a2.818,2.818,0,0,0-.492-.774,2.771,2.771,0,0,0-1.215-.8,2.528,2.528,0,0,0-.925-.132,3.02,3.02,0,0,1-.333,0l.085-.019a1.6,1.6,0,0,1,.244-.039,2.426,2.426,0,0,1,.948.1,2.763,2.763,0,0,1,1.277.8,2.829,2.829,0,0,1,.526.8c.132.314.232.642.356.995.488,1.4,1.06,3.057,1.7,4.9l.488,1.417a3.1,3.1,0,0,1,.128,1.587,2.9,2.9,0,0,1-.774,1.471,2.736,2.736,0,0,1-1.506.774,2.837,2.837,0,0,1-2.914-1.324,3.627,3.627,0,0,1-.321-.739c-.085-.248-.166-.492-.252-.732-.163-.484-.321-.96-.48-1.42-.623-1.842-1.184-3.506-1.656-4.911a2.794,2.794,0,0,1,.035-1.989,2.76,2.76,0,0,1,.917-1.2,2.851,2.851,0,0,1,.859-.422c.1-.027.19-.039.244-.05Z" transform="translate(-232.096 -236.75)" fill="#ffc100" stroke="#5b618a" stroke-width="1"/>
              <path id="Path_8578" data-name="Path 8578" d="M286.485,340.022a.806.806,0,0,1-.046-.112c-.027-.077-.062-.205-.108-.348a5.6,5.6,0,0,1-.17-1.386,5.279,5.279,0,0,1,.48-2.152,4.874,4.874,0,0,1,.735-1.161,4.819,4.819,0,0,1,1.161-1.026,5.666,5.666,0,0,1,1.579-.662,5.376,5.376,0,0,1,1.854-.085,5.205,5.205,0,0,1,3.483,2.013l.31.457.259.488c.07.174.139.348.213.522s.12.348.178.526l.743,2.167c.507,1.471,1.026,2.992,1.548,4.551a5.217,5.217,0,0,1-9.393,4.443,8.293,8.293,0,0,1-.642-1.583l-1.629-4.853c-.182-.565-.329-1.006-.43-1.32-.046-.143-.081-.259-.108-.348a.509.509,0,0,1-.031-.12.7.7,0,0,1,.05.116l.124.337c.112.313.271.751.468,1.312l1.7,4.822a8.515,8.515,0,0,0,.642,1.548,5.031,5.031,0,0,0,9.072-4.3c-.534-1.548-1.053-3.1-1.548-4.555q-.387-1.1-.739-2.167c-.058-.178-.12-.352-.178-.526s-.135-.337-.2-.5-.17-.317-.252-.476l-.294-.437a5.031,5.031,0,0,0-3.355-1.962,5.241,5.241,0,0,0-1.8.073,5.42,5.42,0,0,0-1.548.631,4.646,4.646,0,0,0-1.161.987,4.841,4.841,0,0,0-.732,1.138,5.256,5.256,0,0,0-.5,2.109A6.3,6.3,0,0,0,286.485,340.022Z" transform="translate(-228.454 -233.001)" fill="#ffc100" stroke="#5b618a" stroke-width="1"/>
              <path id="Path_8579" data-name="Path 8579" d="M302.711,367.325l4.331,12.385a1.339,1.339,0,0,0,1.7.817h0a1.331,1.331,0,0,0,.82-1.7l-4.331-12.385a1.339,1.339,0,0,0-1.7-.821h0a1.335,1.335,0,0,0-.82,1.7Z" transform="translate(-238.553 -252.923)" fill="#ffc100" stroke="#5b618a" stroke-width="1"/>
              <path id="Path_8580" data-name="Path 8580" d="M302.678,367.246a.971.971,0,0,1-.089-.341,1.327,1.327,0,0,1,.286-.968,1.382,1.382,0,0,1,2.28.178,3.114,3.114,0,0,1,.209.515l.194.538c1.045,2.972,2.481,7.048,4.068,11.549a1.436,1.436,0,0,1-1.463,1.9,1.451,1.451,0,0,1-.832-.341,1.517,1.517,0,0,1-.464-.743c-.093-.259-.182-.519-.271-.774l-.511-1.509c-.677-1.954-1.285-3.715-1.8-5.2s-.909-2.667-1.2-3.514c-.132-.387-.24-.724-.317-.956-.031-.1-.054-.186-.077-.252a.318.318,0,0,1-.019-.089.359.359,0,0,1,.039.081l.1.244.352.948L304.42,372c.526,1.482,1.161,3.239,1.838,5.19.17.488.348.987.526,1.5.089.255.182.511.275.774a1.32,1.32,0,0,0,.41.658,1.238,1.238,0,0,0,1.97-1.32c-1.567-4.509-2.984-8.592-4.017-11.568l-.186-.542a3.22,3.22,0,0,0-.19-.5,1.3,1.3,0,0,0-.72-.592,1.289,1.289,0,0,0-1.393.387,1.327,1.327,0,0,0-.306.913C302.643,367.13,302.69,367.242,302.678,367.246Z" transform="translate(-238.52 -252.844)" fill="#ffc100" stroke="#5b618a" stroke-width="1"/>
              <path id="Path_8581" data-name="Path 8581" d="M265.218,279.5l2.523,7.377a5.132,5.132,0,0,0,6.514,3.193h0a5.128,5.128,0,0,0,3.193-6.514l-2.52-7.373a5.129,5.129,0,0,0-9.707,3.317Zm3.959-4.277a2.736,2.736,0,0,1,3.483,1.7l2.5,7.319a2.734,2.734,0,1,1-5.174,1.769l-2.5-7.319A2.732,2.732,0,0,1,269.177,275.222Z" transform="translate(-215.449 -196.016)" fill="#ffc100" stroke="#5b618a" stroke-width="1"/>
              <path id="Path_8582" data-name="Path 8582" d="M277.519,275.095l-.879-2.341a4.89,4.89,0,0,1,.813-.031l.774,2.547S277.681,275.013,277.519,275.095Z" transform="translate(-222.619 -196.02)" fill="#ffc100" stroke="#5b618a" stroke-width="1"/>
              <path id="Path_8583" data-name="Path 8583" d="M269.315,278.105l-1.7-1.7a10.511,10.511,0,0,1,1.01-1.006l.9,2.407Z" transform="translate(-217.089 -197.665)" fill="#ffc100" stroke="#5b618a" stroke-width="1"/>
              <path id="Path_8584" data-name="Path 8584" d="M265.218,279.5l2.523,7.377a5.132,5.132,0,0,0,6.514,3.193h0a5.128,5.128,0,0,0,3.193-6.514l-2.52-7.373a5.129,5.129,0,0,0-9.707,3.317Zm3.959-4.277a2.736,2.736,0,0,1,3.483,1.7l2.5,7.319a2.734,2.734,0,1,1-5.174,1.769l-2.5-7.319A2.732,2.732,0,0,1,269.177,275.222Z" transform="translate(-215.449 -196.016)" fill="#ffc100" stroke="#5b618a" stroke-width="1"/>
              <path id="Path_8585" data-name="Path 8585" d="M272.816,278.919a3.262,3.262,0,0,0-1.045.708,2.736,2.736,0,0,0-.724,2.206,5.167,5.167,0,0,0,.29.995c.484,1.4,1.06,3.061,1.7,4.9l.488,1.417c.085.24.159.5.259.72a2.43,2.43,0,0,0,.387.646,2.636,2.636,0,0,0,4.644-1.591,2.6,2.6,0,0,0-.081-.755c-.058-.24-.159-.488-.236-.728l-.48-1.42c-.623-1.846-1.184-3.51-1.66-4.915a4.856,4.856,0,0,0-.387-.964,2.644,2.644,0,0,0-.592-.7,2.748,2.748,0,0,0-1.327-.6,3.363,3.363,0,0,0-1.258.081.189.189,0,0,0,.077-.031,1.766,1.766,0,0,1,.236-.074,2.612,2.612,0,0,1,.956-.05,2.756,2.756,0,0,1,2.016,1.312,5.093,5.093,0,0,1,.41.983c.484,1.4,1.06,3.061,1.7,4.9.163.461.325.933.492,1.417.077.244.174.476.244.743a2.828,2.828,0,0,1-4.911,2.516,2.612,2.612,0,0,1-.426-.693c-.108-.252-.174-.491-.263-.735-.163-.484-.325-.956-.48-1.42-.623-1.846-1.184-3.51-1.66-4.915a5.194,5.194,0,0,1-.279-1.026,2.674,2.674,0,0,1,.058-.956,2.709,2.709,0,0,1,1.517-1.865,2.434,2.434,0,0,1,.232-.085A.408.408,0,0,1,272.816,278.919Z" transform="translate(-219.088 -199.713)" fill="#ffc100" stroke="#5b618a" stroke-width="1"/>
              <path id="Path_8586" data-name="Path 8586" d="M265.163,279.36a.988.988,0,0,1-.043-.112c-.027-.089-.062-.205-.108-.348a5.069,5.069,0,0,1-.155-1.385,5.163,5.163,0,0,1,.534-2.14,5.5,5.5,0,0,1,.774-1.161,5.593,5.593,0,0,1,1.2-.995,5.2,5.2,0,0,1,6.881,1.424,5.439,5.439,0,0,1,.546.96c.147.344.263.7.387,1.049l.743,2.167,1.548,4.555a5.325,5.325,0,0,1,.224,2.458,5.213,5.213,0,0,1-9.691,1.765,9.337,9.337,0,0,1-.627-1.591c-.681-2.04-1.238-3.7-1.625-4.853-.186-.565-.329-1.01-.433-1.324l-.108-.348a.956.956,0,0,1-.031-.12.438.438,0,0,1,.05.116c.035.085.074.2.128.337.112.313.267.755.468,1.312l1.687,4.838a8.937,8.937,0,0,0,.627,1.548,5.018,5.018,0,0,0,9.366-1.687,5.191,5.191,0,0,0-.213-2.365c-.534-1.548-1.053-3.1-1.548-4.555q-.387-1.1-.739-2.167a10.629,10.629,0,0,0-.387-1.037,5.276,5.276,0,0,0-.522-.925,5.041,5.041,0,0,0-8.6.658,5.2,5.2,0,0,0-.553,2.094,6.011,6.011,0,0,0,.217,1.834Z" transform="translate(-215.395 -195.877)" fill="#ffc100" stroke="#5b618a" stroke-width="1"/>
              <path id="Path_8587" data-name="Path 8587" d="M261.264,248.914l4.6,12.288a1.335,1.335,0,0,0,1.718.774h0a1.331,1.331,0,0,0,.774-1.718l-4.6-12.288a1.339,1.339,0,0,0-1.718-.774h0A1.335,1.335,0,0,0,261.264,248.914Z" transform="translate(-213.14 -180.324)" fill="#ffc100" stroke="#5b618a" stroke-width="1"/>
              <path id="Path_8588" data-name="Path 8588" d="M261.226,248.828a.993.993,0,0,1-.1-.341,1.343,1.343,0,0,1,.267-.971,1.37,1.37,0,0,1,1.475-.492,1.4,1.4,0,0,1,.809.619,3.485,3.485,0,0,1,.221.507l.2.538,4.327,11.452a1.432,1.432,0,0,1-2.249,1.61,1.525,1.525,0,0,1-.48-.731c-.1-.259-.194-.515-.286-.774l-.557-1.49-1.908-5.163c-.534-1.459-.964-2.647-1.273-3.483l-.333-.948-.085-.252a.283.283,0,0,1-.019-.085.341.341,0,0,1,.039.077l.1.244c.093.228.217.542.387.937l1.331,3.483c.557,1.471,1.215,3.216,1.935,5.147.182.488.368.983.561,1.49.093.255.19.511.286.774a1.347,1.347,0,0,0,.426.646,1.235,1.235,0,0,0,1.935-1.389c-1.66-4.474-3.166-8.515-4.257-11.479l-.2-.538a3.175,3.175,0,0,0-.2-.492,1.3,1.3,0,0,0-2.4.774A2.294,2.294,0,0,0,261.226,248.828Z" transform="translate(-213.103 -180.238)" fill="#ffc100" stroke="#5b618a" stroke-width="1"/>
              <path id="Path_8589" data-name="Path 8589" d="M282.461,309.4l4.6,12.284a1.335,1.335,0,0,0,1.718.774h0a1.339,1.339,0,0,0,.774-1.718l-4.6-12.288a1.339,1.339,0,0,0-1.718-.774h0A1.335,1.335,0,0,0,282.461,309.4Z" transform="translate(-226.133 -217.397)" fill="#ffc100" stroke="#5b618a" stroke-width="1"/>
              <path id="Path_8590" data-name="Path 8590" d="M282.43,309.318a.952.952,0,0,1-.1-.341,1.319,1.319,0,0,1,.263-.971,1.37,1.37,0,0,1,1.475-.492,1.39,1.39,0,0,1,.809.619,3.482,3.482,0,0,1,.221.507l.205.538c1.111,2.945,2.632,6.99,4.319,11.456a1.432,1.432,0,0,1-2.252,1.61,1.524,1.524,0,0,1-.48-.731c-.1-.259-.194-.515-.286-.774l-.538-1.486-1.935-5.163-1.269-3.483q-.217-.6-.337-.952c-.035-.1-.062-.178-.085-.248a.308.308,0,0,1,0-.085.166.166,0,0,0,.039.077l.1.244c.093.228.217.542.387.937l1.331,3.464,1.935,5.147c.182.488.387.983.561,1.49.093.255.19.511.286.774a1.347,1.347,0,0,0,.426.646,1.235,1.235,0,0,0,1.935-1.389l-4.257-11.479c-.07-.182-.135-.364-.2-.538a3.176,3.176,0,0,0-.2-.492,1.3,1.3,0,0,0-2.4.778A2.263,2.263,0,0,0,282.43,309.318Z" transform="translate(-226.102 -217.317)" fill="#ffc100" stroke="#5b618a" stroke-width="1"/>
              <path id="Path_8591" data-name="Path 8591" d="M218.06,130.486l4.6,12.288a1.339,1.339,0,0,0,1.718.774h0a1.339,1.339,0,0,0,.774-1.718l-4.6-12.292a1.335,1.335,0,0,0-1.718-.774h0a1.331,1.331,0,0,0-.77,1.722Z" transform="translate(-186.656 -107.727)" fill="#ffc100" stroke="#5b618a" stroke-width="1"/>
              <path id="Path_8592" data-name="Path 8592" d="M218.031,130.416a.952.952,0,0,1-.1-.341,1.327,1.327,0,0,1,.263-.971,1.386,1.386,0,0,1,2.283.128,3.7,3.7,0,0,1,.221.511l.205.534,4.319,11.456a1.44,1.44,0,0,1-1.413,1.935,1.456,1.456,0,0,1-.836-.325,1.525,1.525,0,0,1-.484-.731c-.1-.259-.193-.515-.286-.774-.19-.507-.387-1.006-.553-1.49-.72-1.935-1.366-3.688-1.912-5.163l-1.269-3.483-.337-.952-.085-.248a.294.294,0,0,1-.019-.089.361.361,0,0,1,.039.081c.027.066.062.143.1.244l.387.937,1.331,3.464c.557,1.471,1.219,3.212,1.935,5.147.182.484.368.983.561,1.49.093.252.19.511.29.774a1.316,1.316,0,0,0,.422.646,1.238,1.238,0,0,0,1.935-1.393c-1.664-4.474-3.17-8.514-4.257-11.475-.07-.182-.135-.364-.2-.538a3.176,3.176,0,0,0-.2-.492,1.281,1.281,0,0,0-2.113-.143,1.3,1.3,0,0,0-.286.917C217.992,130.3,218.042,130.412,218.031,130.416Z" transform="translate(-186.627 -107.657)" fill="#ffc100" stroke="#5b618a" stroke-width="1"/>
              <path id="Path_8593" data-name="Path 8593" d="M274.075,269.91l-1.807,1.285a5.163,5.163,0,0,1-1.215,7.191l-5.523,3.893,1.289,1.807,5.519-3.893A7.381,7.381,0,0,0,274.075,269.91Z" transform="translate(-215.808 -194.3)" fill="#ffc100" stroke="#5b618a" stroke-width="1"/>
              <g id="Group_811" data-name="Group 811" transform="translate(49.722 75.61)" opacity="0.4">
                <path id="Path_8594" data-name="Path 8594" d="M274.075,269.91l-1.807,1.285a5.163,5.163,0,0,1-1.215,7.191l-5.523,3.893,1.289,1.807,5.519-3.893A7.381,7.381,0,0,0,274.075,269.91Z" transform="translate(-265.53 -269.91)" fill="#ffc100" stroke="#5b618a" stroke-width="1"/>
              </g>
              <path id="Path_8595" data-name="Path 8595" d="M225.184,238.588a3,3,0,0,1-.426-.313l-1.118-.91c-.944-.774-2.245-1.838-3.7-3s-2.783-2.194-3.743-2.941l-1.134-.89a2.644,2.644,0,0,1-.387-.348,2.9,2.9,0,0,1,.449.286c.279.194.681.48,1.161.84.983.72,2.322,1.738,3.781,2.9s2.74,2.241,3.661,3.042c.461.387.828.728,1.08.956a2.4,2.4,0,0,1,.372.375Z" transform="translate(-184.638 -169.952)" fill="#ffc100" stroke="#5b618a" stroke-width="1"/>
              <path id="Path_8596" data-name="Path 8596" d="M223.392,254.023a6.213,6.213,0,0,1-1.091,0l-2.628-.077-2.632-.023a5.922,5.922,0,0,1-1.091-.043,6.3,6.3,0,0,1,1.091-.1c.673-.031,1.606-.05,2.636-.031s1.958.074,2.632.132a5.42,5.42,0,0,1,1.084.143Z" transform="translate(-185.417 -184.388)" fill="#ffc100" stroke="#5b618a" stroke-width="1"/>
              <path id="Path_8597" data-name="Path 8597" d="M283.5,202.4c.054,0-.209,3.015-.584,6.723s-.731,6.711-.774,6.707.209-3.019.584-6.726S283.447,202.4,283.5,202.4Z" transform="translate(-225.989 -152.917)" fill="#ffc100" stroke="#5b618a" stroke-width="1"/>
              <path id="Path_8598" data-name="Path 8598" d="M294.017,217.4a28.647,28.647,0,0,1-2.249,2.485,28.013,28.013,0,0,1-2.388,2.349,28.254,28.254,0,0,1,2.245-2.485,27.682,27.682,0,0,1,2.392-2.349Z" transform="translate(-230.428 -162.112)" fill="#ffc100" stroke="#5b618a" stroke-width="1"/>
            </g>
          </g>
        </g>
      </g>
    </g>
    <g id="Group_830" data-name="Group 830" transform="translate(818.707 215.153)">
      <path id="Path_8774" data-name="Path 8774" d="M380.172,171.3c0-14.037-4.413-17.847-11.465-17.847s-11.465,4.231-11.465,15.4v10.026H336.336V170.4c0-24.966,11.248-39.243,32.985-39.243s32.985,14.278,32.985,39.243v4.011c0,16.724-4.828,27.212-15.5,32.085,11.068,5.354,15.5,16.945,15.5,32.786v12.272c0,24.986-11.266,39.243-32.985,39.243s-32.985-14.258-32.985-39.243V238.621h20.905v14.5c0,11.149,4.431,15.381,11.465,15.381s11.465-3.79,11.465-17.606V238.621c0-14.5-4.413-19.852-14.467-19.852H358.29V196.51h8.644c8.246,0,13.274-4.011,13.274-16.5Z" transform="translate(-336.336 -131.158)" fill="#9293b1"/>
      <path id="Path_8773" data-name="Path 8773" d="M380.172,171.3c0-14.037-4.413-17.847-11.465-17.847s-11.465,4.231-11.465,15.4v10.026H336.336V170.4c0-24.966,11.248-39.243,32.985-39.243s32.985,14.278,32.985,39.243v4.011c0,16.724-4.828,27.212-15.5,32.085,11.068,5.354,15.5,16.945,15.5,32.786v12.272c0,24.986-11.266,39.243-32.985,39.243s-32.985-14.258-32.985-39.243V238.621h20.905v14.5c0,11.149,4.431,15.381,11.465,15.381s11.465-3.79,11.465-17.606V238.621c0-14.5-4.413-19.852-14.467-19.852H358.29V196.51h8.644c8.246,0,13.274-4.011,13.274-16.5Z" transform="translate(-328.009 -131.158)" fill="#5b618a"/>
    </g>
    <path id="Path_8775" data-name="Path 8775" d="M132.172,219.516s5.332-.864,6.711-.521,2.408,3.616,2.408,3.616.515,4.817-.349,5.847-4.989,2.237-6.7,2.58-5.338-3.61-6.741-6.018S128.557,218.481,132.172,219.516Z" transform="translate(724.882 36.684)" fill="#ffbf9d" stroke="#263238" stroke-linecap="round" stroke-linejoin="round" stroke-width="0.988"/>
  </g>
</svg>
