<svg xmlns="http://www.w3.org/2000/svg" xmlns:xlink="http://www.w3.org/1999/xlink" width="21.695" height="20.791" viewBox="0 0 21.695 20.791">
  <defs>
    <clipPath id="clip-path">
      <rect id="Rectangle_24" data-name="Rectangle 24" width="21.695" height="20.791" fill="#777ba4" stroke="#707070" stroke-width="1"/>
    </clipPath>
  </defs>
  <g id="password" clip-path="url(#clip-path)">
    <g id="lock_black_24dp" transform="translate(0.644 -0.105)">
      <path id="Path_219" data-name="Path 219" d="M0,0H20.6V20.6H0Z" fill="none"/>
      <path id="Path_220" data-name="Path 220" d="M14.685,6.676h-.858V4.959a4.292,4.292,0,1,0-8.585,0V6.676H4.384A1.722,1.722,0,0,0,2.667,8.393v8.585a1.722,1.722,0,0,0,1.717,1.717h10.3A1.722,1.722,0,0,0,16.4,16.977V8.393A1.722,1.722,0,0,0,14.685,6.676ZM9.534,14.4a1.717,1.717,0,1,1,1.717-1.717A1.722,1.722,0,0,1,9.534,14.4ZM12.2,6.676H6.873V4.959a2.661,2.661,0,1,1,5.322,0Z" transform="translate(0.767 0.192)" fill="#5B618A"/>
    </g>
  </g>
</svg>
