<svg xmlns="http://www.w3.org/2000/svg" xmlns:xlink="http://www.w3.org/1999/xlink" width="284.517" height="238.996" viewBox="0 0 284.517 238.996">
  <defs>
    <clipPath id="clip-path">
      <rect id="Rectangle_617" data-name="Rectangle 617" width="111.376" height="111.376" transform="translate(0 0)" fill="#ffc100" stroke="#707070" stroke-width="1"/>
    </clipPath>
  </defs>
  <g id="_404_Plane" data-name="404/Plane" transform="translate(-630.885 -242.65)">
    <g id="_404" data-name="404" transform="translate(630.885 239.114)">
      <g id="freepik--Body--inject-447" transform="translate(65.09 224.602) rotate(-77)">
        <path id="Path_7968" data-name="Path 7968" d="M3.876,2.869C.409,4.506-.172,7.237.525,9.958a10.868,10.868,0,0,1-.358-1.5C-1.053,1.329,4.612.313,10.452.371c4.193-.881,15.679-.484,20.337,4.464C19.768.952,7.75,1.039,3.876,2.869Z" transform="translate(0 0)" fill="#fafafa" opacity="0.5"/>
      </g>
      <g id="freepik--Number--inject-1" transform="translate(0 50.562)">
        <path id="Path_7720" data-name="Path 7720" d="M96.287,338.455V302.76H52.88V281.591L90.732,193.15h28.881v89.879H134.5V302.76H119.613v35.695Zm-22.6-55.434h22.6V219.874Z" transform="translate(-52.88 -191.352)" fill="#5b618a" opacity="0.42"/>
        <path id="Path_7722" data-name="Path 7722" d="M201.382,340.309q-12.737,0-21.075-5.384a33.316,33.316,0,0,1-12.557-14.886,53.342,53.342,0,0,1-4.22-21.888v-64.4a57.2,57.2,0,0,1,4.04-22.333,32.168,32.168,0,0,1,12.378-14.98q8.346-5.376,21.4-5.384t21.443,5.384a32.168,32.168,0,0,1,12.378,14.98q4.092,9.553,4.092,22.333v64.4a53.585,53.585,0,0,1-4.211,21.888,33.384,33.384,0,0,1-12.557,14.886Q214.119,340.309,201.382,340.309Zm0-21.348q5.564,0,8.252-3.424a18.627,18.627,0,0,0,3.6-8.252,52.883,52.883,0,0,0,.856-9.51V234.089a61.4,61.4,0,0,0-.8-9.955,17.873,17.873,0,0,0-3.467-8.3q-2.688-3.424-8.432-3.424t-8.432,3.424a17.975,17.975,0,0,0-3.492,8.346,61.415,61.415,0,0,0-.813,9.955v63.686a47.569,47.569,0,0,0,.967,9.484,19.312,19.312,0,0,0,3.672,8.252Q196.006,318.961,201.382,318.961Z" transform="translate(-68.815 -191.05)" fill="#5b618a" opacity="0.42"/>
        <path id="Path_7724" data-name="Path 7724" d="M313.827,338.455V302.76H270.42V281.591l37.852-88.441h28.881v89.879h14.886V302.76H337.153v35.695Zm-22.6-55.434h22.6V219.874Z" transform="translate(-84.208 -191.352)" fill="#5b618a" opacity="0.42"/>
        <path id="Path_7726" data-name="Path 7726" d="M108.926,338.455V302.76H65.51V281.591l37.852-88.441h28.89v89.879h14.886V302.76H132.252v35.695ZM86.319,283.021h22.607V219.874Z" transform="translate(-54.699 -191.352)" fill="#5b618a"/>
        <path id="Path_7728" data-name="Path 7728" d="M214.022,340.309q-12.737,0-21.083-5.384a33.383,33.383,0,0,1-12.557-14.886,53.622,53.622,0,0,1-4.211-21.888v-64.4a57.311,57.311,0,0,1,4.032-22.333,32.236,32.236,0,0,1,12.386-14.98q8.337-5.376,21.4-5.384t21.4,5.384a32.237,32.237,0,0,1,12.386,14.98,57.312,57.312,0,0,1,4.032,22.333v64.4a53.585,53.585,0,0,1-4.212,21.888,33.384,33.384,0,0,1-12.506,14.886Q226.759,340.309,214.022,340.309Zm0-21.348q5.564,0,8.252-3.424a18.515,18.515,0,0,0,3.587-8.252,52.139,52.139,0,0,0,.9-9.51V234.089a61.407,61.407,0,0,0-.8-9.955,17.873,17.873,0,0,0-3.5-8.346q-2.7-3.424-8.432-3.424t-8.432,3.424a17.873,17.873,0,0,0-3.5,8.346,61.407,61.407,0,0,0-.8,9.955v63.686a47.546,47.546,0,0,0,.984,9.51,19.32,19.32,0,0,0,3.681,8.252Q208.646,318.961,214.022,318.961Z" transform="translate(-70.635 -191.05)" fill="#5b618a"/>
        <path id="Path_7730" data-name="Path 7730" d="M326.466,338.455V302.76H283.05V281.591L320.9,193.15h28.873v89.879H364.66V302.76H349.775v35.695Zm-22.607-55.434h22.607V219.874Z" transform="translate(-86.026 -191.352)" fill="#5b618a"/>
      </g>
      <g id="freepik--Plane--inject-447" transform="translate(61.723 227.666) rotate(-79)">
        <g id="freepik--Wing--inject-447" transform="translate(13.369 48.07)">
          <g id="freepik--wing--inject-447-2" data-name="freepik--wing--inject-447" transform="translate(0 0)">
            <path id="freepik--wing--inject-447-3" data-name="freepik--wing--inject-447" d="M1.346,41.646,52.4.264l.106-.077c1.527-.884,8.031,1.45,14.524,5.2l9.606,5.533c6.494,3.746,10.567,7.5,9,8.386l-.125.058L7.157,49.879,1.768,46.766C-.422,45.489-.595,43.174,1.346,41.646Z" transform="translate(0.002 0.048)" fill="#ebebeb"/>
            <path id="Path_7935" data-name="Path 7935" d="M50.912,19.8,33.525,9.764,45.244.264,45.35.187c1.527-.884,8.031,1.45,14.524,5.2l9.606,5.533c6.494,3.746,10.567,7.5,9,8.386l-.125.058L0,49.879,50.787,24.115C53.025,22.982,53.073,21.051,50.912,19.8Z" transform="translate(7.159 0)" fill="#e0e0e0"/>
            <path id="Path_7936" data-name="Path 7936" d="M2.923,47.175h0L1.751,46.5c-2.171-1.249-2.344-3.545-.4-5.12L52.4,0S7.14,37.819,4.8,40.239-1.294,44.726,2.923,47.175Z" transform="translate(0 0.283)" fill="#fafafa"/>
          </g>
          <path id="Path_7937" data-name="Path 7937" d="M.822.05A97.734,97.734,0,0,1,13.627,6.2s.2.759-.855,1.364a4.486,4.486,0,0,1-2.373.49,72.047,72.047,0,0,1-10.173-7,.586.586,0,0,1,.6-1Z" transform="translate(47.605 22.068)" fill="#ba68c8"/>
          <path id="Path_7938" data-name="Path 7938" d="M.822.05A97.734,97.734,0,0,1,13.627,6.2s.2.759-.855,1.364a4.486,4.486,0,0,1-2.373.49,72.047,72.047,0,0,1-10.173-7,.586.586,0,0,1,.6-1Z" transform="translate(47.605 22.068)" fill="#ba68c8"/>
          <path id="Path_7939" data-name="Path 7939" d="M.822.05A97.734,97.734,0,0,1,13.627,6.2s.2.759-.855,1.364a4.486,4.486,0,0,1-2.373.49,72.047,72.047,0,0,1-10.173-7,.586.586,0,0,1,.6-1Z" transform="translate(47.605 22.068)" fill="#ba68c8"/>
          <path id="Path_7940" data-name="Path 7940" d="M.822.05A97.734,97.734,0,0,1,13.627,6.2s.2.759-.855,1.364a4.486,4.486,0,0,1-2.373.49,72.047,72.047,0,0,1-10.173-7,.586.586,0,0,1,.6-1Z" transform="translate(47.605 22.068)" fill="#ba68c8"/>
          <path id="Path_7941" data-name="Path 7941" d="M.822.05A97.734,97.734,0,0,1,13.627,6.2s.2.759-.855,1.364a4.486,4.486,0,0,1-2.373.49,72.047,72.047,0,0,1-10.173-7,.586.586,0,0,1,.6-1Z" transform="translate(47.605 22.068)" fill="#ba68c8"/>
          <path id="Path_7942" data-name="Path 7942" d="M.822.05A97.734,97.734,0,0,1,13.627,6.2s.2.759-.855,1.364a4.486,4.486,0,0,1-2.373.49,72.047,72.047,0,0,1-10.173-7,.586.586,0,0,1,.6-1Z" transform="translate(47.605 22.068)" fill="#5b618a"/>
          <path id="Path_7943" data-name="Path 7943" d="M11.239,6.091C10.48,5.179.74.068,0,.251a.567.567,0,0,1,.7-.2A97.73,97.73,0,0,1,13.506,6.2s.2.759-.855,1.364a4.486,4.486,0,0,1-2.373.49C11.153,7.772,12.007,7,11.239,6.091Z" transform="translate(47.725 22.068)" opacity="0.15"/>
          <path id="Path_7944" data-name="Path 7944" d="M.631.028a75.2,75.2,0,0,1,10.009,4.8s.163.6-.663,1.076a3.554,3.554,0,0,1-1.864.384A56.676,56.676,0,0,1,.151.816.471.471,0,0,1,.631.028Z" transform="translate(32.695 30.485)" fill="#ba68c8"/>
          <path id="Path_7945" data-name="Path 7945" d="M.631.028a75.2,75.2,0,0,1,10.009,4.8s.163.6-.663,1.076a3.554,3.554,0,0,1-1.864.384A56.676,56.676,0,0,1,.151.816.471.471,0,0,1,.631.028Z" transform="translate(32.695 30.485)" fill="#5b618a"/>
          <path id="Path_7946" data-name="Path 7946" d="M8.9,4.764a30.324,30.324,0,0,0-5.13-2.93C1.077.451.194.085,0,.508A.471.471,0,0,1,.655.037a75.2,75.2,0,0,1,10.009,4.8s.163.6-.663,1.076A3.554,3.554,0,0,1,8.138,6.3S9.531,5.4,8.9,4.764Z" transform="translate(32.671 30.476)" opacity="0.15"/>
          <path id="Path_7947" data-name="Path 7947" d="M.129.629A.355.355,0,0,1,.485.024,55.3,55.3,0,0,1,7.718,3.5s.115.432-.49.788a2.613,2.613,0,0,1-1.354.279A40.832,40.832,0,0,1,.129.629Z" transform="translate(17.731 38.884)" fill="#ba68c8"/>
          <path id="Path_7948" data-name="Path 7948" d="M.129.629A.355.355,0,0,1,.485.024,55.3,55.3,0,0,1,7.718,3.5s.115.432-.49.788a2.613,2.613,0,0,1-1.354.279A40.832,40.832,0,0,1,.129.629Z" transform="translate(17.731 38.884)" fill="#5b618a"/>
          <path id="Path_7949" data-name="Path 7949" d="M6.5,3.5A26.51,26.51,0,0,0,1.921,1C.163.219,0,.152,0,.354A.346.346,0,0,1,.48.027,55.3,55.3,0,0,1,7.714,3.5s.115.432-.49.788a2.613,2.613,0,0,1-1.354.279C6.35,4.369,6.916,3.908,6.5,3.5Z" transform="translate(17.764 38.881)" opacity="0.15"/>
        </g>
        <g id="freepik--Turbine--inject-447" transform="translate(45.168 50.38)">
          <path id="Path_7954" data-name="Path 7954" d="M0,6.052A6.061,6.061,0,1,0,6.052,0,6.061,6.061,0,0,0,0,6.052Z" transform="translate(17.156 12.027)" fill="#e0e0e0"/>
          <path id="Path_7955" data-name="Path 7955" d="M0,6.052A6.061,6.061,0,1,0,6.052,0,6.061,6.061,0,0,0,0,6.052Z" transform="translate(17.156 12.027)" opacity="0.1"/>
          <path id="Path_7956" data-name="Path 7956" d="M.01,6.051A6.061,6.061,0,0,1,9.433,1.018a10.25,10.25,0,0,1-2.5,9.212c-.432.423,2.478.4,4.8-2.094A6.052,6.052,0,0,1,0,6.051Z" transform="translate(17.147 12.027)" opacity="0.1"/>
          <path id="Path_7957" data-name="Path 7957" d="M8.665,0c5.86,0,15.85,9.856,16.4,10.567h0a4.553,4.553,0,0,1,.893,2.949,12.219,12.219,0,0,1-5.523,9.606,4.39,4.39,0,0,1-3.141.682h0C16.417,23.679,2.949,19.856,0,14.784Z" transform="translate(0.624 0)" fill="#e0e0e0"/>
          <path id="Path_7958" data-name="Path 7958" d="M0,14.034,8.242,0c1.566.163,2.882.5,3.237,1.143,1.23,2.017,1.364,5.9,0,8.828s-1.287,3.938,4.668,5.85,7.493,1.652,9.539-.961a12.305,12.305,0,0,1-5.274,7.56,4.39,4.39,0,0,1-3.141.682h0C16.4,22.93,2.93,19.106,0,14.034Z" transform="translate(0.644 0.701)" opacity="0.1"/>
          <path id="Path_7959" data-name="Path 7959" d="M.451,0c5.86,0,15.85,9.856,16.4,10.567h0a4.207,4.207,0,0,1,.845,2.363c-.375-1.431-1.969-2.786-4.063-4.572a89.007,89.007,0,0,0-9.02-6.436c-1.133-.548.077,2.325-1.22,5.466L0,.663Z" transform="translate(8.838 0)" fill="#fafafa"/>
          <path id="Path_7960" data-name="Path 7960" d="M0,11.863c0,4.044,2.882,5.687,6.35,3.66A14.015,14.015,0,0,0,12.7,4.534C12.7.48,9.817-1.153,6.35.864a14.034,14.034,0,0,0-6.35,11Z" transform="translate(0 0.01)" fill="#455a64"/>
          <path id="Path_7961" data-name="Path 7961" d="M4.851,5.379,1.825,2.065,5.408,5.648Zm.394-.413L3.18.98,5.706,5.37Zm.48-.3L4.765.269,6.1,5.178Zm.548-.163L6.446,0V5.082ZM.8,3.468l4.39,2.526-.605-.106ZM5.85,8.7,3.41,12.545,5.956,8.1ZM.173,5.082,5.062,6.388H4.448ZM5.341,8.434,2.008,11.489l3.6-3.612ZM6.859,4.486,8.175.183,6.907,5.1ZM4.486,7.012,0,6.811H5.062ZM4.947,8.04.961,10.105l4.39-2.526Zm-.3-.49-4.39.961,4.9-1.316Zm3.766-.269.163.25L7.81,7.08ZM7.55,8.549v.644L7.08,7.7Zm.624-.836.125.307-.557-.557Zm-.288.4.067.423-.519-.961Zm-1.47.711-.845,2.507.8-3.112Zm.605-.077-.2,1.335V7.81ZM8.328,5.283,9.9,4.534,7.983,5.744Zm.509,1.739-1.018-.24h.672ZM7.416,4.505,9.837.72,7.3,5.226Zm.5.384L10.23,2.776,7.656,5.447Zm.451.961.163-.1.961-.067-1.354.442ZM8.252,6.4l.231-.067.663.125-.961.077Z" transform="translate(1.787 2.824)" fill="#fff" opacity="0.5"/>
          <path id="Path_7962" data-name="Path 7962" d="M6.9,9.875,1.97,14.8a.279.279,0,0,1-.279.067l-.154-.077h0s0-.067.115-.144L6.667,9.635c.067-.067.058-.086,0,0L.481,13.2a.154.154,0,0,1-.221-.077h0a.211.211,0,0,1,.1-.259L6.485,9.327c.086,0,.077-.067,0,0l-6.321,1.7c-.106,0-.173,0-.163-.134H0a.269.269,0,0,1,.192-.231L6.389,9H.424a.134.134,0,0,1-.134-.173h0A.25.25,0,0,1,.51,8.645H6.35L1.01,7.214A.154.154,0,0,1,.894,7h0a.2.2,0,0,1,.24-.115L6.447,8.309h0L1.778,5.62c-.086,0-.134-.134-.115-.192l.058-.1V5.274h.192l4.668,2.7h0l-3.89-3.9a.221.221,0,0,1,0-.269h0a.154.154,0,0,1,.24,0L6.85,7.723c.077.077.086.058,0,0L3.968,2.642a.23.23,0,0,1,0-.279h0a.134.134,0,0,1,.221,0L7.167,7.512c.048.086.067.086,0,0L5.505,1.287a.279.279,0,0,1,.1-.279h0a.125.125,0,0,1,.2.077L7.5,7.445c0,.1.048.086.048,0V.317A.221.221,0,0,1,7.724.106h0A.144.144,0,0,1,7.9.259V7.445c0,.1,0,.106.048,0L9.953.163A.394.394,0,0,1,10.03,0h0l.125.086a.269.269,0,0,1,.086.269l-1.825,6.8h0L11.3,2.142c.048-.086.106-.077.134,0s0,.115,0,.173a.586.586,0,0,1-.058.336L8.675,7.32c-.048.086,0,.1,0,0l2.651-2.651c.067-.067.115,0,.115.058v.192a.509.509,0,0,1-.144.307L8.944,7.579c-.067.067-.058.086,0,0l2.008-1.153c.086-.058.134,0,.106.077l-.048.163a.509.509,0,0,1-.211.259l-1.671.961c-.086.058-.077.077,0,0l1.383-.375c.1,0,.144,0,.115.125v.077a.394.394,0,0,1-.24.221l-1.133.3h.961c.106,0,.154.077.106.163h0a.336.336,0,0,1-.269.163H9.29l.644.173a.144.144,0,0,1,.1.211h0a.221.221,0,0,1-.259.115L9.2,8.9h0l.5.288c.086.048.144.115.125.154V9.4l-.058.1c0,.048-.125.048-.211,0l-.49-.279c-.086-.058-.106,0,0,0l.413.4a.259.259,0,0,1,0,.288h0a.144.144,0,0,1-.231,0L8.79,9.443c-.077-.067-.086-.058,0,0l.375.663a.317.317,0,0,1,0,.307h0c0,.077-.134.077-.192,0L8.5,9.6c0-.086-.067-.077,0,0l.3,1.114a.365.365,0,0,1-.067.317l-.058.067c-.058.077-.134.058-.163,0L8.147,9.731c0-.1-.048-.1-.048,0v1.921a.509.509,0,0,1-.115.307l-.115.115c-.067.067-.125.048-.125,0V9.789c0-.1,0-.1-.048,0l-.845,3.16a.635.635,0,0,1-.192.279l-.173.106c-.077.058-.125,0-.1-.067L7.35,9.692h0L4.689,14.3a.576.576,0,0,1-.269.211l-.163.058c-.1,0-.134,0-.077-.115L7.061,9.51C6.984,9.817,6.975,9.769,6.9,9.875Z" transform="translate(0.537 0.797)" fill="#37474f"/>
          <path id="Path_7963" data-name="Path 7963" d="M.1.548A.644.644,0,0,1,.508.26h0S3.736-.432,5.254.442A1.354,1.354,0,0,1,5.8,1.672,4.169,4.169,0,0,1,3.88,4.947a1.345,1.345,0,0,1-1.335.134h0C1.027,4.2.018,1.057.018,1.057h0A.653.653,0,0,1,.1.548Z" transform="translate(4.429 6.657)" fill="#ebebeb"/>
          <path id="Path_7964" data-name="Path 7964" d="M2.747,3.055c1.23.788,2.171-.154,2.459-1.133A1.441,1.441,0,0,0,4.486,0a2.787,2.787,0,0,1,.778.3,1.326,1.326,0,0,1,.547,1.22A4.169,4.169,0,0,1,3.891,4.793a1.345,1.345,0,0,1-1.335.134h0C1.038,4.054.029.9.029.9h0A.653.653,0,0,1,.077.4C.058.913,1.518,2.267,2.747,3.055Z" transform="translate(4.428 6.772)" opacity="0.1"/>
          <path id="Path_7965" data-name="Path 7965" d="M.048,1.047A.653.653,0,0,1,.1.548.644.644,0,0,1,.5.26h0S3.727-.432,5.245.442a1.134,1.134,0,0,1,.461.644C5.495.692,4.88.337,3.314.289A10.662,10.662,0,0,0,.432.5a.346.346,0,0,1,.1.413c-.1.259-.4.346-.528.144Z" transform="translate(4.438 6.637)" fill="#fafafa"/>
        </g>
        <g id="freepik--Body--inject-447-2" data-name="freepik--Body--inject-447" transform="translate(0 0)">
          <path id="freepik--body--inject-447-3" data-name="freepik--body--inject-447" d="M10.365,3.829s3.1-4.361,9.827-3.775,13.064,3.295,24.1,9.673l69.9,40.345c7.627,4.407,33.636,17.473,33.636,17.473l-21.207,4.122L96.489,77.525,18.559,33.089C9.731,28,1.364,18.92.164,11.85S4.573,3.772,10.365,3.829Z" transform="translate(0)" fill="#f5f5f5"/>
          <path id="Path_7966" data-name="Path 7966" d="M30.528,4.8c4.611,4.909,6.426,9.961,13.785,14.217,7.032,4.054,86.776,48.307,86.776,48.307L95.146,74.312,18.559,29.633C9.731,24.542,1.364,15.464.164,8.394S4.573.316,10.365.373C14.525-.5,25.956-.145,30.528,4.8Z" transform="translate(0 3.456)" fill="#ba68c8"/>
          <path id="Path_7967" data-name="Path 7967" d="M30.528,4.8c4.611,4.909,6.426,9.961,13.785,14.217,5.253,3.028,87.11,48.55,87.11,48.55L117.75,70.226,95.986,74.457,18.559,29.633C9.731,24.542,1.364,15.464.164,8.394S4.573.316,10.365.373C14.525-.5,25.956-.145,30.528,4.8Z" transform="translate(0 3.456)" fill="#5b618a"/>
          <path id="Path_7968-2" data-name="Path 7968" d="M3.845,2.846C.406,4.469-.17,7.178.521,9.878A10.781,10.781,0,0,1,.166,8.389C-1.045,1.319,4.575.31,10.367.368,14.527-.507,25.919-.113,30.54,4.8,19.608.944,7.687,1.03,3.845,2.846Z" transform="translate(0.017 3.462)" fill="#fafafa" opacity="0.5"/>
          <path id="Path_7969" data-name="Path 7969" d="M18.873,5.951C32.648,13.069,62.1,29.726,89.439,45.086L85.76,34.52l32.89,17.548,9.24,4.813c.892.494-20.527,4.585-20.527,4.585L91.781,64.031,15.194,19.352A49.415,49.415,0,0,1,2.226,8.4C-1.847,1.206-2.385-5.019,18.873,5.951Z" transform="translate(3.365 13.737)" fill="#fafafa"/>
        </g>
        <g id="freepik--Windows--inject-447" transform="translate(53.438 16.548)">
          <path id="Path_7970" data-name="Path 7970" d="M.265,2.389A8.55,8.55,0,0,0,.016.266C-.042.026.064-.07.284.055l.865.5a1.287,1.287,0,0,1,.528.663,8.377,8.377,0,0,1,.25,2.133.25.25,0,0,1-.4.221l-.874-.5a.874.874,0,0,1-.384-.682Z" transform="translate(49.618 28.647)" fill="#455a64"/>
          <path id="Path_7971" data-name="Path 7971" d="M.259,2.391A9.126,9.126,0,0,0,.019.259c-.067-.24.048-.327.259-.2l.874.5a1.278,1.278,0,0,1,.519.663,7.9,7.9,0,0,1,.25,2.123.25.25,0,0,1-.4.231l-.874-.5a.874.874,0,0,1-.384-.682Z" transform="translate(46.522 26.858)" fill="#455a64"/>
          <path id="Path_7972" data-name="Path 7972" d="M.259,2.4A8.585,8.585,0,0,0,.019.266C-.048.026.067-.07.278.055l.874.509a1.287,1.287,0,0,1,.519.653,7.6,7.6,0,0,1,.25,2.133c0,.25-.192.346-.4.221l-.874-.5A.865.865,0,0,1,.259,2.4Z" transform="translate(43.419 25.064)" fill="#455a64"/>
          <path id="Path_7973" data-name="Path 7973" d="M.265,2.391A8.09,8.09,0,0,0,.024.268c-.067-.25,0-.336.259-.211l.874.5a1.316,1.316,0,0,1,.519.663,7.6,7.6,0,0,1,.25,2.133c0,.25-.182.346-.4.221l-.865-.5A.865.865,0,0,1,.265,2.391Z" transform="translate(40.311 23.276)" fill="#455a64"/>
          <path id="Path_7974" data-name="Path 7974" d="M.256,2.4A8.155,8.155,0,0,0,.016.266C-.042.026.064-.07.284.055l.865.509a1.2,1.2,0,0,1,.519.653,7.6,7.6,0,0,1,.25,2.133c0,.25-.183.355-.4.231L.65,3.071A.845.845,0,0,1,.256,2.4Z" transform="translate(37.217 21.481)" fill="#455a64"/>
          <path id="Path_7975" data-name="Path 7975" d="M.256,2.389A8.089,8.089,0,0,0,.016.266C-.042.026.064-.07.284.055l.865.5a1.22,1.22,0,0,1,.519.663A7.994,7.994,0,0,1,1.927,3.35c0,.25-.192.346-.413.221l-.865-.5A.865.865,0,0,1,.256,2.389Z" transform="translate(34.114 19.694)" fill="#455a64"/>
          <path id="Path_7976" data-name="Path 7976" d="M.27,2.391A8.645,8.645,0,0,0,.02.259c-.058-.24,0-.327.269-.2l.865.5a1.249,1.249,0,0,1,.528.663,8.3,8.3,0,0,1,.25,2.123.248.248,0,0,1-.4.231l-.874-.5A.874.874,0,0,1,.27,2.391Z" transform="translate(31.007 17.906)" fill="#455a64"/>
          <path id="Path_7977" data-name="Path 7977" d="M.259,2.4A9.068,9.068,0,0,0,.019.266C-.048.026.067-.07.278.055l.874.509a1.287,1.287,0,0,1,.519.653,7.963,7.963,0,0,1,.25,2.133c0,.25-.192.346-.4.221l-.874-.5A.865.865,0,0,1,.259,2.4Z" transform="translate(27.915 16.111)" fill="#455a64"/>
          <path id="Path_7978" data-name="Path 7978" d="M.259,2.391A8.51,8.51,0,0,0,.019.268C-.048.018.067-.068.279.057l.874.5a1.316,1.316,0,0,1,.519.663,7.6,7.6,0,0,1,.25,2.133c0,.25-.192.346-.4.221l-.874-.5a.874.874,0,0,1-.384-.682Z" transform="translate(24.812 14.323)" fill="#455a64"/>
          <path id="Path_7979" data-name="Path 7979" d="M.265,2.391A8.156,8.156,0,0,0,.024.259c-.067-.24,0-.327.259-.2l.874.5a1.287,1.287,0,0,1,.519.653,7.6,7.6,0,0,1,.25,2.133c0,.25-.183.355-.4.231L.658,3.064a.845.845,0,0,1-.394-.672Z" transform="translate(21.704 12.536)" fill="#455a64"/>
          <path id="Path_7980" data-name="Path 7980" d="M.256,2.389A8.089,8.089,0,0,0,.016.266C-.042.026.064-.07.285.055l.865.5a1.22,1.22,0,0,1,.519.663,7.6,7.6,0,0,1,.25,2.133c0,.25-.183.346-.4.221l-.865-.5A.865.865,0,0,1,.256,2.389Z" transform="translate(18.61 10.742)" fill="#455a64"/>
          <path id="Path_7981" data-name="Path 7981" d="M.256,2.391A8.2,8.2,0,0,0,.016.259c-.058-.24.048-.327.269-.2l.865.5a1.191,1.191,0,0,1,.519.663,7.53,7.53,0,0,1,.25,2.123c0,.25-.183.355-.4.231l-.865-.5A.865.865,0,0,1,.256,2.391Z" transform="translate(15.488 8.953)" fill="#455a64"/>
          <path id="Path_7982" data-name="Path 7982" d="M.27,2.4A8.643,8.643,0,0,0,.02.266C-.037.026.02-.07.289.055l.865.509a1.258,1.258,0,0,1,.528.653,8.377,8.377,0,0,1,.25,2.133c0,.25-.192.346-.413.221l-.865-.5A.865.865,0,0,1,.27,2.4Z" transform="translate(12.4 7.159)" fill="#455a64"/>
          <path id="Path_7983" data-name="Path 7983" d="M.259,2.391A8.993,8.993,0,0,0,.019.268C-.048.018.067-.068.279.057l.874.5a1.316,1.316,0,0,1,.519.663,8.377,8.377,0,0,1,.25,2.133c0,.25-.192.346-.4.221l-.874-.5A.874.874,0,0,1,.259,2.391Z" transform="translate(9.308 5.37)" fill="#455a64"/>
          <path id="Path_7984" data-name="Path 7984" d="M.259,2.391A8.585,8.585,0,0,0,.019.259c-.067-.24.048-.327.259-.2l.874.5a1.287,1.287,0,0,1,.519.653,7.6,7.6,0,0,1,.25,2.133.25.25,0,0,1-.4.231L.644,3.064A.865.865,0,0,1,.259,2.391Z" transform="translate(6.205 3.583)" fill="#455a64"/>
          <path id="Path_7985" data-name="Path 7985" d="M.259,2.389A8.089,8.089,0,0,0,.019.266C-.048.026.067-.07.279.055l.874.5a1.316,1.316,0,0,1,.519.663,7.6,7.6,0,0,1,.25,2.133c0,.25-.183.346-.4.221l-.865-.5A.865.865,0,0,1,.259,2.389Z" transform="translate(3.103 1.789)" fill="#455a64"/>
          <path id="Path_7986" data-name="Path 7986" d="M.259,2.391A8.206,8.206,0,0,0,.019.259c-.067-.24.048-.327.269-.2l.865.5a1.191,1.191,0,0,1,.519.663,7.532,7.532,0,0,1,.25,2.123c0,.25-.182.355-.4.231l-.865-.5A.865.865,0,0,1,.259,2.391Z" transform="translate(0 0)" fill="#455a64"/>
          <path id="Path_7991" data-name="Path 7991" d="M.23,1.7A8.912,8.912,0,0,0,.024.259c-.067-.24,0-.327.259-.2l.874.5a1.278,1.278,0,0,1,.519.663c.184.692.037.19.037.19L.23,1.7Z" transform="translate(86.91 50.72)" fill="#455a64"/>
          <path id="Path_7992" data-name="Path 7992" d="M.256,2.391A8.088,8.088,0,0,0,.016.268C-.042.018.064-.068.284.057l.865.5a1.22,1.22,0,0,1,.519.663,7.6,7.6,0,0,1,.25,2.133c0,.25-.183.346-.4.221l-.865-.5a.864.864,0,0,1-.394-.682Z" transform="translate(83.825 48.847)" fill="#455a64"/>
          <path id="Path_7993" data-name="Path 7993" d="M.256,2.391A8.2,8.2,0,0,0,.016.259c-.058-.24.048-.327.269-.2l.865.5a1.22,1.22,0,0,1,.519.663,7.569,7.569,0,0,1,.25,2.123c0,.25-.183.355-.4.231l-.865-.5A.864.864,0,0,1,.256,2.391Z" transform="translate(80.732 46.983)" fill="#455a64"/>
          <path id="Path_7994" data-name="Path 7994" d="M.259,2.4A8.156,8.156,0,0,0,.019.266C-.048.026.067-.07.278.055l.874.509a1.287,1.287,0,0,1,.519.653,7.6,7.6,0,0,1,.25,2.133c0,.25-.192.346-.4.221l-.874-.5A.864.864,0,0,1,.259,2.4Z" transform="translate(77.635 45.121)" fill="#455a64"/>
          <path id="Path_7995" data-name="Path 7995" d="M.26,2.4A8.156,8.156,0,0,0,.02.266C-.037.026.02-.07.289.055l.865.509a1.2,1.2,0,0,1,.519.653,7.6,7.6,0,0,1,.25,2.133c0,.25-.183.355-.4.231L.654,3.071A.845.845,0,0,1,.26,2.4Z" transform="translate(74.532 43.267)" fill="#455a64"/>
          <path id="Path_7996" data-name="Path 7996" d="M.256,2.391A8.087,8.087,0,0,0,.016.268C-.042.018.064-.068.284.057l.865.5a1.22,1.22,0,0,1,.519.663,7.6,7.6,0,0,1,.25,2.133c0,.25-.183.346-.4.221l-.865-.5a.864.864,0,0,1-.394-.682Z" transform="translate(71.434 41.421)" fill="#455a64"/>
          <path id="Path_7997" data-name="Path 7997" d="M.259,2.4A8.589,8.589,0,0,0,.019.266C-.048.026.067-.07.279.055l.874.509a1.287,1.287,0,0,1,.519.653,7.6,7.6,0,0,1,.25,2.133c0,.25-.192.346-.4.221l-.874-.5A.864.864,0,0,1,.259,2.4Z" transform="translate(68.318 39.579)" fill="#455a64"/>
          <path id="Path_7998" data-name="Path 7998" d="M.256,2.389A8.089,8.089,0,0,0,.016.266C-.042.026.064-.07.285.055l.865.5a1.22,1.22,0,0,1,.519.663,7.6,7.6,0,0,1,.25,2.133c0,.25-.183.346-.4.221l-.865-.5A.865.865,0,0,1,.256,2.389Z" transform="translate(65.219 37.744)" fill="#455a64"/>
          <path id="Path_7999" data-name="Path 7999" d="M.256,2.391A8.155,8.155,0,0,0,.016.259c-.058-.24.048-.327.269-.2l.865.5a1.2,1.2,0,0,1,.519.653,7.685,7.685,0,0,1,.25,2.133c0,.25-.183.355-.4.231L.65,3.064A.845.845,0,0,1,.256,2.391Z" transform="translate(62.106 35.917)" fill="#455a64"/>
          <path id="Path_8000" data-name="Path 8000" d="M.265,2.391A8.587,8.587,0,0,0,.024.259c-.067-.24,0-.327.259-.2l.874.5a1.287,1.287,0,0,1,.519.653,8.012,8.012,0,0,1,.25,2.133.25.25,0,0,1-.4.231L.649,3.064a.864.864,0,0,1-.384-.672Z" transform="translate(58.985 34.092)" fill="#455a64"/>
          <path id="Path_8001" data-name="Path 8001" d="M.265,2.389A8.089,8.089,0,0,0,.024.266C-.043.026.024-.07.284.055L1.225.6a1.316,1.316,0,0,1,.519.663A7.6,7.6,0,0,1,1.994,3.4c0,.25-.183.346-.4.221l-.865-.5a.864.864,0,0,1-.461-.73Z" transform="translate(55.825 32.269)" fill="#455a64"/>
          <path id="Path_8002" data-name="Path 8002" d="M.256,2.391A8.2,8.2,0,0,0,.016.259c-.058-.24.048-.327.269-.2l.865.5a1.191,1.191,0,0,1,.519.663,7.916,7.916,0,0,1,.259,2.123.25.25,0,0,1-.413.231l-.865-.5a.884.884,0,0,1-.394-.682Z" transform="translate(52.721 30.48)" fill="#455a64"/>
        </g>
        <g id="freepik--wing--inject-447-4" data-name="freepik--wing--inject-447" transform="translate(89.043 38.487)">
          <g id="freepik--wing--inject-447-5" data-name="freepik--wing--inject-447" transform="translate(0 0)">
            <path id="freepik--wing--inject-447-6" data-name="freepik--wing--inject-447" d="M.313,8.944A1.806,1.806,0,0,1,1,8.761L132.472,0a9.471,9.471,0,0,1,7.281,3.285l3.132,4.063L33.069,28.223c-2.046.413-8.1-1.844-14.14-5.331L9.323,17.359C2.849,13.574-1.186,9.818.313,8.944Z" fill="#f0f0f0"/>
            <path id="Path_8005" data-name="Path 8005" d="M16.33,15.552,6.724,10.019A48.432,48.432,0,0,1,0,5.466c5.495,4.448,28.578,8.9,40.921,7.685S140.267,0,140.267,0L30.47,20.912C28.453,21.3,22.372,19.039,16.33,15.552Z" transform="translate(2.599 7.311)" fill="#e0e0e0"/>
            <path id="Path_8006" data-name="Path 8006" d="M.31,8.944A1.806,1.806,0,0,1,1,8.761L132.469,0a9.472,9.472,0,0,1,7.281,3.285l2.257,2.93h0c-1.844-2.4-5-4.409-10.163-4.188S56.515,7.176,43.537,7.791,6.343,10.087,4.825,10.25c-1.921.2-3.967.826-2.546,2.2C.31,10.759-.5,9.424.31,8.944Z" transform="translate(0.002 0)" fill="#fafafa"/>
          </g>
          <path id="Path_8007" data-name="Path 8007" d="M.8.036A98.881,98.881,0,0,1,13.6,6.194s.211.749-.845,1.364a4.591,4.591,0,0,1-2.373.49A71.534,71.534,0,0,1,.2,1.045.6.6,0,0,1,.8.036Z" transform="translate(48.685 16.477)" fill="#ba68c8"/>
          <path id="Path_8008" data-name="Path 8008" d="M.8.036A98.881,98.881,0,0,1,13.6,6.194s.211.749-.845,1.364a4.591,4.591,0,0,1-2.373.49A71.534,71.534,0,0,1,.2,1.045.6.6,0,0,1,.8.036Z" transform="translate(48.685 16.477)" fill="#5b618a"/>
          <path id="Path_8009" data-name="Path 8009" d="M12.767,7.3a4.591,4.591,0,0,1-2.373.49A71.534,71.534,0,0,1,.222.788.576.576,0,0,1,.106,0c0,.586.548.893,3.842,3.045s6.119,3.938,7.512,3.938a2.882,2.882,0,0,0,2.161-1.047S13.824,6.686,12.767,7.3Z" transform="translate(48.668 16.734)" fill="#5b618a"/>
          <path id="Path_8010" data-name="Path 8010" d="M.616.023a75.892,75.892,0,0,1,10.019,4.8s.163.6-.672,1.076A3.545,3.545,0,0,1,8.1,6.286,57.116,57.116,0,0,1,.145.811.471.471,0,0,1,.616.023Z" transform="translate(76.045 13.196)" fill="#ba68c8"/>
          <path id="Path_8011" data-name="Path 8011" d="M.616.023a75.892,75.892,0,0,1,10.019,4.8s.163.6-.672,1.076A3.545,3.545,0,0,1,8.1,6.286,57.116,57.116,0,0,1,.145.811.471.471,0,0,1,.616.023Z" transform="translate(76.045 13.196)" fill="#5b618a"/>
          <path id="Path_8012" data-name="Path 8012" d="M9.993,5.927a3.545,3.545,0,0,1-1.864.384A57.117,57.117,0,0,1,.176.836.471.471,0,0,1,.426,0C.08.231.378.548,2.626,2.056s4.726,3.362,5.86,3.477a3.468,3.468,0,0,0,2.181-.682S10.829,5.437,9.993,5.927Z" transform="translate(76.014 13.18)" fill="#5b618a"/>
          <path id="Path_8013" data-name="Path 8013" d="M.129.629A.355.355,0,0,1,.484.024,55.887,55.887,0,0,1,7.718,3.5s.115.432-.49.788a2.642,2.642,0,0,1-1.364.279A40.732,40.732,0,0,1,.129.629Z" transform="translate(103.361 9.89)" fill="#ba68c8"/>
          <path id="Path_8014" data-name="Path 8014" d="M.129.629A.355.355,0,0,1,.484.024,55.887,55.887,0,0,1,7.718,3.5s.115.432-.49.788a2.642,2.642,0,0,1-1.364.279A40.732,40.732,0,0,1,.129.629Z" transform="translate(103.361 9.89)" fill="#5b618a"/>
          <path id="Path_8015" data-name="Path 8015" d="M7.266,4.284A2.642,2.642,0,0,1,5.9,4.563,40.732,40.732,0,0,1,.138.624.355.355,0,0,1,.263,0C.09.173.426.624,2.29,1.806S5.834,4.361,7.727,3.5C7.756,3.5,7.871,3.919,7.266,4.284Z" transform="translate(103.323 9.895)" opacity="0.15"/>
        </g>
        <path id="freepik--Window--inject-447" d="M18,3.379a5.168,5.168,0,0,1,2.171,3.5A52.074,52.074,0,0,0,0,2.447,9.481,9.481,0,0,1,2.68.18C8.357-.685,15.917,1.765,18,3.379Z" transform="translate(10.356 1.383)" fill="#455a64"/>
        <g id="freepik--turbine--inject-447-2" data-name="freepik--turbine--inject-447" transform="translate(93.198 36.822)">
          <ellipse id="Ellipse_240" data-name="Ellipse 240" cx="6.667" cy="6.667" rx="6.667" ry="6.667" transform="translate(18.885 13.212)" fill="#e0e0e0"/>
          <path id="Path_8016" data-name="Path 8016" d="M0,6.67A6.647,6.647,0,0,1,10.365,1.137,11.22,11.22,0,0,1,7.618,11.261c-.471.471,2.728.442,5.293-2.3A6.657,6.657,0,0,1,0,6.67Z" transform="translate(18.885 13.209)" opacity="0.1"/>
          <path id="Path_8017" data-name="Path 8017" d="M9.529,0c6.446,0,17.444,10.836,18.04,11.6h0a4.985,4.985,0,0,1,.961,3.237,13.449,13.449,0,0,1-6.071,10.567A4.938,4.938,0,0,1,19,26.157h0c-.961-.134-15.773-4.351-19-9.933Z" transform="translate(0.701 0.004)" fill="#ebebeb"/>
          <path id="Path_8018" data-name="Path 8018" d="M0,15.437,9.068,0c1.719.183,3.132.557,3.564,1.258,1.354,2.229,1.508,6.494,0,9.712s-1.422,4.332,5.13,6.446,8.252,1.806,10.5-1.114A13.583,13.583,0,0,1,22.5,24.62a4.937,4.937,0,0,1-3.458.749h0C18.04,25.235,3.228,21.018,0,15.437Z" transform="translate(0.72 0.753)" opacity="0.1"/>
          <path id="Path_8019" data-name="Path 8019" d="M.423,0c6.446,0,17.444,10.836,18.04,11.6h0a4.592,4.592,0,0,1,.961,2.594c-.413-1.575-2.171-3.064-4.476-5.034A96.053,96.053,0,0,0,5.072,2.123c-1.239-.605.086,2.555-1.345,6L0,.759Z" transform="translate(9.808 0.004)" fill="#fafafa"/>
          <path id="Path_8020" data-name="Path 8020" d="M0,13.049C0,17.5,3.122,19.3,6.984,17.074A15.456,15.456,0,0,0,13.967,4.989c0-4.457-3.132-6.263-6.984-4.034A15.37,15.37,0,0,0,0,13.049Z" transform="translate(0 0)" fill="#455a64"/>
          <path id="Path_8021" data-name="Path 8021" d="M5.36,5.917,2.027,2.277,5.965,6.215Zm.432-.451L3.516,1.076,6.3,5.879Zm.528-.327L5.226.288l1.46,5.37Zm.605-.183L7.108,0V5.591ZM.9,3.814,5.706,6.6l-.663-.125ZM6.455,9.577l-2.68,4.236,2.8-4.9ZM.211,5.6,5.591,7.041H4.918ZM5.9,9.279l-3.66,3.372L6.2,8.674ZM7.55,4.947,9,.211,7.6,5.62ZM4.937,7.723,0,7.493H5.571Zm.509,1.133-4.39,2.267,4.8-2.786ZM5.12,8.319.317,9.385,5.7,7.935Zm4.14-.3.173.269-.845-.5ZM8.3,9.414v.711L7.79,8.482Zm.692-.961.134.336-.605-.615ZM8.674,8.9l.077.461L8.175,8.4ZM7.06,9.683,6.1,12.43l.884-3.42ZM7.733,9.6,7.5,11.057v-2.5ZM9.164,5.754l1.729-.826L8.732,6.263Zm.557,1.921-1.114-.24h.74ZM8.155,4.909,10.816.749,8.04,5.7Zm.557.423,2.536-2.325L8.424,5.937ZM9.2,6.369l.183-.106,1.047-.077-1.489.49Zm-.125.6L9.337,6.9l.73.134-1.028.086Z" transform="translate(1.96 3.097)" fill="#fff" opacity="0.5"/>
          <path id="Path_8022" data-name="Path 8022" d="M7.6,11.155,2.182,16.573a.307.307,0,0,1-.307.067.875.875,0,0,1-.163-.086h0a.975.975,0,0,1,.125-.154L7.35,10.877c.077-.077.067-.1,0,0l-6.8,3.929a.163.163,0,0,1-.24-.1h0a.25.25,0,0,1,.106-.288l6.724-3.842c.1-.058.086-.077,0-.048L.184,12.394A.135.135,0,0,1,0,12.25H0A.326.326,0,0,1,.213,12l6.82-1.825H.52a.163.163,0,0,1-.163-.2h0A.259.259,0,0,1,.6,9.782H7.023L1.144,8.206a.183.183,0,0,1-.125-.24h0a.221.221,0,0,1,.259-.134L7.091,9.138c.106,0,.115,0,0-.048L1.951,6.122c-.1-.058-.144-.144-.115-.2L1.894,5.8a.412.412,0,0,0,0-.067h.221L7.254,8.706c.1,0,.106,0,0-.048L2.97,4.373a.221.221,0,0,1,0-.288h0a.183.183,0,0,1,.269,0L7.552,8.4c.077.077.1.067.048,0L4.372,2.808a.259.259,0,0,1,0-.307h0a.163.163,0,0,1,.25,0L7.9,8.168c.048.1.077.086.048,0L6.1,1.319a.307.307,0,0,1,.115-.307h0a.135.135,0,0,1,.221.086L8.311,8.081c0,.106.048.106.048,0V.243A.25.25,0,0,1,8.551,0h0a.163.163,0,0,1,.192.163V8.081c0,.106,0,.106.048,0L10.933.493c0-.106.067-.192.086-.183h0l.144.1a.3.3,0,0,1,.086.3L9.242,8.187c0,.106,0,.115.048,0l3.18-5.514c.058-.1.125-.086.154,0a1.236,1.236,0,0,1,0,.183.567.567,0,0,1-.058.375L9.6,8.369c-.058.1,0,.106,0,0L12.48,5.488c.077-.077.125-.058.125.058v.211a.538.538,0,0,1-.163.346L9.867,8.686c-.086.077-.067.1,0,0l2.2-1.268c.1-.058.144,0,.115.086s0,.115-.048.173a.663.663,0,0,1-.24.3L10.068,9.032c-.1.048-.086.077,0,.048l1.518-.413c.106,0,.163,0,.125.144v.077a.442.442,0,0,1-.269.24l-1.249.336H11.24a.115.115,0,0,1,.106.183h0a.365.365,0,0,1-.288.183h-.845l.711.192a.154.154,0,0,1,.106.231h0a.25.25,0,0,1-.279.125l-.624-.173c-.106,0-.115,0,0,.048l.538.317c.1.058.154.125.134.173v.067a.823.823,0,0,1-.067.1c0,.058-.144.058-.24,0l-.538-.317c-.1-.058-.106,0,0,0l.451.461a.25.25,0,0,1,0,.307h0a.163.163,0,0,1-.25,0l-.519-.509c-.077-.077-.1-.067,0,0l.413.72a.365.365,0,0,1,0,.346h0a.116.116,0,0,1-.211,0l-.519-.893c-.058-.1-.077-.086-.048,0L9.6,12.25a.442.442,0,0,1-.067.346l-.058.067c-.077.086-.154.067-.183,0l-.4-1.5c0-.106-.048-.106-.048,0v2.094A.548.548,0,0,1,8.7,13.6l-.115.125c-.077.086-.144.058-.144-.058V11.165c0-.106,0-.106-.048,0l-.961,3.468a.663.663,0,0,1-.211.317l-.183.115c-.1.067-.144,0-.115-.077l1.057-3.929c0-.106,0-.115-.048,0l-2.93,5.072a.567.567,0,0,1-.288.231l-.183.058c-.106,0-.144,0-.1-.115L7.59,10.857C7.7,11.059,7.677,11.059,7.6,11.155Z" transform="translate(0.594 0.577)" fill="#37474f"/>
          <path id="Path_8023" data-name="Path 8023" d="M.095.6A.692.692,0,0,1,.536.285h0s3.545-.759,5.216.2a1.441,1.441,0,0,1,.615,1.345,4.592,4.592,0,0,1-2.084,3.6,1.441,1.441,0,0,1-1.47.144h0C1.142,4.617.027,1.159.027,1.159h0A.73.73,0,0,1,.095.6Z" transform="translate(4.91 7.317)" fill="#ebebeb"/>
          <path id="Path_8024" data-name="Path 8024" d="M2.987,3.324c1.354.865,2.392-.173,2.7-1.249A1.556,1.556,0,0,0,4.909,0a2.882,2.882,0,0,1,.845.317,1.441,1.441,0,0,1,.615,1.345,4.592,4.592,0,0,1-2.085,3.6,1.441,1.441,0,0,1-1.47.144h0C1.143,4.448.029.989.029.989h0A.73.73,0,0,1,.086.442C.029.989,1.633,2.45,2.987,3.324Z" transform="translate(4.918 7.477)" opacity="0.1"/>
          <path id="Path_8025" data-name="Path 8025" d="M.029,1.149A.73.73,0,0,1,.086.6.692.692,0,0,1,.528.285h0s3.545-.759,5.216.2a1.153,1.153,0,0,1,.509.7C6.023.746,5.35.361,3.621.313A11.344,11.344,0,0,0,.5.544.375.375,0,0,1,.605,1C.5,1.284.154,1.37.019,1.159Z" transform="translate(4.918 7.317)" fill="#fafafa"/>
        </g>
      </g>
    </g>
    <g id="Fire2" transform="matrix(-0.985, -0.174, 0.174, -0.985, 820.602, 454.669)" opacity="0.86" clip-path="url(#clip-path)">
      <g id="Fire_ball-pana" data-name="Fire ball-pana" transform="matrix(0.469, -0.883, 0.883, 0.469, 58.781, 16.194)">
        <g id="freepik--Smoke--inject-1" transform="translate(0 0)">
          <path id="Path_8280" data-name="Path 8280" d="M0,7.256s2.764-4.435,4.15-4.2l.261-.131S5-.632,8.359.1l2.246.934A2.542,2.542,0,0,1,13.9.72l-.31,5.7L11.94,5.526s5.182.611,3.282,1.417L14.078,8.263l-5.9-.515L2.039,7.725Z" transform="translate(8.005 3.421)" fill="#ffc100"/>
          <path id="Path_8281" data-name="Path 8281" d="M1.757,9.8S-.141,9.656.008,7.256s2.764-4.435,4.15-4.2l.261-.131S5.013-.632,8.368.1l2.246.934A2.542,2.542,0,0,1,13.907.72l-.31,5.7-1.648-.894s.908,2.463-.992,3.268l.586,2.252-3.788-.061-5.969-.428Z" fill="#ffc100"/>
          <g id="Group_800" data-name="Group 800" transform="translate(20.983 10.59)" opacity="0.2">
            <path id="Path_8284" data-name="Path 8284" d="M.987.1,1.2.184A5.637,5.637,0,0,0,0,0,3.968,3.968,0,0,1,.987.1Z" transform="translate(0 0)" fill="#ffc100"/>
          </g>
        </g>
      </g>
      <g id="Fire_ball-pana-2" data-name="Fire ball-pana" transform="matrix(0.469, -0.883, 0.883, 0.469, 62.901, 15.804)">
        <g id="freepik--Smoke--inject-1-2" data-name="freepik--Smoke--inject-1" transform="translate(0 0)">
          <path id="Path_8291" data-name="Path 8291" d="M1.12,7.2S-.111,7.69.008,5.779s2.2-3.532,3.306-3.346l.208-.1S3.994-.5,6.666.079L8.454.822A2.024,2.024,0,0,1,11.078.573l-.247,4.54L9.518,4.4s.723,1.961-.79,2.6l.6.767L5.376,7.637Z" transform="translate(0 0)" fill="#ffd34d"/>
          <g id="Group_805" data-name="Group 805" transform="translate(15.414 11.907)" opacity="0.2">
            <path id="Path_8294" data-name="Path 8294" d="M.786.078.954.146A4.489,4.489,0,0,0,0,0,3.161,3.161,0,0,1,.786.078Z" transform="translate(0 0)" fill="#ffd34d"/>
          </g>
        </g>
      </g>
    </g>
    <g id="fire-ball2" transform="matrix(0.485, 0.875, -0.875, 0.485, 891.26, 239.114)">
      <path id="Path_8113" data-name="Path 8113" d="M33.778,67.609c-.345-2.7-2.53-6.211-6.511-8.872-3.371-2.253-4.655-4.44-5.886-5.426a41.915,41.915,0,0,1-3.851-4.236c.031-.512.489-2.337-.343-3.136-.916-.878-2.549-1.733-2.978-4.309a27.377,27.377,0,0,1,.077-9.136s2.31-5.72,3.745-6.708c1.288-.884,1.823-.645,3.629-2.757s.77-2.393,1.167-4.538,3.558-3.548,2.888-4.2-1.935,1.38-3.165.551-.7-2.488.256-4.215,3.219-1.1,5.329-3.273a6.33,6.33,0,0,0,1.708-5.343c-.067-.67,1.515-.741,2.118-1.484s-.493-.477-.493-.477c-4.642.343-7.1,3.414-8.664,5.391a12.029,12.029,0,0,0-2.26,4.923c-.233.982-1.712,4.854-2.928,5.123s-1.173-1.015-1.015-2.068,2.06-2.347,2.719-3.4a2.145,2.145,0,0,0,.271-2.272c-.256-.37-1.017,1.067-2.289,2.366s-3.169.558-4.494,2.049S11.46,16.4,11.052,18.421a3.142,3.142,0,0,1-.535,1.146,10.089,10.089,0,0,0-1.831,6.022,2.635,2.635,0,0,1-1.733,1.394c-1.215.179-1.573-.3-1.65-1.007s.558-2.012.533-2.73-.664.533-1.54,1.862S.2,29.6.378,32.721.9,35.7.9,37.6c0,1.808-1.925,6.09-.131,11.458.027.506.058,1.03.1,1.5.131,1.592.015,3.508.216,4.705s.687,2.436,2.079,2.717.682,1,1.348,2.58a15.18,15.18,0,0,0,2.075,3.061c.193.443.385.87.578,1.265a31.569,31.569,0,0,0,1.011,3.04c.252.385.818.477,1.513.578s.716-.027,1.278.37.549.793.9.845-.021-.449-.193-1.1A1.109,1.109,0,0,1,12.65,67.3c.578,0,2.62,3.593,2.58,3.72s-.119.651-.7.385a7.815,7.815,0,0,0-.88-.354,2.4,2.4,0,0,0,.245,1.638,5.263,5.263,0,0,0,1.973.934,1.348,1.348,0,0,0,.364.262c2.118,1.042,6.407,3.539,9.186,3.539,4.374,0,7.1-2.31,8.086-6.546A22.489,22.489,0,0,0,33.778,67.609ZM5.141,29.908a6.9,6.9,0,0,1-2.018,3.119c-.824.545-.564-.4-.73-1.652a3.01,3.01,0,0,1,.893-2.642,1.709,1.709,0,0,1,1.656-.7A3.634,3.634,0,0,1,5.141,29.908Zm11.138-8.681c.526-1.015,4.128-5.693,5.218-4.717s-2.78,6.947-3.924,7.626l-.033.021a1.011,1.011,0,0,1-1.519-.836A4.687,4.687,0,0,1,16.279,21.227Zm-6.009,25.8c-.254-1.02.3-2.459.454-2.083a19.962,19.962,0,0,0,1.292,2.489l.612,2.563s-2.1-1.941-2.359-2.965Z" transform="translate(1.352 4.855)" fill="#ffc100"/>
      <g id="Group_776" data-name="Group 776" transform="translate(4.146 26.705)" opacity="0.3">
        <path id="Path_8114" data-name="Path 8114" d="M.248,0S.158.116,0,.327A2.225,2.225,0,0,0,.248,0Z" transform="translate(12.93 4.195)" fill="#fff"/>
        <path id="Path_8115" data-name="Path 8115" d="M20.362,38.335c-1.777,0,.329-2.986-1.03-4.178-4.213-3.689-3.687-2.1-3.687-2.1a14.631,14.631,0,0,1,.743,1.286c.374.73.1,4.255.1,4.255a6.427,6.427,0,0,1-2.8-1.242C12.085,35.224,12.276,32,12.276,32S8.019,30.2,6.692,27.68a5.537,5.537,0,0,1,.578-6.223c1.142-1.484,2.578,1.384,2.578,1.384S9.3,21.6,8.5,16.35c-.693-4.571,3.371-10.4,4.428-11.827a2.547,2.547,0,0,1-2.7.755C8.219,4.725,9.561,0,9.561,0a24.2,24.2,0,0,1-2.8,4.848A16.652,16.652,0,0,0,4.879,7.339a21.772,21.772,0,0,1,.385,4.621c-.154,1.8-1.908,3.225-3.132,3.947S0,14.831,0,14.831a11.571,11.571,0,0,0,.162,1.523,13.081,13.081,0,0,1,.11,4.313,56.206,56.206,0,0,0,.374,10.8c.447,1.968,3.038.92,4.168,2.636s.087,5.416,1.694,7.351,5.006,1.9,5.125,2.174A19.726,19.726,0,0,0,14.7,48.753h0a1.5,1.5,0,0,1,.117,1.1c-.135.125-1.906,1.067-2.156.793s.258.755,1.265.872,1.789.216,1.646.412c0,0,3.007,2.345,3.928,2.21a13.016,13.016,0,0,0,4.677,1.053c4.505-1.263,4.99-3.121,5.878-5.287s-.106-5.324-.106-5.324A10.309,10.309,0,0,0,20.362,38.335Z" transform="translate(0 0)" fill="#fff"/>
      </g>
      <path id="Path_8116" data-name="Path 8116" d="M.19,5.545a2.3,2.3,0,0,0,0-1.519A4.494,4.494,0,0,1,.441.792C.972-.2,1.23.021,1.23.021a4.941,4.941,0,0,0,.206,2.241A2.483,2.483,0,0,1,1.3,4.9C.681,5.784.19,5.545.19,5.545Z" transform="translate(7.246 19.893)" fill="#fff"/>
      <path id="Path_8117" data-name="Path 8117" d="M7.023.5S4.427-.629,2.9.5,2.371,1.993.927,2.848.157,4.181.157,4.181a4.258,4.258,0,0,0,3.67-.193C5.379,2.908,4.9,2.063,5.96,1.283Z" transform="translate(34.045 13.941)" fill="#fff"/>
      <path id="Path_8118" data-name="Path 8118" d="M2.387,0A2.512,2.512,0,0,0,.872.632C.414,1.188-.162,1.844.042,2.42s.674.724.963.27S2.387,0,2.387,0Z" transform="translate(28.521 14.728)" fill="#fff"/>
      <path id="Path_8119" data-name="Path 8119" d="M.174,0A9.012,9.012,0,0,0,.247,3.831C.825,5.724,1.339,7.4,2.428,7.366s1.683-.716,2.22.221,1.186,2.239.743,2.424a5.083,5.083,0,0,1-2.67-.535c-.239-.279-.085.385.47,1.209s2.1,1.465,2.98,2.043,1.908,1.817,2.274,1.706-.683-2.045-1.115-2.668A7.79,7.79,0,0,1,6.572,9.8s.98-1.276.691-1.663A31.378,31.378,0,0,0,3.129,5.749c-1.246-.666-1.311-.522-1.854-1.972S.174,0,.174,0Z" transform="translate(7.43 52.086)" fill="#fff" opacity="0.3"/>
      <path id="Path_8120" data-name="Path 8120" d="M.139,7.915S.014,6.432,0,5.393s.77-.635,1.54-1.821A11.9,11.9,0,0,0,2.7,0a29.047,29.047,0,0,1,.435,4.086,3.037,3.037,0,0,0-1.571.72C1.024,5.383.867,6.96.7,7.5S.139,7.915.139,7.915Z" transform="translate(13.863 17.937)" fill="#fff" opacity="0.3"/>
      <path id="Path_8121" data-name="Path 8121" d="M0,5.928A2.7,2.7,0,0,0,.843,7.853,2.711,2.711,0,0,1,2.226,10.04,10.2,10.2,0,0,0,3.672,15.5c1.205,1.586,5.641,2.73,8,2.276,3.758-.724,4.428-1.25,5.468-3.983s.8-5.112-.069-6.434S13.083,2.414,11.1,2.343s-3.273.029-4.274-.119S4.382-.285,4.1.029s-.162,1.092.173,1.835,2.235,2.129,2.151,2.7-.87,2.018-1.908,1.617A8.98,8.98,0,0,1,1.856,5C1.419,4.522.768,3.331.406,3.082S.112,4.4.6,5.008,1.74,6.432,1.436,6.49.146,6.278,0,5.928Z" transform="translate(16.744 63.456)" fill="#fff" opacity="0.3"/>
      <path id="Path_8122" data-name="Path 8122" d="M3.359,5.547a.181.181,0,0,1-.275.2A16.575,16.575,0,0,1,1.5,4.613,10.48,10.48,0,0,1,.242,2.085,10.45,10.45,0,0,1,.022.025C.115-.341,1.449,3.446,2.165,3.508,2.677,3.552,3.139,4.829,3.359,5.547Z" transform="translate(14.671 51.588)" fill="#fff" opacity="0.3"/>
      <path id="Path_8123" data-name="Path 8123" d="M.178,5.089A1.473,1.473,0,0,1,.13,3.816,28.609,28.609,0,0,1,3.326.789L5.351,0l-1.7,2a1.408,1.408,0,0,1,.291,1.733C3.349,4.64.178,5.089.178,5.089Z" transform="translate(25.158 6.356)" fill="#fff" opacity="0.3"/>
      <path id="Path_8124" data-name="Path 8124" d="M.065,12.178A31.369,31.369,0,0,1,.042,8.833C.148,7.825,1.368,7.268,1.368,7.268s.347-2.813.491-3.113S4.158,0,4.158,0A37.01,37.01,0,0,0,2.572,4.507c-.114.93-.21,3.937-.21,3.937A4.116,4.116,0,0,0,.065,12.178Z" transform="translate(8.111 37.171)" fill="#fff" opacity="0.3"/>
      <path id="Path_8125" data-name="Path 8125" d="M10.095,0S5.919.039,5.4,1.155s0,.807-.578,1.529S.6,5.3.037,6.119,5.451,7.6,5.72,7.364,5.4,7.2,6.246,6.7s3.2-.628,4.078-1.286.156.033-1.219-.51A1.893,1.893,0,0,1,8.029,2.249C8.385,1.359,9.117,1.575,9.742.9S10.095,0,10.095,0Z" transform="translate(35.428 2.404)" fill="#ffc100"/>
      <path id="Path_8126" data-name="Path 8126" d="M4.476.352S1.563-.867,0,1.232a3.1,3.1,0,0,1,1.85.739A10.346,10.346,0,0,1,4.476.352Z" transform="translate(48.85 4.154)" fill="#ffc100"/>
      <path id="Path_8127" data-name="Path 8127" d="M1.421,0S-.458,1.581.106,1.665,1.613.784,1.613.784Z" transform="translate(48.796 0.34)" fill="#ffc100"/>
      <path id="Path_8128" data-name="Path 8128" d="M9.993,1.608A6.755,6.755,0,0,0,7.178.6H5.064A3.177,3.177,0,0,1,3.455,0a1.635,1.635,0,0,0,.2,1.91c.8,1,2.079,1.205,2.345,1.808a1.86,1.86,0,0,1-.033,1.307s-1.61.7-1.91,0-1.508-.6-1.508-.6l-.9.916L.037,4.417c-.3.306,1.307,1.513,1.307,1.916s-.193,2.31.193,2.713a7.551,7.551,0,0,0,4.124,2.118,6.761,6.761,0,0,0,4.521-1.117,6.188,6.188,0,0,0,1.744-3.808C12.08,4.386,10.8,2.018,9.993,1.608ZM6.129,2.634C5.552,2.58,4.912,1.575,4.912,1.575L6.924,2l.37.872a6.256,6.256,0,0,0-1.165-.229Z" transform="translate(21.645 68.983)" fill="#fff" opacity="0.5"/>
      <path id="Path_8129" data-name="Path 8129" d="M4.853,1.864A2.3,2.3,0,0,0,2.8,0c-.3,0-.522.114-.512.356s.144.468.166.71a1.138,1.138,0,0,1-.539.963,7.619,7.619,0,0,1-1.032.522,1.59,1.59,0,0,0-.82.78,1.188,1.188,0,0,0,.164,1.08,1.925,1.925,0,0,0,.9.674,2.873,2.873,0,0,0,2.871-.46,2.765,2.765,0,0,0,.859-2.761Z" transform="translate(27.208 73.282)" fill="#fff"/>
      <path id="Path_8130" data-name="Path 8130" d="M0,0S.77,2.1,1.221,1.937s1.4-.535,1.4-.535l.8.535a1.856,1.856,0,0,0-.73-.911c-.506-.273-1.575.089-1.575.089Z" transform="translate(19.943 70.889)" fill="#fff" opacity="0.5"/>
      <path id="Path_8131" data-name="Path 8131" d="M.331.188C.306.057.206-.029.121.009h0A.323.323,0,0,0,.009.338C.036.469.136.552.221.512A.32.32,0,0,0,.331.188Z" transform="translate(16.519 13.338)" fill="#ffc100"/>
      <path id="Path_8132" data-name="Path 8132" d="M.331.188C.306.057.205-.029.121.009h0A.325.325,0,0,0,.009.338C.036.469.136.552.221.512A.32.32,0,0,0,.331.188Z" transform="translate(43.129 14.222)" fill="#ffc100"/>
      <path id="Path_8133" data-name="Path 8133" d="M.329.188C.3.057.206-.029.119.009h0A.323.323,0,0,0,.01.338c.025.131.125.214.21.173A.314.314,0,0,0,.329.188Z" transform="translate(26.014 23.852)" fill="#ffc100"/>
      <path id="Path_8134" data-name="Path 8134" d="M.329.188C.306.057.206-.029.121.009h0A.323.323,0,0,0,.009.338C.036.469.136.552.221.512A.316.316,0,0,0,.329.188Z" transform="translate(30.541 62.147)" fill="#ffc100"/>
      <path id="Path_8135" data-name="Path 8135" d="M.329.19C.306.057.206-.028.121.009h0A.323.323,0,0,0,.009.338C.036.469.136.551.221.513A.32.32,0,0,0,.329.19Z" transform="translate(12.834 76.237)" fill="#fff"/>
      <path id="Path_8136" data-name="Path 8136" d="M.331.19C.306.057.205-.028.121.009h0A.325.325,0,0,0,.009.338C.036.469.136.551.221.513A.323.323,0,0,0,.331.19Z" transform="translate(47.206 0)" fill="#ffc100"/>
      <path id="Path_8137" data-name="Path 8137" d="M.331.189C.306.058.206-.028.121.008h0A.322.322,0,0,0,.009.336C.036.469.136.551.221.511A.32.32,0,0,0,.331.189Z" transform="translate(34.045 2.495)" fill="#ffc100"/>
      <path id="Path_8138" data-name="Path 8138" d="M0,.073V.088A.054.054,0,0,0,0,.117.052.052,0,0,0,.041.154a.054.054,0,0,0,.029,0H.089A.062.062,0,0,0,.12.136L.131.121a.062.062,0,0,0,0-.037V.069a.052.052,0,0,0,0-.029A.054.054,0,0,0,.116.017.069.069,0,0,0,.093,0,.062.062,0,0,0,.066,0H.046A.077.077,0,0,0,.014.019L0,.034A.079.079,0,0,0,0,.071Z" transform="translate(20.442 10.596)" fill="#ffc100"/>
      <path id="Path_8139" data-name="Path 8139" d="M.01.069V.085a.077.077,0,0,0,0,.029A.081.081,0,0,0,.025.137L.048.152a.071.071,0,0,0,.029,0H.1A.071.071,0,0,0,.127.135L.139.12a.079.079,0,0,0,0-.037V.068a.077.077,0,0,0,0-.029A.081.081,0,0,0,.123.016.046.046,0,0,0,.1,0,.044.044,0,0,0,.073,0H.054A.067.067,0,0,0,.021.019L.01.035A.079.079,0,0,0,0,.071Z" transform="translate(32.369 9.731)" fill="#ffc100"/>
      <path id="Path_8140" data-name="Path 8140" d="M0,.073V.148A.062.062,0,0,0,0,.175.071.071,0,0,0,.04.213a.062.062,0,0,0,.027,0H.086A.071.071,0,0,0,.119.194.069.069,0,0,0,.14.144V.069A.071.071,0,0,0,.14.04.071.071,0,0,0,.1,0,.071.071,0,0,0,.073,0H.053A.075.075,0,0,0,.023.021.071.071,0,0,0,0,.073Z" transform="translate(11.482 75.358)" fill="#ffc100"/>
      <path id="Path_8141" data-name="Path 8141" d="M.886,5.627A2.293,2.293,0,0,0,.562,4.144,4.5,4.5,0,0,1,.121.929C.428-.153.728.009.728.009a5.05,5.05,0,0,0,.678,2.145,2.493,2.493,0,0,1,.422,2.609C1.413,5.756.886,5.627.886,5.627Z" transform="translate(17.398 43.491)" fill="#ffc100"/>
      <path id="Path_8142" data-name="Path 8142" d="M4.971,10.435A4.467,4.467,0,0,1,2.318,8.067C1.284,6.074.918,2.642.778,2.2S0,0,0,0,2.971,2.151,3.733,4.17A35.83,35.83,0,0,1,4.971,10.435Z" transform="translate(23.628 50.641)" fill="#ffc100"/>
      <path id="Path_8143" data-name="Path 8143" d="M.314.155C.264.032.149-.037.073.021h0A.325.325,0,0,0,.031.365C.083.489.2.558.274.494A.318.318,0,0,0,.314.155Z" transform="translate(1.341 63.847)" fill="#ffc100"/>
      <path id="Path_8144" data-name="Path 8144" d="M0,.075.018.148A.046.046,0,0,0,.032.173.042.042,0,0,0,.051.191.046.046,0,0,0,.078.2.05.05,0,0,0,.107.2H.124A.052.052,0,0,0,.149.175V.158a.065.065,0,0,0,0-.039A.331.331,0,0,0,.134.046.06.06,0,0,0,.122.021.1.1,0,0,0,.1,0,.064.064,0,0,0,.074,0,.05.05,0,0,0,.045,0H.028A.085.085,0,0,0,0,.029V.046A.065.065,0,0,0,0,.085Z" transform="translate(0 57.313)" fill="#ffc100"/>
    </g>
    <g id="fire-ball1" transform="matrix(0.485, 0.875, -0.875, 0.485, 877.922, 262.81)">
      <path id="Path_8113-2" data-name="Path 8113" d="M33.778,67.609c-.345-2.7-2.53-6.211-6.511-8.872-3.371-2.253-4.655-4.44-5.886-5.426a41.915,41.915,0,0,1-3.851-4.236c.031-.512.489-2.337-.343-3.136-.916-.878-2.549-1.733-2.978-4.309a27.377,27.377,0,0,1,.077-9.136s2.31-5.72,3.745-6.708c1.288-.884,1.823-.645,3.629-2.757s.77-2.393,1.167-4.538,3.558-3.548,2.888-4.2-1.935,1.38-3.165.551-.7-2.488.256-4.215,3.219-1.1,5.329-3.273a6.33,6.33,0,0,0,1.708-5.343c-.067-.67,1.515-.741,2.118-1.484s-.493-.477-.493-.477c-4.642.343-7.1,3.414-8.664,5.391a12.029,12.029,0,0,0-2.26,4.923c-.233.982-1.712,4.854-2.928,5.123s-1.173-1.015-1.015-2.068,2.06-2.347,2.719-3.4a2.145,2.145,0,0,0,.271-2.272c-.256-.37-1.017,1.067-2.289,2.366s-3.169.558-4.494,2.049S11.46,16.4,11.052,18.421a3.142,3.142,0,0,1-.535,1.146,10.089,10.089,0,0,0-1.831,6.022,2.635,2.635,0,0,1-1.733,1.394c-1.215.179-1.573-.3-1.65-1.007s.558-2.012.533-2.73-.664.533-1.54,1.862S.2,29.6.378,32.721.9,35.7.9,37.6c0,1.808-1.925,6.09-.131,11.458.027.506.058,1.03.1,1.5.131,1.592.015,3.508.216,4.705s.687,2.436,2.079,2.717.682,1,1.348,2.58a15.18,15.18,0,0,0,2.075,3.061c.193.443.385.87.578,1.265a31.569,31.569,0,0,0,1.011,3.04c.252.385.818.477,1.513.578s.716-.027,1.278.37.549.793.9.845-.021-.449-.193-1.1A1.109,1.109,0,0,1,12.65,67.3c.578,0,2.62,3.593,2.58,3.72s-.119.651-.7.385a7.815,7.815,0,0,0-.88-.354,2.4,2.4,0,0,0,.245,1.638,5.263,5.263,0,0,0,1.973.934,1.348,1.348,0,0,0,.364.262c2.118,1.042,6.407,3.539,9.186,3.539,4.374,0,7.1-2.31,8.086-6.546A22.489,22.489,0,0,0,33.778,67.609ZM5.141,29.908a6.9,6.9,0,0,1-2.018,3.119c-.824.545-.564-.4-.73-1.652a3.01,3.01,0,0,1,.893-2.642,1.709,1.709,0,0,1,1.656-.7A3.634,3.634,0,0,1,5.141,29.908Zm11.138-8.681c.526-1.015,4.128-5.693,5.218-4.717s-2.78,6.947-3.924,7.626l-.033.021a1.011,1.011,0,0,1-1.519-.836A4.687,4.687,0,0,1,16.279,21.227Zm-6.009,25.8c-.254-1.02.3-2.459.454-2.083a19.962,19.962,0,0,0,1.292,2.489l.612,2.563s-2.1-1.941-2.359-2.965Z" transform="translate(1.352 4.855)" fill="#ffc100"/>
      <g id="Group_776-2" data-name="Group 776" transform="translate(4.146 26.705)" opacity="0.3">
        <path id="Path_8114-2" data-name="Path 8114" d="M.248,0S.158.116,0,.327A2.225,2.225,0,0,0,.248,0Z" transform="translate(12.93 4.195)" fill="#fff"/>
        <path id="Path_8115-2" data-name="Path 8115" d="M20.362,38.335c-1.777,0,.329-2.986-1.03-4.178-4.213-3.689-3.687-2.1-3.687-2.1a14.631,14.631,0,0,1,.743,1.286c.374.73.1,4.255.1,4.255a6.427,6.427,0,0,1-2.8-1.242C12.085,35.224,12.276,32,12.276,32S8.019,30.2,6.692,27.68a5.537,5.537,0,0,1,.578-6.223c1.142-1.484,2.578,1.384,2.578,1.384S9.3,21.6,8.5,16.35c-.693-4.571,3.371-10.4,4.428-11.827a2.547,2.547,0,0,1-2.7.755C8.219,4.725,9.561,0,9.561,0a24.2,24.2,0,0,1-2.8,4.848A16.652,16.652,0,0,0,4.879,7.339a21.772,21.772,0,0,1,.385,4.621c-.154,1.8-1.908,3.225-3.132,3.947S0,14.831,0,14.831a11.571,11.571,0,0,0,.162,1.523,13.081,13.081,0,0,1,.11,4.313,56.206,56.206,0,0,0,.374,10.8c.447,1.968,3.038.92,4.168,2.636s.087,5.416,1.694,7.351,5.006,1.9,5.125,2.174A19.726,19.726,0,0,0,14.7,48.753h0a1.5,1.5,0,0,1,.117,1.1c-.135.125-1.906,1.067-2.156.793s.258.755,1.265.872,1.789.216,1.646.412c0,0,3.007,2.345,3.928,2.21a13.016,13.016,0,0,0,4.677,1.053c4.505-1.263,4.99-3.121,5.878-5.287s-.106-5.324-.106-5.324A10.309,10.309,0,0,0,20.362,38.335Z" transform="translate(0 0)" fill="#fff"/>
      </g>
      <path id="Path_8116-2" data-name="Path 8116" d="M.19,5.545a2.3,2.3,0,0,0,0-1.519A4.494,4.494,0,0,1,.441.792C.972-.2,1.23.021,1.23.021a4.941,4.941,0,0,0,.206,2.241A2.483,2.483,0,0,1,1.3,4.9C.681,5.784.19,5.545.19,5.545Z" transform="translate(7.246 19.893)" fill="#fff"/>
      <path id="Path_8117-2" data-name="Path 8117" d="M7.023.5S4.427-.629,2.9.5,2.371,1.993.927,2.848.157,4.181.157,4.181a4.258,4.258,0,0,0,3.67-.193C5.379,2.908,4.9,2.063,5.96,1.283Z" transform="translate(34.045 13.941)" fill="#fff"/>
      <path id="Path_8118-2" data-name="Path 8118" d="M2.387,0A2.512,2.512,0,0,0,.872.632C.414,1.188-.162,1.844.042,2.42s.674.724.963.27S2.387,0,2.387,0Z" transform="translate(28.521 14.728)" fill="#fff"/>
      <path id="Path_8119-2" data-name="Path 8119" d="M.174,0A9.012,9.012,0,0,0,.247,3.831C.825,5.724,1.339,7.4,2.428,7.366s1.683-.716,2.22.221,1.186,2.239.743,2.424a5.083,5.083,0,0,1-2.67-.535c-.239-.279-.085.385.47,1.209s2.1,1.465,2.98,2.043,1.908,1.817,2.274,1.706-.683-2.045-1.115-2.668A7.79,7.79,0,0,1,6.572,9.8s.98-1.276.691-1.663A31.378,31.378,0,0,0,3.129,5.749c-1.246-.666-1.311-.522-1.854-1.972S.174,0,.174,0Z" transform="translate(7.43 52.086)" fill="#fff" opacity="0.3"/>
      <path id="Path_8120-2" data-name="Path 8120" d="M.139,7.915S.014,6.432,0,5.393s.77-.635,1.54-1.821A11.9,11.9,0,0,0,2.7,0a29.047,29.047,0,0,1,.435,4.086,3.037,3.037,0,0,0-1.571.72C1.024,5.383.867,6.96.7,7.5S.139,7.915.139,7.915Z" transform="translate(13.863 17.937)" fill="#fff" opacity="0.3"/>
      <path id="Path_8121-2" data-name="Path 8121" d="M0,5.928A2.7,2.7,0,0,0,.843,7.853,2.711,2.711,0,0,1,2.226,10.04,10.2,10.2,0,0,0,3.672,15.5c1.205,1.586,5.641,2.73,8,2.276,3.758-.724,4.428-1.25,5.468-3.983s.8-5.112-.069-6.434S13.083,2.414,11.1,2.343s-3.273.029-4.274-.119S4.382-.285,4.1.029s-.162,1.092.173,1.835,2.235,2.129,2.151,2.7-.87,2.018-1.908,1.617A8.98,8.98,0,0,1,1.856,5C1.419,4.522.768,3.331.406,3.082S.112,4.4.6,5.008,1.74,6.432,1.436,6.49.146,6.278,0,5.928Z" transform="translate(16.744 63.456)" fill="#fff" opacity="0.3"/>
      <path id="Path_8122-2" data-name="Path 8122" d="M3.359,5.547a.181.181,0,0,1-.275.2A16.575,16.575,0,0,1,1.5,4.613,10.48,10.48,0,0,1,.242,2.085,10.45,10.45,0,0,1,.022.025C.115-.341,1.449,3.446,2.165,3.508,2.677,3.552,3.139,4.829,3.359,5.547Z" transform="translate(14.671 51.588)" fill="#fff" opacity="0.3"/>
      <path id="Path_8123-2" data-name="Path 8123" d="M.178,5.089A1.473,1.473,0,0,1,.13,3.816,28.609,28.609,0,0,1,3.326.789L5.351,0l-1.7,2a1.408,1.408,0,0,1,.291,1.733C3.349,4.64.178,5.089.178,5.089Z" transform="translate(25.158 6.356)" fill="#fff" opacity="0.3"/>
      <path id="Path_8124-2" data-name="Path 8124" d="M.065,12.178A31.369,31.369,0,0,1,.042,8.833C.148,7.825,1.368,7.268,1.368,7.268s.347-2.813.491-3.113S4.158,0,4.158,0A37.01,37.01,0,0,0,2.572,4.507c-.114.93-.21,3.937-.21,3.937A4.116,4.116,0,0,0,.065,12.178Z" transform="translate(8.111 37.171)" fill="#fff" opacity="0.3"/>
      <path id="Path_8125-2" data-name="Path 8125" d="M10.095,0S5.919.039,5.4,1.155s0,.807-.578,1.529S.6,5.3.037,6.119,5.451,7.6,5.72,7.364,5.4,7.2,6.246,6.7s3.2-.628,4.078-1.286.156.033-1.219-.51A1.893,1.893,0,0,1,8.029,2.249C8.385,1.359,9.117,1.575,9.742.9S10.095,0,10.095,0Z" transform="translate(35.428 2.404)" fill="#ffc100"/>
      <path id="Path_8126-2" data-name="Path 8126" d="M4.476.352S1.563-.867,0,1.232a3.1,3.1,0,0,1,1.85.739A10.346,10.346,0,0,1,4.476.352Z" transform="translate(48.85 4.154)" fill="#ffc100"/>
      <path id="Path_8127-2" data-name="Path 8127" d="M1.421,0S-.458,1.581.106,1.665,1.613.784,1.613.784Z" transform="translate(48.796 0.34)" fill="#ffc100"/>
      <path id="Path_8128-2" data-name="Path 8128" d="M9.993,1.608A6.755,6.755,0,0,0,7.178.6H5.064A3.177,3.177,0,0,1,3.455,0a1.635,1.635,0,0,0,.2,1.91c.8,1,2.079,1.205,2.345,1.808a1.86,1.86,0,0,1-.033,1.307s-1.61.7-1.91,0-1.508-.6-1.508-.6l-.9.916L.037,4.417c-.3.306,1.307,1.513,1.307,1.916s-.193,2.31.193,2.713a7.551,7.551,0,0,0,4.124,2.118,6.761,6.761,0,0,0,4.521-1.117,6.188,6.188,0,0,0,1.744-3.808C12.08,4.386,10.8,2.018,9.993,1.608ZM6.129,2.634C5.552,2.58,4.912,1.575,4.912,1.575L6.924,2l.37.872a6.256,6.256,0,0,0-1.165-.229Z" transform="translate(21.645 68.983)" fill="#fff" opacity="0.5"/>
      <path id="Path_8129-2" data-name="Path 8129" d="M4.853,1.864A2.3,2.3,0,0,0,2.8,0c-.3,0-.522.114-.512.356s.144.468.166.71a1.138,1.138,0,0,1-.539.963,7.619,7.619,0,0,1-1.032.522,1.59,1.59,0,0,0-.82.78,1.188,1.188,0,0,0,.164,1.08,1.925,1.925,0,0,0,.9.674,2.873,2.873,0,0,0,2.871-.46,2.765,2.765,0,0,0,.859-2.761Z" transform="translate(27.208 73.282)" fill="#fff"/>
      <path id="Path_8130-2" data-name="Path 8130" d="M0,0S.77,2.1,1.221,1.937s1.4-.535,1.4-.535l.8.535a1.856,1.856,0,0,0-.73-.911c-.506-.273-1.575.089-1.575.089Z" transform="translate(19.943 70.889)" fill="#fff" opacity="0.5"/>
      <path id="Path_8131-2" data-name="Path 8131" d="M.331.188C.306.057.206-.029.121.009h0A.323.323,0,0,0,.009.338C.036.469.136.552.221.512A.32.32,0,0,0,.331.188Z" transform="translate(16.519 13.338)" fill="#ffc100"/>
      <path id="Path_8132-2" data-name="Path 8132" d="M.331.188C.306.057.205-.029.121.009h0A.325.325,0,0,0,.009.338C.036.469.136.552.221.512A.32.32,0,0,0,.331.188Z" transform="translate(43.129 14.222)" fill="#ffc100"/>
      <path id="Path_8133-2" data-name="Path 8133" d="M.329.188C.3.057.206-.029.119.009h0A.323.323,0,0,0,.01.338c.025.131.125.214.21.173A.314.314,0,0,0,.329.188Z" transform="translate(26.014 23.852)" fill="#ffc100"/>
      <path id="Path_8134-2" data-name="Path 8134" d="M.329.188C.306.057.206-.029.121.009h0A.323.323,0,0,0,.009.338C.036.469.136.552.221.512A.316.316,0,0,0,.329.188Z" transform="translate(30.541 62.147)" fill="#ffc100"/>
      <path id="Path_8135-2" data-name="Path 8135" d="M.329.19C.306.057.206-.028.121.009h0A.323.323,0,0,0,.009.338C.036.469.136.551.221.513A.32.32,0,0,0,.329.19Z" transform="translate(12.834 76.237)" fill="#fff"/>
      <path id="Path_8136-2" data-name="Path 8136" d="M.331.19C.306.057.205-.028.121.009h0A.325.325,0,0,0,.009.338C.036.469.136.551.221.513A.323.323,0,0,0,.331.19Z" transform="translate(47.206 0)" fill="#ffc100"/>
      <path id="Path_8137-2" data-name="Path 8137" d="M.331.189C.306.058.206-.028.121.008h0A.322.322,0,0,0,.009.336C.036.469.136.551.221.511A.32.32,0,0,0,.331.189Z" transform="translate(34.045 2.495)" fill="#ffc100"/>
      <path id="Path_8138-2" data-name="Path 8138" d="M0,.073V.088A.054.054,0,0,0,0,.117.052.052,0,0,0,.041.154a.054.054,0,0,0,.029,0H.089A.062.062,0,0,0,.12.136L.131.121a.062.062,0,0,0,0-.037V.069a.052.052,0,0,0,0-.029A.054.054,0,0,0,.116.017.069.069,0,0,0,.093,0,.062.062,0,0,0,.066,0H.046A.077.077,0,0,0,.014.019L0,.034A.079.079,0,0,0,0,.071Z" transform="translate(20.442 10.596)" fill="#ffc100"/>
      <path id="Path_8139-2" data-name="Path 8139" d="M.01.069V.085a.077.077,0,0,0,0,.029A.081.081,0,0,0,.025.137L.048.152a.071.071,0,0,0,.029,0H.1A.071.071,0,0,0,.127.135L.139.12a.079.079,0,0,0,0-.037V.068a.077.077,0,0,0,0-.029A.081.081,0,0,0,.123.016.046.046,0,0,0,.1,0,.044.044,0,0,0,.073,0H.054A.067.067,0,0,0,.021.019L.01.035A.079.079,0,0,0,0,.071Z" transform="translate(32.369 9.731)" fill="#ffc100"/>
      <path id="Path_8140-2" data-name="Path 8140" d="M0,.073V.148A.062.062,0,0,0,0,.175.071.071,0,0,0,.04.213a.062.062,0,0,0,.027,0H.086A.071.071,0,0,0,.119.194.069.069,0,0,0,.14.144V.069A.071.071,0,0,0,.14.04.071.071,0,0,0,.1,0,.071.071,0,0,0,.073,0H.053A.075.075,0,0,0,.023.021.071.071,0,0,0,0,.073Z" transform="translate(11.482 75.358)" fill="#ffc100"/>
      <path id="Path_8141-2" data-name="Path 8141" d="M.886,5.627A2.293,2.293,0,0,0,.562,4.144,4.5,4.5,0,0,1,.121.929C.428-.153.728.009.728.009a5.05,5.05,0,0,0,.678,2.145,2.493,2.493,0,0,1,.422,2.609C1.413,5.756.886,5.627.886,5.627Z" transform="translate(17.398 43.491)" fill="#ffc100"/>
      <path id="Path_8142-2" data-name="Path 8142" d="M4.971,10.435A4.467,4.467,0,0,1,2.318,8.067C1.284,6.074.918,2.642.778,2.2S0,0,0,0,2.971,2.151,3.733,4.17A35.83,35.83,0,0,1,4.971,10.435Z" transform="translate(23.628 50.641)" fill="#ffc100"/>
      <path id="Path_8143-2" data-name="Path 8143" d="M.314.155C.264.032.149-.037.073.021h0A.325.325,0,0,0,.031.365C.083.489.2.558.274.494A.318.318,0,0,0,.314.155Z" transform="translate(1.341 63.847)" fill="#ffc100"/>
      <path id="Path_8144-2" data-name="Path 8144" d="M0,.075.018.148A.046.046,0,0,0,.032.173.042.042,0,0,0,.051.191.046.046,0,0,0,.078.2.05.05,0,0,0,.107.2H.124A.052.052,0,0,0,.149.175V.158a.065.065,0,0,0,0-.039A.331.331,0,0,0,.134.046.06.06,0,0,0,.122.021.1.1,0,0,0,.1,0,.064.064,0,0,0,.074,0,.05.05,0,0,0,.045,0H.028A.085.085,0,0,0,0,.029V.046A.065.065,0,0,0,0,.085Z" transform="translate(0 57.313)" fill="#ffc100"/>
    </g>
    <g id="Plane" transform="translate(710.917 443.148) rotate(-77)">
      <g id="freepik--little-wing--inject-447" transform="translate(134.035 83.143)">
        <path id="freepik--lttle-wing--inject-447" d="M1.629,16.459C-.188,18-.525,19.885.82,20.658l2.436,1.409L35.492,11.878,20.724,0Z" transform="translate(0 0)" fill="#ebebeb"/>
        <path id="Path_7933" data-name="Path 7933" d="M9.924,14.8c-2.508-.373-5.871-.836-8.279-1.163L17.468,0,32.236,11.878,0,22.066S14.269,15.441,9.924,14.8Z" transform="translate(3.274 0)" fill="#e0e0e0"/>
        <path id="Path_7934" data-name="Path 7934" d="M3.251,22.066h0L.815,20.658c-1.345-.773-.991-2.654.809-4.2L20.709,0S4.741,14.787,3.242,16.159-1.139,19.694,3.251,22.066Z" transform="translate(0.005 0)" fill="#fafafa"/>
      </g>
      <g id="freepik--Tail--inject-447" transform="translate(146.324 40.206)">
        <path id="freepik--tail--inject-447-2" data-name="freepik--tail--inject-447" d="M0,34.037,26.729,2.091C28.247.273,30.673-.508,32.182.346l2.672,1.536L24.411,48.105Z" transform="translate(0 0.012)" fill="#f5f5f5"/>
        <path id="Path_7950" data-name="Path 7950" d="M0,26.174l5.344-6.362c2.336,1.472,11.133,6.662,16.214,4.78C27.456,22.4,33.463,0,33.463,0h0L24.375,40.261Z" transform="translate(0 7.874)" fill="#e0e0e0"/>
        <path id="Path_7951" data-name="Path 7951" d="M22.03,44.905,0,32.182c8.225,1.818,14.005.136,18.858-4.544C24.984,21.757,34.817,0,34.817,0L24.548,45.442Z" transform="translate(0.009 1.803)" fill="#5b618a"/>
        <path id="Path_7952" data-name="Path 7952" d="M0,25.847H0c6.253,1.345,11.088.7,15.178-1.736a10.852,10.852,0,0,0,6.362.182C27.038,22.257,32.636,2.636,33.354,0L24.538,39.125l-2.517-.582Z" transform="translate(0 8.165)" fill="#5b618a"/>
        <path id="Path_7953" data-name="Path 7953" d="M27.21,3.8c1.581-1.763,3.926-2.917,5.244-2.581l2.372.609L32.154.321c-1.472-.827-3.9,0-5.453,1.818L0,33.994Z" transform="translate(0 0)" fill="#fff"/>
      </g>
      <g id="freepik--Body--inject-447-4" data-name="freepik--Body--inject-447" transform="translate(0 0)">
        <path id="freepik--body--inject-447-5" data-name="freepik--body--inject-447" d="M49.523,7.143c9.888,7.716,24.384,20.131,24.384,20.131h0a5.544,5.544,0,0,1,2.5,4.335c0,1.136-.573,1.818-1.4,1.772h-.127a270.925,270.925,0,0,1-32.845-4.417C21.431,25.111,0,12.234,0,12.234S38.051-1.109,39.767.074C44.041,3.02,47.671,5.7,49.523,7.143Z" transform="translate(107.244 67.102)" fill="#f5f5f5"/>
        <path id="Path_7966-2" data-name="Path 7966" d="M38.8,4.5c14.641,7.552,18.177,8.18,16.3,3.554h0c9.261,7.48,19.9,16.568,19.9,16.568h0a5.544,5.544,0,0,1,2.5,4.335c0,1.136-.573,1.818-1.4,1.772H75.98a270.92,270.92,0,0,1-32.845-4.417C22.532,22.458,0,9.591,0,9.591L6.656,7.019a53.966,53.966,0,0,1,6.4-1.822C18.787,3.721,29.386.045,29.386.045S28.595-.765,38.8,4.5Z" transform="translate(106.143 69.755)" fill="#ba68c8"/>
        <path id="Path_7967-2" data-name="Path 7967" d="M38.864,4.462c14.641,7.552,18.177,8.18,16.3,3.554h0c9.261,7.48,19.9,16.568,19.9,16.568h0a5.544,5.544,0,0,1,2.5,4.335c0,1.136-.573,1.818-1.4,1.772h-.127A270.919,270.919,0,0,1,43.2,26.274C22.6,22.42,1.965,10.505,1.965,10.505L0,9.456,5.357,7.2l4.128-.953L29.2.064S28.513-.878,38.864,4.462Z" transform="translate(106.079 69.792)" fill="#5b618a"/>
        <path id="Path_7968-3" data-name="Path 7968" d="M3.638,2.693A5.273,5.273,0,0,0,.493,9.345,10.2,10.2,0,0,1,.157,7.937C-.988,1.248,4.328.293,9.809.348c3.935-.827,14.714-.454,19.085,4.19C18.552.893,7.273.975,3.638,2.693Z" fill="#fafafa" opacity="0.5"/>
        <path id="Path_7969-2" data-name="Path 7969" d="M19.587,0c7.043,3.9,5.834,1.948,10.187,4.211A256.3,256.3,0,0,0,58.23,16.571L55.122,7.682l15.45,10.233,1.154,3.308c1.818.573,2.99.909,3.335.991.909.191,1.109-.727.727-2.081a5.634,5.634,0,0,1,1.772,3.781c0,1.136-.573,1.818-1.4,1.772h-.127A270.92,270.92,0,0,1,43.189,21.27C22.586,17.416,12.506,11.738,0,4.522L7.706,2.743Z" transform="translate(106.125 74.742)" fill="#fafafa"/>
      </g>
      <g id="freepik--Windows--inject-447-2" data-name="freepik--Windows--inject-447" transform="translate(97.487 39.485)">
        <path id="Path_7970-2" data-name="Path 7970" d="M.251,2.26A8.089,8.089,0,0,0,.015.252C-.04.025.06-.066.269.052l.818.473a1.218,1.218,0,0,1,.5.627,7.925,7.925,0,0,1,.236,2.018.236.236,0,0,1-.382.209L.614,2.906A.827.827,0,0,1,.251,2.26Z" transform="translate(0 0)" fill="#455a64"/>
        <path id="Path_7987" data-name="Path 7987" d="M.245,2.26A7.7,7.7,0,0,0,.018.252C-.045.025.064-.066.264.052l.827.473a1.281,1.281,0,0,1,.491.627,7.189,7.189,0,0,1,.236,2.018c0,.236-.173.327-.382.209L.618,2.906A.8.8,0,0,1,.245,2.26Z" transform="translate(46.947 28.01)" fill="#455a64"/>
        <path id="Path_7998-2" data-name="Path 7998" d="M.242,2.26A7.653,7.653,0,0,0,.015.252C-.04.025.06-.066.269.052l.818.473a1.154,1.154,0,0,1,.491.627,7.189,7.189,0,0,1,.236,2.018c0,.236-.173.327-.382.209L.615,2.906A.818.818,0,0,1,.242,2.26Z" transform="translate(14.759 8.607)" fill="#455a64"/>
        <path id="Path_7999-2" data-name="Path 7999" d="M.242,2.262A7.715,7.715,0,0,0,.015.245C-.04.018.06-.064.269.054l.818.473a1.136,1.136,0,0,1,.491.618,7.271,7.271,0,0,1,.236,2.018c0,.236-.173.336-.382.218L.615,2.9A.8.8,0,0,1,.242,2.262Z" transform="translate(11.815 6.878)" fill="#455a64"/>
        <path id="Path_8000-2" data-name="Path 8000" d="M.25,2.262A8.124,8.124,0,0,0,.023.245C-.041.018.023-.064.268.054L1.1.526a1.218,1.218,0,0,1,.491.618,7.58,7.58,0,0,1,.236,2.018.236.236,0,0,1-.382.218L.614,2.9A.818.818,0,0,1,.25,2.262Z" transform="translate(8.862 5.151)" fill="#455a64"/>
        <path id="Path_8001-2" data-name="Path 8001" d="M.25,2.26A7.653,7.653,0,0,0,.023.252c-.064-.227,0-.318.245-.2L1.159.57A1.245,1.245,0,0,1,1.65,1.2a7.189,7.189,0,0,1,.236,2.018c0,.236-.173.327-.382.209L.687,2.951A.818.818,0,0,1,.25,2.26Z" transform="translate(5.872 3.426)" fill="#455a64"/>
        <path id="Path_8002-2" data-name="Path 8002" d="M.242,2.262A7.762,7.762,0,0,0,.015.245C-.04.018.06-.064.269.054l.818.473a1.127,1.127,0,0,1,.491.627,7.489,7.489,0,0,1,.245,2.009.236.236,0,0,1-.391.218L.615,2.908a.836.836,0,0,1-.373-.645Z" transform="translate(2.936 1.734)" fill="#455a64"/>
      </g>
      <g id="freepik--little-wign--inject-447" transform="translate(161.247 81.433)">
        <path id="freepik--lttle-wing--inject-447-2" data-name="freepik--lttle-wing--inject-447" d="M0,1.028,45.378,0a16.358,16.358,0,0,1,7.271,1.6L55.593,3.31l-39.08,9.2a3.744,3.744,0,0,1-3.208-.736Z" transform="translate(0 0)" fill="#f0f0f0"/>
        <path id="Path_8003" data-name="Path 8003" d="M12.724,10.3,0,0C2.726,2.136,10.215,6.7,14.36,7.425c4.471.791,40.634-5.589,40.634-5.589l-39.08,9.2a3.744,3.744,0,0,1-3.19-.736Z" transform="translate(0.527 1.474)" fill="#e0e0e0"/>
        <path id="Path_8004" data-name="Path 8004" d="M0,1.028,45.378,0a16.358,16.358,0,0,1,7.271,1.6L55.593,3.31h0C52.676,2.064,48.977.974,38.325,1.492s-36.8.763-36.8.763Z" transform="translate(0 0)" fill="#fafafa"/>
      </g>
    </g>
    <g id="Fire" transform="matrix(-0.985, -0.174, 0.174, -0.985, 818.286, 404.116)" opacity="0.86" clip-path="url(#clip-path)">
      <g id="Fire_ball-pana-3" data-name="Fire ball-pana" transform="matrix(0.469, -0.883, 0.883, 0.469, 33.355, 64.013)">
        <g id="freepik--Smoke--inject-1-3" data-name="freepik--Smoke--inject-1" transform="translate(0 0)">
          <path id="Path_8265" data-name="Path 8265" d="M64.485,22.593c-1.814.5-4.417-1.711-4.417-1.711s.327,2.624-2.906,3.982a6.125,6.125,0,0,1-5.78-.549,2.647,2.647,0,0,1-.871,2.913c-1.52,1.466-2.255.845-2.519.537l-1.057-1.233s-2.292,1.415-3.6.6c-2.864,1.022-9.2,2.542-9.417-3.905,0,0-4.473,1.2-4.771-1.536,0,0-10.64,3.548-9.038-5.061,0,0-3.55-.233-4.2-2.607,0,0-6.335-.287-6.842-4.281,0,0-4.5-1.209-3.413-4.036,0,0-2.923-.275-2.67-2.246L1.4,2.422S0,4.119,0,2.394.39-1.425,3.849,1.346c0,0,3.48-.91,5.964.425a3.956,3.956,0,0,1,2.029,4.015s5.033-.317,4.694,4.3c0,0,1.7-1.027,5.411-.343s1.6,3.347,1.6,3.347a4.69,4.69,0,0,1,5.112.934A4.788,4.788,0,0,1,34.709,11.8c3.67,1.254,2.694,4.589,2.353,5.49.222-.359.952-.934,3.3-.086,1.793.644.964,1.767.964,1.767l.537,1.2A3.626,3.626,0,0,1,46.3,18.155c3.268,1.085,2.883,1.954,2.883,1.954S50.5,17.857,52.6,18.317c0,0,.784-3.873,3.863-3.14a2.364,2.364,0,0,1,2.864-2.626l5.8,8.133A1.1,1.1,0,0,1,64.485,22.593Z" transform="translate(0 15.006)" fill="#ffc100"/>
          <g id="Group_792" data-name="Group 792" transform="translate(1.475 15.204)" opacity="0.2">
            <path id="Path_8266" data-name="Path 8266" d="M33.234,11.606a3.653,3.653,0,0,1,2.547,2.334,4.491,4.491,0,0,0-2.771,1.517,3.4,3.4,0,0,0-5.049.444,6.317,6.317,0,0,0-6.718-1.562,2.591,2.591,0,0,0,.3-1.926,1.646,1.646,0,0,0-1.422-1.223,1.213,1.213,0,0,0-1.256,1.235,7.757,7.757,0,0,0-6.053-1.268A3.009,3.009,0,0,0,9.237,6.84,4.022,4.022,0,0,0,2.979,2.871,9.622,9.622,0,0,0,0,.012L.588,0a7.869,7.869,0,0,1,1.79,1.153s3.48-.91,5.964.425a3.942,3.942,0,0,1,2.024,4.01s5.033-.317,4.694,4.3c0,0,1.7-1.027,5.411-.343s1.6,3.347,1.6,3.347a4.69,4.69,0,0,1,5.112.934A4.791,4.791,0,0,1,33.234,11.606Z" transform="translate(0 0)" fill="#ffc100"/>
          </g>
          <path id="Path_8267" data-name="Path 8267" d="M0,7.674c.012-.3.684-3.527,3.088-4.851A7.3,7.3,0,0,1,8.17,2.291S6.97-.573,10.689.1l6.069,3.642s2.584,2.239-.084,3.184c0,0,.3,4.255-1.991,4.743a10.682,10.682,0,0,1-5-.5s1.774,2.733.2,3.389a8.929,8.929,0,0,1-4.164.138Z" transform="translate(58.874 20.899)" fill="#ffc100"/>
          <path id="Path_8268" data-name="Path 8268" d="M1.757,9.8S-.141,9.656.008,7.256s2.764-4.435,4.15-4.2l.261-.131S5.013-.632,8.368.1l2.246.934A2.542,2.542,0,0,1,13.907.72l-.31,5.7-1.648-.894s.908,2.463-.992,3.268c0,0,1.078,2.775-.3,4.286s-2.012,1.566-2.012,1.566L1.873,11.822Z" transform="translate(67.761 10.597)" fill="#ffc100"/>
          <path id="Path_8269" data-name="Path 8269" d="M1.757,9.8S-.141,9.656.008,7.256s2.764-4.435,4.15-4.2l.261-.131S5.013-.632,8.368.1l2.246.934A2.542,2.542,0,0,1,13.907.72l-.31,5.7-1.648-.894s.908,2.463-.992,3.268c0,0,1.078,2.775-.3,4.286s-2.012,1.566-2.012,1.566L1.873,11.822Z" transform="translate(62.155 3.421)" fill="#ffc100"/>
          <path id="Path_8274" data-name="Path 8274" d="M1.757,9.8S-.141,9.656.008,7.256s2.764-4.435,4.15-4.2l.261-.131S5.013-.632,8.368.1l2.246.934A2.542,2.542,0,0,1,13.907.72l-.31,5.7-1.648-.894s.908,2.463-.992,3.268c0,0,1.078,2.775-.3,4.286s-2.012,1.566-2.012,1.566L1.873,11.822Z" transform="translate(54.158 0)" fill="#ffc100"/>
          <g id="Group_793" data-name="Group 793" transform="translate(68.367 20.547)" opacity="0.1">
            <path id="Path_8270" data-name="Path 8270" d="M6.4,5.934a2.706,2.706,0,0,0-.742-2.82,5.207,5.207,0,0,0,2.965-.033A3.107,3.107,0,0,0,10.628.92,2.535,2.535,0,0,0,10.654,0a3.711,3.711,0,0,1-.6,3.144C8.67,4.652,8.037,4.711,8.037,4.711l-.32-.133c.6.7,1.347,2.033-.546,2.7,0,0,.3,4.255-1.991,4.743a10.207,10.207,0,0,1-4.7-.4A4.734,4.734,0,0,1,0,10.848c1.326-.364,1.494-1.765,1.447-3.221a4.148,4.148,0,0,0,2.871.292A3.114,3.114,0,0,0,6.4,5.934Z" transform="translate(0 0)" fill="#ffc100"/>
          </g>
          <g id="Group_794" data-name="Group 794" transform="translate(76.386 9.44)" opacity="0.1">
            <path id="Path_8271" data-name="Path 8271" d="M8.046,7.054c-.584.486-2.04.016-2.04.016s-.915,1.321-2.071,1.12a2.516,2.516,0,0,1-.4-.014,1.944,1.944,0,0,1-1.2,1.788,6.267,6.267,0,0,1,.25.873A2.152,2.152,0,0,0,1.429,9.368,4.845,4.845,0,0,0,3.249,4.2,4.428,4.428,0,0,0,0,1.345C.448.189.987,0,.987,0s.88,2.283,2.93,1.975A3.027,3.027,0,0,0,6.452.38a12.233,12.233,0,0,1-.98,2.29,1.691,1.691,0,0,1,2.568.205A2.844,2.844,0,0,1,8.046,7.054Z" transform="translate(0 0)" fill="#ffc100"/>
          </g>
          <g id="Group_795" data-name="Group 795" transform="translate(75.141 10.59)" opacity="0.2">
            <path id="Path_8272" data-name="Path 8272" d="M.987.1,1.2.184A5.637,5.637,0,0,0,0,0,3.968,3.968,0,0,1,.987.1Z" transform="translate(0 0)" fill="#ffc100"/>
          </g>
          <g id="Group_796" data-name="Group 796" transform="translate(59.168 20.899)" opacity="0.1">
            <path id="Path_8273" data-name="Path 8273" d="M9.519,3.661A7.768,7.768,0,0,0,7.57,3.194a2.472,2.472,0,0,0-1.844.551A1.683,1.683,0,0,0,5.3,5.613,4.2,4.2,0,0,0,2.568,9.277,3.712,3.712,0,0,0,0,6.539,6.63,6.63,0,0,1,2.8,2.823a7.3,7.3,0,0,1,5.082-.532S6.676-.573,10.395.1C8.31,1.224,9.519,3.661,9.519,3.661Z" transform="translate(0 0)" fill="#ffc100"/>
          </g>
        </g>
      </g>
      <g id="Fire_ball-pana-4" data-name="Fire ball-pana" transform="matrix(0.469, -0.883, 0.883, 0.469, 42.042, 55.035)">
        <g id="freepik--Smoke--inject-1-4" data-name="freepik--Smoke--inject-1" transform="translate(0 0)">
          <path id="Path_8265-2" data-name="Path 8265" d="M51.359,17.994c-1.445.4-3.518-1.363-3.518-1.363s.26,2.09-2.315,3.172a4.878,4.878,0,0,1-4.6-.437,2.108,2.108,0,0,1-.693,2.32c-1.21,1.168-1.8.673-2.006.428l-.842-.982s-1.826,1.127-2.867.476c-2.281.814-7.325,2.025-7.5-3.11,0,0-3.562.959-3.8-1.223,0,0-8.474,2.826-7.2-4.031,0,0-2.828-.186-3.346-2.077,0,0-5.046-.229-5.449-3.41,0,0-3.583-.963-2.718-3.214,0,0-2.328-.219-2.127-1.789l-1.26-.825S0,3.281,0,1.907s.31-3.042,3.066-.835a7.571,7.571,0,0,1,4.75.338,3.15,3.15,0,0,1,1.616,3.2s4.008-.253,3.739,3.426c0,0,1.357-.818,4.31-.273s1.275,2.666,1.275,2.666a3.736,3.736,0,0,1,4.072.744A3.814,3.814,0,0,1,27.644,9.4c2.923,1,2.145,3.655,1.874,4.373.177-.286.759-.744,2.629-.069,1.428.513.768,1.407.768,1.407l.428.957a2.888,2.888,0,0,1,3.532-1.608c2.6.865,2.3,1.556,2.3,1.556s1.049-1.794,2.726-1.428c0,0,.625-3.084,3.077-2.5A1.882,1.882,0,0,1,47.254,10l4.62,6.477A.878.878,0,0,1,51.359,17.994Z" transform="translate(0 15.425)" fill="#ffd34d"/>
          <g id="Group_792-2" data-name="Group 792" transform="translate(1.175 15.582)" opacity="0.2">
            <path id="Path_8266-2" data-name="Path 8266" d="M26.469,9.244A2.91,2.91,0,0,1,28.5,11.1a3.577,3.577,0,0,0-2.207,1.208,2.708,2.708,0,0,0-4.021.353,5.031,5.031,0,0,0-5.351-1.244,2.064,2.064,0,0,0,.236-1.534,1.311,1.311,0,0,0-1.132-.974.966.966,0,0,0-1,.983A6.178,6.178,0,0,0,10.2,8.887,2.4,2.4,0,0,0,7.357,5.447,3.2,3.2,0,0,0,2.372,2.287,7.664,7.664,0,0,0,0,.009L.469,0A6.267,6.267,0,0,1,1.894.918a7.571,7.571,0,0,1,4.75.338A3.14,3.14,0,0,1,8.257,4.451S12.265,4.2,12,7.877c0,0,1.357-.818,4.31-.273S17.58,10.27,17.58,10.27a3.736,3.736,0,0,1,4.072.744A3.816,3.816,0,0,1,26.469,9.244Z" transform="translate(0 0)" fill="#ffd34d"/>
          </g>
          <path id="Path_8267-2" data-name="Path 8267" d="M0,6.112A5.769,5.769,0,0,1,2.46,2.248a5.815,5.815,0,0,1,4.047-.424S5.551-.457,8.513.082l4.834,2.9S15.4,4.766,13.28,5.519c0,0,.24,3.389-1.586,3.778A8.507,8.507,0,0,1,7.71,8.9s1.413,2.177.156,2.7a7.112,7.112,0,0,1-3.317.11Z" transform="translate(46.89 20.118)" fill="#ffd34d"/>
          <path id="Path_8268-2" data-name="Path 8268" d="M1.4,7.8S-.112,7.69.007,5.779s2.2-3.532,3.306-3.346l.208-.1S3.993-.5,6.664.079L8.453.822A2.024,2.024,0,0,1,11.076.573l-.247,4.54L9.516,4.4s.723,1.961-.79,2.6c0,0,.859,2.211-.24,3.413s-1.6,1.247-1.6,1.247L1.492,9.416Z" transform="translate(53.968 11.914)" fill="#ffd34d"/>
          <path id="Path_8269-2" data-name="Path 8269" d="M1.4,7.8S-.112,7.69.007,5.779s2.2-3.532,3.306-3.346l.208-.1S3.993-.5,6.664.079L8.453.822A2.024,2.024,0,0,1,11.076.573l-.247,4.54L9.516,4.4s.723,1.961-.79,2.6c0,0,.859,2.211-.24,3.413s-1.6,1.247-1.6,1.247L1.492,9.416Z" transform="translate(49.503 6.198)" fill="#ffd34d"/>
          <path id="Path_8275" data-name="Path 8275" d="M1.4,7.8S-.112,7.69.007,5.779s2.2-3.532,3.306-3.346l.208-.1S3.993-.5,6.664.079L8.453.822A2.024,2.024,0,0,1,11.076.573l-.247,4.54L9.516,4.4s.723,1.961-.79,2.6c0,0,.859,2.211-.24,3.413s-1.6,1.247-1.6,1.247L1.492,9.416Z" transform="translate(44.433 0)" fill="#ffd34d"/>
          <g id="Group_793-2" data-name="Group 793" transform="translate(54.451 19.838)" opacity="0.1">
            <path id="Path_8270-2" data-name="Path 8270" d="M5.1,4.726A2.155,2.155,0,0,0,4.507,2.48a4.147,4.147,0,0,0,2.361-.026A2.475,2.475,0,0,0,8.465.733,2.019,2.019,0,0,0,8.485,0,2.955,2.955,0,0,1,8,2.5c-1.1,1.2-1.6,1.247-1.6,1.247l-.255-.106C6.62,4.2,7.219,5.265,5.711,5.8c0,0,.24,3.389-1.586,3.778A8.129,8.129,0,0,1,.381,9.259,3.77,3.77,0,0,1,0,8.64c1.056-.29,1.19-1.406,1.153-2.566a3.3,3.3,0,0,0,2.287.232A2.48,2.48,0,0,0,5.1,4.726Z" transform="translate(0 0)" fill="#ffd34d"/>
          </g>
          <g id="Group_794-2" data-name="Group 794" transform="translate(60.837 10.992)" opacity="0.1">
            <path id="Path_8271-2" data-name="Path 8271" d="M6.409,5.618c-.465.387-1.625.013-1.625.013s-.729,1.052-1.649.892a2,2,0,0,1-.322-.011,1.549,1.549,0,0,1-.956,1.424,4.992,4.992,0,0,1,.2.7,1.714,1.714,0,0,0-.918-1.171,3.859,3.859,0,0,0,1.45-4.118A3.527,3.527,0,0,0,0,1.071C.357.151.786,0,.786,0s.7,1.818,2.333,1.573A2.411,2.411,0,0,0,5.139.3a9.743,9.743,0,0,1-.781,1.824A1.347,1.347,0,0,1,6.4,2.29,2.265,2.265,0,0,1,6.409,5.618Z" transform="translate(0 0)" fill="#ffd34d"/>
          </g>
          <g id="Group_795-2" data-name="Group 795" transform="translate(59.846 11.907)" opacity="0.2">
            <path id="Path_8272-2" data-name="Path 8272" d="M.786.078.954.146A4.489,4.489,0,0,0,0,0,3.161,3.161,0,0,1,.786.078Z" transform="translate(0 0)" fill="#ffd34d"/>
          </g>
          <g id="Group_796-2" data-name="Group 796" transform="translate(47.124 20.118)" opacity="0.1">
            <path id="Path_8273-2" data-name="Path 8273" d="M7.582,2.916a6.187,6.187,0,0,0-1.552-.372,1.969,1.969,0,0,0-1.469.439A1.34,1.34,0,0,0,4.222,4.47,3.346,3.346,0,0,0,2.045,7.389,2.956,2.956,0,0,0,0,5.208a5.281,5.281,0,0,1,2.231-2.96,5.815,5.815,0,0,1,4.047-.424s-.961-2.281,2-1.742C6.619.975,7.582,2.916,7.582,2.916Z" transform="translate(0 0)" fill="#ffd34d"/>
          </g>
        </g>
      </g>
    </g>
  </g>
</svg>
