<svg width="1920" height="489" viewBox="0 0 1920 489" fill="none" xmlns="http://www.w3.org/2000/svg">
<path opacity="0.36" d="M0 488.002V12.5103C8.81172 16.4086 16.655 22.2019 22.9717 29.4781C32.807 23.4326 44.242 20.5039 55.7725 21.0777L55.7939 21.0338C61.5958 11.1354 70.7773 3.66489 81.6484 -0.00335693H112.084C119.512 2.50189 126.205 6.8053 131.567 12.523C142.588 6.08364 155.265 3.0462 168.007 3.79352C180.749 4.54083 192.985 9.03972 203.177 16.7232C213.365 24.4066 221.054 34.9319 225.272 46.9752C229.491 59.0185 230.052 72.0411 226.886 84.4029L228.895 85.4244C240.03 91.0882 249.309 99.8246 255.632 110.599C261.955 121.374 265.058 133.735 264.572 146.218C267.823 145.819 271.101 145.7 274.372 145.864L274.397 145.816C278.142 139.429 283.323 134.002 289.531 129.968C295.739 125.934 302.803 123.403 310.16 122.577C317.515 121.75 324.96 122.652 331.905 125.209C338.85 127.766 345.103 131.908 350.166 137.306C361.186 130.867 373.865 127.829 386.606 128.577C399.348 129.324 411.585 133.823 421.777 141.506C431.966 149.188 439.654 159.714 443.873 171.756C448.092 183.799 448.653 196.821 445.485 209.182L447.494 210.206C459.254 216.163 468.924 225.555 475.223 237.135C480.854 237.133 486.454 237.96 491.844 239.59L491.878 239.553C497.055 234.262 503.396 230.249 510.395 227.836C517.393 225.424 524.859 224.676 532.197 225.653C539.533 226.629 546.54 229.304 552.66 233.465C558.78 237.627 563.844 243.159 567.449 249.623C579.699 246.039 592.734 246.159 604.915 249.967C617.096 253.775 627.88 261.101 635.907 271.023C643.933 280.944 648.845 293.016 650.024 305.722C651.204 318.428 648.598 331.2 642.536 342.428L644.236 343.907C648.859 347.913 652.895 352.549 656.229 357.678C662.927 353.569 670.313 350.702 678.029 349.216L680.238 348.787C680.605 336.032 684.738 323.671 692.115 313.259C699.493 302.848 709.786 294.851 721.698 290.277C733.614 285.703 746.616 284.752 759.07 287.544C771.525 290.337 782.876 296.748 791.698 305.971C798.055 302.179 805.209 299.921 812.592 299.378C819.974 298.834 827.382 300.02 834.226 302.841C841.071 305.661 847.164 310.037 852.021 315.625C856.877 321.212 860.363 327.855 862.202 335.026L862.213 335.079C871.595 337.266 880.273 341.79 887.439 348.228L889.139 348.257C892.151 335.857 898.766 324.625 908.148 315.975C917.531 307.326 929.262 301.645 941.866 299.648C954.474 297.647 967.391 299.418 978.995 304.738C990.599 310.058 1000.37 318.69 1007.08 329.548C1014.09 327.16 1021.56 326.438 1028.89 327.441C1036.23 328.444 1043.23 331.144 1049.34 335.327C1055.45 339.506 1060.5 345.055 1064.08 351.529C1067.67 358.003 1069.7 365.225 1070.01 372.621V372.673C1078.39 376.603 1085.69 382.508 1091.29 389.88C1085.77 378.787 1083.56 366.344 1084.92 354.03C1086.27 341.716 1091.13 330.049 1098.92 320.419C1106.95 310.497 1117.73 303.173 1129.92 299.366C1142.1 295.559 1155.13 295.44 1167.38 299.024C1170.99 292.562 1176.05 287.03 1182.17 282.869C1188.29 278.708 1195.3 276.032 1202.63 275.054C1209.97 274.078 1217.44 274.826 1224.44 277.239C1231.43 279.652 1237.77 283.663 1242.95 288.954L1242.99 288.995C1248.37 287.361 1253.97 286.533 1259.6 286.536C1265.9 274.956 1275.58 265.566 1287.33 259.608L1289.33 258.584C1286.17 246.222 1286.73 233.201 1290.95 221.158C1295.17 209.115 1302.86 198.589 1313.05 190.907C1323.24 183.225 1335.47 178.727 1348.22 177.98C1360.96 177.233 1373.63 180.268 1384.65 186.707C1389.72 181.309 1395.97 177.167 1402.92 174.611C1409.86 172.055 1417.31 171.154 1424.66 171.982C1432.02 172.808 1439.08 175.338 1445.29 179.372C1451.5 183.405 1456.68 188.831 1460.43 195.217L1460.45 195.266C1463.72 195.104 1467 195.222 1470.25 195.62C1469.77 183.136 1472.87 170.776 1479.19 160.002C1485.52 149.227 1494.79 140.49 1505.93 134.826L1507.94 133.805C1504.77 121.444 1505.33 108.422 1509.55 96.3795C1513.77 84.3369 1521.46 73.8124 1531.65 66.1295C1541.84 58.4469 1554.07 53.949 1566.81 53.2017C1579.56 52.4544 1592.23 55.4909 1603.25 61.9293C1608.32 56.531 1614.57 52.389 1621.52 49.8326C1628.46 47.2761 1635.91 46.3752 1643.27 47.2027C1650.62 48.0289 1657.69 50.559 1663.9 54.5923C1670.1 58.6257 1675.29 64.0516 1679.03 70.438L1679.05 70.4869C1690.58 69.9087 1702.02 72.8345 1711.85 78.8785C1717.86 71.9431 1725.26 66.3534 1733.58 62.4761C1741.9 58.5989 1750.94 56.5214 1760.11 56.3785L1762.37 56.3404C1764.94 43.8429 1771.16 32.3868 1780.23 23.4146C1789.3 14.4425 1800.83 8.35562 1813.35 5.92047C1825.88 3.48279 1838.85 4.80215 1850.64 9.71442C1862.42 14.6267 1872.48 22.9121 1879.57 33.5289C1885.95 31.1051 1892.76 30.0796 1899.57 30.5211C1906.37 30.9626 1913 32.8614 1919.01 36.0884V488.008L0 488.002Z" fill="#E6E6E6"/>
<path opacity="0.36" d="M0 488V77.5103C8.81172 81.4086 16.655 87.2019 22.9717 94.4781C32.807 88.4326 44.242 85.5039 55.7725 86.0777L55.7939 86.0338C61.5958 76.1354 70.7773 68.6649 81.6484 64.9966H112.084C119.512 67.5019 126.205 71.8053 131.567 77.523C142.588 71.0836 155.265 68.0462 168.007 68.7935C180.749 69.5408 192.985 74.0397 203.177 81.7232C213.365 89.4066 221.054 99.9319 225.272 111.975C229.491 124.018 230.052 137.041 226.886 149.403L228.895 150.424C240.03 156.088 249.309 164.825 255.632 175.599C261.955 186.374 265.058 198.735 264.572 211.218C267.823 210.819 271.101 210.7 274.372 210.864L274.397 210.816C278.142 204.429 283.323 199.002 289.531 194.968C295.739 190.934 302.803 188.403 310.16 187.577C317.515 186.75 324.96 187.652 331.905 190.209C338.85 192.766 345.103 196.908 350.166 202.306C361.186 195.867 373.865 192.829 386.606 193.577C399.348 194.324 411.585 198.823 421.777 206.506C431.966 214.188 439.654 224.714 443.873 236.756C448.092 248.799 448.653 261.821 445.485 274.182L447.494 275.206C459.254 281.163 468.924 290.555 475.223 302.135C480.854 302.133 486.454 302.96 491.844 304.59L491.878 304.553C497.055 299.262 503.396 295.249 510.395 292.836C517.393 290.424 524.859 289.676 532.197 290.653C539.533 291.629 546.54 294.304 552.66 298.465C558.78 302.627 563.844 308.159 567.449 314.623C579.699 311.039 592.734 311.159 604.915 314.967C617.096 318.775 627.88 326.101 635.907 336.023C643.933 345.944 648.845 358.016 650.024 370.722C651.204 383.428 648.598 396.2 642.536 407.428L644.236 408.907C648.859 412.913 652.895 417.549 656.229 422.678C662.927 418.569 670.313 415.702 678.029 414.216L680.238 413.787C680.605 401.032 684.738 388.671 692.115 378.259C699.493 367.848 709.786 359.851 721.698 355.277C733.614 350.703 746.616 349.752 759.07 352.544C771.525 355.337 782.876 361.748 791.698 370.971C798.055 367.179 805.209 364.921 812.592 364.378C819.974 363.834 827.382 365.02 834.226 367.841C841.071 370.661 847.164 375.037 852.021 380.625C856.877 386.212 860.363 392.855 862.202 400.026L862.213 400.079C871.595 402.266 880.273 406.79 887.439 413.228L889.139 413.257C892.151 400.857 898.766 389.625 908.148 380.975C917.531 372.326 929.262 366.645 941.866 364.648C954.474 362.647 967.391 364.418 978.995 369.738C990.599 375.058 1000.37 383.69 1007.08 394.548C1014.09 392.16 1021.56 391.438 1028.89 392.441C1036.23 393.444 1043.23 396.144 1049.34 400.327C1055.45 404.506 1060.5 410.055 1064.08 416.529C1067.67 423.003 1069.7 430.225 1070.01 437.621V437.673C1078.39 441.603 1085.69 447.508 1091.29 454.88C1085.77 443.787 1083.56 431.344 1084.92 419.03C1086.27 406.716 1091.13 395.049 1098.92 385.419C1106.95 375.497 1117.73 368.173 1129.92 364.366C1142.1 360.559 1155.13 360.44 1167.38 364.024C1170.99 357.562 1176.05 352.03 1182.17 347.869C1188.29 343.708 1195.3 341.032 1202.63 340.054C1209.97 339.078 1217.44 339.826 1224.44 342.239C1231.43 344.652 1237.77 348.663 1242.95 353.954L1242.99 353.995C1248.37 352.361 1253.97 351.533 1259.6 351.536C1265.9 339.956 1275.58 330.566 1287.33 324.608L1289.33 323.584C1286.17 311.222 1286.73 298.201 1290.95 286.158C1295.17 274.115 1302.86 263.589 1313.05 255.907C1323.24 248.225 1335.47 243.727 1348.22 242.98C1360.96 242.233 1373.63 245.268 1384.65 251.707C1389.72 246.309 1395.97 242.167 1402.92 239.611C1409.86 237.055 1417.31 236.154 1424.66 236.982C1432.02 237.808 1439.08 240.338 1445.29 244.372C1451.5 248.405 1456.68 253.831 1460.43 260.217L1460.45 260.266C1463.72 260.104 1467 260.222 1470.25 260.62C1469.77 248.136 1472.87 235.776 1479.19 225.002C1485.52 214.227 1494.79 205.49 1505.93 199.826L1507.94 198.805C1504.77 186.444 1505.33 173.422 1509.55 161.379C1513.77 149.337 1521.46 138.812 1531.65 131.129C1541.84 123.447 1554.07 118.949 1566.81 118.202C1579.56 117.454 1592.23 120.491 1603.25 126.929C1608.32 121.531 1614.57 117.389 1621.52 114.833C1628.46 112.276 1635.91 111.375 1643.27 112.203C1650.62 113.029 1657.69 115.559 1663.9 119.592C1670.1 123.626 1675.29 129.052 1679.03 135.438L1679.05 135.487C1690.58 134.909 1702.02 137.835 1711.85 143.878C1717.86 136.943 1725.26 131.353 1733.58 127.476C1741.9 123.599 1750.94 121.521 1760.11 121.378L1762.37 121.34C1764.94 108.843 1771.16 97.3868 1780.23 88.4146C1789.3 79.4425 1800.83 73.3556 1813.35 70.9205C1825.88 68.4828 1838.85 69.8021 1850.64 74.7144C1862.42 79.6267 1872.48 87.9121 1879.57 98.5289C1885.95 96.1051 1892.76 95.0796 1899.57 95.5211C1906.37 95.9626 1913 97.8614 1919.01 101.088V488H0Z" fill="#E6E6E6"/>
</svg>
