<svg width="394" height="154" viewBox="0 0 394 154" fill="none" xmlns="http://www.w3.org/2000/svg">
<path opacity="0.36" d="M1 153.537V4.97551C1.58933 4.85084 2.18573 4.74541 2.78906 4.66008C7.8511 3.94725 13.0106 4.74762 17.6191 6.95988C22.2276 9.17214 26.0792 12.6981 28.689 17.0937C31.5103 16.1855 34.5045 15.9484 37.4336 16.4013C40.3627 16.8542 43.1458 17.9841 45.561 19.7021C47.9776 21.42 49.9602 23.6775 51.3516 26.2958C52.7429 28.9141 53.5048 31.8209 53.5762 34.7851V34.8075C54.7535 35.3843 55.8784 36.0613 56.939 36.832C59.1923 32.365 62.679 28.6379 66.9858 26.0917C71.2926 23.5456 76.2393 22.2879 81.2393 22.4667L82.1392 22.497C83.4309 17.5527 86.156 13.1017 89.9722 9.70305C93.7883 6.30435 98.5252 4.11023 103.585 3.39738C108.648 2.68501 113.807 3.48557 118.416 5.69816C123.024 7.91076 126.875 11.4362 129.485 15.832C132.307 14.9242 135.301 14.6876 138.231 15.1405C141.16 15.5935 143.944 16.7238 146.36 18.4413C148.776 20.1589 150.76 22.4162 152.151 25.0341C153.542 27.652 154.304 30.5585 154.375 33.5224V33.5439C158.526 35.5797 161.962 38.8245 164.234 42.8505C167.685 41.5886 171.364 41.0692 175.03 41.3261C178.695 41.583 182.266 42.6107 185.507 44.3417L186.302 44.7646C189.631 40.8869 194.033 38.0803 198.954 36.6991C203.874 35.3179 209.093 35.4231 213.954 37.0019C217.641 38.2001 221.013 40.2103 223.822 42.8837C226.63 45.5571 228.804 48.8259 230.182 52.4501C234.883 52.3927 239.51 53.6158 243.569 55.9882C245.597 53.8262 248.101 52.1667 250.882 51.1425C253.664 50.1183 256.647 49.7571 259.592 50.0878C262.539 50.4182 265.367 51.4323 267.853 53.0478C270.339 54.6633 272.414 56.8363 273.913 59.3945L273.924 59.414C275.235 59.3502 276.548 59.3983 277.85 59.5566C277.655 54.5569 278.897 49.6053 281.429 45.29C283.962 40.9746 287.678 37.4758 292.138 35.2079L292.938 34.8007C291.672 29.8502 291.898 24.6356 293.588 19.8134C295.279 14.9912 298.358 10.7763 302.438 7.70012C306.52 4.62315 311.42 2.82246 316.523 2.52336C321.626 2.22425 326.703 3.44043 331.117 6.01945C333.144 3.85722 335.649 2.198 338.43 1.17375C341.212 0.1495 344.194 -0.211903 347.14 0.119062C350.086 0.450102 352.915 1.46359 355.401 3.07902C357.887 4.69446 359.962 6.86798 361.461 9.4257L361.47 9.44523C366.088 9.21424 370.667 10.3859 374.606 12.8056C376.91 10.1464 379.727 7.98041 382.889 6.43742C386.051 4.89444 389.493 4.00584 393.006 3.82609V153.539L1 153.537Z" fill="#E6E6E6"/>
<path opacity="0.36" d="M0.500977 153.809V28.7843C1.09031 28.6596 1.68671 28.5542 2.29004 28.4688C7.35208 27.756 12.5116 28.5564 17.1201 30.7686C21.7286 32.9809 25.5801 36.5068 28.1899 40.9024C31.0113 39.9942 34.0055 39.7571 36.9346 40.2101C39.8637 40.663 42.6468 41.7929 45.062 43.5108C47.4786 45.2287 49.4612 47.4863 50.8525 50.1046C52.2439 52.7229 53.0058 55.6297 53.0771 58.5938V58.6163C54.2544 59.1931 55.3794 59.87 56.4399 60.6407C58.6933 56.1737 62.18 52.4466 66.4868 49.9005C70.7936 47.3543 75.7403 46.0966 80.7402 46.2755L81.6401 46.3058C82.9318 41.3615 85.657 36.9105 89.4731 33.5118C93.2893 30.1131 98.0262 27.919 103.086 27.2061C108.149 26.4938 113.308 27.2943 117.917 29.5069C122.525 31.7195 126.376 35.2449 128.986 39.6407C131.808 38.733 134.802 38.4964 137.732 38.9493C140.661 39.4022 143.445 40.5325 145.861 42.2501C148.277 43.9676 150.261 46.2249 151.652 48.8429C153.043 51.4608 153.805 54.3673 153.876 57.3311V57.3526C158.027 59.3884 161.463 62.6333 163.735 66.6593C167.186 65.3974 170.865 64.8779 174.531 65.1349C178.196 65.3918 181.767 66.4195 185.008 68.1505L185.803 68.5733C189.132 64.6957 193.534 61.8891 198.455 60.5079C203.375 59.1267 208.594 59.2319 213.455 60.8106C217.142 62.0088 220.514 64.0191 223.323 66.6925C226.131 69.3659 228.305 72.6347 229.683 76.2589C234.384 76.2014 239.011 77.4246 243.07 79.797C245.098 77.6349 247.602 75.9755 250.383 74.9513C253.165 73.927 256.148 73.5658 259.093 73.8966C262.04 74.2269 264.868 75.241 267.354 76.8565C269.84 78.472 271.915 80.645 273.414 83.2032L273.425 83.2227C274.736 83.159 276.049 83.2071 277.351 83.3653C277.156 78.3656 278.398 73.4141 280.93 69.0987C283.463 64.7834 287.179 61.2845 291.639 59.0167L292.439 58.6095C291.173 53.659 291.399 48.4444 293.089 43.6222C294.78 38.8 297.859 34.5851 301.939 31.5089C306.021 28.4319 310.921 26.6312 316.024 26.3321C321.127 26.033 326.204 27.2492 330.618 29.8282C332.645 27.666 335.15 26.0068 337.931 24.9825C340.713 23.9583 343.695 23.5969 346.641 23.9278C349.587 24.2589 352.416 25.2723 354.902 26.8878C357.388 28.5032 359.463 30.6767 360.962 33.2345L360.971 33.254C365.589 33.023 370.168 34.1947 374.107 36.6143C376.411 33.9552 379.228 31.7892 382.39 30.2462C385.552 28.7032 388.994 27.8146 392.507 27.6349V153.809H198.455H0.500977Z" fill="#E6E6E6"/>
</svg>
