<svg xmlns="http://www.w3.org/2000/svg" width="979.362" height="715.5" viewBox="0 0 979.362 715.5">
  <g id="clouds" transform="translate(-0.5 -0.5)">
    <path id="Intersection_5" data-name="Intersection 5" d="M998.712,1716.567a47.59,47.59,0,0,1-16.968,4.91v-667.46h905.492a47.585,47.585,0,0,1-58,46.256l-.051-.014a57.291,57.291,0,0,1-12.6,11.113,65.022,65.022,0,0,1-8.59,37.686l-1.125,1.952a64.685,64.685,0,0,1-40.8,112.194,47.6,47.6,0,0,1-68.181,34.131l-.049-.027a57.343,57.343,0,0,1-8.409,5.039,65.349,65.349,0,0,1,3.188,70.417l-1.127,1.95a64.683,64.683,0,0,1-40.793,112.193,47.6,47.6,0,0,1-68.183,34.133l-.047-.027a57.194,57.194,0,0,1-32.075,10.823,65.2,65.2,0,0,1-28.219,45.155l-1.868,1.259a64.708,64.708,0,0,1-85.874,82.965,47.609,47.609,0,0,1-76.253.8l-.03-.046a57.167,57.167,0,0,1-28.357-2.245l-1.577.636a64.72,64.72,0,0,1-101.256,63.307,47.607,47.607,0,0,1-74.753-15.059l-.02-.05a57.272,57.272,0,0,1-40.555-19.054,64.735,64.735,0,0,1-112.921,27.059Z" transform="translate(-981.244 -1053.517)" fill="#e8deeb"/>
    <path id="Intersection_4" data-name="Intersection 4" d="M998.711,1716.566a47.613,47.613,0,0,1-55.589-9.259V1024.43h979.362a64.691,64.691,0,0,1-35.354,26.24,47.585,47.585,0,0,1-57.9,49.6l-.052-.014a57.261,57.261,0,0,1-12.6,11.113,65.045,65.045,0,0,1-8.59,37.688l-1.127,1.95a64.683,64.683,0,0,1-40.8,112.192,47.6,47.6,0,0,1-68.18,34.132l-.048-.027a57.609,57.609,0,0,1-8.41,5.041,65.345,65.345,0,0,1,3.188,70.415l-1.127,1.951a64.683,64.683,0,0,1-40.794,112.194,47.6,47.6,0,0,1-68.182,34.132l-.048-.029a57.2,57.2,0,0,1-32.076,10.825,65.191,65.191,0,0,1-28.219,45.155l-1.868,1.26a64.709,64.709,0,0,1-85.875,82.965,47.606,47.606,0,0,1-76.25.8l-.031-.045a57.194,57.194,0,0,1-28.358-2.246l-1.576.637a64.719,64.719,0,0,1-101.255,63.306,47.608,47.608,0,0,1-74.754-15.059l-.02-.05a57.273,57.273,0,0,1-40.554-19.055,64.736,64.736,0,0,1-112.922,27.059Z" transform="translate(-942.622 -1023.929)" fill="#e6e6e6" opacity="0.36"/>
  </g>
</svg>
