<svg xmlns="http://www.w3.org/2000/svg" xmlns:xlink="http://www.w3.org/1999/xlink" width="393.95" height="210.191" viewBox="0 0 393.95 210.191">
  <defs>
    <clipPath id="clip-path">
      <circle id="Ellipse_10" data-name="Ellipse 10" cx="31.304" cy="31.304" r="31.304" transform="translate(232.994 590.994)" fill="#fff"/>
    </clipPath>
  </defs>
  <g id="or_sign_up_with" data-name="or sign up with" transform="translate(0.95 -640.809)">
    <path id="pink_area" data-name="pink area" d="M14.746,9.318,31.82.07,43.2,1.849,54.229,6.117l28.1,21.342,11.382-2.49L110.429,4.694,121.1.07h27.033l25.255,17.784h11.738l9.959-3.2,12.094-8.536,12.805-1.423L240.97,9.318l30.946,18.141h20.523l17.109-9.6,83.233-68.046L393,160H0V36.722Z" transform="translate(0 691)" fill="#e8deeb"/>
    <g id="gmail" transform="translate(-190 -25.362)">
      <circle id="Ellipse_11" data-name="Ellipse 11" cx="31.304" cy="31.304" r="31.304" transform="translate(327 781)" fill="#c82323"/>
      <path id="gmail-2" data-name="gmail" d="M37.241,18.31q-8,0-16.005,0c0,2.213,0,4.426,0,6.638q4.635,0,9.269,0A7.99,7.99,0,0,1,27.1,30.2a9.722,9.722,0,0,1-3.745,1.479,11.1,11.1,0,0,1-4.059-.013,9.991,9.991,0,0,1-3.787-1.635,10.568,10.568,0,0,1-3.9-5.223,10.3,10.3,0,0,1,0-6.623,10.554,10.554,0,0,1,2.469-4.01,9.994,9.994,0,0,1,10.073-2.618,9.218,9.218,0,0,1,3.667,2.154q1.568-1.56,3.13-3.127c.547-.561,1.123-1.1,1.653-1.673a16.461,16.461,0,0,0-5.473-3.391A17.041,17.041,0,0,0,6.04,13.861a16.985,16.985,0,0,0,0,15.273,17.136,17.136,0,0,0,4.621,5.679,16.929,16.929,0,0,0,6.18,3.116,18.176,18.176,0,0,0,8.7.094A15.362,15.362,0,0,0,32.5,34.4a15.446,15.446,0,0,0,4.3-7.061A19.984,19.984,0,0,0,37.241,18.31Z" transform="translate(337.409 790.807)" fill="#fff"/>
    </g>
    <g id="Facebook" transform="translate(-142.438 -99.361)">
      <circle id="Ellipse_14" data-name="Ellipse 14" cx="28.5" cy="28.5" r="28.5" transform="translate(358.908 858.174)" fill="#fff"/>
      <g id="Facebook-2" data-name="Facebook" transform="translate(123.778 264.005)" clip-path="url(#clip-path)">
        <path id="facebook-3" data-name="facebook" d="M31.956,53.354h7.021V36.362H43.66l.62-5.855h-5.3l.007-2.932c0-1.526.146-2.345,2.336-2.345h2.927V19.375H39.562c-5.627,0-7.607,2.841-7.607,7.617v3.516H28.448v5.856h3.507ZM36.364,67.6A31.231,31.231,0,1,1,67.6,36.364,31.232,31.232,0,0,1,36.364,67.6Z" transform="translate(228.005 586.005)" fill="#3a589b"/>
      </g>
    </g>
    <path id="Path_" data-name="Path " d="M3952,11241.638s11.75-35.658,32.375-38.3,36.91,24.1,50.125,27.734,27.233-22.451,27.233-22.451,16.092-8.585,33.713-5.283,20.067,18.489,36.772,18.489,21.165-15.518,46.8-13.206,33.778,22.451,55.728,22.451,48.076-27.734,48.076-27.734" transform="translate(-3952 -10512)" fill="none" stroke="#5b618a" stroke-width="2" stroke-dasharray="6"/>
    <g id="plane" transform="matrix(0.669, 0.743, -0.743, 0.669, 341.994, 648.626)">
      <g id="Group_70" data-name="Group 70" transform="translate(7.07 6.397)" opacity="0.3">
        <path id="Path_506" data-name="Path 506" d="M23.819,37.969a44.923,44.923,0,0,0,.567-6.948c-.018-.914-.024-3.123-.03-5.936h5.165l14.633,3.942-1.027-2.8L36.479,22.6V18.418H33.234v2.416L29.9,19.024V14.459H26.663v2.8l-2.271-1.238-.03.033c0-5.286.018-10.175.024-11.46a2.045,2.045,0,0,0-.1-.65A33.838,33.838,0,0,0,22.727.4.763.763,0,0,0,22.246,0,.674.674,0,0,0,21.561.4,19.832,19.832,0,0,0,19.78,4.3c-.03.395-.033,5.838-.027,11.721h0l-2.274,1.238v-2.8H14.241v4.565l-3.327,1.811V18.418H7.673V22.6L1.027,26.221,0,29.026,14.627,25.1h5.147V31.16a51.264,51.264,0,0,0,.594,6.812l-7.014,4.805v1.959L21.62,42.3l.1,5.4h0v.525h.7l.033-1.834.071-4.084h.148l8.073,2.434V42.834L23.79,37.972Z" transform="translate(0 0)"/>
      </g>
      <rect id="Rectangle_125" data-name="Rectangle 125" width="3.672" height="5.203" transform="translate(41.278 26.055) rotate(180)" fill="#fff"/>
      <rect id="Rectangle_126" data-name="Rectangle 126" width="3.672" height="5.203" transform="translate(33.843 21.568) rotate(180)" fill="#fff"/>
      <path id="Path_507" data-name="Path 507" d="M22.365,14.716,21.193,11.54,0,0V10.27H5.806Z" transform="translate(27.595 18.136)" fill="#e8deeb"/>
      <path id="Path_508" data-name="Path 508" d="M0,.045a.481.481,0,0,1,.107,0H.4L1.6.027,5.7,0h.027L9.261,1.484c3.247,1.362,6.079,2.567,7.554,3.212h.024v.024c0,.41,0,.736-.018.974v.255a.045.045,0,1,1-.018,0V5.666c0-.24,0-.561-.018-.974l.021.033c-1.484-.594-4.336-1.781-7.584-3.143L5.7.1h.027L1.618.071.445.053h-.3A.4.4,0,0,1,0,.045Z" transform="translate(27.601 25.236)" fill="#263238"/>
      <path id="Path_509" data-name="Path 509" d="M.074,3.125A16.439,16.439,0,0,1,.074,0a16.974,16.974,0,0,1,0,3.125Z" transform="translate(33.175 25.302)" fill="#263238"/>
      <path id="Path_510" data-name="Path 510" d="M22.356,14.725,20.421,12.35,0,2.713V0L21.184,11.549Z" transform="translate(27.604 18.127)" fill="#5b618a"/>
      <rect id="Rectangle_127" data-name="Rectangle 127" width="3.672" height="5.203" transform="translate(8.685 20.849)" fill="#fff"/>
      <rect id="Rectangle_128" data-name="Rectangle 128" width="3.672" height="5.203" transform="translate(16.117 16.367)" fill="#fff"/>
      <path id="Path_511" data-name="Path 511" d="M0,14.716,1.166,11.54,22.359,0V10.27H16.553Z" transform="translate(0 18.136)" fill="#e8deeb"/>
      <path id="Path_512" data-name="Path 512" d="M7.934,0,0,5.441V7.655L9.356,4.9h1.187l9.136,2.754V5.5L11.81,0Z" transform="translate(15.135 42.971)" fill="#5b618a"/>
      <path id="Path_513" data-name="Path 513" d="M2.048.458A23.115,23.115,0,0,0,.038,4.875c-.086.994,0,30.388,0,30.388s.19,11.979,2.793,12.012c0,0,.344.5.917-.573a43.391,43.391,0,0,0,1.484-11.6c-.071-3.737,0-26.713,0-29.91a2.374,2.374,0,0,0-.116-.736A37.991,37.991,0,0,0,3.363.452.849.849,0,0,0,2.813,0a.766.766,0,0,0-.778.451Z" transform="translate(22.353 0)" fill="#ff725e"/>
      <path id="Path_514" data-name="Path 514" d="M2.048.458A23.115,23.115,0,0,0,.038,4.875c-.086.994,0,30.388,0,30.388s.19,11.979,2.793,12.012c0,0,.344.5.917-.573a43.391,43.391,0,0,0,1.484-11.6c-.071-3.737,0-26.713,0-29.91a2.374,2.374,0,0,0-.116-.736A37.991,37.991,0,0,0,3.363.452.849.849,0,0,0,2.813,0a.766.766,0,0,0-.778.451Z" transform="translate(22.353 0)" fill="#e8deeb"/>
      <path id="Path_515" data-name="Path 515" d="M1.428,0V.864a1.377,1.377,0,0,0-1.187.35L0,.62A1.819,1.819,0,0,1,1.443.027Z" transform="translate(23.436 2.984)" fill="#263238"/>
      <path id="Path_516" data-name="Path 516" d="M.282,0,0,.386.321.7.579.353Z" transform="translate(22.947 3.984)" fill="#263238"/>
      <path id="Path_517" data-name="Path 517" d="M0,0V.864a1.374,1.374,0,0,1,1.187.353l.24-.594A1.834,1.834,0,0,0,0,0Z" transform="translate(25.111 2.989)" fill="#263238"/>
      <path id="Path_518" data-name="Path 518" d="M.3,0,.579.386.258.706,0,.353Z" transform="translate(26.449 3.987)" fill="#263238"/>
      <rect id="Rectangle_129" data-name="Rectangle 129" width="0.626" height="0.543" transform="translate(22.671 8.089)" fill="#263238"/>
      <rect id="Rectangle_130" data-name="Rectangle 130" width="0.626" height="0.543" transform="translate(22.671 9.131)" fill="#263238"/>
      <rect id="Rectangle_131" data-name="Rectangle 131" width="0.626" height="0.543" transform="translate(22.671 10.17)" fill="#263238"/>
      <rect id="Rectangle_132" data-name="Rectangle 132" width="0.626" height="0.543" transform="translate(22.671 11.212)" fill="#263238"/>
      <rect id="Rectangle_133" data-name="Rectangle 133" width="0.626" height="0.543" transform="translate(22.671 12.254)" fill="#263238"/>
      <rect id="Rectangle_134" data-name="Rectangle 134" width="0.626" height="0.543" transform="translate(22.671 13.292)" fill="#263238"/>
      <rect id="Rectangle_135" data-name="Rectangle 135" width="0.626" height="0.543" transform="translate(22.671 14.334)" fill="#263238"/>
      <rect id="Rectangle_136" data-name="Rectangle 136" width="0.626" height="0.543" transform="translate(22.671 15.373)" fill="#263238"/>
      <rect id="Rectangle_137" data-name="Rectangle 137" width="0.626" height="0.543" transform="translate(22.671 16.415)" fill="#263238"/>
      <rect id="Rectangle_138" data-name="Rectangle 138" width="0.626" height="0.543" transform="translate(22.671 17.457)" fill="#263238"/>
      <rect id="Rectangle_139" data-name="Rectangle 139" width="0.626" height="0.543" transform="translate(22.671 18.496)" fill="#263238"/>
      <rect id="Rectangle_140" data-name="Rectangle 140" width="0.626" height="0.543" transform="translate(22.671 19.537)" fill="#263238"/>
      <rect id="Rectangle_141" data-name="Rectangle 141" width="0.626" height="0.543" transform="translate(22.671 20.576)" fill="#263238"/>
      <rect id="Rectangle_142" data-name="Rectangle 142" width="0.626" height="0.543" transform="translate(22.671 21.618)" fill="#263238"/>
      <rect id="Rectangle_143" data-name="Rectangle 143" width="0.626" height="0.543" transform="translate(22.671 22.66)" fill="#263238"/>
      <rect id="Rectangle_144" data-name="Rectangle 144" width="0.626" height="0.543" transform="translate(22.671 23.699)" fill="#263238"/>
      <rect id="Rectangle_145" data-name="Rectangle 145" width="0.626" height="0.543" transform="translate(22.671 24.741)" fill="#263238"/>
      <rect id="Rectangle_146" data-name="Rectangle 146" width="0.626" height="0.543" transform="translate(22.671 25.779)" fill="#263238"/>
      <rect id="Rectangle_147" data-name="Rectangle 147" width="0.626" height="0.543" transform="translate(22.671 26.824)" fill="#263238"/>
      <rect id="Rectangle_148" data-name="Rectangle 148" width="0.626" height="0.543" transform="translate(22.671 27.863)" fill="#263238"/>
      <rect id="Rectangle_149" data-name="Rectangle 149" width="0.626" height="0.543" transform="translate(22.671 28.902)" fill="#263238"/>
      <rect id="Rectangle_150" data-name="Rectangle 150" width="0.626" height="0.543" transform="translate(22.671 29.944)" fill="#263238"/>
      <rect id="Rectangle_151" data-name="Rectangle 151" width="0.626" height="0.543" transform="translate(22.671 30.983)" fill="#263238"/>
      <rect id="Rectangle_152" data-name="Rectangle 152" width="0.626" height="0.543" transform="translate(22.671 32.024)" fill="#263238"/>
      <rect id="Rectangle_153" data-name="Rectangle 153" width="0.626" height="0.543" transform="translate(22.671 33.066)" fill="#263238"/>
      <rect id="Rectangle_154" data-name="Rectangle 154" width="0.626" height="0.543" transform="translate(22.671 34.108)" fill="#263238"/>
      <rect id="Rectangle_155" data-name="Rectangle 155" width="0.626" height="0.543" transform="translate(22.671 35.147)" fill="#263238"/>
      <rect id="Rectangle_156" data-name="Rectangle 156" width="0.626" height="0.543" transform="translate(26.482 8.089)" fill="#263238"/>
      <rect id="Rectangle_157" data-name="Rectangle 157" width="0.626" height="0.543" transform="translate(26.482 9.131)" fill="#263238"/>
      <rect id="Rectangle_158" data-name="Rectangle 158" width="0.626" height="0.543" transform="translate(26.482 10.17)" fill="#263238"/>
      <rect id="Rectangle_159" data-name="Rectangle 159" width="0.626" height="0.543" transform="translate(26.482 11.212)" fill="#263238"/>
      <rect id="Rectangle_160" data-name="Rectangle 160" width="0.626" height="0.543" transform="translate(26.482 12.254)" fill="#263238"/>
      <rect id="Rectangle_161" data-name="Rectangle 161" width="0.626" height="0.543" transform="translate(26.482 13.292)" fill="#263238"/>
      <rect id="Rectangle_162" data-name="Rectangle 162" width="0.626" height="0.543" transform="translate(26.482 14.334)" fill="#263238"/>
      <rect id="Rectangle_163" data-name="Rectangle 163" width="0.626" height="0.543" transform="translate(26.482 15.373)" fill="#263238"/>
      <rect id="Rectangle_164" data-name="Rectangle 164" width="0.626" height="0.543" transform="translate(26.482 16.415)" fill="#263238"/>
      <rect id="Rectangle_165" data-name="Rectangle 165" width="0.626" height="0.543" transform="translate(26.482 17.457)" fill="#263238"/>
      <rect id="Rectangle_166" data-name="Rectangle 166" width="0.626" height="0.543" transform="translate(26.482 18.496)" fill="#263238"/>
      <rect id="Rectangle_167" data-name="Rectangle 167" width="0.626" height="0.543" transform="translate(26.482 19.537)" fill="#263238"/>
      <rect id="Rectangle_168" data-name="Rectangle 168" width="0.626" height="0.543" transform="translate(26.482 20.576)" fill="#263238"/>
      <rect id="Rectangle_169" data-name="Rectangle 169" width="0.626" height="0.543" transform="translate(26.482 21.618)" fill="#263238"/>
      <rect id="Rectangle_170" data-name="Rectangle 170" width="0.626" height="0.543" transform="translate(26.482 22.66)" fill="#263238"/>
      <rect id="Rectangle_171" data-name="Rectangle 171" width="0.626" height="0.543" transform="translate(26.482 23.699)" fill="#263238"/>
      <rect id="Rectangle_172" data-name="Rectangle 172" width="0.626" height="0.543" transform="translate(26.482 24.741)" fill="#263238"/>
      <rect id="Rectangle_173" data-name="Rectangle 173" width="0.626" height="0.543" transform="translate(26.482 25.779)" fill="#263238"/>
      <rect id="Rectangle_174" data-name="Rectangle 174" width="0.626" height="0.543" transform="translate(26.482 26.824)" fill="#263238"/>
      <rect id="Rectangle_175" data-name="Rectangle 175" width="0.626" height="0.543" transform="translate(26.482 27.863)" fill="#263238"/>
      <rect id="Rectangle_176" data-name="Rectangle 176" width="0.626" height="0.543" transform="translate(26.482 28.902)" fill="#263238"/>
      <rect id="Rectangle_177" data-name="Rectangle 177" width="0.626" height="0.543" transform="translate(26.482 29.944)" fill="#263238"/>
      <rect id="Rectangle_178" data-name="Rectangle 178" width="0.626" height="0.543" transform="translate(26.482 30.983)" fill="#263238"/>
      <rect id="Rectangle_179" data-name="Rectangle 179" width="0.626" height="0.543" transform="translate(26.482 32.024)" fill="#263238"/>
      <rect id="Rectangle_180" data-name="Rectangle 180" width="0.626" height="0.543" transform="translate(26.482 33.066)" fill="#263238"/>
      <rect id="Rectangle_181" data-name="Rectangle 181" width="0.626" height="0.543" transform="translate(26.482 34.108)" fill="#263238"/>
      <rect id="Rectangle_182" data-name="Rectangle 182" width="0.626" height="0.543" transform="translate(26.482 35.147)" fill="#263238"/>
      <path id="Path_519" data-name="Path 519" d="M16.779.071a.4.4,0,0,1-.107,0h-.3L15.2.089,11.1.116h.027L7.6,1.6C4.351,2.965,1.508,4.141.015,4.743L.036,4.71c0,.41,0,.736-.018.974v.255a.3.3,0,0,1,0,.083V5.693c0-.24,0-.561-.018-.974V4.7H.024c1.484-.644,4.307-1.849,7.554-3.212L11.11,0h.027l4.1.027,1.172.018h.3Z" transform="translate(5.58 25.21)" fill="#263238"/>
      <path id="Path_520" data-name="Path 520" d="M.074,3.125A16.434,16.434,0,0,1,.074,0,16.437,16.437,0,0,1,.074,3.125Z" transform="translate(16.639 25.302)" fill="#263238"/>
      <path id="Path_521" data-name="Path 521" d="M.072,3.125A16.976,16.976,0,0,1,.072,0,8.31,8.31,0,0,1,.146,1.564,7.42,7.42,0,0,1,.072,3.125Z" transform="translate(20.595 25.302)" fill="#263238"/>
      <path id="Path_522" data-name="Path 522" d="M0,14.725,1.935,12.35,22.356,2.713V0L1.164,11.54Z" transform="translate(0 18.127)" fill="#5b618a"/>
      <path id="Path_523" data-name="Path 523" d="M0,.912.3,16.97h.787L1.38.9a.962.962,0,0,0-.3-.742.522.522,0,0,0-.76.018A.962.962,0,0,0,0,.912Z" transform="translate(24.312 37.607)" fill="#6e75a0"/>
      <path id="Path_524" data-name="Path 524" d="M.308,15.236a.657.657,0,0,1,0-.157,4.2,4.2,0,0,0-.018-.442c0-.407-.024-.962-.042-1.632C.21,11.608.159,9.712.1,7.619S.011,3.612.005,2.232V.154A.594.594,0,0,1,.005,0,.461.461,0,0,1,.023.154c0,.119,0,.264,0,.445,0,.407.027.962.045,1.632C.1,3.63.153,5.524.213,7.619s.092,4.007.1,5.387v2.075a.656.656,0,0,1,0,.154Z" transform="translate(24.295 38.747)" fill="#263238"/>
      <path id="Path_525" data-name="Path 525" d="M.24,0C.1,3.437,0,13.559,0,13.559" transform="translate(25.443 38.943)" fill="#ff725e"/>
      <path id="Path_526" data-name="Path 526" d="M.005,13.57a.461.461,0,0,1,0-.137V11.588c0-1.229.033-2.924.065-4.805S.142,3.22.177,1.977C.2,1.383.216.89.228.534a2.576,2.576,0,0,1,.018-.4A.493.493,0,0,1,.263,0a.635.635,0,0,1,0,.139V1.989C.263,3.214.231,4.909.2,6.782S.127,10.344.091,11.576c-.021.594-.039,1.086-.05,1.454a2.161,2.161,0,0,1-.021.395.419.419,0,0,1-.015.145Z" transform="translate(25.432 38.94)" fill="#263238"/>
    </g>
  </g>
</svg>
