<?xml version="1.0" encoding="utf-8"?>
<svg width="200px" height="200px" viewBox="0 0 200 200" version="1.1" xmlns:xlink="http://www.w3.org/1999/xlink" xmlns="http://www.w3.org/2000/svg">
  <defs>
    <path d="M0 0L200 0L200 200L0 200L0 0Z" id="path_1" />
    <path d="M0 0L198.438 0L198.438 214.875L0 214.875L0 0L0 0L0 0Z" id="path_2" />
    <clipPath id="mask_1">
      <use xlink:href="#path_1" />
    </clipPath>
    <clipPath id="mask_2">
      <use xlink:href="#path_2" />
    </clipPath>
  </defs>
  <g id="clouds-Mask">
    <path d="M0 0L200 0L200 200L0 200L0 0Z" id="Mask" fill="#D3D3D3" fill-opacity="0" fill-rule="evenodd" stroke="none" />
    <g clip-path="url(#mask_1)">
      <g id="clouds" transform="matrix(0.99999994 0 0 0.99999994 -0.38908386 -15.097275)">
        <path d="M0 0L198.438 0L198.438 214.875L0 214.875L0 0L0 0L0 0Z" id="Vector-shape" fill="none" fill-rule="evenodd" stroke="none" />
        <g id="Mask-group">
          <path d="M0 0L198.438 0L198.438 214.875L0 214.875L0 0L0 0L0 0Z" id="path_1" fill="none" fill-rule="evenodd" stroke="none" />
          <g clip-path="url(#mask_2)">
            <g id="Group" transform="translate(-17.083664 -12.099182)">
              <g id="clouds#1">
                <path d="M28.0437 222.284C25.3563 223.645 22.1848 223.657 19.4871 222.317C16.7894 220.978 14.8818 218.444 14.3405 215.481L14.3405 215.47C9.16082 213.866 5.80537 208.861 6.28795 203.461C6.77053 198.06 10.96 193.729 16.3421 193.068L22.0008 192.375L22.0008 21.4138L178.697 21.4138L179.024 20.2743C180.316 15.767 183.915 12.2916 188.465 11.1574C193.015 10.0232 197.825 11.4024 201.082 14.7756C204.339 18.1488 205.549 23.0035 204.257 27.5108L204.131 27.9457C208.223 30.1827 210.802 34.4415 210.888 39.104C210.974 43.7667 208.554 48.1176 204.548 50.504C208.634 53.8229 210.343 59.2619 208.889 64.3216L208.765 64.7564C213.361 67.2688 215.998 72.2952 215.452 77.5045C214.907 82.7138 211.288 87.0863 206.271 88.5932C206.474 91.5976 205.246 94.5224 202.96 96.4829C200.673 98.4427 197.596 99.2097 194.657 98.5517L194.646 98.5517C193.918 99.4155 193.066 100.167 192.118 100.783C192.323 103.421 191.722 106.06 190.395 108.348L190.169 108.741C194.02 112.29 195.363 117.805 193.575 122.727C191.786 127.649 187.217 131.016 181.985 131.266C181.455 134.23 179.556 136.771 176.864 138.12C174.171 139.47 170.999 139.469 168.307 138.118L168.297 138.113C167.765 138.498 167.201 138.836 166.61 139.125C169.563 143.309 169.812 148.828 167.25 153.262L167.024 153.654C170.875 157.202 172.219 162.718 170.43 167.64C168.642 172.563 164.072 175.929 158.84 176.179C158.31 179.143 156.411 181.683 153.719 183.033C151.025 184.382 147.854 184.382 145.162 183.032L145.152 183.026C143.276 184.383 141.033 185.141 138.717 185.199C138.206 188.889 136.147 192.186 133.056 194.265L132.681 194.518C134.589 199.395 133.378 204.941 129.613 208.582C125.848 212.221 120.265 213.244 115.453 211.174C113.677 213.606 110.857 215.057 107.846 215.089C104.834 215.12 101.984 213.73 100.157 211.335L100.15 211.326C98.2476 211.658 96.2906 211.503 94.4633 210.875L94.1471 211.003C94.9988 216.171 92.6623 221.344 88.2221 224.122C83.7827 226.9 78.1084 226.739 73.8342 223.713C71.5909 225.723 68.5303 226.557 65.5777 225.961C62.625 225.366 60.1265 223.412 58.8373 220.69L58.8331 220.68C55.7143 220.563 52.7773 219.182 50.6978 216.855C49.608 221.68 45.8713 225.466 41.0613 226.62C36.2514 227.773 31.204 226.094 28.0444 222.288L28.0437 222.284L28.0437 222.284Z" id="cloud_shadow" fill="#E6E6E6" fill-opacity="0.36078432" fill-rule="evenodd" stroke="none" />
                <path d="M21.8018 211.517C19.1144 212.877 15.9429 212.889 13.2451 211.55C10.5474 210.211 8.63984 207.677 8.09861 204.714L8.09861 204.703C2.91891 203.099 -0.436556 198.094 0.0460216 192.693C0.528599 187.292 4.7181 182.962 10.1002 182.301L15.7589 181.608L15.7589 10.6465L172.455 10.6465L172.782 9.507C174.074 4.99961 177.673 1.52425 182.223 0.390044C186.773 -0.744159 191.583 0.635104 194.84 4.00829C198.097 7.38149 199.307 12.2361 198.014 16.7435L197.89 17.1783C201.981 19.4154 204.56 23.6741 204.646 28.3367C204.732 32.9993 202.313 37.3503 198.306 39.7367C202.392 43.0556 204.101 48.4945 202.647 53.5543L202.523 53.9891C207.118 56.5014 209.756 61.5282 209.21 66.7374C208.666 71.9463 205.046 76.3188 200.029 77.8257C200.232 80.8309 199.004 83.7549 196.717 85.7154C194.431 87.6759 191.354 88.4429 188.415 87.7842L188.405 87.7842C187.676 88.648 186.824 89.4 185.877 90.0153C186.082 92.6538 185.481 95.2922 184.153 97.5817L183.927 97.9734C187.778 101.523 189.121 107.037 187.333 111.96C185.544 116.882 180.975 120.249 175.744 120.498C175.213 123.464 173.314 126.004 170.622 127.353C167.929 128.702 164.757 128.701 162.065 127.35L162.056 127.346C161.523 127.731 160.959 128.069 160.369 128.357C163.321 132.542 163.57 138.061 161.008 142.495L160.782 142.886C164.634 146.435 165.977 151.95 164.188 156.873C162.4 161.796 157.83 165.163 152.598 165.411C152.067 168.376 150.169 170.917 147.477 172.265C144.783 173.614 141.612 173.614 138.92 172.264L138.91 172.258C137.034 173.616 134.791 174.373 132.476 174.432C131.964 178.121 129.905 181.419 126.814 183.497L126.44 183.75C128.346 188.628 127.136 194.174 123.371 197.814C119.606 201.454 114.023 202.476 109.212 200.406C107.436 202.838 104.615 204.289 101.604 204.322C98.5923 204.354 95.7423 202.962 93.915 200.568L93.9085 200.559C92.005 200.89 90.0488 200.735 88.2214 200.108L87.9052 200.237C88.757 205.404 86.4204 210.577 81.9803 213.355C77.5408 216.132 71.8665 215.971 67.5919 212.945C65.3487 214.956 62.2884 215.789 59.3357 215.194C56.3831 214.598 53.8846 212.645 52.5954 209.922L52.5912 209.913C49.4724 209.796 46.5354 208.415 44.4559 206.088C43.366 210.912 39.6294 214.699 34.8194 215.852C30.0095 217.006 24.962 215.326 21.8025 211.521L21.8018 211.517L21.8018 211.517Z" id="pink_Cloud" fill="#E8DEEB" fill-rule="evenodd" stroke="none" />
              </g>
            </g>
          </g>
        </g>
      </g>
    </g>
  </g>
</svg>