<?xml version="1.0" encoding="utf-8"?>
<svg width="259px" height="280px" viewBox="0 0 259 280" version="1.1" xmlns:xlink="http://www.w3.org/1999/xlink" xmlns="http://www.w3.org/2000/svg">
  <defs>
    <path d="M0 0L258.076 0L258.076 279.351L0 279.351L0 0Z" id="path_1" />
    <path d="M0 0L257.754 0L257.754 279.105L0 279.105L0 0L0 0L0 0Z" id="path_2" />
    <clipPath id="mask_1">
      <use xlink:href="#path_1" />
    </clipPath>
    <clipPath id="mask_2">
      <use xlink:href="#path_2" />
    </clipPath>
  </defs>
  <g id="clouds-croped">
    <path d="M0 0L258.076 0L258.076 279.351L0 279.351L0 0Z" id="Background" fill="none" fill-rule="evenodd" stroke="none" />
    <g clip-path="url(#mask_1)">
      <g id="clouds">
        <path d="M0 0L257.754 0L257.754 279.105L0 279.105L0 0L0 0L0 0Z" id="Vector-shape" fill="none" fill-rule="evenodd" stroke="none" />
        <g id="Mask-group">
          <path d="M0 0L257.754 0L257.754 279.105L0 279.105L0 0L0 0L0 0Z" id="path_1" fill="none" fill-rule="evenodd" stroke="none" />
          <g clip-path="url(#mask_2)">
            <g id="Group" transform="translate(-22.190277 -15.715836)">
              <g id="clouds#1">
                <path d="M36.4265 288.729C32.9358 290.496 28.8163 290.511 25.3121 288.771C21.808 287.032 19.3302 283.74 18.6272 279.892L18.6272 279.878C11.8992 277.794 7.54071 271.294 8.16754 264.278C8.79436 257.263 14.2362 251.638 21.2271 250.78L28.5773 249.879L28.5773 27.8148L232.112 27.8148L232.537 26.3347C234.216 20.48 238.891 15.9658 244.801 14.4925C250.71 13.0192 256.958 14.8108 261.189 19.1923C265.419 23.5738 266.991 29.8796 265.312 35.7343L265.15 36.2991C270.465 39.2048 273.814 44.7366 273.926 50.7929C274.038 56.8493 270.895 62.5008 265.691 65.6006C270.998 69.9115 273.218 76.9763 271.33 83.5484L271.168 84.1132C277.138 87.3765 280.563 93.9055 279.854 100.672C279.147 107.438 274.445 113.118 267.929 115.075C268.192 118.978 266.597 122.777 263.628 125.323C260.658 127.869 256.661 128.865 252.843 128.01L252.83 128.01C251.883 129.132 250.777 130.109 249.546 130.908C249.812 134.336 249.031 137.763 247.307 140.736L247.014 141.245C252.016 145.856 253.76 153.019 251.437 159.412C249.114 165.806 243.179 170.179 236.384 170.503C235.695 174.354 233.229 177.654 229.731 179.406C226.234 181.159 222.114 181.158 218.616 179.404L218.604 179.397C217.912 179.898 217.18 180.337 216.413 180.712C220.248 186.147 220.572 193.316 217.244 199.075L216.95 199.584C221.953 204.193 223.698 211.357 221.375 217.751C219.052 224.145 213.115 228.518 206.32 228.841C205.631 232.692 203.165 235.992 199.668 237.745C196.169 239.497 192.05 239.497 188.553 237.743L188.541 237.735C186.103 239.498 183.19 240.483 180.182 240.558C179.518 245.351 176.843 249.634 172.829 252.334L172.342 252.662C174.819 258.997 173.247 266.201 168.356 270.93C163.466 275.658 156.214 276.986 149.964 274.297C147.657 277.456 143.994 279.341 140.083 279.383C136.171 279.423 132.469 277.617 130.095 274.507L130.087 274.495C127.615 274.926 125.074 274.724 122.7 273.909L122.289 274.076C123.396 280.789 120.361 287.508 114.593 291.116C108.827 294.724 101.456 294.515 95.9044 290.585C92.9907 293.196 89.0152 294.278 85.1799 293.505C81.3447 292.731 78.0994 290.193 76.4248 286.658L76.4193 286.645C72.3683 286.493 68.5534 284.7 65.8522 281.677C64.4366 287.944 59.583 292.862 53.3353 294.36C47.0876 295.858 40.5314 293.677 36.4274 288.734L36.4265 288.729L36.4265 288.729Z" id="cloud_shadow" fill="#E6E6E6" fill-opacity="0.36078432" fill-rule="evenodd" stroke="none" />
                <path d="M28.3187 274.743C24.828 276.51 20.7085 276.525 17.2043 274.785C13.7002 273.046 11.2224 269.755 10.5194 265.906L10.5194 265.892C3.79142 263.808 -0.56705 257.307 0.0597782 250.292C0.686606 243.277 6.12842 237.652 13.1193 236.794L20.4695 235.894L20.4695 13.8289L224.005 13.8289L224.429 12.3488C226.108 6.49407 230.783 1.97987 236.693 0.506634C242.603 -0.966601 248.85 0.824947 253.081 5.20643C257.311 9.58795 258.884 15.8937 257.204 21.7484L257.042 22.3132C262.357 25.2189 265.707 30.7507 265.818 36.807C265.93 42.8634 262.787 48.5149 257.583 51.6147C262.891 55.9257 265.111 62.9904 263.222 69.5625L263.06 70.1273C269.029 73.3907 272.455 79.92 271.747 86.6863C271.039 93.4522 266.337 99.1318 259.822 101.089C260.084 104.993 258.49 108.791 255.519 111.337C252.55 113.884 248.553 114.88 244.736 114.024L244.722 114.024C243.776 115.146 242.669 116.123 241.438 116.922C241.705 120.35 240.924 123.777 239.2 126.751L238.906 127.259C243.908 131.87 245.652 139.033 243.33 145.426C241.006 151.82 235.071 156.193 228.276 156.517C227.587 160.369 225.121 163.668 221.624 165.421C218.125 167.173 214.006 167.172 210.509 165.418L210.497 165.412C209.805 165.912 209.072 166.351 208.305 166.726C212.14 172.161 212.464 179.33 209.136 185.089L208.843 185.597C213.845 190.207 215.591 197.371 213.267 203.765C210.944 210.159 205.008 214.533 198.213 214.855C197.523 218.706 195.057 222.007 191.56 223.759C188.062 225.51 183.943 225.51 180.445 223.757L180.433 223.749C177.996 225.512 175.082 226.497 172.075 226.572C171.411 231.365 168.736 235.648 164.721 238.348L164.235 238.676C166.711 245.011 165.139 252.215 160.249 256.944C155.358 261.672 148.106 263 141.857 260.311C139.55 263.47 135.887 265.355 131.975 265.397C128.063 265.438 124.361 263.631 121.988 260.521L121.979 260.509C119.507 260.94 116.966 260.738 114.592 259.923L114.182 260.091C115.288 266.803 112.253 273.522 106.486 277.13C100.719 280.738 93.3487 280.529 87.7963 276.598C84.8826 279.21 80.9074 280.292 77.0722 279.519C73.2369 278.745 69.9917 276.208 68.317 272.672L68.3116 272.659C64.2605 272.507 60.4456 270.714 57.7445 267.691C56.3288 273.958 51.4753 278.876 45.2275 280.374C38.9799 281.873 32.4236 279.691 28.3197 274.748L28.3187 274.743L28.3187 274.743Z" id="pink_Cloud" fill="#E8DEEB" fill-rule="evenodd" stroke="none" />
              </g>
            </g>
          </g>
        </g>
      </g>
    </g>
  </g>
</svg>