<?xml version="1.0" encoding="utf-8"?>
<svg width="279px" height="302px" viewBox="0 0 279 302" version="1.1" xmlns:xlink="http://www.w3.org/1999/xlink" xmlns="http://www.w3.org/2000/svg">
  <defs>
    <path d="M0 0L278.652 0L278.652 301.734L0 301.734L0 0L0 0Z" id="path_1" />
    <clipPath id="mask_1">
      <use xlink:href="#path_1" />
    </clipPath>
  </defs>
  <g id="clouds">
    <path d="M0 0L278.652 0L278.652 301.734L0 301.734L0 0L0 0Z" id="Vector-shape" fill="none" fill-rule="evenodd" stroke="none" />
    <g clip-path="url(#mask_1)">
      <g id="clouds" transform="translate(-23.98938 -16.99002)">
        <path d="M39.3798 312.138C35.6061 314.048 31.1526 314.065 27.3643 312.184C23.5761 310.303 20.8974 306.745 20.1374 302.585L20.1374 302.569C12.8639 300.316 8.15208 293.289 8.82973 285.705C9.50738 278.121 15.3904 272.04 22.9481 271.112L30.8942 270.138L30.8942 30.0699L250.931 30.0699L251.39 28.4698C253.205 22.1404 258.259 17.2602 264.648 15.6675C271.037 14.0748 277.791 16.0116 282.365 20.7483C286.938 25.4851 288.638 32.3021 286.823 38.6315L286.647 39.2421C292.393 42.3834 296.014 48.3637 296.135 54.911C296.256 61.4584 292.858 67.5681 287.232 70.9192C292.97 75.5797 295.37 83.2172 293.328 90.3222L293.153 90.9328C299.607 94.4607 303.31 101.519 302.544 108.834C301.779 116.149 296.696 122.289 289.652 124.405C289.936 128.624 288.212 132.731 285.002 135.484C281.791 138.236 277.47 139.313 273.343 138.389L273.328 138.389C272.305 139.602 271.109 140.658 269.778 141.522C270.066 145.227 269.222 148.932 267.358 152.146L267.041 152.697C272.449 157.681 274.334 165.425 271.823 172.337C269.311 179.249 262.895 183.977 255.549 184.327C254.804 188.49 252.138 192.058 248.357 193.952C244.576 195.847 240.122 195.846 236.341 193.949L236.328 193.942C235.58 194.483 234.788 194.958 233.959 195.363C238.105 201.239 238.455 208.989 234.857 215.215L234.54 215.765C239.948 220.748 241.835 228.493 239.323 235.405C236.812 242.318 230.394 247.045 223.048 247.395C222.303 251.558 219.637 255.125 215.856 257.02C212.074 258.914 207.621 258.914 203.84 257.018L203.827 257.01C201.192 258.916 198.042 259.98 194.791 260.061C194.073 265.243 191.181 269.873 186.841 272.792L186.315 273.147C188.993 279.996 187.293 287.784 182.006 292.896C176.719 298.007 168.879 299.443 162.123 296.536C159.629 299.951 155.669 301.989 151.44 302.034C147.211 302.078 143.209 300.125 140.643 296.763L140.634 296.75C137.962 297.216 135.214 296.998 132.648 296.117L132.204 296.297C133.4 303.554 130.119 310.818 123.884 314.719C117.65 318.619 109.682 318.393 103.68 314.144C100.53 316.967 96.2322 318.137 92.086 317.301C87.9398 316.465 84.4314 313.721 82.621 309.899L82.6151 309.885C78.2356 309.721 74.1114 307.782 71.1913 304.514C69.6609 311.289 64.4138 316.606 57.6595 318.226C50.9053 319.845 43.8175 317.487 39.3808 312.143L39.3798 312.138Z" id="cloud_shadow" fill="#E6E6E6" fill-opacity="0.36" fill-rule="evenodd" stroke="none" />
        <path d="M30.6147 297.018C26.841 298.928 22.3875 298.945 18.5992 297.064C14.811 295.184 12.1323 291.626 11.3723 287.465L11.3723 287.449C4.09881 285.197 -0.613023 278.169 0.0646239 270.585C0.742273 263.001 6.62529 256.92 14.183 255.992L22.1291 255.019L22.1291 14.9501L242.166 14.9501L242.625 13.35C244.44 7.02059 249.494 2.14039 255.883 0.547711C262.272 -1.04497 269.026 0.891831 273.6 5.62855C278.173 10.3653 279.873 17.1823 278.057 23.5117L277.882 24.1223C283.628 27.2636 287.249 33.2439 287.37 39.7912C287.491 46.3386 284.093 52.4483 278.467 55.7994C284.205 60.4599 286.605 68.0974 284.563 75.2024L284.388 75.813C290.841 79.3409 294.545 86.3996 293.779 93.7145C293.014 101.029 287.931 107.169 280.887 109.285C281.171 113.505 279.447 117.611 276.236 120.364C273.026 123.117 268.705 124.194 264.578 123.269L264.563 123.269C263.54 124.482 262.344 125.538 261.013 126.402C261.301 130.107 260.457 133.812 258.593 137.027L258.276 137.577C263.683 142.561 265.569 150.305 263.058 157.217C260.546 164.129 254.13 168.857 246.784 169.207C246.039 173.371 243.373 176.938 239.592 178.833C235.81 180.727 231.357 180.726 227.576 178.829L227.563 178.823C226.815 179.363 226.023 179.838 225.194 180.243C229.34 186.119 229.69 193.869 226.092 200.095L225.775 200.645C231.183 205.628 233.07 213.373 230.558 220.285C228.047 227.198 221.629 231.926 214.283 232.275C213.537 236.438 210.872 240.006 207.091 241.9C203.309 243.794 198.856 243.794 195.075 241.898L195.062 241.89C192.427 243.796 189.277 244.86 186.026 244.942C185.308 250.123 182.416 254.753 178.076 257.672L177.55 258.027C180.227 264.876 178.528 272.664 173.241 277.776C167.954 282.887 160.114 284.323 153.358 281.416C150.864 284.831 146.904 286.869 142.675 286.914C138.446 286.959 134.444 285.005 131.878 281.643L131.869 281.63C129.196 282.096 126.449 281.878 123.883 280.997L123.439 281.178C124.635 288.434 121.354 295.698 115.119 299.599C108.885 303.499 100.917 303.273 94.9145 299.024C91.7645 301.847 87.4671 303.017 83.3209 302.181C79.1747 301.345 75.6663 298.602 73.8559 294.779L73.85 294.765C69.4705 294.601 65.3463 292.662 62.4262 289.394C60.8957 296.169 55.6487 301.486 48.8944 303.106C42.1402 304.726 35.0524 302.367 30.6157 297.023L30.6147 297.018Z" id="pink_Cloud" fill="#E8DEEB" fill-rule="evenodd" stroke="none" />
      </g>
    </g>
  </g>
</svg>