<svg xmlns="http://www.w3.org/2000/svg" width="568.969" height="605.946" viewBox="0 0 568.969 605.946">
  <g id="World" transform="translate(0 0)">
    <g id="Destination-cuate" transform="translate(0 0)">
      <g id="freepik--Globe--inject-101" transform="translate(0 0)">
        <path id="Path_445" data-name="Path 445" d="M684.838,344.407c.092,63.99-18.933,126.351-54.322,178.062h0C551.586,638.227,407.384,679.4,284.67,621.222S94.18,421.364,122.119,281.431,266.1,41.452,400.422,41.487q11.693,0,23.179.983C502.486,49.3,575.119,90.866,624,157.16a297.484,297.484,0,0,1,17.756,26.873A316.162,316.162,0,0,1,684.838,344.407Z" transform="translate(-115.869 -41.487)" fill="#e8deeb" opacity="0.22"/>
        <g id="Group_58" data-name="Group 58" transform="translate(47.719)" opacity="0.73">
          <path id="Path_446" data-name="Path 446" d="M420.74,487.681c-3.526,10.195,2.345,10.616,2.732,14.87s0,12.3-11.335,24.624-30.073,9.753-33.969,14.85S367.627,568.776,358.249,576s-10.929,2.97-24.221,6.02-23.353,21.573-27.341,30.483.794,23.781-8.584,24.2-13.68-21.653-22.264-33.534-11.317-22.516-14.068-36.524,1.569-43.307,0-54.766-29.667-31.828-39.821-45.856S197.728,424,198.5,414.673a39.157,39.157,0,0,1,11.723-23.359c4.689-3.813,2.732-6.02,3.508-9.332s4.689-4.254,5.538-8.489-2.326-17-6.24-19.125-6.646,5.1-8.991,3.833-9.36-10.195-12.092-11.037-1.957,5.519-5.871-2.549-5.852-28.457-8.972-31.848-5.538,6.02-12.923,0-10.56-17.4-13.68-19.1-7.384.421-10.634-6.362,2.825-19.1,0-17.841-8.9,11.037-10.449,1.706,7.809-40.758,6.24-57.736,3.914-34.818,14.769-49.247c0,0,1.569-9.352,3.12-15.292s35.076-29.721,39.064-36.5c1.625-2.85,2.178-7.285,2.751-12.041C243.2,62.015,301.091,41.384,360.519,41.488q11.464,0,22.726.983c.258.4.517.763.775,1.144,3.378,4.656,7.034,7.626,16.929,11.6s12.24,9.051,10.154,13.305-5.538,5.077-9.378,5.378-7.551-2.007-11.7.843S381.676,92.8,376.212,93.7s-15.1-13.586-17.187-17.841,4.689-13.305,1.5-17.539-8.788-3.392-17.63-4.254-29.427,2.85-28.652,6.522,30.2-.582,31,6.783S323.615,87.183,319.72,86.059s-9.12-8.489-14.769-9.332-10.431,4.234-14.031,4.816-7.938-4.254-13.385-3.131-6.775,6.221-9.637,8.208-9.637,2.007-10.412,6.522,8.585,7.064,10.929,9.894-2.861,12.462-.517,14.449,16.929-11.9,20.621-15.292S295.3,84.132,303.1,84.353s10.412,14.73,13.015,16.054,8.344-3.391,16.929-1.4,14.547,22.436,16.08,28.657,5.206,12.462,2.086,15.011-17.187-1.706-19-5.659,9.36-9.914,8.585-11.318-7.292-3.391-10.671-1.184-4.948,6.843-8.6,8.027-13.274-10.756-15.877-7.365,2.6,14.168,5.206,16.717,12.24,4.014,12.923,6.783-6.5,9.051-15.36,8.489-16.135-8.027-19.532-4.816-1.551,11.318-3.9,14.168-15.1.843-21.36,8.188-9.12,18.4-15.36,24.624-9.1-1.686-17.446,7.084-9.637,28.316-9.9,35.1,0,12.161-2.068,11.318-4.966-6.783-5.741-10.476,1.846-9.893,1.846-12.161-11.981-13.867-19.015-15.011-13.274,5.1-18.461,9.633-14.584,3.672-17.963,7.365-6,36.122-3.4,43.869,6,7.646,14.326,3.672,3.692-11.6,8.6-9.914a12.68,12.68,0,0,1,7.532,11.9c0,4.535-9.877,15.272-8.584,18.4s9.9-.582,14.067.843,6.24,4.234,4.948,15.854-.535,20.65,5.723,24.483,9.766-5.519,12.5-4.254,6.646,8.027,10.541,7.646,1.957-4.254,9.378-6.8,4.689-4.234,6.24-9.332,6.258-9.332,11.335-6.783,1.551,6.362,1.957,10.6,9.36,4.676,16.394,7.224,10.948,0,25,5.1,14.769,20.369,20.7,22.918,25.4-1.686,39.452,9.352,10.154,31.407,17.187,37.347,33.23,14.048,43.347,16.055,11.723-5.519,19.92-3.392,12.923,4.676,15.618,16.978C454.783,454.789,424.248,477.506,420.74,487.681Z" transform="translate(-129.247 -41.487)" fill="#e8deeb" opacity="0.71"/>
          <path id="Path_447" data-name="Path 447" d="M152.212,105.976c.259,2.3,6.775,3.265,14.584,7.9s10.671,18.254,14.769,17.984,2.861-6.548,4.431-8.171,4.154-5.177,0-8.731-8.234-11.165-15.84-12.247-8.9-4.366-12.3-4.1a5.8,5.8,0,0,0-4.464,2.3,6.377,6.377,0,0,0-1.185,5.058Z" transform="translate(-68.674 123.365)" fill="#e8deeb"/>
          <path id="Path_448" data-name="Path 448" d="M164.448,111.557c-1.163,3.342,0,5.8,8.344,7.92s16.135-2.183,13.532-3.96-6.517-.947-4.948-3.96,1.034-7.34-5.741-6.529S165.5,108.563,164.448,111.557Z" transform="translate(-37.029 141.313)" fill="#e8deeb"/>
          <path id="Path_449" data-name="Path 449" d="M174.563,107.154c-2.843.425-4.431,5.6-1.569,8.866s2.861,2.724,6.258,0,8.585-4.076,7.292-6.8S177.443,106.709,174.563,107.154Z" transform="translate(-17.442 146.89)" fill="#e8deeb"/>
          <path id="Path_450" data-name="Path 450" d="M178.809,111.178c1.274-4.1,7.809,0,10.671,4.288s1.569,10.624,0,15.26-2.6,10.064-6.24,7.9.259-8.731-.258-12.537S177.775,114.52,178.809,111.178Z" transform="translate(1.536 154.715)" fill="#e8deeb"/>
          <path id="Path_451" data-name="Path 451" d="M210.3,50.752c-1.366,3.419,4.948,4.617,8.584,6.8s6.517,3.535,8.584,0-.775-7.727-3.692-8.441S211.594,47.468,210.3,50.752Z" transform="translate(84.85 -22.549)" fill="#e8deeb"/>
          <path id="Path_452" data-name="Path 452" d="M224.308,62.857c2.4,2.646,6.517,2.163,9.378,5.988s1.846,10.354,5.538,12.266,6.258,0,6.517-2.724-5.206-9.543-4.689-10.914,7.551,1.932,9.12,6.008-1.569,9.794,2.068,10.895,2.862-3.863,4.431-4.906,4.948-.541,4.689-3.863-4.431-10.354-7.809-12.807-6-5.177-11.723-6.548-11.187-.27-14.049,2.183S222.831,61.215,224.308,62.857Z" transform="translate(121.462 -2.781)" fill="#e8deeb"/>
          <path id="Path_453" data-name="Path 453" d="M310.367,121.98a4.861,4.861,0,0,1-1.458,2.859c-5.538,4.1-11.981-10.083-19.532-12.788s-10.929-12.807-12.5-10.624-1.052,5.158-3.4,8.712-5.723,2.724-7.274,9.523,7.274,19.317,5.206,23.431-4.689,2.724-8.861,2.453-3.378,3.554-8.843,1.932-.794-8.731-9.378-17.173-11.464-10.064-9.618-13.889-.794-9.253,3.1-9.813,7.034,5.467,9.637,7.089,6-3.265,6.258-7.63-9.12-10.354-12.5-13.734-3.692-15.685-2.344-18.138,5.206-1.642,6.24-7.727c.609-3.516-4.708-9.407-9.231-13.657a284.47,284.47,0,0,1,74.491,69.173Z" transform="translate(151.233 -10.56)" fill="#e8deeb" opacity="0.71"/>
          <path id="Path_454" data-name="Path 454" d="M336.968,299.42c.775-8.712-3.4-9.253.775-25.324s-4.431-33.244-7.55-36.7-9.9-2.453-15.36,1.082-1.569,6.278-5.206,7.63-7.292-.831-10.671-.541-6.517,9.253-13.809,8.982-11.981-11.165-17.446-18.93-16.615-12.672-20.307-22.214,3.378-24.243,1.846-35.408-8.6-8.731-9.9-14.99,1.034-3.264,2.861-9.253-2.086-9.272,1.569-19.626,10.154-15.453,8.584-20.147-6.517-12.266-6.775-17.694,4.948-5.2,14.769-12.826,12.5-7.089,20.049-4.366A103.327,103.327,0,0,0,297.017,84c4.431.811,10.412,12.807,12.24,12.266s2.086-4.1,2.862-9.272a11.714,11.714,0,0,1,3.249-5.8c60.086,100.895,55.7,229.834-11.077,326.009C331.023,364.652,336.174,308.132,336.968,299.42Z" transform="translate(163.531 68.483)" fill="#e8deeb" opacity="0.81"/>
        </g>
        <path id="Path_455" data-name="Path 455" d="M621.97,535.947c-83.858,109.19-227.512,142.523-346.583,80.421S93.277,413.13,123.3,275.861,268.475,41.448,401.121,41.487q11.741,0,23.236.983c2.133.18,4.247.381,6.361.642-110.532,12.752-201.36,98.427-226.365,213.524s21.292,234.4,115.382,297.327,215.361,55.7,302.234-18.016Z" transform="translate(-115.862 -41.487)" fill="#e8deeb" opacity="0.39"/>
        <path id="Path_456" data-name="Path 456" d="M531.133,345.038c.1,64.124-18.555,126.618-53.261,178.432h0c-26.154,39.108-60.484,70.878-100.152,92.683a291.4,291.4,0,0,0,87.949-85.77h0c59.595-89.269,70.3-206.6,28-306.881S362.654,55.58,261.617,46.592q-11.3-.985-22.855-1a259.58,259.58,0,0,0-67.347,8.862,257.449,257.449,0,0,1,80.86-12.962q11.483,0,22.726.985c77.343,6.841,148.557,48.5,196.483,114.929a298.779,298.779,0,0,1,17.409,26.929C516.577,232.509,531.218,288.211,531.133,345.038Z" transform="translate(37.836 -41.487)" fill="#e8deeb" opacity="0.3"/>
      </g>
    </g>
  </g>
</svg>
