<svg xmlns="http://www.w3.org/2000/svg" width="40px" height="40px" viewBox="0 0 32.35 41.56">
  <g id="Delete" transform="translate(0 0)">
    <path id="Path_5872" data-name="Path 5872" d="M33.848,6.911S21.916,6.875,18.561,17.085A16.669,16.669,0,0,0,19.1,28.6a21.134,21.134,0,0,0,2.117,3.962c2.931,4.255,12.038,15.87,12.038,15.87H34.81c.675-.944-10.773-14.737-11.032-25.96C23.574,13.643,35.923,6.911,33.848,6.911Z" transform="translate(-17.78 -6.875)" fill="#8b0101"/>
    <path id="Exclusion_2" data-name="Exclusion 2" d="M15.737,41.56h0c-.093-.116-9.306-11.685-12.242-15.873a20.981,20.981,0,0,1-2.153-3.963A16.4,16.4,0,0,1,.794,10.211a13.889,13.889,0,0,1,3.774-5.9A15.561,15.561,0,0,1,9.542,1.276,19.265,19.265,0,0,1,15.731,0,14.929,14.929,0,0,1,28.056,6.19a14.021,14.021,0,0,1,2.623,8.149,17.371,17.371,0,0,1-1.885,8.081c-2.321,4.505-12.949,18.994-13.056,19.14Zm-.4-22.034h0l5.041,6.62a1.508,1.508,0,0,0,2.1.292,1.473,1.473,0,0,0,.3-2.077l-5.558-7.3,5.558-7.3a1.473,1.473,0,0,0-.3-2.077,1.508,1.508,0,0,0-2.1.292L15.339,14.6,10.3,7.977a1.508,1.508,0,0,0-2.1-.292,1.472,1.472,0,0,0-.3,2.077l5.559,7.3L7.9,24.362a1.472,1.472,0,0,0,.3,2.077,1.508,1.508,0,0,0,2.1-.292l5.041-6.62Z" transform="translate(1.669 0)" fill="#c00"/>
  </g>
</svg>
