<svg id="facebook" xmlns="http://www.w3.org/2000/svg" xmlns:xlink="http://www.w3.org/1999/xlink" width="32" height="32" viewBox="0 0 32 32">
  <defs>
    <linearGradient id="linear-gradient" x1="0.5" x2="0.5" y2="1" gradientUnits="objectBoundingBox">
      <stop offset="0" stop-color="#5b618a"/>
      <stop offset="0.49" stop-color="#bcb5cd"/>
      <stop offset="0.734" stop-color="#be8cd5"/>
      <stop offset="1" stop-color="#c415ec"/>
    </linearGradient>
  </defs>
  <path id="Path_5386" data-name="Path 5386" d="M30.351,37.134V25.986h3.319l.578-4.955h-3.9V18.27c0-1.3-.081-2.185,1.782-2.185h1.934V12.072a28.756,28.756,0,0,0-3.181-.177c-3.426,0-5.49,2.091-5.49,5.931v3.2H21.06v4.955H25.4V37.134Z" transform="translate(-7.954 -5.754)" fill="url(#linear-gradient)"/>
  <path id="Path_5387" data-name="Path 5387" d="M32.98,37.46H9.94a4.486,4.486,0,0,1-4.48-4.48V9.94A4.486,4.486,0,0,1,9.94,5.46H32.98a4.486,4.486,0,0,1,4.48,4.48V32.98A4.486,4.486,0,0,1,32.98,37.46ZM9.94,7.552c-1.764,0-2.663.623-2.663,2.388V32.98c0,1.764.9,2.363,2.663,2.363H32.98c1.764,0,2.469-.6,2.469-2.363V9.94c0-1.764-.7-2.388-2.469-2.388Z" transform="translate(-5.46 -5.46)" fill="url(#linear-gradient)"/>
</svg>
