<svg xmlns="http://www.w3.org/2000/svg" width="65.464" height="76" viewBox="0 0 65.464 76">
  <g id="left_Icon" data-name="left Icon" transform="translate(-113 -707.994)">
    <path id="Intersection_13" data-name="Intersection 13" d="M1.6,49.409q-.8.2-1.6.343V41.04A16.171,16.171,0,0,0,11.781,26.03,16.18,16.18,0,0,0,0,9.9V1.189A25.442,25.442,0,0,1,3.27,2L4.976,0,8.7,1.686,8.317,4.292A25.335,25.335,0,0,1,11.683,6.72l2.344-1.2L16.819,8.5,15.46,10.767a24.471,24.471,0,0,1,2.17,3.519l2.623-.211L21.689,17.9l-2.118,1.55a24.671,24.671,0,0,1,.668,4.094l2.5.817-.14,4.074-2.606.627a23.955,23.955,0,0,1-.943,4.03L21.06,34.8l-1.7,3.719-2.6-.392a24.01,24.01,0,0,1-2.418,3.362l1.2,2.354-2.99,2.79L10.3,45.274a25.6,25.6,0,0,1-3.519,2.19l.2,2.623L3.15,51.518Z" transform="translate(113 732.477)" fill="#5b618a"/>
    <path id="Path_4347" data-name="Path 4347" d="M160.532,74.876l2.634-2.459-1.042-2.077a21.962,21.962,0,0,0,2.141-2.976l2.308.342,1.488-3.294-1.767-1.5a21.359,21.359,0,0,0,.836-3.573l2.268-.565.111-3.613-2.212-.716a22.544,22.544,0,0,0-.589-3.629l1.87-1.393L167.3,46.038l-2.316.183a22.48,22.48,0,0,0-1.934-3.119l1.2-1.989-2.475-2.642-2.069,1.058a22.473,22.473,0,0,0-2.976-2.141l.334-2.308-3.286-1.5-1.512,1.775a22.146,22.146,0,0,0-3.573-.8l-.565-2.26-3.613-.135-.724,2.228a21.484,21.484,0,0,0-3.613.589l-1.385-1.87-3.39,1.265L135.6,36.7a21.153,21.153,0,0,0-3.119,1.934l-2.005-1.2-2.642,2.459,1.027,2.029a21.164,21.164,0,0,0-2.149,2.976l-2.3-.342-1.5,3.294,1.775,1.512a21.09,21.09,0,0,0-.8,3.565l-2.276.565-.111,3.613,2.22.716a21.679,21.679,0,0,0,.581,3.629l-1.878,1.385L123.7,66.21l2.324-.175a22.48,22.48,0,0,0,1.934,3.119l-1.2,1.989,2.475,2.642,2.069-1.058a21.765,21.765,0,0,0,2.976,2.141l-.342,2.3,3.294,1.5,1.512-1.767a23.027,23.027,0,0,0,3.573.8l.565,2.26,3.613.135.724-2.228a21.375,21.375,0,0,0,3.613-.589l1.385,1.87,3.39-1.265-.183-2.324a21.239,21.239,0,0,0,3.111-1.934Zm-18.8-15.223a4.71,4.71,0,1,1-.032,0Z" transform="translate(8.444 676.349)" fill="#e8deeb" stroke="#5b618a" stroke-width="1"/>
  </g>
</svg>
