<svg xmlns="http://www.w3.org/2000/svg" width="24.167" height="21.75" viewBox="0 0 24.167 21.75">
  <path id="Lives_in" data-name="Lives in" d="M14.583,8.583V3.75H2.5V25.5H26.667V8.583Zm-7.25,14.5H4.917V20.667H7.333Zm0-4.833H4.917V15.833H7.333Zm0-4.833H4.917V11H7.333Zm0-4.833H4.917V6.167H7.333Zm4.833,14.5H9.75V20.667h2.417Zm0-4.833H9.75V15.833h2.417Zm0-4.833H9.75V11h2.417Zm0-4.833H9.75V6.167h2.417Zm12.083,14.5H14.583V20.667H17V18.25H14.583V15.833H17V13.417H14.583V11H24.25Zm-2.417-9.667H19.417v2.417h2.417Zm0,4.833H19.417v2.417h2.417Z" transform="translate(-2.5 -3.75)" fill="#5b618a"/>
</svg>
