<svg id="youtube" xmlns="http://www.w3.org/2000/svg" xmlns:xlink="http://www.w3.org/1999/xlink" width="32" height="26.797" viewBox="0 0 32 26.797">
  <defs>
    <linearGradient id="linear-gradient" x1="0.5" y1="-0.024" x2="0.5" y2="1.042" gradientUnits="objectBoundingBox">
      <stop offset="0" stop-color="#5b618a"/>
      <stop offset="0.49" stop-color="#bcb5cd"/>
      <stop offset="0.734" stop-color="#be8cd5"/>
      <stop offset="1" stop-color="#c415ec"/>
    </linearGradient>
    <linearGradient id="linear-gradient-2" x1="0.394" y1="0.706" x2="0.5" y2="0.962" gradientUnits="objectBoundingBox">
      <stop offset="0" stop-color="#5b618a"/>
      <stop offset="0.674" stop-color="#bd7ecf"/>
      <stop offset="1" stop-color="#ba15e6"/>
    </linearGradient>
    <linearGradient id="linear-gradient-3" x1="0.5" y1="0.073" x2="0.5" y2="1.295" gradientUnits="objectBoundingBox">
      <stop offset="0" stop-color="#5b618a"/>
      <stop offset="0.286" stop-color="#bd7ecf"/>
      <stop offset="1" stop-color="#ba15e6"/>
    </linearGradient>
  </defs>
  <path id="Path_5878" data-name="Path 5878" d="M17.915,33.813c-3.508,0-7.016-.124-10.649-.373-2.737-.187-4.944-2.706-5.136-5.861a119.261,119.261,0,0,1,0-14.329c.192-3.155,2.4-5.675,5.136-5.862a152.487,152.487,0,0,1,21.3,0C31.3,7.576,33.508,10.1,33.7,13.25a119.261,119.261,0,0,1,0,14.329c-.192,3.155-2.4,5.675-5.136,5.862h0C24.932,33.689,21.423,33.813,17.915,33.813Zm10.584-1.9.628.751-.628-.751c2.184-.149,3.533-1.819,3.686-4.336a117.7,117.7,0,0,0,0-14.166c-.152-2.516-1.437-4.348-3.622-4.5a153.471,153.471,0,0,0-21.3,0c-2.184.149-3.469,1.907-3.622,4.424a118.931,118.931,0,0,0,0,14.24C3.8,30.1,5.082,31.766,7.267,31.915A152.543,152.543,0,0,0,28.5,31.915Z" transform="translate(-1.915 -7.017)" fill="url(#linear-gradient)"/>
  <path id="Path_5879" data-name="Path 5879" d="M15.949,25.417v-10l7.416,5Z" transform="translate(-2.716 -7.017)" fill="url(#linear-gradient-2)"/>
  <path id="Path_5880" data-name="Path 5880" d="M15.311,26.528V14.3l9.063,6.112Zm1.1-10v7.781l5.769-3.89Z" transform="translate(-2.902 -7.017)" fill="url(#linear-gradient-3)"/>
</svg>
