<svg xmlns="http://www.w3.org/2000/svg" width="44.083" height="40.25" viewBox="0 0 44.083 40.25">
  <path id="Camera" d="M5.75,7.667V1.917H9.583v5.75h5.75V11.5H9.583v5.75H5.75V11.5H0V7.667Zm5.75,11.5v-5.75h5.75V7.667H30.667L34.174,11.5H40.25a3.845,3.845,0,0,1,3.833,3.833v23a3.845,3.845,0,0,1-3.833,3.833H9.583A3.845,3.845,0,0,1,5.75,38.333V19.167Zm13.417,17.25a9.583,9.583,0,1,0-9.583-9.583A9.587,9.587,0,0,0,24.917,36.417Zm-6.133-9.583A6.133,6.133,0,1,0,24.917,20.7,6.127,6.127,0,0,0,18.783,26.833Z" transform="translate(0 -1.917)" fill="#c6c5d9"/>
</svg>
