<svg xmlns="http://www.w3.org/2000/svg" width="1100" height="500" viewBox="0 0 1100 500">
  <g id="Clouds" transform="translate(82.77 36.762)">
    <path id="Intersection_17" data-name="Intersection 17" d="M0,0H1100V500H0Z" transform="translate(-82.77 -36.762)" fill="#c6c5d9"/>
    <path id="Path_2932" data-name="Path 2932" d="M106.25,28.976c.491-3.509-4.462-6.4-8.189-6.7-1.774-.142-3.623.132-5.3-.453-3.642-1.274-5.1-5.981-8.651-7.481-2.66-1.123-5.727-.123-8.3,1.179s-5.123,2.925-8,3.113c-2.5.16-5.226-.774-7.415.453-1.632.943-2.491,2.83-3.991,3.906a9.576,9.576,0,0,1-5.217,1.415,14.547,14.547,0,0,0-5.387.877c-1.66.764-3.038,2.519-2.689,4.321Z" transform="translate(159.492 -4.08)" fill="#e0e0e0"/>
    <path id="Path_4253" data-name="Path 4253" d="M106.25,28.976c.491-3.509-4.462-6.4-8.189-6.7-1.774-.142-3.623.132-5.3-.453-3.642-1.274-5.1-5.981-8.651-7.481-2.66-1.123-5.727-.123-8.3,1.179s-5.123,2.925-8,3.113c-2.5.16-5.226-.774-7.415.453-1.632.943-2.491,2.83-3.991,3.906a9.576,9.576,0,0,1-5.217,1.415,14.547,14.547,0,0,0-5.387.877c-1.66.764-3.038,2.519-2.689,4.321Z" transform="translate(41.775 51.016)" fill="#e0e0e0"/>
    <path id="Path_4074" data-name="Path 4074" d="M106.25,28.976c.491-3.509-4.462-6.4-8.189-6.7-1.774-.142-3.623.132-5.3-.453-3.642-1.274-5.1-5.981-8.651-7.481-2.66-1.123-5.727-.123-8.3,1.179s-5.123,2.925-8,3.113c-2.5.16-5.226-.774-7.415.453-1.632.943-2.491,2.83-3.991,3.906a9.576,9.576,0,0,1-5.217,1.415,14.547,14.547,0,0,0-5.387.877c-1.66.764-3.038,2.519-2.689,4.321Z" transform="translate(430.692 30.754)" fill="#e0e0e0"/>
    <path id="Path_4075" data-name="Path 4075" d="M106.25,28.976c.491-3.509-4.462-6.4-8.189-6.7-1.774-.142-3.623.132-5.3-.453-3.642-1.274-5.1-5.981-8.651-7.481-2.66-1.123-5.727-.123-8.3,1.179s-5.123,2.925-8,3.113c-2.5.16-5.226-.774-7.415.453-1.632.943-2.491,2.83-3.991,3.906a9.576,9.576,0,0,1-5.217,1.415,14.547,14.547,0,0,0-5.387.877c-1.66.764-3.038,2.519-2.689,4.321Z" transform="translate(742.355 10.534)" fill="#e0e0e0"/>
    <path id="Path_2930" data-name="Path 2930" d="M126.182,72.2c.9-6.516-8.3-11.882-15.212-12.445-3.294-.264-6.72.24-9.846-.85-6.768-2.4-9.463-11.092-16.063-13.883-4.935-2.072-10.625-.228-15.4,2.18s-9.583,5.438-14.865,5.785c-4.648.3-9.7-1.425-13.763.85C38,55.525,36.4,59.01,33.614,61.083s-6.3,2.4-9.69,2.623-6.9.216-9.99,1.629-5.642,4.683-5.007,8.013Z" transform="translate(88.074 -36.819)" fill="#e0e0e0"/>
    <path id="Path_4252" data-name="Path 4252" d="M126.182,72.2c.9-6.516-8.3-11.882-15.212-12.445-3.294-.264-6.72.24-9.846-.85-6.768-2.4-9.463-11.092-16.063-13.883-4.935-2.072-10.625-.228-15.4,2.18s-9.583,5.438-14.865,5.785c-4.648.3-9.7-1.425-13.763.85C38,55.525,36.4,59.01,33.614,61.083s-6.3,2.4-9.69,2.623-6.9.216-9.99,1.629-5.642,4.683-5.007,8.013Z" transform="translate(-8.829 21.864)" fill="#e0e0e0"/>
    <path id="Path_4073" data-name="Path 4073" d="M126.182,72.2c.9-6.516-8.3-11.882-15.212-12.445-3.294-.264-6.72.24-9.846-.85-6.768-2.4-9.463-11.092-16.063-13.883-4.935-2.072-10.625-.228-15.4,2.18s-9.583,5.438-14.865,5.785c-4.648.3-9.7-1.425-13.763.85C38,55.525,36.4,59.01,33.614,61.083s-6.3,2.4-9.69,2.623-6.9.216-9.99,1.629-5.642,4.683-5.007,8.013Z" transform="translate(234.87 -0.025)" fill="#e0e0e0"/>
    <path id="Path_4072" data-name="Path 4072" d="M126.182,72.2c.9-6.516-8.3-11.882-15.212-12.445-3.294-.264-6.72.24-9.846-.85-6.768-2.4-9.463-11.092-16.063-13.883-4.935-2.072-10.625-.228-15.4,2.18s-9.583,5.438-14.865,5.785c-4.648.3-9.7-1.425-13.763.85C38,55.525,36.4,59.01,33.614,61.083s-6.3,2.4-9.69,2.623-6.9.216-9.99,1.629-5.642,4.683-5.007,8.013Z" transform="translate(807.218 -26.468)" fill="#e0e0e0"/>
    <path id="Path_3118" data-name="Path 3118" d="M145.48,38.361c.8-5.688-7.232-10.367-13.272-10.856-2.875-.229-5.872.214-8.593-.734-5.9-2.064-8.272-9.694-14.021-12.125-4.312-1.82-9.281-.2-13.456,1.911s-8.3,4.74-12.966,5.046c-4.052.26-8.471-1.254-12.018.734-2.645,1.529-4.037,4.587-6.468,6.33a15.52,15.52,0,0,1-8.456,2.294A23.578,23.578,0,0,0,47.5,32.383c-2.691,1.239-4.924,4.083-4.358,7Z" transform="translate(326.269 -13.857)" fill="#e0e0e0"/>
    <path id="Path_3119" data-name="Path 3119" d="M145.48,38.361c.8-5.688-7.232-10.367-13.272-10.856-2.875-.229-5.872.214-8.593-.734-5.9-2.064-8.272-9.694-14.021-12.125-4.312-1.82-9.281-.2-13.456,1.911s-8.3,4.74-12.966,5.046c-4.052.26-8.471-1.254-12.018.734-2.645,1.529-4.037,4.587-6.468,6.33a15.52,15.52,0,0,1-8.456,2.294A23.578,23.578,0,0,0,47.5,32.383c-2.691,1.239-4.924,4.083-4.358,7Z" transform="translate(578.927 -8.968)" fill="#e0e0e0"/>
    <path id="Path_4068" data-name="Path 4068" d="M158.632,79.962c1.147-8.318-10.6-15.168-19.419-15.887-4.2-.336-8.578.306-12.569-1.086-8.639-3.058-12.079-14.159-20.5-17.722-6.3-2.645-13.563-.291-19.664,2.783S74.244,54.993,67.5,55.436c-5.933.382-12.385-1.82-17.569,1.086-3.868,2.156-5.9,6.605-9.465,9.251s-8.043,3.058-12.37,3.349S19.29,69.4,15.345,71.2,8.143,77.18,8.954,81.43Z" transform="translate(504.706 -7.592)" fill="#e0e0e0"/>
  </g>
</svg>
