<svg xmlns="http://www.w3.org/2000/svg" width="26.306" height="26.306" viewBox="0 0 26.306 26.306">
  <path id="Location" d="M14.695,9.912a4.783,4.783,0,1,0,4.783,4.783A4.782,4.782,0,0,0,14.695,9.912ZM25.384,13.5A10.755,10.755,0,0,0,15.89,4V1.542H13.5V4A10.755,10.755,0,0,0,4,13.5H1.542V15.89H4A10.755,10.755,0,0,0,13.5,25.384v2.463H15.89V25.384a10.755,10.755,0,0,0,9.494-9.494h2.463V13.5H25.384Zm-10.69,9.566a8.37,8.37,0,1,1,8.37-8.37A8.364,8.364,0,0,1,14.695,23.065Z" transform="translate(-1.542 -1.542)" fill="#5b618a"/>
</svg>
