<svg xmlns="http://www.w3.org/2000/svg" width="255.759" height="206.827" viewBox="0 0 255.759 206.827">
  <g id="man" transform="translate(-425.445 -132.426)">
    <path id="Path_4562" data-name="Path 4562" d="M0,0A11.289,11.289,0,0,1,5.1,2.369C7.013,4.189,8.744,5.193,8.65,7.013s-2.473,5.648-3.279,5.559l-.816-.089Z" transform="translate(500.824 281.092) rotate(-9)" fill="#ffbf9d"/>
    <g id="Group_409" data-name="Group 409" transform="translate(351.496 197.754)">
      <rect id="Rectangle_460" data-name="Rectangle 460" width="39.206" height="49.043" transform="translate(90.904 65.924) rotate(-89.18)" fill="#b0a9c5" stroke="#5b618a" stroke-width="0.169"/>
      <path id="Path_4628" data-name="Path 4628" d="M98.891,16.489a.755.755,0,0,1-.247,0H95.26L85.2,16.45l-35.354-.312.3-.3c-.156,11.711-.325,25.048-.52,39.193l-.325-.338h6.74l6.6.091,12.726.2,22.967.377-.286.273c.234-11.711.416-21.522.56-28.38.078-3.409.143-6.09.182-7.963a19.27,19.27,0,0,1,.065-2.121,2.06,2.06,0,0,0,0-.742,6.363,6.363,0,0,1,0,.69v9.954c-.065,6.909-.156,16.734-.26,28.627v.286h-.273l-22.966-.286-12.726-.169-6.61-.091h-6.74l-.338-.338c.221-14.157.416-27.534.6-39.206v-.4h.312l35.536.664,9.993.221h3.266Z" transform="translate(41.602 10.916)" fill="#263238"/>
      <rect id="Rectangle_461" data-name="Rectangle 461" width="34.274" height="45.595" transform="translate(92.618 63.463) rotate(-89.18)" fill="#c7c5d9"/>
      <path id="Path_4629" data-name="Path 4629" d="M49.208,38.634,65.434,17.567,75.1,31.035l6.805-7.027L94.8,39.3Z" transform="translate(43.413 24.828)" fill="#ff725e"/>
      <path id="Path_4630" data-name="Path 4630" d="M59.395,20.424a3.591,3.591,0,1,1-3.539-3.643A3.591,3.591,0,0,1,59.395,20.424Z" transform="translate(63.507 19.564)" fill="#ff725e"/>
      <path id="Path_4631" data-name="Path 4631" d="M49.208,38.634,65.434,17.567,75.1,31.035l6.805-7.027L94.8,39.3Z" transform="translate(43.413 24.828)" fill="#d2cbdf" stroke="#5b618a" stroke-width="0.5"/>
      <g id="Group_406" data-name="Group 406" transform="translate(115.718 36.343)">
        <path id="Path_4632" data-name="Path 4632" d="M59.395,20.424a3.591,3.591,0,1,1-3.539-3.643A3.591,3.591,0,0,1,59.395,20.424Z" transform="translate(-52.212 -16.78)" fill="#d2cbdf" stroke="#5b618a" stroke-width="0.5"/>
      </g>
    </g>
    <g id="Group_408" data-name="Group 408" transform="translate(429.686 143.248)">
      <rect id="Rectangle_460-2" data-name="Rectangle 460" width="25.718" height="32.171" transform="translate(90.779 52.328) rotate(-89.18)" fill="#5b618a"/>
      <path id="Path_4628-2" data-name="Path 4628" d="M81.706,16.144a.5.5,0,0,1-.162,0H79.324l-6.6-.026-23.191-.2.2-.2c-.1,7.682-.213,16.431-.341,25.71l-.213-.222H53.6l4.328.06,8.348.128,15.066.248-.188.179c.154-7.682.273-14.118.367-18.616.051-2.236.094-3.995.119-5.224a12.641,12.641,0,0,1,.043-1.391,1.351,1.351,0,0,0,0-.487,4.174,4.174,0,0,1,0,.452v6.53c-.043,4.532-.1,10.977-.171,18.779v.188H81.33l-15.066-.188-8.348-.111-4.336-.06H49.159l-.222-.222c.145-9.287.273-18.062.393-25.718v-.265h.2l23.311.435,6.555.145h2.142Z" transform="translate(41.602 10.916)" fill="#263238"/>
      <rect id="Rectangle_461-2" data-name="Rectangle 461" width="22.483" height="29.909" transform="translate(91.903 50.713) rotate(-89.18)" fill="#c7c5d9"/>
      <path id="Path_4629-2" data-name="Path 4629" d="M49.208,31.386,59.852,17.567,66.194,26.4l4.464-4.609,8.459,10.029Z" transform="translate(42.697 19.326)" fill="#ff725e"/>
      <path id="Path_4630-2" data-name="Path 4630" d="M56.924,19.17A2.356,2.356,0,1,1,54.6,16.78,2.356,2.356,0,0,1,56.924,19.17Z" transform="translate(54.844 16.144)" fill="#ff725e"/>
      <path id="Path_4631-2" data-name="Path 4631" d="M49.208,31.386,59.852,17.567,66.194,26.4l4.464-4.609,8.459,10.029Z" transform="translate(42.697 19.326)" fill="#5b618a"/>
      <g id="Group_406-2" data-name="Group 406" transform="translate(107.056 32.923)">
        <path id="Path_4632-2" data-name="Path 4632" d="M56.924,19.17A2.356,2.356,0,1,1,54.6,16.78,2.356,2.356,0,0,1,56.924,19.17Z" transform="translate(-52.212 -16.78)" fill="#5b618a"/>
      </g>
    </g>
    <g id="Group_407" data-name="Group 407" transform="translate(567.387 90.016)">
      <rect id="Rectangle_462" data-name="Rectangle 462" width="54.688" height="68.407" transform="translate(44.635 97.234) rotate(-89.18)" fill="#f5f5f5"/>
      <path id="Path_4633" data-name="Path 4633" d="M98.107,23.6H96.845l-3.707-.037-13.994-.173L29.71,22.74l.107-.108c-.229,16.271-.467,34.93-.767,54.688h0l-.122-.122,68.4.977-.1.1c.257-16.476.467-30.134.622-39.679.079-4.777.14-8.521.182-11.078.023-1.276.042-2.253.056-2.917s.023-1.01.023-1.01v.986c0,.654,0,1.631-.028,2.9-.028,2.547-.075,6.287-.131,11.054-.126,9.559-.3,23.235-.514,39.73v.1h-.1l-68.4-.958h-.122v-.131c.285-19.739.556-38.4.795-54.688v-.108h.108l49.471.795,13.971.229,3.688.065h.935Z" transform="translate(15.706 19.923)" fill="#263238"/>
      <rect id="Rectangle_463" data-name="Rectangle 463" width="47.803" height="63.597" transform="translate(47.043 93.828) rotate(-89.18)" fill="#5b618a"/>
      <path id="Path_4634" data-name="Path 4634" d="M29.727,59.857l22.637-29.4,13.49,18.785,9.475-9.8L93.318,60.764Z" transform="translate(17.316 33.97)" fill="#e9d9ed" opacity="0.6"/>
      <g id="Group_407-2" data-name="Group 407" transform="translate(79.309 55.994)" opacity="0.6">
        <path id="Path_4635" data-name="Path 4635" d="M51.431,32.487A5.011,5.011,0,1,1,46.5,27.406a5.011,5.011,0,0,1,4.936,5.081Z" transform="translate(-41.41 -27.406)" fill="#e9dbed"/>
      </g>
    </g>
    <g id="Group_410" data-name="Group 410" transform="translate(451.444 240.958)">
      <rect id="Rectangle_462-2" data-name="Rectangle 462" width="54.688" height="68.407" transform="translate(44.635 97.234) rotate(-89.18)" fill="#f5f5f5"/>
      <path id="Path_4633-2" data-name="Path 4633" d="M98.107,23.6H96.845l-3.707-.037-13.994-.173L29.71,22.74l.107-.108c-.229,16.271-.467,34.93-.767,54.688h0l-.122-.122,68.4.977-.1.1c.257-16.476.467-30.134.622-39.679.079-4.777.14-8.521.182-11.078.023-1.276.042-2.253.056-2.917s.023-1.01.023-1.01v.986c0,.654,0,1.631-.028,2.9-.028,2.547-.075,6.287-.131,11.054-.126,9.559-.3,23.235-.514,39.73v.1h-.1l-68.4-.958h-.122v-.131c.285-19.739.556-38.4.795-54.688v-.108h.108l49.471.795,13.971.229,3.688.065h.935Z" transform="translate(15.706 19.923)" fill="#263238"/>
      <rect id="Rectangle_463-2" data-name="Rectangle 463" width="47.803" height="63.597" transform="translate(47.043 93.828) rotate(-89.18)" fill="#5b618a"/>
      <path id="Path_4634-2" data-name="Path 4634" d="M29.727,59.857l22.637-29.4,13.49,18.785,9.475-9.8L93.318,60.764Z" transform="translate(17.316 33.97)" fill="#e9d9ed" opacity="0.6"/>
      <g id="Group_407-3" data-name="Group 407" transform="translate(79.309 55.994)" opacity="0.6">
        <path id="Path_4635-2" data-name="Path 4635" d="M51.431,32.487A5.011,5.011,0,1,1,46.5,27.406a5.011,5.011,0,0,1,4.936,5.081Z" transform="translate(-41.41 -27.406)" fill="#e9dbed"/>
      </g>
    </g>
    <g id="freepik--Character--inject-79" transform="translate(468.185 152.145)">
      <g id="freepik--Desk--inject-79" transform="translate(-42.739 128.661)">
        <path id="Path_4418" data-name="Path 4418" d="M230.867,133.845c0,.074-49.5.129-110.55.129s-110.56-.059-110.56-.129,49.491-.129,110.56-.129S230.867,133.776,230.867,133.845Z" transform="translate(-9.758 -133.716)" fill="#263238"/>
      </g>
      <path id="Path_4501" data-name="Path 4501" d="M156.336,71.575a5.2,5.2,0,0,0,6.568-8,5.411,5.411,0,0,0-.04-10.272,6.479,6.479,0,0,0-6.276-9.179,7.285,7.285,0,0,0-7.913-4.248,5.178,5.178,0,0,0-8.056,5.732" transform="translate(-7.946 -37.425)" fill="#263238"/>
      <path id="Path_4502" data-name="Path 4502" d="M156.253,43.062l.989.524a22.072,22.072,0,0,1,10.307,28.1c-4.11,9.891-8.769,20.742-11.444,25.8-5.539,10.47-16.919,6.7-16.919,6.7l-5.608,13.121-13.393,3.462-11.766-17.384,21.306-47.077C134.413,44.877,144.957,38.077,156.253,43.062Z" transform="translate(-18.842 -36.544)" fill="#ffbf9d"/>
      <path id="Path_4503" data-name="Path 4503" d="M134.435,91.07A28.809,28.809,0,0,1,122.7,79.942s-.643,9.248,10.356,13.7Z" transform="translate(-13.974 -23.398)" fill="#ff9a6c"/>
      <path id="Path_4504" data-name="Path 4504" d="M164.99,66.842s.608-8.027-1.766-11.222c-2.9-3.838-6.726-.465-9.891-3.373s-5.905-6.588-11.113-5.678c-5.7.989-4.9,4.164-7.547,8.709C123.911,73.712,117.7,77.292,121.32,67.861c.4-1.034-1.919-3.21-.2-7.547,2.226-5.628,5.361-12.24,8.511-15.43,2.651-2.685,5.618-3.957,10.148-4.723,7.151-1.2,14.3,2.369,18.877,5.331S169.654,58.806,164.99,66.842Z" transform="translate(-14.795 -37.049)" fill="#263238"/>
      <path id="Path_4505" data-name="Path 4505" d="M124.023,62.024a3.22,3.22,0,0,0-1.672-4.342c-2.062-.821-4.822-.826-6.78,3.3-3.462,7.324,4.6,9.3,4.713,9.09S122.594,65.105,124.023,62.024Z" transform="translate(-16.697 -31.138)" fill="#ffbf9d"/>
      <path id="Path_4506" data-name="Path 4506" d="M119.276,65.87c-.025-.04-.173.03-.435,0a1.419,1.419,0,0,1-.959-.43c-.643-.653-.712-2.191-.124-3.526a4.773,4.773,0,0,1,1.227-1.657,1.627,1.627,0,0,1,1.419-.524.717.717,0,0,1,.589.707c0,.252-.114.376-.079.406s.213-.049.3-.381a.9.9,0,0,0-.069-.593,1.058,1.058,0,0,0-.618-.519,1.978,1.978,0,0,0-1.869.495,4.778,4.778,0,0,0-1.41,1.83c-.653,1.484-.549,3.234.361,4.046a1.518,1.518,0,0,0,1.261.356C119.177,66.038,119.3,65.894,119.276,65.87Z" transform="translate(-15.975 -30.444)" fill="#ff9a6c"/>
      <path id="Path_4507" data-name="Path 4507" d="M128.249,54.784a7.641,7.641,0,0,0,2.329,2.967,2.661,2.661,0,0,0,3.462-.312c.341-.46.519-1.1,1.044-1.32.633-.262,1.286.257,1.855.628,1.978,1.3,5.618.242,7.2-1.523a2.112,2.112,0,0,0,2.245,1.81,7.483,7.483,0,0,0,2.527-.653,3.353,3.353,0,0,1,3.111.035c.495.346.826.92,1.39,1.147.989.406,2.018-.465,2.646-1.335s1.3-1.9,2.359-1.978c.989-.089,1.81.678,2.611,1.251s2.038.95,2.7.213a1.939,1.939,0,0,0,.351-1.484,5.242,5.242,0,0,0-4.6-4.59,7.107,7.107,0,0,0-10.989-7.191,7.211,7.211,0,0,0-11.464-2.913,5.228,5.228,0,0,0-8.719,4.075,4.943,4.943,0,0,0-4.238,2.27c-.776,1.479-.1,3.709,1.538,4.055a2.893,2.893,0,0,0,3.136,4.857" transform="translate(-13.618 -37.78)" fill="#263238"/>
      <path id="Path_4508" data-name="Path 4508" d="M158.841,49.581a.655.655,0,0,1-.069.129,3.734,3.734,0,0,1-.247.361,5.149,5.149,0,0,1-1.231,1.123,5.836,5.836,0,0,1-2.473.88,5.386,5.386,0,0,1-3.383-.673l.2-.094a2.967,2.967,0,0,1-1.167,1.914,8.283,8.283,0,0,1-2.141,1.137,6.1,6.1,0,0,1-1.231.41,2.779,2.779,0,0,1-1.36-.158,2.967,2.967,0,0,1-1.889-2.023l.307.059a6.063,6.063,0,0,1-4.209,2.562,4.451,4.451,0,0,1-2.765-.435,8.185,8.185,0,0,1-2.072-1.711h.237a6.38,6.38,0,0,1-2.844,1.35,3.412,3.412,0,0,1-2.864-.608,4.451,4.451,0,0,1-1.459-4.674l.124.158a4.159,4.159,0,0,1-2.666-.905,4.6,4.6,0,0,1-1.33-1.657,3.956,3.956,0,0,1-.351-1.291,1.786,1.786,0,0,1,0-.495,4.763,4.763,0,0,0,.465,1.7A4.525,4.525,0,0,0,125.75,48.2a4,4,0,0,0,2.537.816h.173l-.049.168a4.209,4.209,0,0,0,1.414,4.362,3.081,3.081,0,0,0,2.606.495,6.044,6.044,0,0,0,2.686-1.286l.129-.1.109.119a7.705,7.705,0,0,0,1.978,1.632,4.09,4.09,0,0,0,2.552.4,5.752,5.752,0,0,0,3.957-2.413l.223-.317.089.381a2.6,2.6,0,0,0,1.672,1.78,2.433,2.433,0,0,0,1.2.153,5.865,5.865,0,0,0,1.157-.381,8.319,8.319,0,0,0,2.077-1.078,2.671,2.671,0,0,0,1.083-1.721l.03-.2.173.1a5.213,5.213,0,0,0,3.22.692,5.757,5.757,0,0,0,2.413-.8,6.345,6.345,0,0,0,1.667-1.424Z" transform="translate(-13.547 -35.337)" fill="#455a64"/>
      <path id="Path_4509" data-name="Path 4509" d="M146.364,70.961a1.691,1.691,0,0,1-2.235.747,1.617,1.617,0,0,1-.831-2.156,1.686,1.686,0,0,1,2.235-.752,1.617,1.617,0,0,1,.831,2.161Z" transform="translate(-6.995 -27.256)" fill="#263238"/>
      <path id="Path_4510" data-name="Path 4510" d="M151.112,68.163c-.287.1-.989-1.335-2.587-2.176s-3.21-.663-3.284-.95c-.04-.134.336-.386,1.048-.495a4.683,4.683,0,0,1,2.755.519,4.451,4.451,0,0,1,1.929,1.978C151.25,67.684,151.25,68.124,151.112,68.163Z" transform="translate(-6.283 -28.662)" fill="#263238"/>
      <path id="Path_4511" data-name="Path 4511" d="M135.117,65.651a1.687,1.687,0,0,1-2.235.747,1.612,1.612,0,0,1-.831-2.156,1.7,1.7,0,0,1,2.235-.772,1.622,1.622,0,0,1,.831,2.181Z" transform="translate(-10.832 -29.072)" fill="#263238"/>
      <path id="Path_4512" data-name="Path 4512" d="M139.215,62.254c-.287.1-.989-1.335-2.587-2.176s-3.21-.658-3.284-.95c-.04-.134.336-.386,1.048-.495a4.634,4.634,0,0,1,2.755.495,4.451,4.451,0,0,1,1.929,1.978C139.369,61.774,139.354,62.214,139.215,62.254Z" transform="translate(-10.341 -30.68)" fill="#263238"/>
      <path id="Path_4513" data-name="Path 4513" d="M137.184,76.3a12,12,0,0,1,2.859.905c.43.173.865.3,1.083.054a2.394,2.394,0,0,0,.366-1.36c.134-1.2.282-2.473.43-3.769.658-5.336,1.365-9.639,1.583-9.609s-.148,4.377-.806,9.713c-.173,1.316-.331,2.562-.495,3.759a2.7,2.7,0,0,1-.638,1.721,1.147,1.147,0,0,1-.989.247,3.3,3.3,0,0,1-.752-.272A11.065,11.065,0,0,1,137.184,76.3Z" transform="translate(-9.031 -29.34)" fill="#263238"/>
      <path id="Path_4514" data-name="Path 4514" d="M134.049,55.014c.336-.4,1.978.45,4.046.95s3.907.554,4.016,1.068c.045.242-.4.574-1.217.781a7.216,7.216,0,0,1-6.142-1.538C134.128,55.706,133.9,55.207,134.049,55.014Z" transform="translate(-10.115 -31.937)" fill="#263238"/>
      <path id="Path_4515" data-name="Path 4515" d="M153.159,64.763c-.524.2-1.652-.851-3.229-1.677s-3.051-1.241-3.165-1.78c-.04-.257.356-.495,1.118-.569a5.693,5.693,0,0,1,2.943.737,5.618,5.618,0,0,1,2.211,2.052C153.406,64.189,153.4,64.659,153.159,64.763Z" transform="translate(-5.763 -29.95)" fill="#263238"/>
      <path id="Path_4516" data-name="Path 4516" d="M135.348,77.348c-.094.049-.366-.247-.757-.752l-.678-.846a4.583,4.583,0,0,0-.856-.89,4.283,4.283,0,0,0-2.166-.544c-.618,0-1.014,0-1.044-.1s.336-.317.989-.44a4.351,4.351,0,0,1,1.192-.049,3.235,3.235,0,0,1,1.444.495,4.13,4.13,0,0,1,.989,1.113,8.085,8.085,0,0,1,.564.989C135.333,76.9,135.442,77.293,135.348,77.348Z" transform="translate(-11.533 -25.527)" fill="#263238"/>
      <path id="Path_4517" data-name="Path 4517" d="M93.077,77.576s10.831,0,17.31.628c6.924.668,12.4,1.444,12.4,1.444l6.513-2.077-.865,13.952,7.418,11.924,7.522-2.928,6.078-2.137,2.967-4.451,19.6,10.272-23.63,48.655H65.084l13.2-30.737Z" transform="translate(-33.624 -24.207)" fill="#5b618a"/>
      <path id="Path_4518" data-name="Path 4518" d="M43.224,141.688c.153-.6-.495-10.687,4.6-13.4S82.24,86.322,86.3,82.879c10.351-8.778,22.226-4,22.226-4s-8.66,21-10.767,26.36-15.139,23.244-14.906,22.829c1.637-2.967-12.2,17.849-12.2,17.849Z" transform="translate(-41.081 -24.204)" fill="#5b618a"/>
      <path id="Path_4519" data-name="Path 4519" d="M85.327,92.219a1.922,1.922,0,0,1-.109.351l-.361.989c-.336.88-.8,2.112-1.375,3.62-1.2,3.076-2.829,7.28-4.629,11.919s-3.492,8.828-4.7,11.894c-.6,1.484-1.1,2.715-1.454,3.591l-.406.989a1.538,1.538,0,0,1-.158.331,1.8,1.8,0,0,1,.109-.351c.094-.247.213-.579.366-.989.331-.88.8-2.112,1.375-3.625L78.61,109l4.7-11.87c.608-1.484,1.1-2.72,1.454-3.6.168-.4.307-.722.406-.989a2.545,2.545,0,0,1,.158-.326Z" transform="translate(-31.22 -19.211)" fill="#263238"/>
      <path id="Path_4520" data-name="Path 4520" d="M118.532,101.472a2.36,2.36,0,0,1-.242-.272l-.638-.821-2.389-3.051-1.652-2.117a1.073,1.073,0,0,0-1.182-.495,4.49,4.49,0,0,0-1.167.989l-5.04,5.094-.223.227V99.083a139.017,139.017,0,0,1,.989-14.026c.218-1.785.43-3.229.589-4.219q.119-.717.193-1.142a2.439,2.439,0,0,1,.084-.4,1.881,1.881,0,0,1-.035.4c-.035.287-.084.668-.143,1.147-.129.989-.312,2.443-.495,4.229-.41,3.6-.811,8.546-.905,14.026v1.622l-.223-.089,5.059-5.074c.193-.2.386-.386.579-.574a2.018,2.018,0,0,1,.678-.495.989.989,0,0,1,.826.059,2.092,2.092,0,0,1,.589.495c.6.772,1.133,1.484,1.632,2.146l2.324,3.1.618.846A1.828,1.828,0,0,1,118.532,101.472Z" transform="translate(-19.668 -23.617)" fill="#263238"/>
      <path id="Path_4521" data-name="Path 4521" d="M136.652,91.035a1.979,1.979,0,0,1-.089.3c-.064.188-.158.47-.3.821a31.938,31.938,0,0,1-1.325,2.967,34.733,34.733,0,0,1-6.276,8.66l-.168.163-.049-.223c-.04-.163-.079-.341-.119-.495a30.693,30.693,0,0,1-.742-6.691l.153.114-6.118,2.028-1.741.554-.465.138c-.109.03-.163.045-.163.035a.539.539,0,0,1,.148-.069l.455-.173,1.721-.618,6.088-2.117.153-.054v.163a31.455,31.455,0,0,0,.762,6.632l.114.495-.213-.059a36.306,36.306,0,0,0,6.3-8.561c.638-1.2,1.093-2.206,1.39-2.9l.346-.806A1.429,1.429,0,0,1,136.652,91.035Z" transform="translate(-15.147 -19.615)" fill="#263238"/>
      <path id="Path_4522" data-name="Path 4522" d="M99.484,146.191c-.064-.035,5.237-11.029,11.84-24.56s12-24.476,12.067-24.441-5.237,11.024-11.84,24.555S99.548,146.221,99.484,146.191Z" transform="translate(-21.89 -17.515)" fill="#263238"/>
      <path id="Path_4523" data-name="Path 4523" d="M93.834,121.532a2.116,2.116,0,0,1,.559.079c.356.069.865.183,1.484.336a47.91,47.91,0,0,1,4.832,1.484c1.865.683,3.5,1.365,4.669,1.919.584.277,1.053.495,1.37.682a2.241,2.241,0,0,1,.495.292,2.676,2.676,0,0,1-.529-.2l-1.4-.608c-1.182-.495-2.829-1.187-4.679-1.845s-3.556-1.177-4.8-1.528l-1.484-.415A2.768,2.768,0,0,1,93.834,121.532Z" transform="translate(-23.817 -9.212)" fill="#263238"/>
      <path id="Path_4524" data-name="Path 4524" d="M92.5,127.091a2.579,2.579,0,0,1,.529-.143c.341-.079.841-.173,1.484-.277a47.06,47.06,0,0,1,4.886-.554,48.042,48.042,0,0,1,4.921-.049c.633.025,1.137.059,1.484.094a2.519,2.519,0,0,1,.544.079,2.088,2.088,0,0,1-.549,0H104.31c-1.256,0-2.992,0-4.9.129s-3.635.312-4.881.495l-1.484.2A1.885,1.885,0,0,1,92.5,127.091Z" transform="translate(-24.274 -7.679)" fill="#263238"/>
      <g id="Group_400" data-name="Group 400" transform="translate(87.202 71.021)" opacity="0.3">
        <path id="Path_4525" data-name="Path 4525" d="M106.649,96.062l.9,2.819s4-5.267,5.247-4.708,4.857,2.537,4.857,2.537-4.347-5.846-4.773-5.935-.87-.094-1.756.8Z" transform="translate(-106.649 -90.737)"/>
      </g>
      <g id="Group_401" data-name="Group 401" transform="translate(104.107 76.846)" opacity="0.3">
        <path id="Path_4526" data-name="Path 4526" d="M128.67,101.91a26.31,26.31,0,0,1-.861-6.83c-2.146.742-6.538,2.043-8.556,2.908,1.736-.227,4.125-.321,5.866-.549a.7.7,0,0,1,.92.786,48.466,48.466,0,0,1,.3,6.395,8.868,8.868,0,0,0,4.946-5.228Z" transform="translate(-119.253 -95.08)"/>
      </g>
      <g id="Group_402" data-name="Group 402" transform="translate(14.428 103.476)" opacity="0.3">
        <path id="Path_4527" data-name="Path 4527" d="M61.711,115.869c-2.9-1.266-6.241-1.083-9.327-.386h0A21.016,21.016,0,0,1,66.553,123.3C66.909,120.157,64.61,117.14,61.711,115.869Z" transform="translate(-52.384 -114.938)"/>
      </g>
      <path id="Path_4528" data-name="Path 4528" d="M152.458,98.746s5.589,1.944,12.29,17.7c3.714,8.744,8.739,17.592,5.267,25.322-1.627,3.61-26.3,4.946-26.3,4.946s-3.774-3.531-3.9-6.38,0-5.564,0-5.564l-7.3-4.006,12.206-27.344Z" transform="translate(-10.626 -16.984)" fill="#5b618a"/>
      <path id="Path_4529" data-name="Path 4529" d="M163.315,126.766l-11.78-33.986L137.8,98.185l6.726,35.846s9.1,3.022,13.932.227A9.332,9.332,0,0,0,163.315,126.766Z" transform="translate(-8.822 -19.02)" fill="#ffbf9d"/>
      <path id="Path_4530" data-name="Path 4530" d="M159.032,75.44a2.417,2.417,0,0,0-2.626-1.1,7.048,7.048,0,0,0-2.705,1.385l3.956,3.388a6.923,6.923,0,0,0,1.256-1.657A2.379,2.379,0,0,0,159.032,75.44Z" transform="translate(-3.396 -25.326)" fill="#ff9a6c"/>
      <path id="Path_4531" data-name="Path 4531" d="M138,104.964c.1-.232-2.062-9.674.247-12.661s10.663-11.726,10.663-11.726-1.217-4.614,2.75-4.664c0,0,.935-3.764,3.927-2.705,0,0,1.345-.989,3.175.613s8.482,7.137,8.813,9.347a6.36,6.36,0,0,1-.989,4.135s-5.757,4.169-8.145,5.8c-1.874,1.286-6.429,3.625-6.251,8.042Z" transform="translate(-9.031 -25.799)" fill="#ffbf9d"/>
      <path id="Path_4532" data-name="Path 4532" d="M152.721,81.821a1.727,1.727,0,0,0,.242-.262,1.425,1.425,0,0,0,.312-.865,2.122,2.122,0,0,0-.495-1.286,12.279,12.279,0,0,0-1.231-1.291,30.05,30.05,0,0,0-2.473-2.127A11.448,11.448,0,0,1,148,75.159a5.014,5.014,0,0,1,1.182.682,20.594,20.594,0,0,1,2.547,2.087,11.484,11.484,0,0,1,1.246,1.335,2.231,2.231,0,0,1,.495,1.434,1.449,1.449,0,0,1-.391.945C152.859,81.8,152.726,81.831,152.721,81.821Z" transform="translate(-5.34 -25.03)" fill="#ff9a6c"/>
      <path id="Path_4533" data-name="Path 4533" d="M157.913,80.47a9.4,9.4,0,0,1-.989-1.123c-.589-.707-1.4-1.672-2.369-2.69s-1.884-1.884-2.562-2.5a11.171,11.171,0,0,1-1.088-1.024,7.294,7.294,0,0,1,1.207.885,29.456,29.456,0,0,1,2.631,2.473,32.368,32.368,0,0,1,2.324,2.755A7.821,7.821,0,0,1,157.913,80.47Z" transform="translate(-4.35 -25.722)" fill="#ff9a6c"/>
      <path id="Path_4534" data-name="Path 4534" d="M155.448,82.815A8.9,8.9,0,0,0,156,81.737a9.339,9.339,0,0,0,.173-1.2,1.41,1.41,0,0,1,.069,1.276A1.568,1.568,0,0,1,155.448,82.815Z" transform="translate(-2.8 -23.195)" fill="#ff9a6c"/>
      <path id="Path_4535" data-name="Path 4535" d="M152.169,101.2a1.644,1.644,0,0,1,0-.208v-.628a6.43,6.43,0,0,1,.678-2.295,9.466,9.466,0,0,1,2.473-2.878,19.992,19.992,0,0,1,1.929-1.38c.712-.45,1.484-.905,2.221-1.444,1.523-1.058,3.17-2.255,4.946-3.541l1.34-.989.687-.495.089-.064h0v-.025l.025-.045.109-.178c.074-.124.138-.252.2-.381a5.935,5.935,0,0,0,.628-3.408,4.451,4.451,0,0,0-.831-1.588,17.612,17.612,0,0,0-1.222-1.454c-.865-.94-1.805-1.855-2.784-2.76s-2-1.8-3.051-2.7A11.871,11.871,0,0,0,158,73.467a2.394,2.394,0,0,0-1.929-.267,1.484,1.484,0,0,0-.317.138h-.035a.163.163,0,0,1-.1,0h-.025l-.089-.025-.173-.045a2.884,2.884,0,0,0-.7-.109,2.28,2.28,0,0,0-1.306.445,4.476,4.476,0,0,0-1.484,2.349v.089h-.094a3.378,3.378,0,0,0-1.528.361,2.27,2.27,0,0,0-.989,1.128,3.9,3.9,0,0,0-.277,1.484,6.592,6.592,0,0,0,.168,1.484v.069l-.045.049c-2.878,3.022-5.539,5.861-7.868,8.442l-1.677,1.894c-.262.312-.529.613-.776.92a5.442,5.442,0,0,0-.663.93,6.637,6.637,0,0,0-.608,2.067,14.791,14.791,0,0,0-.148,1.978,38.738,38.738,0,0,0,.47,5.935,16.492,16.492,0,0,1,.272,2.122,2.642,2.642,0,0,0-.084-.539c-.084-.356-.153-.9-.272-1.573a37.143,37.143,0,0,1-.539-5.935,15.108,15.108,0,0,1,.134-2.013,6.742,6.742,0,0,1,.613-2.127,5.237,5.237,0,0,1,.682-.964c.242-.312.495-.613.772-.93.529-.623,1.088-1.256,1.667-1.909,2.324-2.592,4.97-5.44,7.849-8.467l-.03.114a6.7,6.7,0,0,1-.178-1.573,4.194,4.194,0,0,1,.292-1.6,2.547,2.547,0,0,1,1.108-1.251,3.655,3.655,0,0,1,1.647-.4l-.124.1a4.762,4.762,0,0,1,1.568-2.5,2.547,2.547,0,0,1,1.454-.495,3.343,3.343,0,0,1,.772.114l.188.049.094.025h0a.133.133,0,0,0-.089,0h.025l.045-.03a2.18,2.18,0,0,1,.366-.163,2.671,2.671,0,0,1,2.136.292,5.029,5.029,0,0,1,.865.628l.786.678c1.048.9,2.072,1.8,3.051,2.71s1.929,1.825,2.8,2.779a18.158,18.158,0,0,1,1.231,1.484,8.445,8.445,0,0,1,.45.9l.213.43.138.47a6.133,6.133,0,0,1-.658,3.546c-.064.129-.134.262-.208.386l-.114.193-.035.045V87.4h0s-.04.04-.035.04l-.089.064-.687.495-1.35.989c-1.771,1.281-3.422,2.473-4.946,3.516-.762.534-1.528.989-2.235,1.434a19.244,19.244,0,0,0-1.924,1.355,9.278,9.278,0,0,0-2.473,2.814,6.469,6.469,0,0,0-.712,2.25,5.081,5.081,0,0,1-.03.623A1.331,1.331,0,0,1,152.169,101.2Z" transform="translate(-9.032 -25.855)" fill="#ff9a6c"/>
      <path id="Path_4536" data-name="Path 4536" d="M135.206,106.663l1.978,9.619c-.42,1.627,3.9,26.459,5.579,29.446s5.712,4.748,12.681,4.886,11.81-5.643,13.482-9.713-2.473-12.953-4.3-20.144-4.886-18.081-4.886-18.081Z" transform="translate(-9.705 -15.643)" fill="#5b618a"/>
      <path id="Path_4537" data-name="Path 4537" d="M135.206,106.687l.42-.079,1.271-.218,4.886-.816,17.943-2.967h.084l.025.089c1.518,5.584,3.264,12.023,5.168,19.06.964,3.506,2.295,7.067,3.368,10.841.138.495.267.95.381,1.429s.227.964.326,1.454.168.989.252,1.484c.035.252.045.495.069.757a5.575,5.575,0,0,1,.035.762,6.266,6.266,0,0,1-.6,3,17.011,17.011,0,0,1-1.548,2.676,16.084,16.084,0,0,1-7.057,5.757,11.988,11.988,0,0,1-4.377.856,31.572,31.572,0,0,1-4.347-.282,19.753,19.753,0,0,1-4.125-.989,10.04,10.04,0,0,1-3.531-2.132,7.349,7.349,0,0,1-1.222-1.622,12.433,12.433,0,0,1-.668-1.869c-.361-1.251-.653-2.5-.935-3.714-1.093-4.881-1.9-9.4-2.587-13.4q-.495-3.012-.875-5.628c-.119-.87-.227-1.711-.321-2.512-.04-.4-.079-.791-.109-1.177a5.508,5.508,0,0,1,0-1.142v.035l-1.439-7.151c-.158-.811-.282-1.429-.366-1.855-.04-.2-.069-.356-.089-.47s-.025-.153-.025-.153l.04.163.1.495c.094.425.227,1.048.4,1.86.346,1.632.851,4.026,1.484,7.1v.01a5.466,5.466,0,0,0,0,1.1c.03.381.074.772.119,1.172.094.8.208,1.632.331,2.5.252,1.741.554,3.62.9,5.618.692,4.006,1.518,8.516,2.621,13.388.282,1.217.579,2.473.94,3.7a12.125,12.125,0,0,0,.653,1.825,7.186,7.186,0,0,0,1.182,1.563,9.624,9.624,0,0,0,3.462,2.067,19.208,19.208,0,0,0,4.075.989c2.8.321,5.826.6,8.6-.564a15.88,15.88,0,0,0,6.924-5.668,16.528,16.528,0,0,0,1.528-2.636,6.033,6.033,0,0,0,.584-2.893,5.32,5.32,0,0,0-.04-.742,4.7,4.7,0,0,0-.069-.742c-.079-.495-.134-.989-.242-1.484s-.2-.964-.326-1.439-.242-.954-.376-1.424c-1.068-3.759-2.4-7.324-3.358-10.851-1.889-7.033-3.625-13.477-5.124-19.07l.109.074-17.869,2.834-4.946.772-1.291.2Z" transform="translate(-9.705 -15.667)" fill="#263238"/>
      <path id="Path_4538" data-name="Path 4538" d="M139.941,112.822a1.276,1.276,0,0,1-.114.292c-.094.213-.218.495-.366.826-.336.742-.806,1.761-1.375,3.012-1.162,2.547-2.72,6.083-4.426,10s-3.294,7.443-4.5,9.97c-.6,1.266-1.1,2.285-1.449,2.967-.173.326-.307.594-.415.8a1.158,1.158,0,0,1-.158.272,1.523,1.523,0,0,1,.114-.292l.366-.826c.341-.742.806-1.761,1.375-3.012,1.162-2.547,2.72-6.083,4.451-10s3.294-7.418,4.5-9.965c.6-1.266,1.1-2.285,1.454-2.967l.41-.8a1.157,1.157,0,0,1,.134-.272Z" transform="translate(-12.456 -12.183)" fill="#263238"/>
      <g id="Group_403" data-name="Group 403" transform="translate(125.794 93.102)" opacity="0.3">
        <path id="Path_4539" data-name="Path 4539" d="M138.871,126.984c-.989-6.617-2-13.452-3.309-19.783a76.676,76.676,0,0,0,6.222,34.619Z" transform="translate(-135.424 -107.202)"/>
      </g>
      <path id="Path_4561" data-name="Path 4561" d="M47.058,118.055s-5.025.732-5.371,7.74.9,8.333,1.167,9.679,4.758,8,5.569,8.536,23,0,23,0,1.256-6.924,1.528-8.714-.272-7.008-5.663-11.5S47.058,118.055,47.058,118.055Z" transform="translate(-41.626 -10.398)" fill="#5b618a"/>
      <path id="Path_4564" data-name="Path 4564" d="M60.617,148.031S46.7,140.87,46.7,140.469s-5.406-12.962,8.6-13.1c0,0,8-.836,11.627,5.579l5.307,5.584Z" transform="translate(-40.245 -7.233)" fill="#ffbf9d"/>
      <path id="Path_4565" data-name="Path 4565" d="M69.1,132.961s-2.418-2.092-4.08-1.548-2.389,3.279-2.389,3.279-3.828.183-4.555,1.365a11.642,11.642,0,0,0-1.093,3.279s-3.823,1.914-1.82,5.559a3.659,3.659,0,0,0,.361,4.372c1.82,2.369,7.473,5.193,9.021,5.465a28.021,28.021,0,0,0,4.916,0s6.469,2.1,8.2,1.093l.455-.875a2.769,2.769,0,0,0,.959-1.311C79.542,152.224,77.5,151,77.5,151a2.423,2.423,0,0,0,1.627-2.473c.084-2.107-3.106-6.469-5.015-8.566A70.046,70.046,0,0,1,69.1,132.961Z" transform="translate(-37.206 -5.872)" fill="#ffbf9d"/>
      <path id="Path_4566" data-name="Path 4566" d="M75.7,148.826a.49.49,0,0,1-.064.2.905.905,0,0,1-.445.406,1.108,1.108,0,0,1-.44.089,1.034,1.034,0,0,1-.519-.114,6.432,6.432,0,0,1-1.024-.722c-1.429-1.172-3.254-2.943-5.223-4.946-.989-.989-1.919-1.954-2.71-2.893s-1.434-1.815-1.978-2.557a13.834,13.834,0,0,1-1.627-2.473c.079,0,.03.059.114.173l.341.495c.307.41.752.989,1.316,1.731s1.236,1.588,2.018,2.512,1.736,1.86,2.71,2.868c1.978,1.978,3.769,3.783,5.153,4.98a7.316,7.316,0,0,0,.989.737.91.91,0,0,0,.46.119,1.093,1.093,0,0,0,.4-.054.9.9,0,0,0,.44-.346C75.668,148.89,75.692,148.821,75.7,148.826Z" transform="translate(-34.791 -4.338)" fill="#ff9a6c"/>
      <path id="Path_4572" data-name="Path 4572" d="M63.582,138.489c-.42-.5-.761-.964-1.05-1.357a6.045,6.045,0,0,1-.835-1.316c.042,0,.1-.06.141,0l.125.313c.163.218.346.57.645.964S64,138.988,63.582,138.489Z" transform="translate(-28.773 -7.028)" fill="#ff9a6c"/>
      <path id="Path_4567" data-name="Path 4567" d="M76.37,153.137a.773.773,0,0,1-.228-.069l-.633-.257c-.549-.227-1.345-.564-2.315-.989a39.564,39.564,0,0,1-7.235-4.095,22.491,22.491,0,0,1-3.388-3.091,34.092,34.092,0,0,1-2.315-2.943c-.613-.87-1.088-1.593-1.41-2.087l-.366-.584c-.079-.134-.119-.208-.109-.213a.989.989,0,0,1,.153.183l.406.554c.346.495.841,1.187,1.484,2.038a37.191,37.191,0,0,0,2.344,2.893,23.394,23.394,0,0,0,3.363,3.046,43.305,43.305,0,0,0,7.161,4.13l2.275,1.078.613.3a.807.807,0,0,1,.2.109Z" transform="translate(-35.914 -3.318)" fill="#ff9a6c"/>
      <path id="Path_4568" data-name="Path 4568" d="M68.763,150.922a2.472,2.472,0,0,1-.579-.114,15.823,15.823,0,0,1-1.538-.495,15.233,15.233,0,0,1-4.634-2.6,9.718,9.718,0,0,1-1.088-1.073c-.317-.366-.638-.707-.955-1.024-.628-.638-1.217-1.187-1.716-1.642L57.061,142.9a3.612,3.612,0,0,1-.425-.41,2.606,2.606,0,0,1,.495.331c.3.232.727.574,1.246.989s1.123.989,1.766,1.612c.321.317.653.658.989,1.029a11.148,11.148,0,0,0,1.063,1.039,16.677,16.677,0,0,0,4.54,2.671C67.961,150.665,68.777,150.877,68.763,150.922Z" transform="translate(-36.506 -2.063)" fill="#ff9a6c"/>
      <path id="Path_4569" data-name="Path 4569" d="M65.277,131.342a6.527,6.527,0,0,0-1.246.663A3.531,3.531,0,0,0,63,133.211a5.732,5.732,0,0,0-.574,1.978v.109h-.114a5.287,5.287,0,0,0-2.112.223,3.957,3.957,0,0,0-1.044.495,2.888,2.888,0,0,0-.781.885,3.586,3.586,0,0,0-.623,2.562l.04.168h-.163a1.716,1.716,0,0,0-1.261.445,4.511,4.511,0,0,0-.816,1.014,5.194,5.194,0,0,0-.539,1.034,3.462,3.462,0,0,0-.173.989,3.511,3.511,0,0,0,.242,1.395A4.2,4.2,0,0,1,55.3,145c-.015.025-.04-.035-.089-.1a2.252,2.252,0,0,1-.2-.341,3.284,3.284,0,0,1-.321-1.434,3.462,3.462,0,0,1,.153-1.034,4.886,4.886,0,0,1,.534-1.083,4.452,4.452,0,0,1,.841-1.083,1.978,1.978,0,0,1,1.424-.495l-.124.153a3.754,3.754,0,0,1,.643-2.76,3.057,3.057,0,0,1,.856-.959,4.089,4.089,0,0,1,1.113-.495,5.589,5.589,0,0,1,2.221-.208l-.129.1a5.732,5.732,0,0,1,.633-2.043,3.531,3.531,0,0,1,1.113-1.226,3.837,3.837,0,0,1,.954-.47A1.216,1.216,0,0,1,65.277,131.342Z" transform="translate(-37.17 -5.866)" fill="#ff9a6c"/>
      <path id="Path_4570" data-name="Path 4570" d="M67.381,125.2a9.159,9.159,0,0,1-.628-.776,20.276,20.276,0,0,0-1.835-1.978,18.368,18.368,0,0,0-16.474-4.688,19.464,19.464,0,0,0-2.606.722,8.591,8.591,0,0,1-.94.326,1.023,1.023,0,0,1,.227-.119c.153-.069.376-.188.678-.3a16.5,16.5,0,0,1,2.6-.806,17.982,17.982,0,0,1,16.637,4.738,16.513,16.513,0,0,1,1.79,2.057c.193.252.321.47.42.608a1.286,1.286,0,0,1,.129.218Z" transform="translate(-40.51 -10.715)" fill="#263238"/>
      <path id="Path_4571" data-name="Path 4571" d="M66.138,123.7c-.035.03-.495-.608-1.385-1.543a23.9,23.9,0,0,0-8.1-5.727c-1.177-.495-1.934-.747-1.924-.791a2.176,2.176,0,0,1,.549.129,14.541,14.541,0,0,1,1.444.495,21.192,21.192,0,0,1,8.185,5.772,15.087,15.087,0,0,1,.95,1.2,2.3,2.3,0,0,1,.277.47Z" transform="translate(-37.155 -11.222)" fill="#263238"/>
    </g>
  </g>
</svg>
