<svg id="Man" xmlns="http://www.w3.org/2000/svg" width="93.862" height="201.651" viewBox="0 0 93.862 201.651">
  <path id="Path_3985" data-name="Path 3985" d="M12,28.625a5.588,5.588,0,0,0-.809,3.165c0,1.09.751,3.305,2.69,3.392-.514,3.121,1.483,5.428,4.808,5.433s7.134-5.7,10.216-6.955l8.942-2.36c.79-.184,1.11-1.139,1.1-1.939A6.566,6.566,0,0,1,39,26.939c.393-1.032,1.59-1.585,2-2.617.485-1.168-.257-2.462-1.086-3.392a7.378,7.378,0,0,1-2.108-3.073c-.242-1.129.189-2.423-.373-3.392-.693-1.241-2.515-1.4-3.359-2.544-.431-.552-.538-1.289-.916-1.832a3.384,3.384,0,0,0-3.184-1.071c-1.168.126-2.292.548-3.46.635-1.609.116-3.266-.4-4.808.063-1.7.514-2.738,2.021-3.843,3.485l-1.454,1.691a6.722,6.722,0,0,1-.969.785,11.224,11.224,0,0,0-1.822,1.168,2.845,2.845,0,0,0,.2,4.1,3.044,3.044,0,0,0-2.04,2.99,2.529,2.529,0,0,0,.78,2.142A2.045,2.045,0,0,0,12,28.625Z" transform="translate(12.457 -8.985)" fill="#263238"/>
  <path id="Path_3986" data-name="Path 3986" d="M14.538,27.267a41.232,41.232,0,0,1-1.793-6.916,14.471,14.471,0,0,1,.567-7.061c.126-.339,1.2-2.612,1.561-2.578.257.024-.407,2.147-.276,2.37a12.281,12.281,0,0,1,1.381,7.158,32.248,32.248,0,0,1-1.454,7.027" transform="translate(15.912 -4.603)" fill="#263238"/>
  <path id="Path_3987" data-name="Path 3987" d="M19.176,50.7c-5.263-.64-5.888-9.145-5.888-9.145l-.242-20.772c-.194-5.98,3.126-11.079,9.111-11.108l.552.029a10.706,10.706,0,0,1,10.1,10.4c.136,5.186.223,10.914.044,13.681-.378,5.728-6.16,6.3-6.16,6.3a19.056,19.056,0,0,0-.053,3.014c.33,6.092-6.01,7.72-7.488,7.589Z" transform="translate(17.167 -7.224)" fill="#ffbe9d"/>
  <path id="Path_3988" data-name="Path 3988" d="M22.174,20.146a13.846,13.846,0,0,1-7.347-2.607S16.422,21.8,22.169,21.6Z" transform="translate(21.71 12.729)" fill="#eb996e"/>
  <path id="Path_3989" data-name="Path 3989" d="M19.38,14.517a.824.824,0,0,1-.834.785.785.785,0,0,1-.8-.785.824.824,0,0,1,.834-.785.785.785,0,0,1,.8.785Z" transform="translate(29.108 3.064)" fill="#263238"/>
  <path id="Path_3990" data-name="Path 3990" d="M20.579,13.966c-.107.1-.7-.388-1.585-.436s-1.546.363-1.638.247.068-.237.363-.426a2.249,2.249,0,0,1,2.573.15C20.55,13.7,20.632,13.9,20.579,13.966Z" transform="translate(28.064 1.249)" fill="#263238"/>
  <path id="Path_3991" data-name="Path 3991" d="M17.039,14.517a.824.824,0,0,1-.834.785.785.785,0,0,1-.8-.785.824.824,0,0,1,.834-.785.785.785,0,0,1,.8.785Z" transform="translate(23.167 3.064)" fill="#263238"/>
  <path id="Path_3992" data-name="Path 3992" d="M18.139,13.929c-.111.1-.708-.388-1.585-.436s-1.551.363-1.643.252.068-.237.363-.431a2.263,2.263,0,0,1,1.318-.33,2.176,2.176,0,0,1,1.255.485C18.105,13.687,18.188,13.885,18.139,13.929Z" transform="translate(21.858 1.156)" fill="#263238"/>
  <path id="Path_3993" data-name="Path 3993" d="M16.607,20.491a5.879,5.879,0,0,1,1.454-.179c.228,0,.441-.044.485-.2a1.158,1.158,0,0,0-.116-.674c-.184-.557-.373-1.139-.572-1.75a29.17,29.17,0,0,1-1.255-4.56,28.539,28.539,0,0,1,1.619,4.449c.189.615.373,1.2.543,1.759a1.3,1.3,0,0,1,.073.887.572.572,0,0,1-.388.31,1.454,1.454,0,0,1-.388.034A5.491,5.491,0,0,1,16.607,20.491Z" transform="translate(26.186 1.534)" fill="#263238"/>
  <path id="Path_3994" data-name="Path 3994" d="M15.976,15.339c.145,0,.1.969.877,1.682s1.808.669,1.808.8c0,.058-.237.174-.669.16a2.375,2.375,0,0,1-1.512-.615,2.089,2.089,0,0,1-.674-1.405C15.791,15.572,15.913,15.339,15.976,15.339Z" transform="translate(24.191 7.146)" fill="#263238"/>
  <path id="Path_3995" data-name="Path 3995" d="M18.745,12.782c-.1.233-.969.073-2.011.145s-1.895.305-2.021.082c-.053-.107.1-.325.456-.538a3.31,3.31,0,0,1,1.512-.441,3.349,3.349,0,0,1,1.556.267C18.609,12.472,18.788,12.67,18.745,12.782Z" transform="translate(21.393 -1.274)" fill="#263238"/>
  <path id="Path_3996" data-name="Path 3996" d="M20.339,13.173c-.17.189-.766-.048-1.493-.1s-1.357.063-1.488-.155c-.053-.107.053-.3.334-.485a2.166,2.166,0,0,1,2.423.2C20.339,12.868,20.426,13.076,20.339,13.173Z" transform="translate(28.101 -0.929)" fill="#263238"/>
  <path id="Path_3997" data-name="Path 3997" d="M15.953,14.206c-.1-.044-3.877-1.376-3.964,2.549s3.877,3.2,3.877,3.092S15.953,14.206,15.953,14.206Z" transform="translate(14.501 3.627)" fill="#ffbe9d"/>
  <path id="Path_3998" data-name="Path 3998" d="M13.991,17.43a1.627,1.627,0,0,1-.184.1.712.712,0,0,1-.514,0,1.7,1.7,0,0,1-.751-1.536,2.3,2.3,0,0,1,.213-.969.8.8,0,0,1,.528-.519.344.344,0,0,1,.4.2c.048.111,0,.189.044.194s.087-.063.058-.223a.426.426,0,0,0-.15-.252.485.485,0,0,0-.373-.107.969.969,0,0,0-.727.591A2.283,2.283,0,0,0,12.27,16a1.754,1.754,0,0,0,.969,1.716.751.751,0,0,0,.63-.087C13.981,17.522,14.005,17.435,13.991,17.43Z" transform="translate(15.218 4.531)" fill="#eb996e"/>
  <path id="Path_3999" data-name="Path 3999" d="M31.525,14.067c.645-.344-1.241-2.423-2.792-3.155C26.388,9.812,22.792,9.1,20.606,9.7a9.37,9.37,0,0,0-6.169,4.362A15.474,15.474,0,0,0,12.6,21.923a4.691,4.691,0,0,0,.523,2.423c.538.877,1.585,1.454,1.522,2.632a1.643,1.643,0,0,0,.393,1.207c.708.771,1.6.068,2.011-.649a11.36,11.36,0,0,0,1.1-5.123,11.491,11.491,0,0,0-.2-3.737c-.184-.659-.485-1.279-.635-1.939a2.365,2.365,0,0,1,.305-1.939,2.268,2.268,0,0,1,.325-.315,4.076,4.076,0,0,1,4.071-.722c2.2.809,5.961,2.026,6.959,1.289a5.731,5.731,0,0,0,1.783-1.759Z" transform="translate(16.032 -7.725)" fill="#263238"/>
  <path id="Path_4000" data-name="Path 4000" d="M18.916,9.72a8.622,8.622,0,0,1,6.63.451,4.478,4.478,0,0,1,2.331,2.636,2.569,2.569,0,0,1-1.323,3.034l-.078.048a6,6,0,0,1-4.434-.3c-1.4-.485-2.636-1.391-4.042-1.885a7.943,7.943,0,0,0-4.667-.2,13.042,13.042,0,0,1,5.583-3.79Z" transform="translate(17.917 -8.283)" fill="#263238"/>
  <path id="Path_4001" data-name="Path 4001" d="M12.8,11.894c.034.034.349-.344.969-.785A5.675,5.675,0,0,1,15,10.469a3.649,3.649,0,0,1,1.594-.267,5.331,5.331,0,0,1,2.738,1.129c.606.485.887.887.926.858s-.044-.121-.17-.3a4.168,4.168,0,0,0-.635-.7,5.079,5.079,0,0,0-2.84-1.25,3.727,3.727,0,0,0-1.706.305,5.123,5.123,0,0,0-1.212.712,2.908,2.908,0,0,0-.9.935Z" transform="translate(16.564 -6.575)" fill="#455a64"/>
  <path id="Path_4002" data-name="Path 4002" d="M16.182,9.29a10.313,10.313,0,0,0,1.037.393A8.568,8.568,0,0,1,21.251,13c.368.572.543.969.582.969a3.039,3.039,0,0,0-.422-1.042,7.483,7.483,0,0,0-4.129-3.392,3.174,3.174,0,0,0-1.1-.247Z" transform="translate(25.148 -8.211)" fill="#455a64"/>
  <path id="Path_4003" data-name="Path 4003" d="M28.023,66.441l-9.5,7.643s5.239,11.631,3.62,13.216L6.006,70,20.317,57.49Z" transform="translate(-0.684 114.147)" fill="#8e8ead"/>
  <g id="Group_357" data-name="Group 357" transform="translate(12.395 181.879)" opacity="0.6">
    <path id="Path_4004" data-name="Path 4004" d="M9.441,60.533a.969.969,0,0,0-1.275.218.926.926,0,0,0,.2,1.26,1.023,1.023,0,0,0,1.347-.233.969.969,0,0,0-.359-1.289" transform="translate(-8.005 -60.384)" fill="#fff"/>
  </g>
  <g id="Group_358" data-name="Group 358" transform="translate(5.321 182.885)" opacity="0.6">
    <path id="Path_4005" data-name="Path 4005" d="M6.006,61.934,7.46,60.669,22.483,77.917a1.638,1.638,0,0,1-.349,1.517Z" transform="translate(-6.006 -60.669)" fill="#fff"/>
  </g>
  <path id="Path_4006" data-name="Path 4006" d="M11.373,62.952c-.092.073-.485-.33-1.163-.519s-1.216-.1-1.25-.208.582-.417,1.367-.174S11.47,62.9,11.373,62.952Z" transform="translate(6.811 125.493)" fill="#263238"/>
  <path id="Path_4007" data-name="Path 4007" d="M11.562,63.341c-.068.092-.548-.155-1.173-.131s-1.09.276-1.163.184.378-.572,1.153-.586S11.639,63.269,11.562,63.341Z" transform="translate(7.47 127.647)" fill="#263238"/>
  <path id="Path_4008" data-name="Path 4008" d="M9.515,64.4c-.087-.063.247-.562.921-.751s1.212.053,1.173.155-.514.068-1.066.233S9.6,64.476,9.515,64.4Z" transform="translate(8.189 129.6)" fill="#263238"/>
  <path id="Path_4009" data-name="Path 4009" d="M11.427,62.973c-.107.029-.334-.485-.795-.94s-.969-.712-.916-.824.669,0,1.2.543S11.533,62.954,11.427,62.973Z" transform="translate(8.725 123.489)" fill="#263238"/>
  <g id="Group_359" data-name="Group 359" transform="translate(15.654 173.314)" opacity="0.3">
    <path id="Path_4010" data-name="Path 4010" d="M18.73,66.75l-1.691,1.367L8.926,59.772l2.055-1.808Z" transform="translate(-8.926 -57.964)"/>
  </g>
  <path id="Path_4011" data-name="Path 4011" d="M11.794,63.912c-.034.034-.388-.267-.771-.9a5.579,5.579,0,0,1-.523-1.187,5.152,5.152,0,0,1-.17-.751,1.333,1.333,0,0,1,0-.451.485.485,0,0,1,.431-.446.635.635,0,0,1,.528.213,1.391,1.391,0,0,1,.242.373,3.877,3.877,0,0,1,.291.722A4.241,4.241,0,0,1,12,62.782a1.938,1.938,0,0,1-.271,1.158c-.063,0,.034-.451,0-1.149a4.492,4.492,0,0,0-.523-1.842c-.116-.233-.252-.393-.383-.368-.044,0-.058,0-.082.107a1.153,1.153,0,0,0,0,.33,6.094,6.094,0,0,0,.141.708,6.184,6.184,0,0,0,.417,1.153A8.055,8.055,0,0,1,11.794,63.912Z" transform="translate(10.247 120.97)" fill="#263238"/>
  <path id="Path_4012" data-name="Path 4012" d="M10.672,62.665a1.911,1.911,0,0,1,.659-.969,3.96,3.96,0,0,1,1.086-.727,3.909,3.909,0,0,1,.742-.242.969.969,0,0,1,.969.179.548.548,0,0,1,.073.591,1.648,1.648,0,0,1-.247.378,2.738,2.738,0,0,1-.606.519,2.7,2.7,0,0,1-1.255.422c-.766.048-1.187-.223-1.163-.257a10.023,10.023,0,0,0,1.129-.024,2.748,2.748,0,0,0,1.086-.446,2.52,2.52,0,0,0,.485-.485c.165-.194.257-.4.174-.451a.664.664,0,0,0-.562-.058,3.673,3.673,0,0,0-.678.194,4.274,4.274,0,0,0-1.042.6C10.972,62.325,10.725,62.7,10.672,62.665Z" transform="translate(11.147 122.213)" fill="#263238"/>
  <path id="Path_4013" data-name="Path 4013" d="M20.1,60.817l.921,12.16S8.951,77.111,8.9,79.374l23.655-.058-.659-19Z" transform="translate(6.669 121.327)" fill="#8e8ead"/>
  <g id="Group_360" data-name="Group 360" transform="translate(33.849 192.977)" opacity="0.6">
    <path id="Path_4014" data-name="Path 4014" d="M15.176,63.529a.969.969,0,0,1,.712,1.076.935.935,0,0,1-1.061.717,1.018,1.018,0,0,1-.746-1.144.969.969,0,0,1,1.183-.62" transform="translate(-14.068 -63.521)" fill="#fff"/>
  </g>
  <g id="Group_361" data-name="Group 361" transform="translate(15.45 198.728)" opacity="0.6">
    <path id="Path_4015" data-name="Path 4015" d="M32.644,67.06l-.068-1.914-22.841.848a1.633,1.633,0,0,0-.867,1.294Z" transform="translate(-8.868 -65.146)" fill="#fff"/>
  </g>
  <path id="Path_4016" data-name="Path 4016" d="M12.217,63.956c0,.116.586.145,1.173.485s.9.819,1.008.771-.1-.708-.809-1.12S12.188,63.85,12.217,63.956Z" transform="translate(15.082 130.241)" fill="#263238"/>
  <path id="Path_4017" data-name="Path 4017" d="M11.528,64.221c0,.111.485.291.9.761s.548.969.659.969.165-.664-.359-1.241S11.528,64.109,11.528,64.221Z" transform="translate(13.334 131.1)" fill="#263238"/>
  <path id="Path_4018" data-name="Path 4018" d="M11.879,66.444c.107,0,.242-.562-.078-1.183s-.872-.853-.916-.756.3.426.557.94S11.763,66.434,11.879,66.444Z" transform="translate(11.694 131.902)" fill="#263238"/>
  <path id="Path_4019" data-name="Path 4019" d="M12.247,63.393c.053.1.577-.078,1.231-.058s1.173.2,1.226.1-.451-.485-1.221-.485S12.189,63.3,12.247,63.393Z" transform="translate(15.149 128.012)" fill="#263238"/>
  <g id="Group_362" data-name="Group 362" transform="translate(27.3 188.759)" opacity="0.3">
    <path id="Path_4020" data-name="Path 4020" d="M12.217,62.678l.16,2.166,11.437-.2-.082-2.317Z" transform="translate(-12.217 -62.329)"/>
  </g>
  <path id="Path_4021" data-name="Path 4021" d="M12.2,63.835a2.2,2.2,0,0,0,1.183-.053,5.263,5.263,0,0,0,1.226-.431,5.6,5.6,0,0,0,.664-.388,1.5,1.5,0,0,0,.349-.291.485.485,0,0,0,0-.615.635.635,0,0,0-.514-.247,1.591,1.591,0,0,0-.441.082,4.045,4.045,0,0,0-.727.281,4.187,4.187,0,0,0-1.061.761,2.093,2.093,0,0,0-.659.969c.039,0,.305-.339.848-.78a4.846,4.846,0,0,1,1.032-.635,4.526,4.526,0,0,1,.669-.237c.247-.078.485-.087.533.024v.131a1.052,1.052,0,0,1-.247.228,5.724,5.724,0,0,1-.611.383,6.422,6.422,0,0,1-1.129.485,8.308,8.308,0,0,0-1.115.334Z" transform="translate(15.052 125.113)" fill="#263238"/>
  <path id="Path_4022" data-name="Path 4022" d="M13.444,65.1a1.939,1.939,0,0,0,.267-1.158A3.906,3.906,0,0,0,13.5,62.65a4.4,4.4,0,0,0-.33-.708.969.969,0,0,0-.78-.567.557.557,0,0,0-.485.349,1.706,1.706,0,0,0-.107.441,2.738,2.738,0,0,0,.029.8,2.772,2.772,0,0,0,.557,1.2c.485.591.969.712.969.674A4.589,4.589,0,0,1,12.6,64a2.738,2.738,0,0,1-.417-1.1,2.336,2.336,0,0,1,0-.688c0-.252.111-.456.208-.436a.817.817,0,0,1,.426.373,3.674,3.674,0,0,1,.32.63,4.236,4.236,0,0,1,.276,1.173C13.482,64.642,13.376,65.083,13.444,65.1Z" transform="translate(13.972 124.011)" fill="#263238"/>
  <path id="Path_4023" data-name="Path 4023" d="M9.579,35.724s2.564,36.406,3.562,44.756c.635,5.307,3.7,49.918,3.7,49.918l15.436-.485L29.788,59.239V37.581Z" transform="translate(8.387 58.894)" fill="#263238"/>
  <path id="Path_4024" data-name="Path 4024" d="M8.994,113.1,19.21,123.471s30.934-30.144,32.19-32.4.882-30.144.882-30.144l-.9-24.988L29.291,37.06l2.181,24.857,2.942,22.87Z" transform="translate(6.902 59.429)" fill="#263238"/>
  <path id="Path_4025" data-name="Path 4025" d="M37.181,89.56l-.315.33-.969.969-3.6,3.586L19.4,107.2l-.078.078-.073-.078L9.029,96.849l-.082-.082.078-.087,8.239-9.208L34.477,68.362v.087c-.926-7.8-1.7-14.311-2.234-18.9-.262-2.278-.485-4.066-.611-5.3-.063-.606-.116-1.071-.15-1.4a1.1,1.1,0,0,0-.034-.359.334.334,0,0,1,0-.121,1.085,1.085,0,0,1,0,.121l.053.359c.044.325.107.79.184,1.391.155,1.231.383,3.019.669,5.287L34.676,68.4v.048l-.034.039L17.456,87.656,9.218,96.864V96.7c3.664,3.717,7.1,7.221,10.2,10.366h-.15L32.248,94.358l3.644-3.543.969-.931A2.858,2.858,0,0,1,37.181,89.56Z" transform="translate(6.78 75.767)" fill="#455a64"/>
  <path id="Path_4026" data-name="Path 4026" d="M20.7,51.906a11.715,11.715,0,0,1-2.254-.969,11.947,11.947,0,0,1-2.137-1.2,12.115,12.115,0,0,1,2.249.969,12.142,12.142,0,0,1,2.142,1.2Z" transform="translate(25.461 94.472)" fill="#455a64"/>
  <path id="Path_4027" data-name="Path 4027" d="M18.582,50.933a5.815,5.815,0,0,1-.93.092l-2.486.131h-.107v-.111c0-1.284,0-2.855-.044-4.551-.039-2.2-.126-4.187-.189-5.632l-.073-1.706a2.791,2.791,0,0,1,0-.63,3.45,3.45,0,0,1,.092.625c.044.4.1.969.155,1.7.111,1.454.223,3.436.267,5.636.034,1.7,0,3.271,0,4.56l-.107-.107,2.491-.044A5.288,5.288,0,0,1,18.582,50.933Z" transform="translate(21.478 66.008)" fill="#455a64"/>
  <path id="Path_4028" data-name="Path 4028" d="M16.282,38.78a.441.441,0,0,1,.242-.024,1.066,1.066,0,0,1,.606.305,1.142,1.142,0,1,1-1.653,1.575,1.192,1.192,0,0,1-.237-.969,1.057,1.057,0,0,1,.32-.6c.121-.107.213-.126.218-.116a1.391,1.391,0,0,0-.363.737,1.052,1.052,0,0,0,.237.8.969.969,0,0,0,1.614-.485A1.047,1.047,0,0,0,17,39.217a1.454,1.454,0,0,0-.717-.436Z" transform="translate(22.702 66.578)" fill="#455a64"/>
  <path id="Path_4029" data-name="Path 4029" d="M21.491,18.811S25.5,23.2,36.03,19.7l6.644,9.693L49.5,84.712,27.118,88.323,9.671,85.556l5.564-56.14Z" transform="translate(8.62 15.959)" fill="#e0e0e0"/>
  <path id="Path_4030" data-name="Path 4030" d="M26.149,20.8c.853,1.871,2.908,6.271,2.908,6.271s-5.2,34.487-5.743,39.939c-.6,6,3.116,27.271,3.116,27.271L8.218,91.431l5.127-56.218L10.859,24.362A57.956,57.956,0,0,1,19.708,21.6l3.824-.543,1.057-1.75.7-1.057Z" transform="translate(4.931 14.548)" fill="#8e8ead"/>
  <g id="Group_363" data-name="Group 363" transform="translate(15.087 77.403)" opacity="0.3">
    <path id="Path_4031" data-name="Path 4031" d="M25.7,30.86c-2.229-.048-8.723,1.822-10.933,2.065a10.466,10.466,0,0,0-5.7,1.885l-.3,2.942a15.116,15.116,0,0,0,4.182,1.032,5.06,5.06,0,0,0,4.1-.9,15.028,15.028,0,0,1,1.725-1.614c.678-.407,1.289-.969,2-.848C26.159,36.468,27.526,31.834,25.7,30.86Z" transform="translate(-8.765 -30.859)"/>
  </g>
  <path id="Path_4032" data-name="Path 4032" d="M12.663,19.15a2.191,2.191,0,0,1,.17.485c.092.33.218.8.368,1.4.3,1.183.7,2.821,1.124,4.633.155.659.305,1.3.441,1.895h-.233a7.4,7.4,0,0,1,.7-1.817,3.843,3.843,0,0,1,.931-1.236.9.9,0,0,1,.577-.174.746.746,0,0,1,.417.16c.2.17.174.334.17.325a.487.487,0,0,0-.218-.257.717.717,0,0,0-.858.073,3.94,3.94,0,0,0-.834,1.207,7.681,7.681,0,0,0-.649,1.774l-.116.485-.116-.485c-.141-.591-.3-1.231-.451-1.895-.426-1.808-.8-3.451-1.057-4.643-.126-.6-.228-1.081-.291-1.415A2.031,2.031,0,0,1,12.663,19.15Z" transform="translate(16.216 16.818)" fill="#263238"/>
  <path id="Path_4033" data-name="Path 4033" d="M17.16,32.3l4.619,1.342a26.039,26.039,0,0,1,1.764,7.522c.271,4.022-1.493,33.183-1.493,33.183l-14.8-.64L6.8,72.352a5.384,5.384,0,0,1-.262-2.132c.368-4.788,1.027-21.421,4.623-31.1A13.836,13.836,0,0,1,17.16,32.3Z" transform="translate(0.622 50.192)" fill="#455a64"/>
  <path id="Path_4034" data-name="Path 4034" d="M16.031,19.631s1.4,2.651,1.236,8.491S9,74.589,9,74.589l5.161.456s5.249-33.75,5.52-37.143,2.171-15.775,0-18.479C19.685,19.423,17.533,18.488,16.031,19.631Z" transform="translate(6.926 16.598)" fill="#455a64"/>
  <path id="Path_4035" data-name="Path 4035" d="M13.648,33.161S8.216,39.921,6.437,52.682l2.394.519Z" transform="translate(0.411 52.385)" fill="#455a64"/>
  <path id="Path_4036" data-name="Path 4036" d="M16.811,33.985a.9.9,0,0,1-.024.252c-.029.189-.063.422-.107.7-.1.611-.237,1.488-.388,2.583-.32,2.181-.611,5.224-1.236,8.544-.165.829-.325,1.633-.519,2.423a5.714,5.714,0,0,1-.94,2.128,2.37,2.37,0,0,1-1.866.969,10.454,10.454,0,0,1-1.808-.213c-1.1-.189-1.939-.446-2.559-.552l-.7-.136a.8.8,0,0,1-.237-.063.863.863,0,0,1,.247,0l.708.092c.615.078,1.483.31,2.569.485a10.56,10.56,0,0,0,1.774.179,2.147,2.147,0,0,0,1.687-.887,5.525,5.525,0,0,0,.887-2.04c.184-.766.349-1.575.485-2.4.62-3.305.969-6.344,1.3-8.525.174-1.09.344-1.968.485-2.573.063-.276.111-.485.155-.693A.916.916,0,0,1,16.811,33.985Z" transform="translate(0.394 54.479)" fill="#263238"/>
  <path id="Path_4037" data-name="Path 4037" d="M14.854,33.545a5.437,5.437,0,0,1-.044.8c-.053.557-.126,1.284-.208,2.166-.048.485-.1.969-.155,1.493a14.149,14.149,0,0,1-.242,1.725,2.806,2.806,0,0,1-1.047,1.643,2.447,2.447,0,0,1-2.035.436,2.336,2.336,0,0,1-1.609-1.333,3.994,3.994,0,0,1-.174-1.939,29.467,29.467,0,0,1,.485-3.2c.194-.906.344-1.628.485-2.128a5.142,5.142,0,0,1,.237-.766,5.2,5.2,0,0,1-.141.79c-.1.485-.247,1.231-.393,2.132s-.3,1.987-.407,3.194a3.8,3.8,0,0,0,.17,1.817,2.1,2.1,0,0,0,1.454,1.183,2.2,2.2,0,0,0,1.832-.393,2.53,2.53,0,0,0,.969-1.5,14.745,14.745,0,0,0,.189-1.682c.068-.533.126-1.032.184-1.493.116-.877.213-1.6.291-2.157A4.536,4.536,0,0,1,14.854,33.545Z" transform="translate(7.653 50.557)" fill="#263238"/>
  <path id="Path_4038" data-name="Path 4038" d="M21.566,48.774a5.555,5.555,0,0,1-.548-.533c-.339-.349-.829-.853-1.454-1.454s-1.381-1.318-2.249-2.074c-.436-.378-.9-.766-1.386-1.163a4.294,4.294,0,0,0-1.628-.9,1.638,1.638,0,0,0-.906.039,2.578,2.578,0,0,0-.78.485l-1.367,1.178-2.331,2-1.59,1.323a5.4,5.4,0,0,1-.6.485,3.936,3.936,0,0,1,.538-.538L8.8,46.229l2.3-2.035L12.459,43a2.942,2.942,0,0,1,.853-.514,1.856,1.856,0,0,1,1.042-.048,4.483,4.483,0,0,1,1.73.969c.485.4.969.795,1.381,1.178.867.771,1.614,1.5,2.224,2.123s1.081,1.153,1.4,1.527a4.037,4.037,0,0,1,.475.543Z" transform="translate(1.145 75.795)" fill="#263238"/>
  <path id="Path_4039" data-name="Path 4039" d="M12.3,35.152c.068,0-.674,5.738-1.657,12.8S8.8,60.721,8.737,60.712s.669-5.738,1.653-12.8S12.241,35.142,12.3,35.152Z" transform="translate(6.238 57.441)" fill="#263238"/>
  <path id="Path_4040" data-name="Path 4040" d="M12.391,35.409a2.835,2.835,0,0,1-.087-.32,1.371,1.371,0,0,0-.485-.678,1.26,1.26,0,0,0-1.178-.155,1.231,1.231,0,0,0,0,2.307,1.265,1.265,0,0,0,1.178-.16,1.347,1.347,0,0,0,.485-.678,2.541,2.541,0,0,1,.087-.315.688.688,0,0,1,0,.339,1.367,1.367,0,0,1-.485.8,1.447,1.447,0,1,1-1.362-2.51,1.41,1.41,0,0,1,1.362.233,1.338,1.338,0,0,1,.485.8C12.434,35.287,12.405,35.409,12.391,35.409Z" transform="translate(8.371 54.402)" fill="#263238"/>
  <path id="Path_4042" data-name="Path 4042" d="M24.433,38.534c0,.053,8.723,9.019,8.723,9.019l5.278-2.1L32.1,32.409l-5.287-1.88L24.443,34.74Z" transform="translate(46.096 45.703)" fill="#ffbe9d"/>
  <path id="Path_4044" data-name="Path 4044" d="M22.223,20.065s3.213.969,5.064,5.292,9.261,19.812,9.261,19.812L44.424,59.32a11.407,11.407,0,0,0-6.174,2.006,5.424,5.424,0,0,0-2.317,4.633s-2.287-.485-2.612-1.851a6.14,6.14,0,0,1,0-2.627L30.53,57.929l-1.7-3.392L23.5,45.552,19.892,31.226Z" transform="translate(34.567 19.14)" fill="#8e8ead"/>
  <path id="Path_4045" data-name="Path 4045" d="M36.288,95.969s-2.864-29.592-2.729-29.946-.31-17.321,0-17.583-1.716-24.208-1.716-24.208L21.293,20.976h.141L19.01,18.422s-2.947,9.78-2.908,9.94c.853,3.368,3.911,53.456,3.911,53.456,0,.359,1.2,14.132,1.2,14.132Z" transform="translate(24.946 14.972)" fill="#8e8ead"/>
  <path id="Path_4046" data-name="Path 4046" d="M26.646,37.35a1.939,1.939,0,0,1-.359.276l-1.061.751h-.058l-5.607-2.709-.058-.029v-.053c-.136-1.822-.291-3.877-.456-6.058-.145-2.045-.286-3.989-.407-5.728v-.1h.1a14.336,14.336,0,0,1,5.99.039,13.478,13.478,0,0,1,1.648.485,2.239,2.239,0,0,1,.557.247s-.2-.063-.582-.174a16.405,16.405,0,0,0-1.653-.407,14.713,14.713,0,0,0-5.908.048l.087-.121c.131,1.745.276,3.683.431,5.728.155,2.176.3,4.241.431,6.058l-.063-.092,5.554,2.806h-.063l1.1-.7A2.3,2.3,0,0,1,26.646,37.35Z" transform="translate(31.389 27.609)" fill="#263238"/>
  <path id="Path_4047" data-name="Path 4047" d="M20.976,22.461a3.754,3.754,0,0,1,.078.717c.034.485.068,1.134.1,1.939.058,1.657.073,3.95.058,6.48s0,4.822,0,6.48v1.963a3.827,3.827,0,0,1-.024.722,3.832,3.832,0,0,1-.078-.717c-.034-.485-.063-1.134-.092-1.963-.063-1.662-.078-3.955-.063-6.484s.029-4.817,0-6.475V23.159A4.2,4.2,0,0,1,20.976,22.461Z" transform="translate(37.244 25.225)" fill="#263238"/>
  <path id="Path_4048" data-name="Path 4048" d="M30.423,29.921c0,.048-.533.184-1.342.557a10.177,10.177,0,0,0-2.835,1.982,10.042,10.042,0,0,0-1.982,2.83c-.378.809-.519,1.352-.562,1.342a1.236,1.236,0,0,1,.063-.393,6.725,6.725,0,0,1,.334-1.023,9.063,9.063,0,0,1,4.909-4.9,6.7,6.7,0,0,1,1.018-.334A1.454,1.454,0,0,1,30.423,29.921Z" transform="translate(44.236 44.163)" fill="#263238"/>
  <path id="Path_4049" data-name="Path 4049" d="M28.423,29.758a22.73,22.73,0,0,0-2.656,1.682,24.017,24.017,0,0,0-2.229,2.215,2.8,2.8,0,0,1,.485-.8,9.13,9.13,0,0,1,1.58-1.614,9.47,9.47,0,0,1,1.939-1.187,2.709,2.709,0,0,1,.882-.3Z" transform="translate(43.822 43.749)" fill="#263238"/>
  <path id="Path_4050" data-name="Path 4050" d="M21.32,19.15a3.073,3.073,0,0,1-.034.659c-.034.422-.1,1.027-.184,1.779-.17,1.5-.431,3.577-.79,5.854-.126.824-.262,1.614-.393,2.346l-.063.349-.165-.315a23.512,23.512,0,0,0-1.2-2.06c-.194-.3-.388-.577-.572-.834a2.971,2.971,0,0,0-.552-.645.858.858,0,0,0-.6-.228.741.741,0,0,0-.441.208.562.562,0,0,0-.15.383s-.111-.179.092-.441a.809.809,0,0,1,.485-.267.969.969,0,0,1,.712.223,3.174,3.174,0,0,1,.6.659c.194.252.4.528.6.829A20.451,20.451,0,0,1,19.9,29.71l-.223.034c.121-.732.247-1.522.383-2.341.354-2.278.645-4.362.863-5.816.107-.708.194-1.3.262-1.769a3.154,3.154,0,0,1,.131-.669Z" transform="translate(25.06 16.818)" fill="#263238"/>
  <g id="Group_364" data-name="Group 364" transform="translate(41.65 42.804)" opacity="0.3">
    <path id="Path_4051" data-name="Path 4051" d="M19.4,24.709l-.485,2.132L17.4,22.6a2.908,2.908,0,0,0-.383-.8.969.969,0,0,0-.746-.422.649.649,0,0,1,1.086,0A31.969,31.969,0,0,1,19.4,24.709Z" transform="translate(-16.272 -21.082)"/>
  </g>
  <g id="Group_365" data-name="Group 365" transform="translate(58.205 49.712)" opacity="0.3">
    <path id="Path_4052" data-name="Path 4052" d="M21.174,38.455a31.073,31.073,0,0,0-.223-15.421Z" transform="translate(-20.951 -23.034)"/>
  </g>
  <path id="Path_4053" data-name="Path 4053" d="M26.6,24.794a6.693,6.693,0,0,1-1.153-.136c-.708-.1-1.687-.213-2.772-.276s-2.074-.053-2.792-.034a6.4,6.4,0,0,1-1.158,0,4.406,4.406,0,0,1,1.149-.184,20.127,20.127,0,0,1,5.6.315,4.3,4.3,0,0,1,1.124.315Z" transform="translate(31.615 29.367)" fill="#263238"/>
  <path id="Path_4054" data-name="Path 4054" d="M28.759,39.755a2.026,2.026,0,0,1-.485-.223c-.3-.15-.727-.393-1.246-.7a45.7,45.7,0,0,1-7.575-5.612c-.446-.412-.8-.751-1.032-.994a2.134,2.134,0,0,1-.349-.393,2.084,2.084,0,0,1,.417.32l1.061.916c.916.78,2.2,1.837,3.674,2.932S26.088,38.02,27.1,38.67l1.2.766a2.171,2.171,0,0,1,.456.32Z" transform="translate(29.945 49.023)" fill="#263238"/>
  <path id="Path_4055" data-name="Path 4055" d="M18.019,19.936s-2.268.417-4.42,4.938S5.912,44.415,5.554,45.418L16.865,52.94l6.383-18.93Z" transform="translate(-1.832 18.814)" fill="#8e8ead"/>
  <path id="Path_4056" data-name="Path 4056" d="M26.592,44.924l.1-6.417-7.3-2.477,1.376-4.541L9.508,26.159S4.473,39.346,4.5,41.765c0,.892,2.016,5.438,6.208,5.845,2.729.267,8.9.625,13.051.775a2.767,2.767,0,0,0,2.83-3.46Z" transform="translate(-4.502 34.612)" fill="#8e8ead"/>
  <path id="Path_4057" data-name="Path 4057" d="M13.482,24.8c.068,0-.921,3.359-2.205,7.454s-2.38,7.4-2.423,7.381.921-3.359,2.205-7.459S13.414,24.781,13.482,24.8Z" transform="translate(6.543 31.174)" fill="#263238"/>
  <path id="Path_4058" data-name="Path 4058" d="M18.223,30.586a1.774,1.774,0,0,1-.485-.107c-.3-.087-.732-.218-1.27-.388s-1.149-.417-1.856-.6a12.671,12.671,0,0,0-2.336-.431,10.555,10.555,0,0,0-4.26.485c-1.047.363-1.633.737-1.657.693a1.847,1.847,0,0,1,.4-.281,8.282,8.282,0,0,1,1.2-.582,9.882,9.882,0,0,1,4.362-.548,14.607,14.607,0,0,1,4.231,1.12c.523.189.969.344,1.241.46A1.828,1.828,0,0,1,18.223,30.586Z" transform="translate(0.213 41.26)" fill="#263238"/>
  <path id="Path_4059" data-name="Path 4059" d="M7.67,27.82a2.39,2.39,0,0,1,.863.262,6.262,6.262,0,0,1,1.788,1.246,6.155,6.155,0,0,1,1.236,1.793,2.166,2.166,0,0,1,.262.863,10.177,10.177,0,0,0-1.677-2.476A10.3,10.3,0,0,0,7.67,27.82Z" transform="translate(3.54 38.83)" fill="#263238"/>
  <path id="Path_4060" data-name="Path 4060" d="M12.772,30.018c-.048,0,.039-.606,0-1.58A11.534,11.534,0,0,0,10.15,21.46c-.62-.751-1.086-1.149-1.052-1.183s.131.078.344.252a7.231,7.231,0,0,1,.843.814,10.177,10.177,0,0,1,1.032,1.386,11.936,11.936,0,0,1,.969,1.9,11.205,11.205,0,0,1,.543,2.06,9.518,9.518,0,0,1,.126,1.73,8,8,0,0,1-.092,1.168,1.59,1.59,0,0,1-.092.431Z" transform="translate(7.162 19.665)" fill="#263238"/>
  <g id="Group_366" data-name="Group 366" transform="translate(5.724 69.143)" opacity="0.3">
    <path id="Path_4061" data-name="Path 4061" d="M10.99,28.528a7.667,7.667,0,0,0-4.638,1.764.528.528,0,0,0-.233.354.383.383,0,0,0,.393.349,1.226,1.226,0,0,0,.557-.184,11.079,11.079,0,0,1,8.5-.669L15.725,30a7.652,7.652,0,0,0-4.735-1.473Z" transform="translate(-6.119 -28.525)"/>
  </g>
  <path id="Path_4062" data-name="Path 4062" d="M22.193,31.829a.966.966,0,0,1-.024.174,2.074,2.074,0,0,1-.141.485A2.632,2.632,0,0,1,19.523,34.1H18.069c-1.023-.024-2.142-.068-3.315-.136-2.35-.131-4.468-.3-6-.441-.766-.073-1.386-.136-1.817-.184a3.222,3.222,0,0,1-.659-.107,3.521,3.521,0,0,1,.669,0l1.822.1,6,.368c1.173.068,2.287.116,3.305.155l1.454.039a2.384,2.384,0,0,0,1.183-.228,2.54,2.54,0,0,0,1.241-1.216A2.908,2.908,0,0,0,22.13,32C22.159,31.883,22.183,31.825,22.193,31.829Z" transform="translate(-0.006 49.006)" fill="#263238"/>
  <path id="Path_4063" data-name="Path 4063" d="M13.194,46.986l6.3.233c.63.024,1.216-.552,1.488-1.454l4.934-17.306a1.639,1.639,0,0,0-1.425-2.224l-8.336-.523a2.044,2.044,0,0,0-2.3,1.585l-3.247,13.7C9.9,43.9,11.221,46.913,13.194,46.986Z" transform="translate(10.515 33.472)" fill="#263238"/>
  <path id="Path_4064" data-name="Path 4064" d="M9.676,32.738l1.677-3.552,2.758-.921-.843,3.392a4.5,4.5,0,0,0,3.64.276c.935-.519,4.594-4.153,5.283-3.8s1.309,1.183.678,1.982-4.061,3.276-3.354,4.008,4.662-2.477,5.816-2.239,1.871.916,1.221,1.41a11.558,11.558,0,0,0-2.52,2.787c.068.872.485,2.108.1,2.326a13.9,13.9,0,0,1-2.908,1.008,30.385,30.385,0,0,0-3.039,1.134,6.785,6.785,0,0,1-4.774.107l-.79-.276a3.053,3.053,0,0,1-2.04-2.908l.029-2.617Z" transform="translate(8.634 39.553)" fill="#ffbe9d"/>
  <path id="Path_4065" data-name="Path 4065" d="M10.873,37.385a5.437,5.437,0,0,0,.267-.838l.62-2.307c.262-.969.562-2.147.892-3.426.165-.649.334-1.328.514-2.026a4.531,4.531,0,0,1,.756-2.011,2.525,2.525,0,0,1,1.992-.514l2.084.16,3.533.252,2.384.145a5.051,5.051,0,0,0,.877,0,5.119,5.119,0,0,0-.868-.126l-2.375-.237-3.533-.315-2.089-.174a4.735,4.735,0,0,0-1.134.048,1.939,1.939,0,0,0-1.081.548,2.535,2.535,0,0,0-.548,1.09c-.1.368-.184.727-.271,1.076-.174.7-.339,1.386-.485,2.035-.31,1.279-.591,2.447-.829,3.441s-.4,1.73-.538,2.331a5.278,5.278,0,0,0-.17.848Z" transform="translate(11.672 34.087)" fill="#455a64"/>
  <path id="Path_4066" data-name="Path 4066" d="M13.011,27.263a.62.62,0,1,0,.615-.62A.62.62,0,0,0,13.011,27.263Z" transform="translate(17.1 35.839)" fill="#fff"/>
  <g id="Group_386" data-name="Group 386" transform="translate(78.569 90.269)">
    <g id="Group_384" data-name="Group 384" transform="translate(4.77 15.918)" opacity="0.3">
      <path id="Path_4211" data-name="Path 4211" d="M120.225,69.676a14.172,14.172,0,0,0-8.481.893,19.027,19.027,0,0,0,1.967,2.783c.63.784,1.575,1.616,2.524,1.264a2.371,2.371,0,0,1,.784-.267c.428,0,.715.424.953.784a9.358,9.358,0,0,0,2.383,2.452c.5.359,1.268.638,1.676.174a1.321,1.321,0,0,0,.23-.868A17.275,17.275,0,0,0,120.225,69.676Z" transform="translate(-111.744 -69.391)"/>
    </g>
    <path id="Path_4212" data-name="Path 4212" d="M108.1,58.189l2.423-.727A6.547,6.547,0,0,1,116.2,58.54a20.542,20.542,0,0,1,3.179,2.73l2.076,2.791a2.4,2.4,0,0,1,.4,2.132.7.7,0,0,1-.234.4l-.735,1.066s.218,1.616.226,2.645a7.833,7.833,0,0,1-.994,2.787l1.963,5.359a1.329,1.329,0,0,1-.319,1.438.561.561,0,0,1-.808.044c-.771-.622-2.827-4.992-2.827-4.992l-.808-.937-1.119-.279s.2,1.616-.525,1.935l-3.074-2.649-2.379-4.039s-.065-5.525-.662-7.052Z" transform="translate(-108.098 -57.225)" fill="#ffbe9d"/>
    <path id="Path_4213" data-name="Path 4213" d="M116.184,66.123a8.845,8.845,0,0,1,1.434,4.237c-.061,0-.246-.977-.642-2.141S116.131,66.156,116.184,66.123Z" transform="translate(-105.606 -54.481)" fill="#eb996e"/>
    <path id="Path_4214" data-name="Path 4214" d="M117.544,64.228a2.388,2.388,0,0,1,.4,1.171,3.368,3.368,0,0,1,.121,1.236,4.039,4.039,0,0,1-.327-1.191A7.269,7.269,0,0,1,117.544,64.228Z" transform="translate(-105.185 -55.065)" fill="#eb996e"/>
    <path id="Path_4215" data-name="Path 4215" d="M117.386,73.069a10.873,10.873,0,0,1-.67-1.1c-.4-.687-.977-1.616-1.644-2.629-.331-.509-.658-.985-.957-1.418a4.309,4.309,0,0,0-.9-1.018,2.165,2.165,0,0,0-1.163-.4.646.646,0,0,1,.347-.036,1.89,1.89,0,0,1,.9.335,4.124,4.124,0,0,1,.977,1.026c.311.428.642.9.977,1.414.666,1.014,1.212,1.967,1.6,2.674A5.976,5.976,0,0,1,117.386,73.069Z" transform="translate(-106.881 -54.378)" fill="#eb996e"/>
    <path id="Path_4216" data-name="Path 4216" d="M112.606,66.846c.032,0,.065.319.226.808a4.62,4.62,0,0,0,1.014,1.7,5.892,5.892,0,0,1,.767.832,1.692,1.692,0,0,1,.283.909,1.8,1.8,0,0,1-.125.844c-.036,0,.02-.327-.024-.832a1.615,1.615,0,0,0-.291-.808,6.9,6.9,0,0,0-.763-.808,4.119,4.119,0,0,1-1-1.8,1.9,1.9,0,0,1-.085-.844Z" transform="translate(-106.713 -54.258)" fill="#eb996e"/>
    <path id="Path_4217" data-name="Path 4217" d="M109.656,63.466c-.061,0,0-.961-.182-2.124a19.077,19.077,0,0,1-.372-2.1,2.4,2.4,0,0,1,.242.578,8.707,8.707,0,0,1,.339,1.49,5.441,5.441,0,0,1-.028,2.153Z" transform="translate(-107.793 -56.601)" fill="#eb996e"/>
  </g>
</svg>
