<svg xmlns="http://www.w3.org/2000/svg" width="26.672" height="26.667" viewBox="0 0 26.672 26.667">
  <g id="Post" transform="translate(-5 -8.333)">
    <path id="Path_5334" data-name="Path 5334" d="M28.333,32.033h-20V11.667h20l.793-3.333H8.333A3.343,3.343,0,0,0,5,11.667v20A3.343,3.343,0,0,0,8.333,35h20a3.343,3.343,0,0,0,3.333-3.333v-20a3.746,3.746,0,0,0-.538-2.194,3.984,3.984,0,0,0-2-1.14l-.793,3.333Z" fill="#5b618a"/>
    <rect id="Rectangle_509" data-name="Rectangle 509" width="13.333" height="3.333" transform="translate(11.667 15)" fill="#5b618a"/>
    <path id="Path_5336" data-name="Path 5336" d="M11.667,20v3.333H25V20H11.667Z" fill="#5b618a"/>
    <rect id="Rectangle_510" data-name="Rectangle 510" width="13.333" height="3.333" transform="translate(11.667 25)" fill="#5b618a"/>
  </g>
</svg>
