<svg xmlns="http://www.w3.org/2000/svg" width="49.736" height="67.47" viewBox="0 0 49.736 67.47">
  <g id="Right_icon" data-name="Right icon" transform="translate(-1270.554 -65.401)">
    <g id="freepik--background-complete--inject-95" transform="translate(1270.554 131.072) rotate(-87)">
      <path id="Intersection_12" data-name="Intersection 12" d="M26.561,23.819a7.377,7.377,0,1,0-12.749,0H2.01L-.042,22.357.3,15.816,3.565,13.96a16.694,16.694,0,0,1,1.516-3.1L4.56,7.719,9.441,3.337l3.092.841A16.924,16.924,0,0,1,15.772,3l2.19-3.04L24.53.29l1.86,3.248a16.91,16.91,0,0,1,3.1,1.507l3.165-.521,4.4,4.853-.849,3.081a16.615,16.615,0,0,1,1.185,3.225l3.051,2.179-.313,5.959Z" transform="translate(26.551 24.561) rotate(-3)" fill="#e8deeb"/>
      <path id="Path_4223" data-name="Path 4223" d="M106.5,71.3h-.022l-5.369-.183a.645.645,0,0,1-.539-.31l-1.448-2.434a14.831,14.831,0,0,1-2.257-1.048l-2.316.4a.651.651,0,0,1-.6-.2L90.287,63.6a.651.651,0,0,1-.155-.62l.586-2.3a14.09,14.09,0,0,1-.887-2.316L87.5,56.758a.651.651,0,0,1-.282-.561l.183-5.369a.663.663,0,0,1,.31-.539l2.44-1.448a14.05,14.05,0,0,1,1.045-2.248l-.428-2.334a.654.654,0,0,1,.2-.6L94.888,40a.654.654,0,0,1,.62-.158l2.306.589a14.208,14.208,0,0,1,2.31-.89l1.612-2.334a.62.62,0,0,1,.561-.282l5.366.186a.654.654,0,0,1,.542.31l1.448,2.437a14.387,14.387,0,0,1,2.238,1.048l2.344-.431a.648.648,0,0,1,.6.2l3.667,3.925a.657.657,0,0,1,.155.62l-.589,2.3a14.444,14.444,0,0,1,.893,2.31l2.331,1.612a.651.651,0,0,1,.282.561l-.183,5.366a.67.67,0,0,1-.31.543l-2.44,1.448a14.416,14.416,0,0,1-1.045,2.244l.428,2.337a.648.648,0,0,1-.2.6L113.872,68.2a.651.651,0,0,1-.62.155l-2.294-.586a14.721,14.721,0,0,1-2.322.89l-1.6,2.331A.66.66,0,0,1,106.5,71.3Zm-4.988-1.479,4.65.158,1.55-2.229a.62.62,0,0,1,.369-.26,13.591,13.591,0,0,0,2.526-.97h0a.67.67,0,0,1,.453-.047l2.17.555,3.41-3.178-.391-2.241a.648.648,0,0,1,.081-.456,12.89,12.89,0,0,0,1.132-2.427.66.66,0,0,1,.291-.366l2.334-1.383.158-4.65-2.232-1.55a.654.654,0,0,1-.251-.332c0-.016,0-.034,0-.053a13.33,13.33,0,0,0-.967-2.48.654.654,0,0,1-.05-.459l.558-2.195-3.178-3.41-2.229.409a.66.66,0,0,1-.453-.081,13.113,13.113,0,0,0-2.43-1.138.706.706,0,0,1-.14-.062.651.651,0,0,1-.217-.223l-1.4-2.34-4.65-.161-1.55,2.235a.67.67,0,0,1-.384.264,13.215,13.215,0,0,0-2.5.964.645.645,0,0,1-.456.05l-2.195-.558-3.41,3.178.409,2.223a.676.676,0,0,1-.059.412l-.031.053A12.883,12.883,0,0,0,91.3,49.51a.657.657,0,0,1-.285.347l-2.334,1.386-.158,4.65,2.235,1.55a.651.651,0,0,1,.26.366,12.871,12.871,0,0,0,.964,2.517.787.787,0,0,1,.053.143.694.694,0,0,1,0,.31l-.558,2.17,3.177,3.41,2.213-.406a.651.651,0,0,1,.45.081,13.411,13.411,0,0,0,2.446,1.138.62.62,0,0,1,.363.288Zm7.682-29.391Zm-4.808,23.51h-.344a9.774,9.774,0,1,1,.344,0Zm0-18.318a8.54,8.54,0,1,0,.295,0Z" transform="translate(-87.215 -36.92)" fill="#5b618a"/>
    </g>
  </g>
</svg>
