<svg xmlns="http://www.w3.org/2000/svg" xmlns:xlink="http://www.w3.org/1999/xlink" width="32" height="32" viewBox="0 0 32 32">
  <defs>
    <linearGradient id="linear-gradient" x1="0.5" x2="0.5" y2="1" gradientUnits="objectBoundingBox">
      <stop offset="0" stop-color="#5b618a"/>
      <stop offset="0.49" stop-color="#bcb5cd"/>
      <stop offset="0.734" stop-color="#be8cd5"/>
      <stop offset="1" stop-color="#c415ec"/>
    </linearGradient>
    <clipPath id="clip-path">
      <rect id="Rectangle_558" data-name="Rectangle 558" width="32" height="32" transform="translate(898 970)" stroke="#707070" stroke-width="1" fill="url(#linear-gradient)"/>
    </clipPath>
    <linearGradient id="linear-gradient-2" y1="-0.005" y2="1.019" xlink:href="#linear-gradient"/>
    <linearGradient id="linear-gradient-3" x1="0.5" y1="0.048" x2="0.5" y2="0.945" gradientUnits="objectBoundingBox">
      <stop offset="0" stop-color="#5b618a"/>
      <stop offset="0.674" stop-color="#bd7ecf"/>
      <stop offset="1" stop-color="#ba15e6"/>
    </linearGradient>
  </defs>
  <g id="tiktok" transform="translate(-898 -970)" clip-path="url(#clip-path)">
    <g id="tiktok-2" data-name="tiktok" transform="translate(897.917 970)">
      <path id="Path_5886" data-name="Path 5886" d="M33.533,6.167H9.4C7.62,6.167,6.087,8.116,6.087,9.9l.387,24.084A2.992,2.992,0,0,0,9.4,37.218H33.986a3.238,3.238,0,0,0,3.235-3.235L37.137,9.9A4.031,4.031,0,0,0,33.533,6.167ZM35.073,33.2c0,1.07-.017,1.872-1.087,1.872H9.4c-1.07,0-.764-.8-.764-1.872V10.89c0-1.07.33-2.386,1.4-2.386H33.533c1.07,0,1.539,1.316,1.539,2.386Z" transform="translate(-6.087 -6.167)" fill="url(#linear-gradient-2)"/>
      <path id="Path_5887" data-name="Path 5887" d="M30.942,17.756a3.885,3.885,0,0,1-3.881-3.881H24.473V26.166A3.234,3.234,0,1,1,21.886,23V20.382a5.821,5.821,0,1,0,5.175,5.784V19.038a6.4,6.4,0,0,0,5.175,1.172V17.519A3.835,3.835,0,0,1,30.942,17.756Z" transform="translate(-7.572 -7.406)" fill="url(#linear-gradient-3)"/>
    </g>
  </g>
</svg>
