<svg width="38" height="38" viewBox="0 0 38 38" fill="none" xmlns="http://www.w3.org/2000/svg">
<g clip-path="url(#clip0_327_580)">
<path d="M35.8717 29.442H35.8356V29.692C35.8356 30.2744 35.6102 30.7892 35.2225 31.1769C34.8348 31.5646 34.32 31.79 33.7376 31.79H4.26236C3.68004 31.79 3.16524 31.5646 2.77754 31.1769C2.38984 30.7892 2.16445 30.2744 2.16445 29.692V11.7034C2.16445 11.1211 2.38984 10.6063 2.77754 10.2186C3.16524 9.83093 3.68004 9.60554 4.26236 9.60554H11.2338C11.9137 9.60554 12.4591 9.06015 12.4591 8.38026V7.33273C12.4591 6.99553 12.5815 6.69988 12.7832 6.4981C12.985 6.29631 13.2807 6.17398 13.6179 6.17398H24.4183C24.7554 6.17398 25.0511 6.29631 25.2529 6.4981C25.4547 6.69988 25.577 6.99553 25.577 7.33273V8.38026C25.577 9.06015 26.1224 9.60554 26.8023 9.60554H33.7738C34.3561 9.60554 34.8709 9.83093 35.2586 10.2186C35.6463 10.6063 35.8717 11.1211 35.8717 11.7034V29.442ZM36.9126 8.52854C36.1073 7.68713 34.9961 7.19109 33.7376 7.19109H27.9871C27.943 6.28966 27.5655 5.43139 26.9403 4.8415C26.2809 4.18353 25.3882 3.79565 24.4183 3.79565H13.5817C12.5758 3.79565 11.6816 4.18354 11.0209 4.84416C10.4018 5.46331 10.0211 6.28886 9.97679 7.19109H4.26236C3.00287 7.19109 1.89086 7.68796 1.08543 8.53063C0.285409 9.33169 -0.25 10.4765 -0.25 11.7034V29.692C-0.25 30.9515 0.246869 32.0636 1.08955 32.869C1.89061 33.669 3.0354 34.2044 4.26236 34.2044H33.7376C34.9971 34.2044 36.1092 33.7075 36.9146 32.8649C37.7146 32.0638 38.25 30.919 38.25 29.692V11.7034C38.25 10.445 37.754 9.33381 36.9126 8.52854Z" fill="#CFCBDC" stroke="#CFCBDC" stroke-width="0.5"/>
<path d="M25.6854 20.7338H25.6853L25.6854 20.7385C25.7201 22.5781 24.9572 24.2476 23.7371 25.4683C22.5155 26.6544 20.8433 27.4192 19 27.4192C17.1567 27.4192 15.4845 26.6544 14.263 25.4683C13.0454 24.2501 12.3146 22.58 12.3146 20.7338C12.3146 18.8906 13.0795 17.2183 14.2655 15.9968C15.4837 14.7792 17.1538 14.0485 19 14.0485C20.8433 14.0485 22.5155 14.8133 23.737 15.9993C24.9546 17.2175 25.6854 18.8876 25.6854 20.7338ZM19 11.5618C16.4745 11.5618 14.1722 12.6016 12.5381 14.2358C10.8672 15.9066 9.86407 18.173 9.86407 20.6977C9.86407 23.2232 10.9039 25.5255 12.5381 27.1596C14.2089 28.8305 16.4753 29.8336 19 29.8336C21.5255 29.8336 23.8278 28.7938 25.462 27.1596C27.1328 25.4888 28.1359 23.2224 28.1359 20.6977C28.1359 18.1722 27.0961 15.8699 25.462 14.2358C23.8278 12.6016 21.5255 11.5618 19 11.5618Z" fill="#CFCBDC" stroke="#CFCBDC" stroke-width="0.5"/>
<path d="M31.8593 15.5656C32.9749 15.5656 33.8793 14.6612 33.8793 13.5456C33.8793 12.43 32.9749 11.5256 31.8593 11.5256C30.7437 11.5256 29.8394 12.43 29.8394 13.5456C29.8394 14.6612 30.7437 15.5656 31.8593 15.5656Z" fill="#CFCBDC" stroke="#CFCBDC" stroke-width="0.5"/>
</g>
<defs>
<clipPath id="clip0_327_580">
<rect width="38" height="38" fill="white"/>
</clipPath>
</defs>
</svg>
