<svg xmlns="http://www.w3.org/2000/svg" xmlns:xlink="http://www.w3.org/1999/xlink" width="33" height="37" viewBox="0 0 33 37">
  <defs>
    <clipPath id="clip-path">
      <rect id="Rectangle_587" data-name="Rectangle 587" width="33" height="37" transform="translate(0 0.186)" fill="#fff" stroke="#707070" stroke-width="1"/>
    </clipPath>
  </defs>
  <g id="Fire" transform="translate(0 -0.186)" clip-path="url(#clip-path)">
    <g id="local_fire_department_black_24dp">
      <g id="Group_668" data-name="Group 668">
        <rect id="Rectangle_590" data-name="Rectangle 590" width="33" height="37" transform="translate(0 0.186)" fill="none"/>
      </g>
      <g id="Group_669" data-name="Group 669" transform="translate(4.608 1.347)">
        <path id="Path_7556" data-name="Path 7556" d="M28.314,20.029C25.95,13.2,17.531,12.835,19.564,2.914c.151-.736-.557-1.3-1.13-.92-5.467,3.58-9.4,10.758-6.1,20.16.271.77-.542,1.489-1.13.987a8.843,8.843,0,0,1-2.771-7.947.752.752,0,0,0-1.371-.569A17.055,17.055,0,0,0,5,23.409c.572,9.369,7.7,12.247,10.256,12.615A12.012,12.012,0,0,0,25.724,32.9,12.476,12.476,0,0,0,28.314,20.029ZM14.338,28.445a4.943,4.943,0,0,0,3.584-3.865c.5-2.392-1.446-4.735-.136-8.516.5,3.129,4.925,5.086,4.925,8.5C22.832,28.8,18.705,32.427,14.338,28.445Z" transform="translate(-5 -1.87)" fill="#5b618a"/>
      </g>
    </g>
  </g>
</svg>
