<svg xmlns="http://www.w3.org/2000/svg" width="19" height="25">
    <path d="M13.034998369279 17.559819611804l2.560974121094-4.009979248047c1.029541015625-1.447235107422 1.581237792969-3.179931640625 1.578002929687-4.955993652344.002746582032-3.717559814453-2.387023925781-7.0146484375-5.920837402343-8.168884277343S3.844080400529.521520051257 1.651880693498 3.523900422351s-2.203430175781 7.074462890625-.027893066406 10.088928222656l2.514038085937 3.946990966797L8.58999104506 23.70782986571zM8.58999104506 1.52081814696z" fill="#5b618a"/>
    <path d="M8.587000322405 4.695836457507c-2.153930664063 0-3.900024414063 1.74609375-3.900024414063 3.899993896484s1.74609375 3.899993896485 3.900024414063 3.899993896485 3.900024414062-1.74609375 3.900024414062-3.899993896485-1.747680664062-3.89614868164-3.900024414062-3.899993896484zm0 6.244995117188c-1.29345703125 0-2.341979980469-1.048553466797-2.341979980469-2.342010498047s1.048522949219-2.341979980469 2.341979980469-2.341979980469 2.341979980468 1.048553466797 2.341979980468 2.341979980469-1.049011230468 2.340911865234-2.341979980468 2.342010498047z" fill="#dcd3e5"/>
</svg>