<svg xmlns="http://www.w3.org/2000/svg" width="174.542" height="254.062" viewBox="0 0 174.542 254.062">
  <g id="Lock" transform="translate(1452.957 391.509)">
    <g id="freepik--Padlock--inject-8" transform="matrix(0.946, 0.326, -0.326, 0.946, -1398.716, -322.75)" opacity="0.33">
      <path id="Path_1746" data-name="Path 1746" d="M89.532,32.014l-7.866,2.81L78.291,24.545C72.09,5.591,52.326-4.474,34.166,1.925S6.337,29.112,12.539,48.066l3.375,10.279-7.9,2.826a12.555,12.555,0,0,0-7.362,15.7l21.887,66.883a11.806,11.806,0,0,0,15.06,7.8L119.117,122.4a12.616,12.616,0,0,0,7.438-15.854l-21.9-66.883a11.776,11.776,0,0,0-15.121-7.652ZM27.4,42.705A20.146,20.146,0,0,1,39.252,17.428,18.878,18.878,0,0,1,63.43,29.815l3.36,10.279L30.76,52.985Zm45.82,59.353,5.59,17.076a1.39,1.39,0,0,1-.871,1.711l-7.835,2.8a1.252,1.252,0,0,1-1.527-.825l-5.636-17A15.274,15.274,0,0,1,49.195,95.124a16.052,16.052,0,0,1,9.454-20.13,15.044,15.044,0,0,1,19.26,9.867A16.312,16.312,0,0,1,73.235,102.1Z" transform="translate(0 0)" fill="#707070"/>
      <path id="Path_1747" data-name="Path 1747" d="M65.753.005c0,.214-14.586,5.7-32.731,12.219S.077,23.985,0,23.832,14.586,18.15,32.747,11.613,65.676-.193,65.753.005Z" transform="translate(15.562 34.636)" fill="#707070"/>
      <path id="Path_1748" data-name="Path 1748" d="M60.238,0a2.67,2.67,0,0,1,.168.412c.122.305.26.7.443,1.191.4,1.115.947,2.658,1.634,4.582l5.865,17.076c2.444,7.24,5.361,15.823,8.6,25.354,1.527,4.781,3.33,9.76,5.01,15A22.909,22.909,0,0,1,83.1,72a11.257,11.257,0,0,1-1.237,4.231,11.667,11.667,0,0,1-2.887,3.406,27.49,27.49,0,0,1-7.759,3.956l-7.866,2.826-14.892,5.33-25.216,8.981-17.03,5.987-4.582,1.527-1.222.4a1.3,1.3,0,0,1-.412.107.8.8,0,0,0,.382-.183l1.191-.474,4.582-1.726,16.938-6.232,25.171-9.164,14.861-5.376,7.866-2.841a26.162,26.162,0,0,0,7.53-3.834,10.86,10.86,0,0,0,2.688-3.162,10.05,10.05,0,0,0,1.146-3.925,21.978,21.978,0,0,0-1.1-8.08c-1.65-5.193-3.391-10.218-4.964-15-3.177-9.546-6.109-18.16-8.431-25.4S63.583,10.294,62.239,6.2c-.642-2-1.13-3.559-1.527-4.689L60.345.29A1.423,1.423,0,0,1,60.238,0Z" transform="translate(38.397 37.451)" fill="#707070"/>
      <path id="Path_1749" data-name="Path 1749" d="M32.533,2.941s-.809-.4-2.306-1.008A20.343,20.343,0,0,0,23.552.589a22.91,22.91,0,0,0-9.867,1.863,21.994,21.994,0,0,0-9.332,7.8A20.65,20.65,0,0,0,.765,21.85a35.726,35.726,0,0,0,1.527,10c.794,2.78,1.619,4.994,2.169,6.537A17.058,17.058,0,0,1,5.255,40.8,13.41,13.41,0,0,1,4.171,38.5c-.626-1.527-1.527-3.7-2.413-6.491A34.733,34.733,0,0,1,0,21.85,20.94,20.94,0,0,1,3.667,9.814a22.345,22.345,0,0,1,9.7-8.034A22.727,22.727,0,0,1,23.522.039a19.229,19.229,0,0,1,6.766,1.6,12.608,12.608,0,0,1,1.65.916,2.276,2.276,0,0,1,.6.382Z" transform="translate(23.091 13.448)" fill="#707070"/>
      <path id="Path_1750" data-name="Path 1750" d="M9.153,1.913a5.264,5.264,0,0,1,.764-.382,15.164,15.164,0,0,1,2.367-.84A16.938,16.938,0,0,1,16.24.019,13.41,13.41,0,0,1,21.6.829C25.511,2.2,29.1,6.19,30.872,11.52a15.4,15.4,0,0,1,0,8.767,19.855,19.855,0,0,1-4.918,8.232l.092-.412c2.031,5.575,4.246,11.623,6.537,17.931l.137.382-.382.137-3.5,1.161L21.2,50.269l-.382.122-.122-.382C18.607,43.686,16.316,37.791,14.59,32l.336.26A15.273,15.273,0,0,1,6.74,29.039,18.482,18.482,0,0,1,1.623,22.93,13.96,13.96,0,0,1,0,16.056,16.587,16.587,0,0,1,6.4,3.441,9.714,9.714,0,0,1,9.046,1.913a29.444,29.444,0,0,0-2.5,1.665,16.236,16.236,0,0,0-4.719,6.705A14.448,14.448,0,0,0,2.3,22.609,17.931,17.931,0,0,0,7.29,28.474a14.54,14.54,0,0,0,7.8,3.055h.26l.076.229c1.68,5.682,3.986,11.623,6.109,17.977l-.5-.244,7.637-2.551,3.482-1.176-.244.519c-2.276-6.308-4.475-12.372-6.491-17.946v-.229l.183-.183a19.458,19.458,0,0,0,4.826-7.9,14.769,14.769,0,0,0,0-8.385c-1.665-5.132-5.1-9.027-8.828-10.4A13.12,13.12,0,0,0,16.423.371a17.5,17.5,0,0,0-3.91.535C10.237,1.47,9.168,1.99,9.153,1.913Z" transform="translate(47.174 74.241)" fill="#707070"/>
    </g>
    <g id="freepik--Padlock--inject-8-2" data-name="freepik--Padlock--inject-8" transform="matrix(0.946, 0.326, -0.326, 0.946, -1405.202, -322.728)">
      <path id="Path_1746-2" data-name="Path 1746" d="M86.3,30.859l-7.582,2.709L75.467,23.66C69.49,5.389,50.439-4.313,32.933,1.856S6.109,28.062,12.086,46.333l3.254,9.908L7.728,58.965A12.1,12.1,0,0,0,.632,74.1l21.1,64.47a11.381,11.381,0,0,0,14.516,7.523l78.575-28.105a12.161,12.161,0,0,0,7.17-15.282L100.878,38.236A11.351,11.351,0,0,0,86.3,30.86ZM26.411,41.165A19.419,19.419,0,0,1,37.836,16.8a18.2,18.2,0,0,1,23.306,11.94l3.239,9.908L29.65,51.074ZM70.579,98.378l5.388,16.46a1.34,1.34,0,0,1-.839,1.649l-7.553,2.694a1.207,1.207,0,0,1-1.472-.8L60.671,102a14.723,14.723,0,0,1-13.25-10.306,15.473,15.473,0,0,1,9.113-19.4A14.5,14.5,0,0,1,75.1,81.8a15.724,15.724,0,0,1-4.505,16.622Z" transform="translate(0 0)" fill="#5B618A"/>
      <path id="Path_1747-2" data-name="Path 1747" d="M63.381.005c0,.206-14.06,5.492-31.551,11.778S.074,23.12,0,22.972,14.06,17.5,31.566,11.194,63.307-.186,63.381.005Z" transform="translate(15.001 33.387)" fill="#5B618A"/>
      <path id="Path_1748-2" data-name="Path 1748" d="M58.066,0a2.574,2.574,0,0,1,.162.4c.118.294.25.677.427,1.148.383,1.075.913,2.562,1.575,4.417l5.654,16.46c2.356,6.979,5.168,15.253,8.289,24.44C75.645,51.47,77.382,56.27,79,61.32a22.084,22.084,0,0,1,1.1,8.083,10.85,10.85,0,0,1-1.193,4.078,11.246,11.246,0,0,1-2.783,3.283,26.5,26.5,0,0,1-7.479,3.813L61.069,83.3,46.715,88.439,22.408,97.1,5.992,102.867l-4.417,1.472L.4,104.722a1.252,1.252,0,0,1-.4.1.772.772,0,0,0,.368-.177l1.148-.456,4.417-1.664,16.327-6.007,24.263-8.834,14.325-5.182,7.582-2.738a25.218,25.218,0,0,0,7.258-3.7,10.468,10.468,0,0,0,2.591-3.048,9.688,9.688,0,0,0,1.1-3.784,21.186,21.186,0,0,0-1.06-7.788c-1.59-5.006-3.268-9.849-4.785-14.458-3.062-9.2-5.889-17.505-8.127-24.484S61.29,9.923,59.994,5.977c-.618-1.929-1.089-3.43-1.472-4.52L58.169.28a1.371,1.371,0,0,1-.1-.28Z" transform="translate(37.012 36.101)" fill="#5B618A"/>
      <path id="Path_1749-2" data-name="Path 1749" d="M31.36,2.835s-.78-.383-2.223-.972A19.609,19.609,0,0,0,22.7.568a22.084,22.084,0,0,0-9.511,1.8,21.2,21.2,0,0,0-9,7.523A19.9,19.9,0,0,0,.737,21.062a34.438,34.438,0,0,0,1.472,9.643c.766,2.68,1.561,4.814,2.091,6.3a16.442,16.442,0,0,1,.766,2.326A12.926,12.926,0,0,1,4.02,37.11c-.6-1.472-1.472-3.563-2.326-6.257A33.48,33.48,0,0,1,0,21.062,20.184,20.184,0,0,1,3.534,9.46a21.539,21.539,0,0,1,9.349-7.744A21.907,21.907,0,0,1,22.674.038,18.535,18.535,0,0,1,29.2,1.584a12.153,12.153,0,0,1,1.59.883,2.194,2.194,0,0,1,.574.368Z" transform="translate(22.259 12.963)" fill="#5B618A"/>
      <path id="Path_1750-2" data-name="Path 1750" d="M8.823,1.844a5.074,5.074,0,0,1,.736-.368,14.617,14.617,0,0,1,2.282-.81A16.327,16.327,0,0,1,15.654.019,12.926,12.926,0,0,1,20.822.8c3.769,1.325,7.229,5.168,8.937,10.306a14.84,14.84,0,0,1,0,8.451,19.139,19.139,0,0,1-4.741,7.936l.088-.4c1.958,5.374,4.093,11.2,6.3,17.284l.132.368-.368.133L27.8,46l-7.361,2.459-.368.118-.118-.368c-2.017-6.1-4.225-11.778-5.889-17.358l.324.25A14.722,14.722,0,0,1,6.5,27.992,17.816,17.816,0,0,1,1.565,22.1,13.456,13.456,0,0,1,0,15.477,15.989,15.989,0,0,1,6.173,3.316,9.364,9.364,0,0,1,8.72,1.844a28.383,28.383,0,0,0-2.414,1.6A15.65,15.65,0,0,0,1.756,9.912a13.927,13.927,0,0,0,.456,11.881,17.285,17.285,0,0,0,4.814,5.653,14.016,14.016,0,0,0,7.523,2.945h.25l.074.221c1.619,5.477,3.843,11.2,5.889,17.329l-.486-.236,7.361-2.459L31,44.113l-.236.5c-2.194-6.08-4.314-11.925-6.257-17.3v-.221l.177-.177a18.756,18.756,0,0,0,4.652-7.612,14.236,14.236,0,0,0,0-8.083c-1.6-4.947-4.917-8.7-8.51-10.026A12.647,12.647,0,0,0,15.831.357a16.873,16.873,0,0,0-3.769.515C9.868,1.417,8.838,1.918,8.823,1.844Z" transform="translate(45.473 71.564)" fill="#5B618A"/>
    </g>
    <g id="freepik--Character--inject-2" transform="translate(-1414.273 -391.05)">
      <path id="Path_1512" data-name="Path 1512" d="M168.432,164.525l-1.234,2.691s-7.165.773-7.165,1.31.077,4.238.466,4.391a1.269,1.269,0,0,0,.921,0l10.553-2.7,1-4.775Z" transform="translate(-160.034 -73.76)" fill="#ffbe9d" stroke="#263238" stroke-linecap="round" stroke-linejoin="round" stroke-width="0.862"/>
      <path id="Path_1513" data-name="Path 1513" d="M166.721,171.064a25.638,25.638,0,0,1-4.22,2.809c-1.706.767-1.771,1.93-1.228,1.93a56.9,56.9,0,0,0,5.359-2.018s4.373-1.145,5-1.493.7-2.284.7-2.284" transform="translate(-160.329 -75.489)" fill="#ffbe9d" stroke="#263238" stroke-linecap="round" stroke-linejoin="round" stroke-width="0.862"/>
      <path id="Path_1514" data-name="Path 1514" d="M178.069,88.991l-4.4,33.748L170.6,141.011l6.8,1.605L182.471,121l2.4-13.6Z" transform="translate(-163.367 -49.939)" fill="#e8deeb" stroke="#263238" stroke-linecap="round" stroke-linejoin="round" stroke-width="0.862"/>
      <path id="Path_1515" data-name="Path 1515" d="M229.541,52.146l-2.685-.425-5.5-2.083-.2,6.534,8.528.785Z" transform="translate(-179.309 -37.528)" fill="#fff" stroke="#263238" stroke-linecap="round" stroke-linejoin="round" stroke-width="0.862"/>
      <path id="Path_1516" data-name="Path 1516" d="M184.363,227.344a82.777,82.777,0,0,0-5.6,7.318c-2.272,3.47-1.47,7.2,1.334,8.139s6.4-1.605,7.336-3.606.667-3.063,2.131-5.064,2.668-4,2.137-6.669S185.8,225.478,184.363,227.344Z" transform="translate(-165.524 -93.051)" fill="#7d7d7d" stroke="#263238" stroke-linecap="round" stroke-linejoin="round" stroke-width="0.862"/>
      <path id="Path_1517" data-name="Path 1517" d="M187.17,244.081c-.189-.4-.407-.826-.667-1.281-2.142-3.771-5.9-3.47-8.263-2.768-1.552,3.169-.667,6.321,1.877,7.171S185.942,245.975,187.17,244.081Z" transform="translate(-165.533 -97.435)" fill="#fff" stroke="#263238" stroke-linecap="round" stroke-linejoin="round" stroke-width="0.862"/>
      <path id="Path_1518" data-name="Path 1518" d="M186.539,239.237c-.8,1.18-1.865,4.4-6,3.069a5.7,5.7,0,0,1-2.951-1.859,3.889,3.889,0,0,0,2.579,3.193c2.8.932,6.4-1.605,7.336-3.606s.667-3.063,2.131-5.064,2.668-4,2.137-6.669c0,3.2-1.18,3.73-2.668,5.465S187.341,238.033,186.539,239.237Z" transform="translate(-165.569 -93.872)" fill="#fff" stroke="#263238" stroke-linecap="round" stroke-linejoin="round" stroke-width="0.862"/>
      <path id="Path_1519" data-name="Path 1519" d="M241.6,227.344a82.787,82.787,0,0,1,5.6,7.318c2.272,3.47,1.47,7.2-1.334,8.139s-6.4-1.605-7.336-3.606-.667-3.063-2.131-5.064-2.668-4-2.136-6.669S240.14,225.478,241.6,227.344Z" transform="translate(-183.405 -93.051)" fill="#7d7d7d" stroke="#263238" stroke-linecap="round" stroke-linejoin="round" stroke-width="0.862"/>
      <path id="Path_1520" data-name="Path 1520" d="M240.964,244.081c.183-.4.4-.826.661-1.281,2.142-3.771,5.9-3.47,8.263-2.768,1.552,3.169.667,6.321-1.877,7.171S242.186,245.975,240.964,244.081Z" transform="translate(-185.557 -97.435)" fill="#fff" stroke="#263238" stroke-linecap="round" stroke-linejoin="round" stroke-width="0.862"/>
      <path id="Path_1521" data-name="Path 1521" d="M239.462,239.237c.8,1.18,1.865,4.4,6,3.069a5.7,5.7,0,0,0,2.951-1.859,3.889,3.889,0,0,1-2.579,3.193c-2.8.932-6.4-1.605-7.336-3.606s-.667-3.063-2.131-5.064-2.668-4-2.137-6.669c0,3.2,1.18,3.73,2.668,5.465S238.66,238.033,239.462,239.237Z" transform="translate(-183.394 -93.872)" fill="#fff" stroke="#263238" stroke-linecap="round" stroke-linejoin="round" stroke-width="0.862"/>
      <path id="Path_1522" data-name="Path 1522" d="M230.465,156.1c0-2.4-4.131-5.07-4.131-5.07-6.227-6.333-17.464-5.495-21.613-4.928-4.131-.59-15.38-1.4-21.607,4.928,0,0-4.131,2.668-4.131,5.07s5.206,45.752,5.206,45.752-.136,2.266,3.6,2.532,5.312-1.865,5.312-1.865l1.47-36.681s6-4.273,7.082-4.4c.39-.053.9-.136,1.464-.207v.071a7.849,7.849,0,0,1,3.2,0v-.071c.59.071,1.068.153,1.464.207,1.068.13,7.082,4.4,7.082,4.4l1.47,36.681s1.6,2.131,5.312,1.865,3.6-2.532,3.6-2.532S230.465,158.5,230.465,156.1Z" transform="translate(-166.009 -67.825)" fill="#263238" stroke="#263238" stroke-linecap="round" stroke-linejoin="round" stroke-width="0.862"/>
      <path id="Path_1523" data-name="Path 1523" d="M231.355,169.519s-.8-8.806,3.069-12.14" transform="translate(-182.505 -71.506)" fill="none" stroke="#707070" stroke-linecap="round" stroke-linejoin="round" stroke-width="0.862"/>
      <path id="Path_1524" data-name="Path 1524" d="M200.606,168.782s.4-7.336-.4-10a7.822,7.822,0,0,0-2.136-3.736" transform="translate(-172.029 -70.769)" fill="none" stroke="#707070" stroke-linecap="round" stroke-linejoin="round" stroke-width="0.862"/>
      <path id="Path_1525" data-name="Path 1525" d="M208.982,149.585s4.267,4.934,5.07,9.071" transform="translate(-175.47 -69.048)" fill="none" stroke="#707070" stroke-linecap="round" stroke-linejoin="round" stroke-width="0.862"/>
      <path id="Path_1526" data-name="Path 1526" d="M221.391,150s-2.4,2.668-2.668,4.669" transform="translate(-178.543 -69.179)" fill="none" stroke="#707070" stroke-linecap="round" stroke-linejoin="round" stroke-width="0.862"/>
      <path id="Path_1527" data-name="Path 1527" d="M208.752,74.14s-3.866-.537-5.2.8-5.872,6.25-5.872,6.25l2.4,42.418a33.343,33.343,0,0,0,10.14,2.137c4.668,0,10-1.735,11.214-2.668s.136-46.419.136-46.419S211.662,73.739,208.752,74.14Z" transform="translate(-171.906 -45.222)" fill="#5B618A" stroke="#263238" stroke-linecap="round" stroke-linejoin="round" stroke-width="0.862"/>
      <path id="Path_1528" data-name="Path 1528" d="M223.207,68.072a48.633,48.633,0,0,1,6.132-.537c2.668,0,5.312.136,5.312.136l6.669-6.4L227.9,58.2l1.068-6.132s9.868-.667,14.8.266,12.671,3.335,13.073,3.335.933,1.47.531,2.532-12.949,14.944-16.7,18.544a92.027,92.027,0,0,0-6.935,7.6L232.03,114.09a47.3,47.3,0,0,1,5.206,3.2c.8.8,1.735,4,1.735,4s-8.139-3.335-10.275-3.6-3.464-.4-3.866-1.18-3.736-36.415-3.736-36.415l.136-11.338S221.206,68.072,223.207,68.072Z" transform="translate(-179.29 -38.221)" fill="#e8deeb" stroke="#263238" stroke-linecap="round" stroke-linejoin="round" stroke-width="0.862"/>
      <path id="Path_1529" data-name="Path 1529" d="M232.55,102.241l-7.206.933.667,2.668,3.606.933,3.464-1.6Z" transform="translate(-180.631 -54.117)" fill="none" stroke="#263238" stroke-linecap="round" stroke-linejoin="round" stroke-width="0.862"/>
      <path id="Path_1530" data-name="Path 1530" d="M241.167,78.862l-1.6,14.005L243.705,81" transform="translate(-185.116 -46.744)" fill="none" stroke="#263238" stroke-linecap="round" stroke-linejoin="round" stroke-width="0.862"/>
      <path id="Path_1531" data-name="Path 1531" d="M250.671,65s3.335.667,8.4-1.334" transform="translate(-188.618 -41.952)" fill="none" stroke="#263238" stroke-linecap="round" stroke-linejoin="round" stroke-width="0.862"/>
      <path id="Path_1532" data-name="Path 1532" d="M255.74,66.729a30.14,30.14,0,0,0,6.533-.531" transform="translate(-190.217 -42.751)" fill="none" stroke="#263238" stroke-linecap="round" stroke-linejoin="round" stroke-width="0.862"/>
      <path id="Path_1533" data-name="Path 1533" d="M207.232,73.991l.667,9.738a6.416,6.416,0,0,0,5.2,2.532c3.335-.13,3.736-2.532,3.736-2.532v-8Z" transform="translate(-174.919 -45.208)" fill="#ffbe9d" stroke="#263238" stroke-linecap="round" stroke-linejoin="round" stroke-width="0.862"/>
      <path id="Path_1534" data-name="Path 1534" d="M221.325,78.907l-.266,8.015,2.8-4.4s3.069,3.866,3.866,3.736-.531-1.735-.8-3.2-2.538-6.675-2.8-8.139-2.8-1.735-2.951-1.068a6.8,6.8,0,0,0,0,1.735Z" transform="translate(-179.279 -45.055)" fill="#e8deeb" stroke="#263238" stroke-linecap="round" stroke-linejoin="round" stroke-width="0.862"/>
      <path id="Path_1535" data-name="Path 1535" d="M199.636,86.561s.531,37.348-.8,37.773-6.669.537-10.033,2.137-4.934,2.266-4.934,2.266,1.6-3.866,3.47-5.6a18.419,18.419,0,0,1,4.131-2.8L188,102.461s-6.4-16.945-6.539-17.877,12.14-7.867,14.672-9.071,3.2-.13,3.2-.13Z" transform="translate(-166.792 -45.508)" fill="#e8deeb" stroke="#263238" stroke-linecap="round" stroke-linejoin="round" stroke-width="0.862"/>
      <path id="Path_1536" data-name="Path 1536" d="M201.492,72.8s-3.2,10.14-3.47,11.474,0,1.334.938.4,3.335-3.2,3.335-3.2l2.532,4.267-.136-7.867V73.327S204.561,71.462,201.492,72.8Z" transform="translate(-171.983 -44.68)" fill="#e8deeb" stroke="#263238" stroke-linecap="round" stroke-linejoin="round" stroke-width="0.862"/>
      <path id="Path_1537" data-name="Path 1537" d="M193.919,104.974h7.867l-.13,3.2-3.47,1.2-4.4-1.2Z" transform="translate(-170.677 -54.979)" fill="none" stroke="#263238" stroke-linecap="round" stroke-linejoin="round" stroke-width="0.862"/>
      <path id="Path_1538" data-name="Path 1538" d="M216.331,51.7s1.865,8.133,2.266,9.443-2.131,6.539-2.951,7.738A3.883,3.883,0,0,1,212.7,70.75a29.193,29.193,0,0,1-7.206-2.532c-1.2-.8-2.4-1.735-2.4-1.735a3.2,3.2,0,0,1-3.47-.531c-1.6-1.47-3.736-3.2-3.2-4.4a3.134,3.134,0,0,1,3.069-1.865c1.47,0,.938-.136.938-.136s-2.668-3.866-2.668-6.935,5.731-5.312,9.065-5.312a17.812,17.812,0,0,1,6.669,1.6Z" transform="translate(-171.482 -36.792)" fill="#ffbe9d" stroke="#263238" stroke-linecap="round" stroke-linejoin="round" stroke-width="0.862"/>
      <path id="Path_1539" data-name="Path 1539" d="M218.231,58.207l2.4,4.539-2.4,1.6-1.068-1.334" transform="translate(-178.051 -40.231)" fill="none" stroke="#263238" stroke-linecap="round" stroke-linejoin="round" stroke-width="0.862"/>
      <path id="Path_1540" data-name="Path 1540" d="M224.477,64.25s.13,1.068-1.47,2.8" transform="translate(-179.894 -42.136)" fill="none" stroke="#263238" stroke-linecap="round" stroke-linejoin="round" stroke-width="0.862"/>
      <path id="Path_1541" data-name="Path 1541" d="M214.481,60.124c0,.626-.271,1.133-.59,1.133s-.59-.508-.59-1.133.272-1.133.59-1.133S214.481,59.5,214.481,60.124Z" transform="translate(-176.833 -40.478)" fill="#263238"/>
      <ellipse id="Ellipse_13" data-name="Ellipse 13" cx="0.602" cy="1.133" rx="0.602" ry="1.133" transform="translate(41.243 16.377)" fill="#263238"/>
      <path id="Path_1542" data-name="Path 1542" d="M200.5,39.922s-8.393,3.069-8.67,6.941,7.472,9.2,7.873,9.868,1.6-.8,1.6-.8a3.1,3.1,0,0,1-.537-2.532c.4-1.334,2.137-2.951,2.137-3.6s-2,.531-2-1.47,4.934-3.2,7.867-3.069,5.471,5.07,7.608,2.668-.938-3.063-.938-3.063,4.131-.537,4.131-2.668a3.892,3.892,0,0,0-3.069-3.606c-.933,0-3.464,1.605-3.464-.13s2.532-2.538.13-5.312-5.465,0-5.465,1.068-.8,3.063-1.334,3.063-2.137-2.4-4-1.062A4.946,4.946,0,0,0,200.5,39.922Z" transform="translate(-170.06 -31.95)" fill="#263238" stroke="#263238" stroke-linecap="round" stroke-linejoin="round" stroke-width="0.862"/>
      <line id="Line_7" data-name="Line 7" y1="1.605" x2="4.267" transform="translate(33.913 16.642)" fill="none" stroke="#263238" stroke-linecap="round" stroke-linejoin="round" stroke-width="0.862"/>
      <path id="Path_1543" data-name="Path 1543" d="M216.759,52.969a1.835,1.835,0,0,1,.189-1.228" transform="translate(-177.913 -38.192)" fill="none" stroke="#263238" stroke-linecap="round" stroke-linejoin="round" stroke-width="0.862"/>
    </g>
  </g>
</svg>
