<svg xmlns="http://www.w3.org/2000/svg" width="233.731" height="297.209" viewBox="0 0 233.731 297.209">
  <path id="Question_mark" data-name="Question mark" d="M315.158,483.588v-9.735c0-50.284,63.7-52.431,63.7-88.3,0-15.331-12.648-25.679-31.5-25.679-20.62,0-33.651,11.191-33.651,27.135v3.986c0,3.986-2.146,5.826-6.132,5.826l-38.326-1.457c-3.6,0-6.132-1.84-6.132-4.369v-3.986c0-43.769,34.724-73.817,85.7-73.817s82.172,28.208,82.172,70.6c0,60.019-64.772,60.4-64.772,93.287v6.515a5.6,5.6,0,0,1-6.132,6.209H321.75a5.6,5.6,0,0,1-6.592-6.209Zm-3.219,58.256A30.661,30.661,0,1,1,342.6,570.819a29.9,29.9,0,0,1-30.585-28.975Z" transform="translate(-103.955 -368.165) rotate(15)" fill="none" stroke="#e8deeb" stroke-width="4"/>
</svg>
