<svg xmlns="http://www.w3.org/2000/svg" width="212" height="92">
    <path d="M141.766948498618 4.713311154596c21.890167236328-9.388103485108 50.046203613282-1.409122467041 62.879333496094 17.807159423828 8.242919921875 12.356170654297 4.656860351563 30.930290222168-2.255065917969 41.844329833984 1.317443847657 1.827095031738 3.664794921875 4.462074279785 5.805419921875 5.160606384278 0 0-8.357971191406 1.016342163085-11.870178222656.000183105468-3.864440917969 4.080261230469-2.872436523437 2.678604125977-8.0556640625 4.8505859375-21.897979736328 9.394393920899-50.054016113281 1.415420532227-62.885650634766-17.814933776855s-5.522430419921-42.461296081543 16.381805419922-51.847930908203z" fill="#edc6c6"/>
    <path d="M142.62647608651 4.106350857965c22.052642822265-9.012470245361 50.073028564453-.549278259277 62.576629638672 18.888515472412 8.031066894531 12.498458862305 4.146911621093 31.035919189454-2.955932617188 41.827827453614 1.706176757813 2.087837219238 3.932067871094 3.689544677734 6.453796386719 4.644027709961l-12.514465332031.007400512695c-2.41357421875 2.192321777344-5.210632324219 3.920944213867-8.250915527344 5.099197387695-22.060546875 9.018630981446-50.080932617188.555419921875-62.582794189453-18.896415710449s-4.79296875-42.559799194336 17.273681640625-51.570552825928z" stroke="#5b618a" fill="#edc6c6" opacity=".7"/>
    <path d="M.294048107994 34.235444028131c.994110107422-4.338531494141 3.806457519531-8.039779663086 7.720001220703-10.16000366211-1.093719482422-1.63540649414-1.668762207031-3.562667846679-1.649993896485-5.529998779296.089996337891-6.340003967286 6.429992675782-11.380004882813 14.149993896485-11.270004272461 3.284423828125.025672912597 6.479217529297 1.074295043945 9.139984130859 3 3.070007324219-6.649997711182 12.089996337891-9.129997253418 20.300018310547-5.539993286133 6.859985351563 3 11 9.299995422363 10.529998779297 15.229995727539 1.419860839844-.240493774414 2.86181640625-.324325561524 4.299987792969-.25 9 .5 16 6.910003662109 15.630004882812 14.31999206543-.25 4.510009765625-3.190002441406 8.340011596679-7.480010986328 10.540008544921 3 5.679992675782 3.110015869141 12.100006103516-.220001220703 17s-9 7.06999206543-15.189971923828 6.639999389649c-4.800018310547 4.690002441406-12.66000366211 6.919998168945-20.810028076172 5.220001220703-1.577331542969-.329452514648-3.120635986328-.804840087891-4.609985351563-1.419998168945-2.829986572265 3.669998168945-8.869995117187 3.709991455078-8.869995117187 3.709991455078 1.905914306641-1.7041015625 3.257385253906-3.940292358399 3.880004882812-6.419998168945-2.798950195312-1.917953491211-5.096649169921-4.479705810547-6.700012207031-7.470001220704-3.609985351562.110000610352-9-.769989013671-12.109985351562-3.830001831054-2.5-2.459991455078-3.830017089844-6.439987182617-3-9.099990844727C1.204051770103 44.865433652154-.795948229897 39.525437314264.294048107994 34.235444028131z" fill="#c53f3f"/>
    <path d="M.294048107994 34.235444028131c.994110107422-4.338531494141 3.806457519531-8.039779663086 7.720001220703-10.16000366211-1.093719482422-1.63540649414-1.668762207031-3.562667846679-1.649993896485-5.529998779296.089996337891-6.340003967286 6.429992675782-11.380004882813 14.149993896485-11.270004272461 3.284423828125.025672912597 6.479217529297 1.074295043945 9.139984130859 3 3.070007324219-6.649997711182 12.089996337891-9.129997253418 20.300018310547-5.539993286133 6.859985351563 3 11 9.299995422363 10.529998779297 15.229995727539 1.419860839844-.240493774414 2.86181640625-.324325561524 4.299987792969-.25 9 .5 16 6.910003662109 15.630004882812 14.31999206543-.25 4.510009765625-3.190002441406 8.340011596679-7.480010986328 10.540008544921 3 5.679992675782 3.110015869141 12.100006103516-.220001220703 17s-9 7.06999206543-15.189971923828 6.639999389649c-4.800018310547 4.690002441406-12.66000366211 6.919998168945-20.810028076172 5.220001220703-1.577331542969-.329452514648-3.120635986328-.804840087891-4.609985351563-1.419998168945-2.829986572265 3.669998168945-8.869995117187 3.709991455078-8.869995117187 3.709991455078 1.905914306641-1.7041015625 3.257385253906-3.940292358399 3.880004882812-6.419998168945-2.798950195312-1.917953491211-5.096649169921-4.479705810547-6.700012207031-7.470001220704-3.609985351562.110000610352-9-.769989013671-12.109985351562-3.830001831054-2.5-2.459991455078-3.830017089844-6.439987182617-3-9.099990844727C1.204051770103 44.865433652154-.795948229897 39.525437314264.294048107994 34.235444028131z" opacity=".2"/>
    <path d="M121.754039563072 82.595444638483l-.209991455078-1c4.887573242188-.99528503418 9.699340820313-2.331893920898 14.399993896484-4l.350006103516.939987182617c-4.745788574219 1.691558837891-9.604370117187 3.048217773438-14.540008544922 4.060012817383z" fill="#5b618a"/>
    <path d="M110.254039563071 84.605439145319l-.139984130859-1 5.619995117188-.880004882813.170013427734 1-5.650024414063.880004882813z" fill="#5b618a"/>
    <path d="M142.204051770103 37.555436093561c-.205017089844-3.410797119141-2.842590332032-6.175170898438-6.239990234375-6.539993286133-23.460021972657-2.449996948242-56.300018310547 3-69.400024414063 5.539993286133-3.409393310547.652938842773-5.836120605469 3.69058227539-5.720001220703 7.160003662109.470001220703 15.5 4.5 25.669998168945 10.940002441406 35.899993896484 1.266235351563 1.984909057618 3.436340332032 3.210525512696 5.790008544922 3.270004272461 4.619995117188.130004882813 9.169982910156.089996337891 13.589996337891-.08999633789 2.310424804687 3.216613769531 5.345611572265 5.844146728515 8.86001586914 7.669998168945-.423522949218-2.730346679687-.423522949218-5.509658813477 0-8.240005493164 14.179992675782-1.229995727539 26.570007324219-3.879989624023 35.059997558594-7 2.10693359375-.786636352539 3.71923828125-2.521240234375 4.350006103516-4.679992675781 3.259979248047-10.919998168946 3.299987792969-24.639999389649 2.769989013672-32.990005493164z" fill="#5b618a"/>
</svg>