<svg xmlns="http://www.w3.org/2000/svg" width="229.833" height="126.678" viewBox="0 0 229.833 126.678">
  <g id="comments" transform="translate(-144.796 -18.82)">
    <path id="Path_6063" data-name="Path 6063" d="M315.07,37.33c22.92,6.48,39.78,30.4,37.66,53.41-1.37,14.79-15.846,26.968-28.086,31.1-.126,2.249.04,5.774,1.264,7.664,0,0-7.135-4.47-9.225-7.47-5.571.739-3.918.274-9.313-1.3-22.93-6.48-39.79-30.4-37.66-53.42S292.14,30.84,315.07,37.33Z" transform="translate(18.215 213.967) rotate(-39)" fill="#edc6c6"/>
    <path id="Path_6064" data-name="Path 6064" d="M315.07,37.33c22.92,6.48,39.78,30.4,37.66,53.41-1.37,14.79-15.844,27-28.084,31.127a15.351,15.351,0,0,0,2.224,7.632l-9.862-7.7a26.524,26.524,0,0,1-9.639-1.064c-22.93-6.48-39.79-30.4-37.66-53.42S292.14,30.84,315.07,37.33Z" transform="matrix(0.788, -0.616, 0.616, 0.788, 16.152, 208.758)" fill="#edc6c6" stroke="#5b618a" stroke-width="1" opacity="0.7"/>
    <path id="Path_6065" data-name="Path 6065" d="M145.09,74.22a15.49,15.49,0,0,1,7.72-10.16,9.78,9.78,0,0,1-1.65-5.53c.09-6.34,6.43-11.38,14.15-11.27a15.8,15.8,0,0,1,9.14,3c3.07-6.65,12.09-9.13,20.3-5.54,6.86,3,11,9.3,10.53,15.23a19.67,19.67,0,0,1,4.3-.25c9,.5,16,6.91,15.63,14.32-.25,4.51-3.19,8.34-7.48,10.54,3,5.68,3.11,12.1-.22,17s-9,7.07-15.19,6.64c-4.8,4.69-12.66,6.92-20.81,5.22A26,26,0,0,1,176.9,112c-2.83,3.67-8.87,3.71-8.87,3.71a12.79,12.79,0,0,0,3.88-6.42,21.2,21.2,0,0,1-6.7-7.47c-3.61.11-9-.77-12.11-3.83-2.5-2.46-3.83-6.44-3-9.1C146,84.85,144,79.51,145.09,74.22Z" fill="#c53f3f"/>
    <path id="Path_6066" data-name="Path 6066" d="M145.09,74.22a15.49,15.49,0,0,1,7.72-10.16,9.78,9.78,0,0,1-1.65-5.53c.09-6.34,6.43-11.38,14.15-11.27a15.8,15.8,0,0,1,9.14,3c3.07-6.65,12.09-9.13,20.3-5.54,6.86,3,11,9.3,10.53,15.23a19.67,19.67,0,0,1,4.3-.25c9,.5,16,6.91,15.63,14.32-.25,4.51-3.19,8.34-7.48,10.54,3,5.68,3.11,12.1-.22,17s-9,7.07-15.19,6.64c-4.8,4.69-12.66,6.92-20.81,5.22A26,26,0,0,1,176.9,112c-2.83,3.67-8.87,3.71-8.87,3.71a12.79,12.79,0,0,0,3.88-6.42,21.2,21.2,0,0,1-6.7-7.47c-3.61.11-9-.77-12.11-3.83-2.5-2.46-3.83-6.44-3-9.1C146,84.85,144,79.51,145.09,74.22Z" opacity="0.2"/>
    <path id="Path_6067" data-name="Path 6067" d="M266.55,122.58l-.21-1a106.749,106.749,0,0,0,14.4-4l.35.94a107.768,107.768,0,0,1-14.54,4.06Z" fill="#5b618a"/>
    <path id="Path_6068" data-name="Path 6068" d="M255.05,124.59l-.14-1c1.9-.27,3.8-.56,5.62-.88l.17,1C258.87,124,257,124.32,255.05,124.59Z" fill="#5b618a"/>
    <path id="Path_6069" data-name="Path 6069" d="M287,77.54A7,7,0,0,0,280.76,71c-23.46-2.45-56.3,3-69.4,5.54a7.05,7.05,0,0,0-5.72,7.16c.47,15.5,4.5,25.67,10.94,35.9a7.08,7.08,0,0,0,5.79,3.27c4.62.13,9.17.09,13.59-.09a25.23,25.23,0,0,0,8.86,7.67,26.88,26.88,0,0,1,0-8.24c14.18-1.23,26.57-3.88,35.06-7a7.13,7.13,0,0,0,4.35-4.68C287.49,99.61,287.53,85.89,287,77.54Z" fill="#5b618a"/>
  </g>
</svg>
