<svg xmlns="http://www.w3.org/2000/svg" xmlns:xlink="http://www.w3.org/1999/xlink" width="40px" height="40px" viewBox="0 0 40 40">
  <defs>
    <clipPath id="clip-path">
      <rect id="Rectangle_593" data-name="Rectangle 593" width="40" height="40" transform="translate(766 0.713)" fill="#fff" stroke="#707070" stroke-width="1"/>
    </clipPath>
  </defs>
  <g id="Attractions" transform="translate(-766 -0.713)" clip-path="url(#clip-path)">
    <g id="attractions_black_24dp" transform="translate(766 0.713)">
      <g id="Group_671" data-name="Group 671">
        <rect id="Rectangle_594" data-name="Rectangle 594" width="40" height="40" fill="none"/>
      </g>
      <g id="Group_672" data-name="Group 672" transform="translate(-1.962 -2.208)">
        <path id="Path_7562" data-name="Path 7562" d="M19.008,34.948a3.8,3.8,0,0,1,2.963-1.416,3.761,3.761,0,0,1,2.944,1.416,13.155,13.155,0,0,0,2.114-.679l-2.68-6a6.672,6.672,0,0,1-4.832-.038l-2.7,6.021A11.363,11.363,0,0,0,19.008,34.948ZM9.042,18.433a13.325,13.325,0,0,0-.472,3.492,13.718,13.718,0,0,0,.623,4.058,3.779,3.779,0,0,1,3.152,5.247,14.9,14.9,0,0,0,1.642,1.434l2.869-6.4h0a6.355,6.355,0,0,1-1.416-4.02,6.531,6.531,0,0,1,13.061,0,6.345,6.345,0,0,1-1.472,4.077l2.831,6.323a14.127,14.127,0,0,0,1.7-1.491,3.773,3.773,0,0,1,3.1-5.172,13.26,13.26,0,0,0,.642-4.077,13.468,13.468,0,0,0-.472-3.511,3.713,3.713,0,0,1-3.02-1.887,3.761,3.761,0,0,1-.057-3.681,13.376,13.376,0,0,0-6.493-3.869,3.755,3.755,0,0,1-3.284,1.925,3.816,3.816,0,0,1-3.284-1.906,13.312,13.312,0,0,0-6.493,3.832,3.793,3.793,0,0,1-3.152,5.625ZM6.589,17.64a3.771,3.771,0,0,1,3.737-6.474A16.1,16.1,0,0,1,18.215,6.6a3.782,3.782,0,0,1,7.493,0,15.877,15.877,0,0,1,7.89,4.568,3.771,3.771,0,0,1,3.737,6.474,16.121,16.121,0,0,1,0,9.135A3.771,3.771,0,0,1,33.6,33.249a15.5,15.5,0,0,1-2.529,2.171L33.6,41.082H30.087l-1.831-4.1a16.522,16.522,0,0,1-2.529.83,3.782,3.782,0,0,1-7.493,0,16.866,16.866,0,0,1-2.6-.868l-1.85,4.133H10.231L12.8,35.363a16.459,16.459,0,0,1-2.454-2.114,3.775,3.775,0,0,1-3.756-6.474,16.121,16.121,0,0,1,0-9.135Z" transform="translate(0)" fill="#5b618a"/>
      </g>
    </g>
  </g>
</svg>
