<svg id="Temp" xmlns="http://www.w3.org/2000/svg" width="35.535" height="33.026" viewBox="0 0 35.535 33.026">
  <g id="wb_sunny_black_24dp" transform="translate(16.181 0.516)">
    <path id="Path_7551" data-name="Path 7551" d="M0,0H19.354V19.354H0Z" fill="none"/>
    <path id="Path_7552" data-name="Path 7552" d="M7.062,4.789,5.61,3.345,4.473,4.482,5.917,5.926ZM4.836,9.353H2.417v1.613H4.836Zm7.258-8.024H10.481V3.708h1.613ZM18.1,4.482,16.964,3.345,15.521,4.789l1.137,1.137ZM15.513,15.53l1.443,1.452,1.137-1.137L16.642,14.4,15.513,15.53Zm2.226-6.177v1.613h2.419V9.353ZM11.287,5.321a4.838,4.838,0,1,0,4.838,4.838A4.842,4.842,0,0,0,11.287,5.321ZM10.481,18.99h1.613V16.611H10.481ZM4.473,15.837,5.61,16.974l1.443-1.452L5.917,14.385Z" transform="translate(-1.61 -0.886)" fill="#5b618a"/>
  </g>
  <g id="filter_drama_black_24dp">
    <path id="Path_7549" data-name="Path 7549" d="M0,0H30.975V33.026H0Z" fill="none"/>
    <path id="Path_7550" data-name="Path 7550" d="M24.973,18.137a12.888,12.888,0,0,0-.608-2.253,9.682,9.682,0,0,0-8.878-6.717,9.6,9.6,0,0,0-8.57,6C3.033,15.642,0,19.414,0,24.018c0,4.916,3.472,8.911,7.744,8.911H24.522c3.562,0,6.453-3.327,6.453-7.426C30.975,21.582,28.329,18.4,24.973,18.137Z" transform="translate(0 -4.535)" fill="#5b618a"/>
  </g>
</svg>
