<svg width="21" height="23" viewBox="0 0 21 23" fill="none" xmlns="http://www.w3.org/2000/svg">
<path d="M14 10.5V3.5L10.5 0L7 3.5V5.83333H0V22.1667H21V10.5H14ZM4.66667 19.8333H2.33333V17.5H4.66667V19.8333ZM4.66667 15.1667H2.33333V12.8333H4.66667V15.1667ZM4.66667 10.5H2.33333V8.16667H4.66667V10.5ZM11.6667 19.8333H9.33333V17.5H11.6667V19.8333ZM11.6667 15.1667H9.33333V12.8333H11.6667V15.1667ZM11.6667 10.5H9.33333V8.16667H11.6667V10.5ZM11.6667 5.83333H9.33333V3.5H11.6667V5.83333ZM18.6667 19.8333H16.3333V17.5H18.6667V19.8333ZM18.6667 15.1667H16.3333V12.8333H18.6667V15.1667Z" fill="#5B618A"/>
</svg>
