<svg width="24" height="24" viewBox="0 0 24 24" fill="none" xmlns="http://www.w3.org/2000/svg">
  <path id="right-half" d="M12 16.5V4.5L14 9.5L19.5 10L15 13.5L17 19.5L12 16.5Z" fill="#f8b400" />
  <path id="left-half" d="M12 16.5V4.5L9.5 9.5L4 10L9 13.5L7 19.5L12 16.5Z" fill="#f8b400" />
  <path id="full-star" d="M12.517 16.414L12 16.102L11.483 16.414L7.333 18.919L8.433 14.197L8.571 13.609L8.115 13.214L4.446 10.036L9.275 9.626L9.875 9.576L10.111 9.02L12 4.563L13.89 9.02L14.125 9.575L14.725 9.626L19.554 10.036L15.885 13.214L15.429 13.609L15.566 14.197L16.668 18.919L12.517 16.414V16.414Z" stroke="#f8b400" stroke-width="2" />
</svg>
