<svg width="137" height="94" viewBox="0 0 137 94" fill="none" xmlns="http://www.w3.org/2000/svg">
<g clip-path="url(#clip0_120_395)">
<path d="M74.6314 49.2406L55.5135 22.2951C54.0114 20.1779 50.6959 19.9261 48.1457 21.7355L15.6885 44.7639C13.1383 46.5733 12.2808 49.7859 13.7829 51.903L32.9008 78.8486C34.4029 80.9657 37.7185 81.2176 40.2687 79.4082L72.7258 56.3798C75.276 54.5704 76.1336 51.3578 74.6314 49.2406ZM38.1412 59.216L48.0475 60.897L50.0031 46.4596L68.6291 50.6057L36.172 73.6341L38.1412 59.216Z" fill="#5B618A"/>
</g>
<g clip-path="url(#clip1_120_395)">
<path d="M122.959 42.281L103.483 14.8307C101.953 12.6739 98.5751 12.4174 95.9771 14.2606L62.9121 37.7204C60.3141 39.5636 59.4405 42.8364 60.9708 44.9932L80.4468 72.4435C81.977 74.6003 85.3546 74.8568 87.9526 73.0135L121.018 49.5538C123.616 47.7106 124.489 44.4378 122.959 42.281ZM85.7853 52.4431L95.8771 54.1557L97.8693 39.4479L116.844 43.6716L83.7792 67.1313L85.7853 52.4431Z" fill="#5B618A"/>
</g>
<defs>
<clipPath id="clip0_120_395">
<rect width="68.2229" height="56.6378" fill="white" transform="translate(0 47.2143) rotate(-35.3558)"/>
</clipPath>
<clipPath id="clip1_120_395">
<rect width="69.5006" height="57.6987" fill="white" transform="translate(46.9297 40.2166) rotate(-35.3558)"/>
</clipPath>
</defs>
</svg>
