<svg id="mention" xmlns="http://www.w3.org/2000/svg" width="59.784" height="48.851" viewBox="0 0 59.784 48.851">
  <path id="Path_5376" data-name="Path 5376" d="M48.355,2.083H19.276V9.1H11.085v8.5H6.25V37.553c0,2.787,2.707,5.067,6.015,5.067h36.09c3.308,0,6.015-2.28,6.015-5.067V7.15C54.369,4.364,51.663,2.083,48.355,2.083Z" transform="translate(5.414 6.231)" fill="#5b618a"/>
  <path id="Path_5377" data-name="Path 5377" d="M8.748,8.575V0H14.58V8.575h8.748v5.717H14.58v8.575H8.748V14.292H0V8.575Z" transform="translate(0 0)" fill="#5b618a"/>
  <g id="alternate_email_black_24dp" transform="translate(24.618 17.419)">
    <path id="Path_5379" data-name="Path 5379" d="M13.238,1.083a12.155,12.155,0,1,0,0,24.31h6.078V22.963H13.238a9.849,9.849,0,0,1-9.724-9.724,9.849,9.849,0,0,1,9.724-9.724,9.849,9.849,0,0,1,9.724,9.724v1.738a1.965,1.965,0,0,1-1.823,1.908,1.965,1.965,0,0,1-1.823-1.908V13.238a6.08,6.08,0,1,0-1.775,4.291,4.5,4.5,0,0,0,3.6,1.787,4.27,4.27,0,0,0,4.254-4.339V13.238A12.16,12.16,0,0,0,13.238,1.083Zm0,15.8a3.647,3.647,0,1,1,3.647-3.647A3.642,3.642,0,0,1,13.238,16.885Z" transform="translate(-1.083 -1.083)" fill="#d4cce1"/>
  </g>
</svg>
