<svg xmlns="http://www.w3.org/2000/svg" width="283.255" height="255.93" viewBox="0 0 283.255 255.93">
  <g id="Clouds" transform="translate(-81.508 -59.618)">
    <path id="Intersection_9" data-name="Intersection 9" d="M-6073.546-2416.894a13.765,13.765,0,0,1-12.337.049q-.3-.151-.6-.317v-42.344l4.223-.52V-2666.06h265.344a18.723,18.723,0,0,1-2.14,1.485,18.933,18.933,0,0,1,6.263,19.922l-.181.627a18.725,18.725,0,0,1,9.643,18.382,18.724,18.724,0,0,1-13.237,15.987,13.774,13.774,0,0,1-4.775,11.377,13.764,13.764,0,0,1-11.972,2.982l-.014,0a16.627,16.627,0,0,1-3.645,3.216,18.83,18.83,0,0,1-2.484,10.908l-.327.565a18.726,18.726,0,0,1,4.91,20.168,18.722,18.722,0,0,1-16.71,12.311,13.769,13.769,0,0,1-7.384,9.883,13.764,13.764,0,0,1-12.336,0l-.015-.006a16.666,16.666,0,0,1-2.432,1.459,18.925,18.925,0,0,1,.922,20.383l-.326.565a18.73,18.73,0,0,1,4.911,20.168,18.72,18.72,0,0,1-16.71,12.309,13.774,13.774,0,0,1-7.386,9.885,13.768,13.768,0,0,1-12.336,0l-.014-.008a16.539,16.539,0,0,1-9.278,3.132,18.876,18.876,0,0,1-8.163,13.072l-.541.365a18.728,18.728,0,0,1-4.425,20.28,18.719,18.719,0,0,1-20.414,3.736,13.764,13.764,0,0,1-10.97,5.645,13.763,13.763,0,0,1-11.086-5.412l-.009-.014a16.506,16.506,0,0,1-8.2-.65l-.457.185a18.727,18.727,0,0,1-8.544,18.917,18.716,18.716,0,0,1-20.745-.592,13.758,13.758,0,0,1-11.9,3.241,13.77,13.77,0,0,1-9.72-7.6l-.006-.014a16.557,16.557,0,0,1-11.73-5.515,18.727,18.727,0,0,1-12.779,13.774,18.7,18.7,0,0,1-5.479.821A18.718,18.718,0,0,1-6073.546-2416.894Z" transform="translate(6167.992 2725.679)" fill="#e6e6e6" opacity="0.36"/>
    <path id="Intersection_8" data-name="Intersection 8" d="M-6059.144-2410.132a18.716,18.716,0,0,1-14.4-6.762,13.771,13.771,0,0,1-3.938,1.294v-234.936h262.017a16.135,16.135,0,0,1,1.059,11.515l-.164.568c6.668,3.474,10.624,10.193,10.027,17.036s-5.621,12.478-12.748,14.284a11.5,11.5,0,0,1-4.462,10.28,14.1,14.1,0,0,1-11.812,2.43l-.014,0a14.946,14.946,0,0,1-3.367,2.748,18.841,18.841,0,0,1-2.511,10.5l-.327.564a18.733,18.733,0,0,1,4.911,20.168,18.723,18.723,0,0,1-16.71,12.311,13.768,13.768,0,0,1-7.387,9.882,13.761,13.761,0,0,1-12.335,0l-.015-.009a16.472,16.472,0,0,1-2.431,1.459,18.93,18.93,0,0,1,.921,20.384l-.326.565a18.73,18.73,0,0,1,4.911,20.168,18.723,18.723,0,0,1-16.71,12.309,13.765,13.765,0,0,1-7.386,9.883,13.764,13.764,0,0,1-12.336,0l-.014-.009a16.53,16.53,0,0,1-9.278,3.135,18.876,18.876,0,0,1-8.163,13.071l-.54.363a18.733,18.733,0,0,1-4.427,20.282,18.719,18.719,0,0,1-20.414,3.736,13.766,13.766,0,0,1-10.97,5.645,13.769,13.769,0,0,1-11.088-5.412l-.007-.012a16.54,16.54,0,0,1-8.2-.65l-.457.182a18.728,18.728,0,0,1-8.544,18.918,18.716,18.716,0,0,1-20.745-.592,13.762,13.762,0,0,1-11.9,3.241,13.771,13.771,0,0,1-9.72-7.6l-.006-.015a16.553,16.553,0,0,1-11.73-5.516,18.725,18.725,0,0,1-12.779,13.774,18.655,18.655,0,0,1-5.471.821Z" transform="translate(6158.992 2710.154)" fill="#e8deeb"/>
  </g>
</svg>
