<svg id="Done" xmlns="http://www.w3.org/2000/svg" width="171" height="171" viewBox="0 0 171 171">
  <g id="freepik--speech-bubble--inject-81">
    <path id="Path_3360" data-name="Path 3360" d="M262.038,39.536A85.459,85.459,0,0,0,247.358,209.2c.7,1.829,27.854,1.4,28.391.024A85.459,85.459,0,0,0,261.943,39.418Zm78.684,85.681a78.359,78.359,0,0,1-21.453,53.751l-6.561,6.2A78.812,78.812,0,0,1,201.786,73.893l6.348-6.5a78.862,78.862,0,0,1,132.658,57.827Z" transform="translate(-176.472 -39.418)" fill="#5b618a"/>
    <path id="Path_3361" data-name="Path 3361" d="M335.39,119.645a78.253,78.253,0,0,1-21.429,53.683l-6.554,6.19a78.719,78.719,0,0,1-110.8-111.132l6.341-6.5a78.777,78.777,0,0,1,132.512,57.755Z" transform="translate(-171.229 -33.845)" fill="none"/>
  </g>
  <g id="freepik--Check--inject-81" transform="translate(32.512 45.448)">
    <path id="Path_3362" data-name="Path 3362" d="M223.64,139.484a12.459,12.459,0,0,1-9.111-3.946l-28.266-30.2a12.469,12.469,0,1,1,18.2-17.05l18.366,19.609,43.475-55a12.483,12.483,0,0,1,19.585,15.472L233.445,134.8a12.459,12.459,0,0,1-9.278,4.783Z" transform="translate(-182.893 -48.369)" fill="#5b618a"/>
  </g>
</svg>
