<svg width="1149" height="399" viewBox="0 0 1149 399" fill="none" xmlns="http://www.w3.org/2000/svg">
<path d="M430.319 183.468C430.319 181.417 430.148 179.659 429.807 178.194C429.465 176.729 428.854 175.533 427.976 174.605C427.146 173.678 425.974 172.994 424.46 172.555C422.946 172.115 421.018 171.896 418.674 171.896C415.451 171.896 411.325 172.262 406.296 172.994L405.417 166.476C409.958 165.646 414.914 164.791 420.285 163.912C425.705 163.033 431.247 162.228 436.911 161.495C442.624 160.763 448.337 160.177 454.05 159.737C459.812 159.249 465.329 159.005 470.603 159.005C477.683 159.005 484.25 159.64 490.305 160.909C496.359 162.13 501.608 164.205 506.052 167.135C510.495 170.016 513.986 173.824 516.525 178.561C519.064 183.297 520.334 189.181 520.334 196.212C520.334 202.706 519.26 208.663 517.111 214.083C515.012 219.454 512.009 224.264 508.103 228.512C504.245 232.76 499.558 236.397 494.04 239.425C488.522 242.452 482.37 244.845 475.583 246.603C480.661 255.294 485.275 262.936 489.426 269.527C493.576 276.119 497.385 281.905 500.852 286.886C504.318 291.817 507.492 296.065 510.373 299.63C513.254 303.146 515.964 306.197 518.503 308.785C520.505 310.885 522.385 312.667 524.143 314.132C525.9 315.548 527.585 316.695 529.196 317.574C530.856 318.453 532.517 319.088 534.177 319.479C535.837 319.869 537.57 320.064 539.377 320.064C541.33 320.064 543.186 319.869 544.943 319.479C546.701 319.088 548.63 318.502 550.729 317.721L552.78 323.727C546.579 326.559 541.086 328.658 536.301 330.025C531.516 331.441 527.512 332.149 524.289 332.149C522.678 332.149 521.14 331.954 519.675 331.563C518.21 331.222 516.77 330.685 515.354 329.952C513.938 329.22 512.521 328.292 511.105 327.169C509.689 325.997 508.176 324.63 506.564 323.067C503.928 320.577 500.876 317.208 497.409 312.96C493.942 308.663 490.012 303.316 485.617 296.92C481.271 290.475 476.438 282.857 471.115 274.068C465.793 265.279 459.934 255.123 453.537 243.6L453.684 242.647C462.326 242.306 469.626 241.109 475.583 239.059C481.54 237.008 486.35 234.225 490.012 230.709C493.723 227.193 496.408 223.019 498.068 218.185C499.729 213.302 500.559 207.857 500.559 201.852C500.559 190.328 497.531 181.71 491.477 175.997C485.422 170.284 476.462 167.428 464.597 167.428C462.058 167.428 459.641 167.525 457.346 167.721C455.051 167.916 452.512 168.185 449.729 168.526C449.631 172.286 449.484 177.315 449.289 183.614C449.143 189.913 448.947 197.164 448.703 205.367C448.508 213.521 448.264 222.481 447.971 232.247C447.678 241.964 447.385 252.145 447.092 262.789C446.799 273.385 446.481 284.298 446.14 295.528C445.798 306.71 445.456 317.867 445.114 329L427.756 331.197L426.438 331.051C427.023 317.037 427.561 303.756 428.049 291.207C428.537 278.658 428.928 266.451 429.221 254.586C429.562 242.672 429.831 230.904 430.026 219.283C430.222 207.613 430.319 195.675 430.319 183.468ZM566.55 289.156C564.792 294.137 563.254 298.482 561.936 302.193C560.666 305.855 559.543 309.054 558.566 311.788C557.59 314.522 556.735 316.891 556.003 318.893C555.271 320.846 554.587 322.628 553.952 324.239C553.171 326.095 552.292 327.535 551.315 328.561C550.339 329.586 549.289 330.318 548.166 330.758C547.043 331.246 545.822 331.515 544.504 331.563C543.186 331.661 541.794 331.71 540.329 331.71C539.499 331.71 538.474 331.686 537.253 331.637C535.983 331.637 534.836 331.612 533.811 331.563L532.785 330.831C538.645 318.136 544.187 306.002 549.411 294.43C554.685 282.857 559.763 271.773 564.646 261.178C563.62 259.566 563.107 258.224 563.107 257.149C563.107 255.196 564.67 254.195 567.795 254.146C576.73 234.518 584.689 217.232 591.672 202.291C598.654 187.301 604.807 174.776 610.129 164.718C610.617 163.79 611.252 163.033 612.033 162.447C612.814 161.812 613.669 161.324 614.597 160.982C615.524 160.641 616.501 160.396 617.526 160.25C618.552 160.104 619.553 160.03 620.529 160.03C621.945 160.03 623.337 160.152 624.704 160.396C626.071 160.641 627.536 161.104 629.099 161.788C632.175 178.731 634.982 193.99 637.521 207.564C640.109 221.09 642.502 233.15 644.699 243.746C646.896 254.342 648.972 263.595 650.925 271.505C652.878 279.366 654.758 286.129 656.564 291.793C658.371 297.408 660.178 302.047 661.984 305.709C663.791 309.371 665.646 312.252 667.551 314.352C669.504 316.451 671.555 317.916 673.703 318.746C675.852 319.576 678.195 319.991 680.734 319.991C682.395 319.991 684.079 319.796 685.788 319.405C687.497 319.015 689.377 318.453 691.428 317.721L693.479 323.727C687.863 326.51 682.492 328.634 677.365 330.099C672.238 331.563 667.697 332.296 663.742 332.296C661.496 332.296 659.372 331.881 657.37 331.051C655.417 330.221 653.513 328.805 651.657 326.803C649.851 324.752 648.068 322.018 646.311 318.6C644.602 315.182 642.868 310.885 641.11 305.709C639.353 300.533 637.546 294.381 635.69 287.252C633.835 280.074 631.882 271.749 629.831 262.276C620.798 262.374 611.862 262.594 603.024 262.936C594.235 263.229 585.129 263.644 575.705 264.181C573.801 269.21 572.067 273.824 570.505 278.023C568.991 282.223 567.673 285.934 566.55 289.156ZM627.927 253.268C626.901 248.434 625.803 243.087 624.631 237.228C623.459 231.319 622.263 225.094 621.042 218.551C619.821 211.959 618.576 205.099 617.307 197.97C616.037 190.841 614.792 183.614 613.571 176.29H613.132C606.101 190.841 599.826 204.684 594.309 217.818C588.791 230.953 583.884 243.038 579.587 254.073C587.985 253.878 596.115 253.731 603.977 253.634C611.838 253.487 619.821 253.365 627.927 253.268ZM710.91 183.541C710.91 181.441 710.739 179.684 710.397 178.268C710.104 176.803 709.519 175.606 708.64 174.679C707.81 173.751 706.638 173.092 705.124 172.701C703.61 172.262 701.657 172.042 699.265 172.042C697.702 172.042 695.944 172.14 693.991 172.335C692.038 172.481 689.816 172.701 687.326 172.994L686.594 166.183C691.379 165.45 695.822 164.815 699.924 164.278C704.025 163.692 707.858 163.204 711.423 162.813C715.036 162.374 718.405 162.057 721.53 161.861C724.655 161.666 727.609 161.568 730.393 161.568C738.4 161.568 745.92 161.52 752.951 161.422C759.982 161.275 766.208 161.153 771.628 161.056C777.048 160.909 781.491 160.787 784.958 160.689C788.425 160.543 790.573 160.47 791.403 160.47C793.649 160.47 795.358 161.007 796.53 162.081C797.751 163.106 798.361 164.718 798.361 166.915C798.361 167.794 798.264 169.503 798.068 172.042C797.922 174.581 797.702 177.511 797.409 180.831C797.165 184.103 796.872 187.569 796.53 191.231C796.188 194.894 795.822 198.312 795.432 201.485L788.4 201.266C788.498 199.41 788.571 197.677 788.62 196.065C788.669 194.454 788.693 192.94 788.693 191.524C788.693 187.423 788.449 184.103 787.961 181.563C787.473 178.976 786.569 176.949 785.251 175.484C783.981 174.02 782.224 173.019 779.978 172.481C777.731 171.944 774.875 171.651 771.408 171.603C768.869 171.554 766.501 171.529 764.304 171.529C762.155 171.48 760.056 171.456 758.005 171.456H742.99C742.111 171.456 741.208 171.456 740.28 171.456C739.401 171.456 738.474 171.48 737.497 171.529C736.521 171.529 735.446 171.554 734.274 171.603C733.103 171.603 731.809 171.627 730.393 171.676C730.197 179.928 729.953 189.889 729.66 201.559C729.367 213.18 729.025 226.168 728.635 240.523C734.982 240.816 740.646 241.036 745.627 241.183C750.656 241.28 755.246 241.329 759.396 241.329C764.475 241.329 768.967 241.183 772.873 240.89C776.828 240.548 780.563 240.035 784.079 239.352C784.86 241.5 785.251 243.429 785.251 245.138C785.251 246.554 784.812 247.75 783.933 248.727C783.054 249.703 781.784 250.484 780.124 251.07C778.513 251.656 776.535 252.096 774.191 252.389C771.896 252.633 769.309 252.755 766.428 252.755C761.301 252.755 755.49 252.486 748.996 251.949C742.551 251.363 735.666 250.655 728.342 249.825C728.146 255.831 727.927 262.081 727.683 268.575C727.487 275.069 727.292 281.661 727.097 288.351C726.901 295.04 726.682 301.803 726.438 308.639C726.242 315.475 726.047 322.262 725.852 329L708.493 331.197L707.175 331.051C707.761 317.037 708.273 303.756 708.713 291.207C709.201 278.658 709.592 266.451 709.885 254.586C710.227 242.721 710.471 230.978 710.617 219.356C710.812 207.687 710.91 195.748 710.91 183.541ZM827.878 183.834C827.878 181.539 827.756 179.586 827.512 177.975C827.316 176.314 826.828 174.972 826.047 173.946C825.266 172.921 824.143 172.188 822.678 171.749C821.262 171.261 819.357 171.017 816.965 171.017C815.354 171.017 813.376 171.114 811.032 171.31C808.688 171.456 806.247 171.725 803.708 172.115L802.976 166.036C810.153 164.181 816.306 162.813 821.433 161.935C826.608 161.056 830.881 160.616 834.25 160.616C837.473 160.616 839.938 161.056 841.647 161.935C843.405 162.765 844.675 164.034 845.456 165.743C846.286 167.403 846.774 169.454 846.921 171.896C847.067 174.337 847.141 177.12 847.141 180.245C847.141 181.319 847.067 184.2 846.921 188.888C846.823 193.526 846.652 199.508 846.408 206.832C846.213 214.107 845.969 222.481 845.676 231.954C845.383 241.427 845.065 251.51 844.724 262.203C844.431 272.848 844.113 283.858 843.771 295.235C843.43 306.612 843.088 317.867 842.746 329L825.388 331.197L824.069 331.051C824.655 317.037 825.168 303.78 825.607 291.28C826.096 278.731 826.511 266.549 826.853 254.732C827.194 242.867 827.438 231.148 827.585 219.576C827.78 207.955 827.878 196.041 827.878 183.834ZM1148.83 362.032C1143.99 368.722 1139.11 374.386 1134.18 379.024C1129.25 383.663 1124.29 387.423 1119.31 390.304C1114.33 393.233 1109.3 395.357 1104.22 396.676C1099.19 397.994 1094.16 398.653 1089.13 398.653C1083.42 398.653 1077.66 397.945 1071.85 396.529C1066.09 395.113 1060.32 393.209 1054.56 390.816C1048.85 388.473 1043.14 385.738 1037.42 382.613C1031.71 379.488 1026.05 376.192 1020.43 372.726C1014.82 369.308 1009.25 365.816 1003.73 362.252C998.215 358.736 992.771 355.367 987.399 352.145C982.077 348.971 976.828 346.065 971.652 343.429C966.477 340.841 961.423 338.741 956.491 337.13C953.757 336.251 951.12 335.519 948.581 334.933C946.091 334.396 943.649 333.932 941.257 333.541C938.913 333.15 936.618 332.784 934.372 332.442C932.126 332.101 929.953 331.71 927.854 331.271C920.09 329.708 913.01 326.9 906.613 322.848C900.266 318.746 894.821 313.399 890.28 306.808C885.739 300.216 882.224 292.403 879.733 283.37C877.243 274.288 875.998 264.01 875.998 252.535C875.998 244.137 876.682 235.934 878.049 227.926C879.416 219.918 881.467 212.374 884.201 205.294C886.936 198.165 890.329 191.646 894.382 185.738C898.435 179.781 903.171 174.654 908.591 170.357C914.011 166.061 920.09 162.716 926.828 160.323C933.566 157.931 940.964 156.734 949.021 156.734C958.835 156.734 967.844 158.443 976.047 161.861C984.25 165.279 991.306 170.357 997.214 177.096C1003.17 183.834 1007.79 192.232 1011.06 202.291C1014.38 212.35 1016.04 223.995 1016.04 237.228C1016.04 244.698 1015.5 251.998 1014.43 259.127C1013.35 266.256 1011.74 273.043 1009.59 279.488C1007.44 285.885 1004.73 291.866 1001.46 297.433C998.239 302.999 994.479 307.979 990.183 312.374C985.935 316.769 981.125 320.504 975.754 323.58C970.432 326.607 964.572 328.829 958.176 330.245V330.831C963.596 331.954 969.113 333.541 974.729 335.592C980.344 337.643 986.008 339.962 991.721 342.55C997.482 345.138 1003.27 347.896 1009.08 350.826C1014.89 353.756 1020.72 356.661 1026.58 359.542C1032.49 362.472 1038.38 365.255 1044.24 367.892C1050.14 370.577 1056.03 372.921 1061.89 374.923C1067.75 376.974 1073.56 378.609 1079.32 379.83C1085.13 381.051 1090.89 381.661 1096.6 381.661C1100.9 381.661 1105.12 381.246 1109.27 380.416C1113.47 379.635 1117.6 378.341 1121.65 376.534C1125.75 374.776 1129.76 372.457 1133.66 369.576C1137.57 366.695 1141.38 363.204 1145.09 359.103L1148.83 362.032ZM946.311 323.507C951.975 323.507 957.126 322.579 961.765 320.724C966.403 318.868 970.529 316.256 974.143 312.887C977.805 309.518 980.979 305.44 983.664 300.655C986.35 295.87 988.547 290.548 990.256 284.688C992.014 278.78 993.308 272.433 994.138 265.646C995.017 258.858 995.456 251.729 995.456 244.259C995.456 230.978 994.138 219.454 991.501 209.688C988.913 199.874 985.373 191.769 980.881 185.372C976.389 178.927 971.14 174.142 965.134 171.017C959.177 167.843 952.829 166.256 946.091 166.256C940.427 166.256 935.275 167.184 930.637 169.039C925.998 170.895 921.848 173.507 918.186 176.876C914.572 180.245 911.423 184.322 908.737 189.107C906.052 193.893 903.83 199.239 902.072 205.147C900.363 211.007 899.069 217.354 898.19 224.19C897.36 230.978 896.945 238.082 896.945 245.504C896.945 258.785 898.239 270.333 900.827 280.147C903.464 289.913 907.028 298.019 911.521 304.464C916.013 310.86 921.237 315.646 927.194 318.819C933.2 321.944 939.572 323.507 946.311 323.507Z" fill="#5B618A"/>
<path d="M174.772 357.06C171.128 361.551 167.836 365.519 165 368.889C162.164 365.519 158.872 361.551 155.228 357.06C142.569 341.463 125.716 319.642 108.893 294.707C92.0406 269.73 75.4034 241.901 63.025 214.27C50.5584 186.443 42.9167 159.918 42.9167 137.25C42.9167 69.7469 97.4968 15.1667 165 15.1667C232.503 15.1667 287.083 69.7469 287.083 137.25C287.083 159.918 279.442 186.443 266.975 214.27C254.597 241.901 237.959 269.73 221.107 294.707C204.284 319.642 187.431 341.463 174.772 357.06Z" stroke="#5B618A" stroke-width="30"/>
<path d="M125.921 250.506L353.44 137.587L370.32 171.598L142.8 284.517L125.921 250.506Z" fill="#EBEBEB"/>
<rect x="107.392" y="235.891" width="52" height="68" transform="rotate(61.381 107.392 235.891)" fill="#EBEBEB"/>
<path d="M109.5 278.5C133 278.5 251.708 212.984 363.5 157C363.5 149.16 352.5 153.086 352.5 153.086C302.975 175.263 264.802 190.759 218.174 206.245C181.658 218.373 93.4999 242.5 93.4999 242.5L66 251.5L68 257C68 257 85.9999 278.5 109.5 278.5Z" fill="#5B618A"/>
<path d="M17.8064 120.601C17.8064 120.601 27.108 114.191 27.0531 117.595C26.9788 122.194 31.4273 128.763 31.4273 128.763C31.4273 128.763 40.276 141.61 46 148.5C59.0511 164.21 89.5804 174.454 89.5804 174.454L74.8469 194.09C74.8469 194.09 36.9771 170.341 21.9003 146.464C17.1029 138.866 11.2164 125.876 11.2164 125.876L17.8064 120.601Z" fill="#EBEBEB"/>
<path d="M232.5 249C219.585 231.182 227.973 224.5 240.473 237.5C252.973 250.5 237.959 316 237.959 316L237.78 319.56C237.78 319.56 238.394 310.795 237.959 299.479C237.411 285.228 239.699 258.932 232.5 249Z" fill="#EBEBEB"/>
<path d="M232.5 248L240 254.889V310H230C230 310 234.375 289.333 234.375 278.735C234.375 268.137 232.5 248 232.5 248Z" fill="#EBEBEB"/>
<path d="M118.689 281.025L145 301.437L152 328C152 328 145.503 318.645 140 314C125.292 301.586 92.3438 301.437 92.3438 301.437L118.689 281.025Z" fill="#EBEBEB"/>
<path d="M325.337 154.052L346.074 156.808L323.894 167.226L339.171 160.051C339.171 160.051 336.991 161.075 336.446 158.869C335.901 156.664 325.337 154.052 325.337 154.052Z" fill="#5B618A"/>
<path d="M406.5 133L412.129 139.75H400.871L406.5 133Z" fill="#E5E5E5"/>
<path d="M182 393.77C182 403.838 168.982 393.77 160 393.77C151.018 393.77 149.475 403.838 149.475 393.77C149.475 387.856 147.552 380.642 151.446 377.311C155.881 380.252 161.82 386.714 165.737 386.714C169.654 386.714 178.525 374.959 179.51 377.311C182 383.253 182 387.471 182 393.77Z" fill="#EBEBEB"/>
<path d="M33.5 154.5C37.5 160.5 59 183.5 59 183.5L40.5 170.5L29.3731 157.164L28.0025 144.916C28.0025 144.916 29.5 148.5 33.5 154.5Z" fill="#5B618A"/>
<ellipse cx="97.3329" cy="234.084" rx="9.5" ry="12" transform="rotate(15.3197 97.3329 234.084)" fill="#EBEBEB"/>
<path d="M99.5 231C88 252.5 137.68 166 137.68 166" stroke="#5B618A" stroke-width="11" stroke-miterlimit="10"/>
<path d="M178.272 178.669C147.569 185.653 116.974 166.238 109.937 135.304C102.901 104.37 122.086 73.6307 152.789 66.6463C183.493 59.662 214.087 79.0771 221.124 110.011C228.161 140.946 208.976 171.685 178.272 178.669Z" stroke="#5B618A" stroke-width="11" stroke-miterlimit="10" stroke-linecap="square"/>
<rect x="96" y="228" width="7" height="5" fill="#5B618A"/>
</svg>
