<svg width="582" height="582" viewBox="0 0 582 582" fill="none" xmlns="http://www.w3.org/2000/svg">
<rect x="22" y="22" width="538" height="538" rx="100" fill="#5B618A"/>
<g clip-path="url(#clip0_44_3)">
<path d="M305.877 492.693C300.124 499.781 295.079 505.822 291 510.626C286.921 505.822 281.876 499.781 276.123 492.693C260.403 473.323 239.466 446.214 218.559 415.228C197.624 384.198 176.903 349.551 161.462 315.085C145.933 280.422 136.25 247.043 136.25 218.25C136.25 132.687 205.437 63.5 291 63.5C376.563 63.5 445.75 132.687 445.75 218.25C445.75 247.043 436.067 280.422 420.538 315.085C405.097 349.551 384.376 384.198 363.441 415.228C342.534 446.214 321.597 473.323 305.877 492.693Z" stroke="white" stroke-width="30"/>
<path d="M242.608 358.495L524.345 218.667L545.247 260.782L263.51 400.61L242.608 358.495Z" fill="#5B618A"/>
<rect x="219.665" y="340.397" width="64.3915" height="84.2043" transform="rotate(61.381 219.665 340.397)" fill="#5B618A"/>
<path d="M222.274 393.16C251.374 393.159 398.371 312.03 536.802 242.706C536.802 232.998 523.181 237.86 523.181 237.86C461.855 265.321 414.585 284.509 356.845 303.686C311.627 318.704 202.462 348.581 202.462 348.581L168.408 359.726L170.885 366.536C170.885 366.536 193.174 393.16 222.274 393.16Z" fill="white"/>
<path d="M108.73 197.634C108.73 197.634 120.249 189.696 120.181 193.911C120.089 199.606 125.597 207.74 125.597 207.74C125.597 207.74 136.555 223.649 143.643 232.181C159.804 251.634 197.608 264.319 197.608 264.319L179.364 288.635C179.364 288.635 132.47 259.226 113.8 229.66C107.859 220.252 100.57 204.166 100.57 204.166L108.73 197.634Z" fill="#5B618A"/>
<path d="M374.585 356.63C358.593 334.566 368.979 326.291 384.458 342.389C399.936 358.487 381.345 439.596 381.345 439.596L381.124 444.004C381.124 444.004 381.884 433.15 381.345 419.137C380.666 401.491 383.499 368.928 374.585 356.63Z" fill="#5B618A"/>
<path d="M374.585 355.391L383.872 363.922V432.166H371.489C371.489 432.166 376.907 406.574 376.907 393.451C376.907 380.327 374.585 355.391 374.585 355.391Z" fill="#5B618A"/>
<path d="M233.653 396.286L266.234 421.562L274.902 454.455C274.902 454.455 266.857 442.87 260.043 437.119C241.829 421.747 201.03 421.562 201.03 421.562L233.653 396.286Z" fill="#5B618A"/>
<path d="M489.545 239.056L515.224 242.468L487.759 255.369L506.675 246.484C506.675 246.484 503.976 247.752 503.301 245.021C502.626 242.29 489.545 239.056 489.545 239.056Z" fill="white"/>
<path d="M581.87 210.626L582.778 223.642C582.778 223.642 581.518 220.894 578.285 219.179C575.771 217.845 570.236 217.321 567.14 217.94C562.014 218.966 581.87 210.626 581.87 210.626Z" fill="#5B618A"/>
<path d="M312.051 535.898C312.051 548.366 295.93 535.898 284.809 535.898C273.687 535.898 271.775 548.366 271.775 535.898C271.775 528.575 269.394 519.642 274.216 515.517C279.708 519.158 287.063 527.16 291.913 527.16C296.763 527.16 307.748 512.604 308.968 515.517C312.051 522.875 312.051 528.098 312.051 535.898Z" fill="#5B618A"/>
<path d="M128.164 239.611C133.117 247.04 159.74 275.521 159.74 275.521L136.832 259.423L123.053 242.91L121.356 227.742C121.356 227.742 123.211 232.181 128.164 239.611Z" fill="#E5E5E5"/>
<ellipse cx="207.208" cy="338.159" rx="11.7638" ry="14.8596" transform="rotate(15.3197 207.208 338.159)" fill="#5B618A"/>
<path d="M209.892 334.34C195.651 360.964 257.17 253.851 257.17 253.851" stroke="white" stroke-width="11" stroke-miterlimit="10"/>
<path d="M307.435 269.539C269.415 278.188 231.53 254.146 222.816 215.84C214.102 177.534 237.86 139.47 275.88 130.822C313.9 122.173 351.785 146.215 360.498 184.52C369.212 222.826 345.455 260.89 307.435 269.539Z" stroke="white" stroke-width="11" stroke-miterlimit="10" stroke-linecap="square"/>
<rect x="205.557" y="330.625" width="8.66809" height="6.19149" fill="#E5E5E5"/>
</g>
<defs>
<clipPath id="clip0_44_3">
<rect width="582" height="582" fill="white"/>
</clipPath>
</defs>
</svg>
