<svg width="436" height="204" viewBox="0 0 436 204" fill="none" xmlns="http://www.w3.org/2000/svg">
<g filter="url(#filter0_i_847_100)">
<path d="M234.324 0L125.826 0.000462296H21.5543L1.82727 102.869C1.82727 102.869 -8.88256 148.694 21.5543 184.508C51.9911 220.322 100.563 171.195 151.189 162.665C151.189 162.665 238.264 216.204 294.209 201.418C336.025 190.365 368.302 156.518 353.39 115.915C334.368 64.1174 429.254 184.508 435.821 75.049C440.048 4.5908 368.243 14.2277 340.709 0.000559056C322.391 0.000559056 325.782 -0.000106277 313.936 2.15022e-05C273.073 0.000462296 284.079 0.000462296 273.073 0.000462296C250.528 0.000462296 234.324 0 234.324 0Z" fill="#AEAEC7"/>
</g>
<defs>
<filter id="filter0_i_847_100" x="0" y="-4" width="440" height="208" filterUnits="userSpaceOnUse" color-interpolation-filters="sRGB">
<feFlood flood-opacity="0" result="BackgroundImageFix"/>
<feBlend mode="normal" in="SourceGraphic" in2="BackgroundImageFix" result="shape"/>
<feColorMatrix in="SourceAlpha" type="matrix" values="0 0 0 0 0 0 0 0 0 0 0 0 0 0 0 0 0 0 127 0" result="hardAlpha"/>
<feOffset dx="4" dy="-4"/>
<feGaussianBlur stdDeviation="2"/>
<feComposite in2="hardAlpha" operator="arithmetic" k2="-1" k3="1"/>
<feColorMatrix type="matrix" values="0 0 0 0 0.356863 0 0 0 0 0.380392 0 0 0 0 0.541176 0 0 0 1 0"/>
<feBlend mode="normal" in2="shape" result="effect1_innerShadow_847_100"/>
</filter>
</defs>
</svg>
