<svg xmlns="http://www.w3.org/2000/svg" xmlns:xlink="http://www.w3.org/1999/xlink" width="21" height="23" viewBox="0 0 21 23">
  <defs>
    <clipPath id="clip-path">
      <rect id="Rectangle_123" data-name="Rectangle 123" width="21" height="23" fill="#fff" stroke="#707070" stroke-width="1"/>
    </clipPath>
  </defs>
  <g id="calander" clip-path="url(#clip-path)">
    <g id="calendar_month_black_24dp" transform="translate(0 1)">
      <g id="Group_185" data-name="Group 185" transform="translate(0 0)">
        <rect id="Rectangle_124" data-name="Rectangle 124" width="21" height="20" transform="translate(0 0)" fill="none"/>
      </g>
      <g id="Group_186" data-name="Group 186" transform="translate(2.557 1.452)">
        <path id="Path_1461" data-name="Path 1461" d="M22.427,7.333h-.878V5.583H19.792V7.333H12.766V5.583H11.01V7.333h-.878A1.745,1.745,0,0,0,8.384,9.082L8.375,21.326a1.752,1.752,0,0,0,1.756,1.749h12.3a1.758,1.758,0,0,0,1.756-1.749V9.082A1.758,1.758,0,0,0,22.427,7.333Zm0,13.994h-12.3V12.58h12.3Zm-8.782-5.248H11.888V14.329h1.756Zm3.513,0H15.4V14.329h1.756Zm3.513,0H18.914V14.329H20.67Zm-7.026,3.5H11.888V17.828h1.756Zm3.513,0H15.4V17.828h1.756Zm3.513,0H18.914V17.828H20.67Z" transform="translate(-8.375 -5.583)" fill="#6e75a0"/>
      </g>
    </g>
  </g>
</svg>
