<?xml version="1.0" encoding="utf-8"?>
<svg width="15px" height="14px" viewBox="0 0 15 14" version="1.1" xmlns:xlink="http://www.w3.org/1999/xlink" xmlns="http://www.w3.org/2000/svg">
  <path d="M4.9 5.761C6.55433 5.70068 7.94668 6.98802 8.016 8.642C7.94614 10.2956 6.55396 11.5823 4.9 11.522C3.24566 11.5823 1.85332 10.295 1.784 8.641C1.85386 6.98741 3.24604 5.70067 4.9 5.761L4.9 5.761ZM4.9 4.115C2.29739 4.01357 0.104526 6.03951 0 8.642C0.104524 11.2445 2.29738 13.2704 4.9 13.169C7.50261 13.2704 9.69547 11.2445 9.8 8.642C9.79719 7.71512 9.49405 6.8141 8.93601 6.07401L12.47 2.815L12.47 4.938L14.251 4.938L14.251 0L8.9 0L8.9 1.646L11.2 1.646L7.666 4.913C6.83932 4.38788 5.87935 4.11093 4.9 4.115L4.9 4.115Z" id="Path_1458" fill="#6E75A0" fill-rule="evenodd" stroke="none" />
</svg>