<svg xmlns="http://www.w3.org/2000/svg" xmlns:xlink="http://www.w3.org/1999/xlink" width="21" height="21" viewBox="0 0 21 21">
  <defs>
    <clipPath id="clip-path">
      <rect id="Rectangle_120" data-name="Rectangle 120" width="21" height="21" fill="#fff" stroke="#707070" stroke-width="1"/>
    </clipPath>
  </defs>
  <g id="Mask_Group_5" data-name="Mask Group 5" clip-path="url(#clip-path)">
    <g id="male_black_24dp" transform="translate(0 1.038)">
      <rect id="Rectangle_121" data-name="Rectangle 121" width="21.366" height="19.752" fill="none"/>
      <path id="Path_1458" data-name="Path 1458" d="M12.9,13.761a3.009,3.009,0,0,1,3.116,2.881A3.009,3.009,0,0,1,12.9,19.522a3.009,3.009,0,0,1-3.116-2.881A3.009,3.009,0,0,1,12.9,13.761Zm0-1.646A4.72,4.72,0,0,0,8,16.642a4.72,4.72,0,0,0,4.9,4.527,4.72,4.72,0,0,0,4.9-4.527,4.287,4.287,0,0,0-.864-2.568l3.534-3.259v2.123h1.781V8H16.9V9.646h2.3l-3.534,3.267A5.119,5.119,0,0,0,12.9,12.115Z" transform="translate(-4.439 -4.708)" fill="#6e75a0"/>
    </g>
  </g>
</svg>
