<svg width="615" height="619" viewBox="0 0 615 619" fill="none" xmlns="http://www.w3.org/2000/svg">
<ellipse cx="292" cy="313.5" rx="292" ry="305.5" fill="#5B618A"/>
<path d="M158.838 454.936C158.838 454.047 158.764 453.286 158.616 452.651C158.468 452.016 158.204 451.498 157.823 451.096C157.463 450.694 156.955 450.397 156.299 450.207C155.643 450.017 154.808 449.921 153.792 449.921C152.396 449.921 150.608 450.08 148.428 450.397L148.047 447.573C150.015 447.213 152.163 446.843 154.49 446.462C156.839 446.081 159.24 445.732 161.695 445.415C164.17 445.097 166.646 444.843 169.122 444.653C171.618 444.441 174.009 444.335 176.294 444.335C179.362 444.335 182.208 444.611 184.832 445.161C187.456 445.69 189.73 446.589 191.656 447.858C193.581 449.107 195.094 450.757 196.194 452.81C197.295 454.862 197.845 457.412 197.845 460.458C197.845 463.273 197.379 465.854 196.448 468.203C195.538 470.53 194.237 472.614 192.544 474.455C190.873 476.296 188.842 477.872 186.451 479.184C184.06 480.496 181.394 481.533 178.453 482.294C180.653 486.061 182.653 489.372 184.451 492.229C186.25 495.085 187.9 497.592 189.402 499.75C190.905 501.888 192.28 503.728 193.528 505.273C194.777 506.796 195.951 508.119 197.051 509.24C197.919 510.15 198.733 510.922 199.495 511.557C200.257 512.171 200.987 512.668 201.685 513.049C202.404 513.43 203.124 513.705 203.843 513.874C204.563 514.043 205.314 514.128 206.097 514.128C206.943 514.128 207.747 514.043 208.509 513.874C209.271 513.705 210.106 513.451 211.016 513.112L211.905 515.715C209.218 516.942 206.837 517.852 204.764 518.444C202.69 519.058 200.955 519.365 199.559 519.365C198.86 519.365 198.194 519.28 197.559 519.111C196.924 518.963 196.3 518.73 195.687 518.413C195.073 518.095 194.459 517.693 193.846 517.207C193.232 516.699 192.576 516.106 191.878 515.429C190.735 514.35 189.413 512.89 187.911 511.049C186.408 509.187 184.705 506.87 182.801 504.099C180.918 501.306 178.823 498.005 176.517 494.196C174.21 490.388 171.671 485.987 168.899 480.993L168.963 480.581C172.708 480.432 175.871 479.914 178.453 479.025C181.034 478.137 183.118 476.931 184.705 475.407C186.313 473.884 187.477 472.075 188.196 469.98C188.916 467.864 189.275 465.505 189.275 462.902C189.275 457.909 187.964 454.174 185.34 451.699C182.716 449.223 178.833 447.985 173.692 447.985C172.592 447.985 171.544 448.028 170.55 448.112C169.555 448.197 168.455 448.313 167.249 448.461C167.207 450.091 167.143 452.27 167.059 455C166.995 457.729 166.91 460.871 166.805 464.426C166.72 467.959 166.614 471.842 166.487 476.074C166.36 480.284 166.233 484.696 166.106 489.309C165.979 493.9 165.842 498.629 165.694 503.496C165.546 508.341 165.398 513.176 165.25 518L157.728 518.952L157.156 518.889C157.41 512.816 157.643 507.061 157.854 501.623C158.066 496.185 158.235 490.896 158.362 485.754C158.51 480.591 158.627 475.492 158.711 470.456C158.796 465.399 158.838 460.226 158.838 454.936ZM217.872 500.734C217.11 502.893 216.443 504.776 215.872 506.384C215.322 507.971 214.835 509.357 214.412 510.542C213.989 511.726 213.619 512.753 213.301 513.62C212.984 514.466 212.688 515.239 212.413 515.937C212.074 516.741 211.693 517.365 211.27 517.81C210.847 518.254 210.392 518.571 209.905 518.762C209.419 518.973 208.89 519.09 208.318 519.111C207.747 519.153 207.144 519.174 206.509 519.174C206.15 519.174 205.705 519.164 205.176 519.143C204.626 519.143 204.129 519.132 203.685 519.111L203.24 518.793C205.779 513.292 208.181 508.034 210.445 503.02C212.73 498.005 214.931 493.202 217.046 488.61C216.602 487.912 216.38 487.33 216.38 486.865C216.38 486.018 217.057 485.585 218.411 485.563C222.283 477.058 225.732 469.567 228.758 463.093C231.784 456.597 234.45 451.17 236.756 446.811C236.967 446.409 237.243 446.081 237.581 445.827C237.92 445.552 238.29 445.34 238.692 445.192C239.094 445.044 239.517 444.938 239.961 444.875C240.406 444.812 240.84 444.78 241.263 444.78C241.876 444.78 242.479 444.833 243.072 444.938C243.664 445.044 244.299 445.245 244.976 445.542C246.309 452.884 247.526 459.496 248.626 465.378C249.747 471.239 250.784 476.465 251.736 481.057C252.688 485.648 253.588 489.658 254.434 493.085C255.28 496.492 256.095 499.423 256.878 501.877C257.661 504.31 258.444 506.32 259.227 507.907C260.009 509.494 260.813 510.743 261.639 511.652C262.485 512.562 263.374 513.197 264.305 513.557C265.236 513.916 266.251 514.096 267.352 514.096C268.071 514.096 268.801 514.012 269.542 513.842C270.282 513.673 271.097 513.43 271.985 513.112L272.874 515.715C270.441 516.921 268.113 517.841 265.892 518.476C263.67 519.111 261.702 519.428 259.988 519.428C259.015 519.428 258.095 519.248 257.227 518.889C256.381 518.529 255.556 517.915 254.751 517.048C253.969 516.159 253.196 514.974 252.435 513.493C251.694 512.012 250.943 510.15 250.181 507.907C249.419 505.664 248.637 502.998 247.833 499.909C247.028 496.799 246.182 493.191 245.293 489.086C241.379 489.129 237.507 489.224 233.677 489.372C229.869 489.499 225.923 489.679 221.839 489.912C221.014 492.091 220.263 494.09 219.585 495.91C218.93 497.73 218.358 499.338 217.872 500.734ZM244.468 485.183C244.024 483.088 243.548 480.771 243.04 478.232C242.532 475.672 242.014 472.974 241.485 470.139C240.956 467.282 240.416 464.309 239.866 461.22C239.316 458.131 238.777 455 238.248 451.826H238.057C235.01 458.131 232.291 464.13 229.9 469.821C227.509 475.513 225.383 480.75 223.521 485.532C227.16 485.447 230.683 485.384 234.09 485.341C237.496 485.278 240.956 485.225 244.468 485.183ZM280.428 454.968C280.428 454.058 280.354 453.296 280.206 452.683C280.079 452.048 279.825 451.529 279.444 451.127C279.084 450.725 278.576 450.44 277.92 450.271C277.264 450.08 276.418 449.985 275.381 449.985C274.704 449.985 273.943 450.027 273.096 450.112C272.25 450.175 271.287 450.271 270.208 450.397L269.891 447.446C271.964 447.128 273.89 446.853 275.667 446.621C277.444 446.367 279.105 446.155 280.65 445.986C282.216 445.795 283.676 445.658 285.03 445.573C286.384 445.489 287.664 445.446 288.87 445.446C292.34 445.446 295.599 445.425 298.646 445.383C301.692 445.319 304.39 445.266 306.739 445.224C309.087 445.161 311.013 445.108 312.515 445.065C314.017 445.002 314.948 444.97 315.308 444.97C316.281 444.97 317.022 445.203 317.53 445.668C318.059 446.113 318.323 446.811 318.323 447.763C318.323 448.144 318.281 448.885 318.196 449.985C318.133 451.085 318.038 452.355 317.911 453.793C317.805 455.211 317.678 456.713 317.53 458.3C317.382 459.887 317.223 461.368 317.054 462.744L314.007 462.648C314.049 461.844 314.081 461.093 314.102 460.395C314.123 459.697 314.134 459.041 314.134 458.427C314.134 456.65 314.028 455.211 313.816 454.111C313.605 452.989 313.213 452.111 312.642 451.477C312.092 450.842 311.33 450.408 310.357 450.175C309.384 449.943 308.146 449.816 306.644 449.794C305.543 449.773 304.517 449.763 303.565 449.763C302.634 449.742 301.724 449.731 300.835 449.731H294.329C293.948 449.731 293.557 449.731 293.155 449.731C292.774 449.731 292.372 449.742 291.949 449.763C291.526 449.763 291.06 449.773 290.552 449.794C290.044 449.794 289.484 449.805 288.87 449.826C288.785 453.402 288.68 457.718 288.553 462.775C288.426 467.811 288.278 473.439 288.108 479.66C290.859 479.787 293.313 479.882 295.472 479.946C297.651 479.988 299.64 480.009 301.438 480.009C303.639 480.009 305.586 479.946 307.278 479.819C308.992 479.671 310.611 479.449 312.134 479.152C312.473 480.083 312.642 480.919 312.642 481.66C312.642 482.273 312.452 482.792 312.071 483.215C311.69 483.638 311.14 483.977 310.42 484.23C309.722 484.484 308.865 484.675 307.85 484.802C306.855 484.908 305.734 484.96 304.485 484.96C302.264 484.96 299.746 484.844 296.932 484.611C294.139 484.357 291.155 484.051 287.981 483.691C287.897 486.293 287.802 489.002 287.696 491.816C287.611 494.63 287.527 497.486 287.442 500.385C287.357 503.284 287.262 506.215 287.156 509.177C287.072 512.139 286.987 515.08 286.902 518L279.38 518.952L278.809 518.889C279.063 512.816 279.285 507.061 279.476 501.623C279.687 496.185 279.856 490.896 279.983 485.754C280.132 480.612 280.237 475.524 280.301 470.488C280.385 465.431 280.428 460.257 280.428 454.968ZM331.114 455.095C331.114 454.1 331.061 453.254 330.955 452.556C330.87 451.836 330.659 451.254 330.32 450.81C329.982 450.366 329.495 450.048 328.86 449.858C328.247 449.646 327.422 449.541 326.385 449.541C325.687 449.541 324.83 449.583 323.814 449.667C322.798 449.731 321.74 449.847 320.64 450.017L320.323 447.382C323.433 446.578 326.099 445.986 328.321 445.605C330.564 445.224 332.415 445.034 333.875 445.034C335.271 445.034 336.34 445.224 337.081 445.605C337.842 445.965 338.392 446.515 338.731 447.255C339.091 447.975 339.302 448.863 339.366 449.921C339.429 450.979 339.461 452.185 339.461 453.54C339.461 454.005 339.429 455.253 339.366 457.285C339.323 459.295 339.249 461.887 339.144 465.061C339.059 468.213 338.953 471.842 338.826 475.947C338.699 480.052 338.562 484.421 338.414 489.055C338.287 493.667 338.149 498.439 338.001 503.369C337.853 508.299 337.705 513.176 337.557 518L330.035 518.952L329.463 518.889C329.717 512.816 329.939 507.071 330.13 501.655C330.341 496.217 330.521 490.938 330.669 485.817C330.818 480.676 330.923 475.598 330.987 470.583C331.071 465.547 331.114 460.384 331.114 455.095ZM470.191 532.314C468.096 535.213 465.98 537.667 463.843 539.677C461.706 541.687 459.559 543.317 457.4 544.565C455.242 545.834 453.063 546.755 450.862 547.326C448.683 547.897 446.504 548.183 444.324 548.183C441.849 548.183 439.352 547.876 436.834 547.263C434.337 546.649 431.84 545.824 429.344 544.787C426.868 543.771 424.393 542.587 421.917 541.232C419.441 539.878 416.987 538.45 414.554 536.948C412.12 535.467 409.708 533.954 407.317 532.409C404.926 530.886 402.567 529.426 400.24 528.029C397.933 526.654 395.659 525.395 393.416 524.252C391.173 523.131 388.983 522.221 386.846 521.523C385.661 521.142 384.519 520.825 383.418 520.571C382.339 520.338 381.281 520.137 380.245 519.968C379.229 519.799 378.235 519.64 377.261 519.492C376.288 519.344 375.346 519.174 374.437 518.984C371.072 518.307 368.004 517.09 365.232 515.334C362.482 513.557 360.123 511.24 358.155 508.383C356.187 505.527 354.664 502.141 353.584 498.227C352.505 494.292 351.966 489.838 351.966 484.865C351.966 481.226 352.262 477.671 352.854 474.201C353.447 470.731 354.336 467.462 355.521 464.394C356.705 461.305 358.176 458.48 359.932 455.92C361.688 453.339 363.741 451.117 366.089 449.255C368.438 447.393 371.072 445.944 373.992 444.907C376.912 443.87 380.118 443.352 383.609 443.352C387.862 443.352 391.766 444.092 395.32 445.573C398.875 447.054 401.932 449.255 404.493 452.175C407.074 455.095 409.074 458.734 410.491 463.093C411.93 467.451 412.649 472.498 412.649 478.232C412.649 481.469 412.417 484.632 411.951 487.722C411.486 490.811 410.787 493.752 409.856 496.545C408.925 499.317 407.751 501.909 406.333 504.321C404.937 506.733 403.308 508.891 401.446 510.795C399.605 512.7 397.521 514.318 395.193 515.651C392.887 516.963 390.348 517.926 387.576 518.54V518.793C389.925 519.28 392.316 519.968 394.749 520.856C397.182 521.745 399.637 522.75 402.112 523.872C404.609 524.993 407.116 526.188 409.634 527.458C412.152 528.728 414.681 529.986 417.22 531.235C419.78 532.504 422.33 533.71 424.869 534.853C427.429 536.017 429.979 537.032 432.518 537.9C435.057 538.789 437.575 539.497 440.071 540.026C442.589 540.555 445.086 540.82 447.562 540.82C449.424 540.82 451.254 540.64 453.052 540.28C454.872 539.942 456.66 539.381 458.416 538.598C460.193 537.836 461.928 536.831 463.621 535.583C465.314 534.335 466.964 532.822 468.572 531.044L470.191 532.314ZM382.435 515.62C384.889 515.62 387.121 515.218 389.131 514.414C391.141 513.61 392.929 512.478 394.495 511.018C396.082 509.558 397.457 507.791 398.621 505.717C399.785 503.644 400.737 501.337 401.478 498.798C402.239 496.238 402.8 493.487 403.16 490.546C403.541 487.605 403.731 484.516 403.731 481.279C403.731 475.524 403.16 470.53 402.017 466.298C400.896 462.045 399.362 458.533 397.415 455.761C395.468 452.968 393.194 450.895 390.591 449.541C388.01 448.165 385.259 447.478 382.339 447.478C379.885 447.478 377.653 447.88 375.643 448.684C373.632 449.488 371.834 450.62 370.247 452.08C368.681 453.54 367.317 455.306 366.153 457.38C364.989 459.453 364.026 461.77 363.265 464.331C362.524 466.87 361.963 469.62 361.583 472.583C361.223 475.524 361.043 478.602 361.043 481.818C361.043 487.574 361.604 492.578 362.725 496.831C363.868 501.062 365.412 504.575 367.359 507.368C369.306 510.139 371.569 512.213 374.151 513.588C376.753 514.943 379.515 515.62 382.435 515.62Z" fill="white"/>
<g clip-path="url(#clip0_12_127)">
<path d="M162.917 176.25C162.917 108.747 217.497 54.1667 285 54.1667C352.503 54.1667 407.083 108.747 407.083 176.25C407.083 198.918 399.442 225.443 386.975 253.27C374.597 280.9 357.959 308.729 341.107 333.707C324.284 358.642 307.431 380.463 294.772 396.06C291.128 400.551 287.836 404.519 285 407.889C282.164 404.519 278.872 400.551 275.228 396.06C262.569 380.463 245.716 358.642 228.893 333.707C212.041 308.729 195.403 280.9 183.025 253.27C170.558 225.443 162.917 198.918 162.917 176.25Z" stroke="white" stroke-width="30"/>
<path d="M245.921 289.506L473.44 176.587L490.32 210.597L262.8 323.517L245.921 289.506Z" fill="#5B618A"/>
<rect x="227.392" y="274.891" width="52" height="68" transform="rotate(61.381 227.392 274.891)" fill="#5B618A"/>
<path d="M229.5 317.5C253 317.5 371.708 251.983 483.5 196C483.5 188.16 472.5 192.086 472.5 192.086C422.975 214.263 384.802 229.758 338.174 245.245C301.658 257.373 213.5 281.5 213.5 281.5L186 290.5L188 296C188 296 206 317.5 229.5 317.5Z" fill="white"/>
<path d="M137.806 159.601C137.806 159.601 147.108 153.191 147.053 156.595C146.979 161.194 151.427 167.763 151.427 167.763C151.427 167.763 160.276 180.61 166 187.5C179.051 203.21 209.58 213.454 209.58 213.454L194.847 233.09C194.847 233.09 156.977 209.341 141.9 185.464C137.103 177.866 131.216 164.876 131.216 164.876L137.806 159.601Z" fill="#5B618A"/>
<path d="M352.5 288C339.585 270.182 347.973 263.5 360.473 276.5C372.973 289.5 357.959 355 357.959 355L357.78 358.56C357.78 358.56 358.394 349.795 357.959 338.479C357.411 324.228 359.699 297.932 352.5 288Z" fill="#5B618A"/>
<path d="M352.5 287L360 293.889V349H350C350 349 354.375 328.333 354.375 317.735C354.375 307.137 352.5 287 352.5 287Z" fill="#5B618A"/>
<path d="M238.689 320.025L265 340.437L272 367C272 367 265.503 357.645 260 353C245.292 340.586 212.344 340.437 212.344 340.437L238.689 320.025Z" fill="#5B618A"/>
<path d="M445.337 193.052L466.074 195.808L443.894 206.226L459.171 199.051C459.171 199.051 456.991 200.074 456.446 197.869C455.901 195.664 445.337 193.052 445.337 193.052Z" fill="white"/>
<path d="M519.895 170.093L520.628 180.605C520.628 180.605 519.611 178.385 517 177C514.97 175.923 510.5 175.5 508 176C503.86 176.828 519.895 170.093 519.895 170.093Z" fill="#5B618A"/>
<path d="M302 432.77C302 442.838 288.982 432.77 280 432.77C271.018 432.77 269.475 442.838 269.475 432.77C269.475 426.856 267.552 419.642 271.446 416.311C275.881 419.252 281.82 425.714 285.737 425.714C289.654 425.714 298.525 413.959 299.51 416.311C302 422.253 302 426.471 302 432.77Z" fill="#5B618A"/>
<path d="M153.5 193.5C157.5 199.5 179 222.5 179 222.5L160.5 209.5L149.373 196.164L148.003 183.915C148.003 183.915 149.5 187.5 153.5 193.5Z" fill="#E5E5E5"/>
<ellipse cx="217.333" cy="273.084" rx="9.5" ry="12" transform="rotate(15.3197 217.333 273.084)" fill="#5B618A"/>
<path d="M219.5 270C208 291.5 257.68 205 257.68 205" stroke="white" stroke-width="11" stroke-miterlimit="10"/>
<path d="M298.272 217.669C267.569 224.653 236.974 205.238 229.938 174.304C222.901 143.37 242.086 112.631 272.789 105.646C303.493 98.662 334.087 118.077 341.124 149.011C348.161 179.946 328.976 210.685 298.272 217.669Z" stroke="white" stroke-width="11" stroke-miterlimit="10" stroke-linecap="square"/>
<rect x="216" y="267" width="7" height="5" fill="#E5E5E5"/>
</g>
<defs>
<clipPath id="clip0_12_127">
<rect width="470" height="470" fill="white" transform="translate(50)"/>
</clipPath>
</defs>
</svg>
