<svg id="svg" width="537" height="334" viewBox="0 0 537 334" fill="none" xmlns="http://www.w3.org/2000/svg">
<g id="group">
<path id="c1-cat" d="M370.313 56.0062C357.175 69.1514 341.578 79.5787 324.412 86.6927C307.246 93.8068 288.848 97.4684 270.268 97.4684C251.687 97.4684 233.289 93.8068 216.123 86.6927C198.958 79.5786 183.36 69.1513 170.222 56.0062L226.199 0C231.986 5.79028 238.856 10.3834 246.418 13.5171C253.979 16.6508 262.083 18.2636 270.268 18.2636C278.452 18.2636 286.556 16.6508 294.118 13.5171C301.679 10.3834 308.549 5.79031 314.337 2.73423e-05L370.313 56.0062Z" fill="#ECFC87"/>
<g id="c1">
<path d="M259.807 69.2865C257.609 69.2865 255.716 68.7673 254.129 67.7288C252.541 66.6903 251.32 65.2598 250.465 63.4374C249.611 61.6149 249.183 59.5329 249.183 57.1912C249.183 54.8088 249.621 52.7063 250.496 50.8839C251.381 49.0512 252.613 47.6208 254.19 46.5925C255.777 45.554 257.629 45.0347 259.746 45.0347C261.394 45.0347 262.88 45.3402 264.203 45.951C265.526 46.5619 266.61 47.4171 267.454 48.5167C268.299 49.6163 268.823 50.8991 269.026 52.3652H265.424C265.149 51.2962 264.539 50.3494 263.592 49.5247C262.656 48.6898 261.394 48.2724 259.807 48.2724C258.403 48.2724 257.171 48.6389 256.113 49.372C255.065 50.0948 254.246 51.118 253.656 52.4416C253.076 53.755 252.786 55.2975 252.786 57.069C252.786 58.8813 253.07 60.4594 253.64 61.8033C254.22 63.1472 255.034 64.1908 256.083 64.934C257.141 65.6773 258.382 66.0489 259.807 66.0489C260.743 66.0489 261.593 65.886 262.356 65.5602C263.119 65.2344 263.765 64.7661 264.294 64.1552C264.824 63.5443 265.2 62.8112 265.424 61.956H269.026C268.823 63.3407 268.319 64.5879 267.515 65.6976C266.721 66.7972 265.668 67.6728 264.356 68.3244C263.053 68.9658 261.537 69.2865 259.807 69.2865Z" fill="#837E16"/>
<path d="M285.221 37.5209V68.7978H281.436V41.4916H281.253L273.621 46.5619V42.7134L281.436 37.5209H285.221Z" fill="#837E16"/>
</g>
<path id="c2-cat" d="M536.953 222.735C501.696 258.01 459.84 285.992 413.775 305.083C367.71 324.174 318.337 334 268.477 334C218.616 334 169.243 324.174 123.178 305.083C77.1128 285.992 35.2568 258.01 0 222.734L150.216 72.4393C165.746 87.9777 184.183 100.304 204.474 108.713C224.766 117.122 246.514 121.451 268.477 121.451C290.44 121.451 312.188 117.122 332.479 108.713C352.77 100.304 371.207 87.9778 386.738 72.4394L536.953 222.735Z" fill="#F9AAAA"/>
<g id="c2">
<path d="M256.225 234.142C254.027 234.142 252.134 233.623 250.547 232.584C248.959 231.546 247.738 230.115 246.884 228.293C246.029 226.47 245.601 224.388 245.601 222.047C245.601 219.664 246.039 217.562 246.914 215.739C247.799 213.907 249.031 212.476 250.608 211.448C252.195 210.409 254.047 209.89 256.164 209.89C257.812 209.89 259.298 210.196 260.621 210.806C261.944 211.417 263.028 212.273 263.872 213.372C264.717 214.472 265.241 215.755 265.444 217.221H261.842C261.567 216.152 260.957 215.205 260.01 214.38C259.074 213.545 257.812 213.128 256.225 213.128C254.821 213.128 253.589 213.494 252.531 214.227C251.483 214.95 250.664 215.973 250.074 217.297C249.494 218.61 249.204 220.153 249.204 221.924C249.204 223.737 249.489 225.315 250.058 226.659C250.638 228.003 251.453 229.046 252.501 229.789C253.559 230.533 254.8 230.904 256.225 230.904C257.161 230.904 258.011 230.741 258.774 230.416C259.537 230.09 260.183 229.621 260.713 229.011C261.242 228.4 261.618 227.667 261.842 226.811H265.444C265.241 228.196 264.737 229.443 263.933 230.553C263.14 231.653 262.086 232.528 260.774 233.18C259.471 233.821 257.955 234.142 256.225 234.142Z" fill="#660606"/>
<path d="M270.649 233.653V230.904L280.968 219.603C282.179 218.28 283.176 217.129 283.959 216.152C284.743 215.164 285.323 214.238 285.7 213.372C286.086 212.497 286.28 211.58 286.28 210.623C286.28 209.524 286.015 208.572 285.486 207.767C284.967 206.963 284.255 206.342 283.349 205.904C282.443 205.466 281.426 205.247 280.296 205.247C279.095 205.247 278.047 205.497 277.152 205.996C276.266 206.484 275.58 207.172 275.091 208.058C274.613 208.943 274.374 209.982 274.374 211.173H270.771C270.771 209.34 271.194 207.732 272.038 206.347C272.883 204.962 274.033 203.883 275.488 203.109C276.953 202.336 278.597 201.949 280.418 201.949C282.25 201.949 283.873 202.336 285.287 203.109C286.702 203.883 287.811 204.927 288.615 206.24C289.419 207.554 289.821 209.015 289.821 210.623C289.821 211.774 289.612 212.899 289.195 213.998C288.788 215.088 288.076 216.304 287.058 217.648C286.051 218.982 284.651 220.611 282.86 222.535L275.839 230.049V230.293H290.37V233.653H270.649Z" fill="#660606"/>
</g>
</g>
</svg>
